M48
;Layer_Color=6321
;FILE_FORMAT=2:5
INCH,LZ
;TYPE=PLATED
T1F00S00C0.01181
T2F00S00C0.03150
T3F00S00C0.03937
T4F00S00C0.04000
T5F00S00C0.04724
T6F00S00C0.08661
;TYPE=NON_PLATED
T7F00S00C0.23228
T8F00S00C0.24016
T9F00S00C0.31890
%
T01
X0600394Y0427165
X0603346
X0606299
X0614173
X0617126
X0620079
Y0438976
X0617126
X0614173
X0606299
X0603346
X0600394
X0797244
X0800197
X080315
X0811024
X0813976
X0816929
Y0427165
X0813976
X0811024
X080315
X0800197
X0797244
X0994094
X0997047
X1
X1007874
X1010827
X101378
Y0438976
X1010827
X1007874
X1
X0997047
X0994094
X111811Y0541181
Y0546181
Y0561181
Y0584488
Y0589488
Y0591929
Y0599488
Y0601968
Y0604488
X1133858Y0601968
X1135827Y0599488
X1137795Y0591929
X1086614Y0594488
Y0609488
Y0622795
Y0579488
Y0566181
Y0551181
Y0536181
X0997126Y0515748
Y0512795
Y0509842
Y050689
Y0503937
Y0500984
X0992126
Y0503937
Y050689
Y0509842
Y0512795
X0992126Y0515679
X0987126Y0515748
Y0512795
X0987205Y0509842
X0987126Y050689
X0987205Y0503937
Y0500984
X0907087Y0576772
Y0579724
Y0582677
Y0590551
Y0593504
Y0596457
X0800276Y0515748
Y0512795
Y0509842
Y050689
Y0503937
Y0500984
X0795276
X0795276Y0503937
Y050689
Y0509842
Y0512795
Y0515748
X0790276
Y0512795
X0790354Y0509842
X0790276Y050689
X0790354Y0503937
Y0500984
X0777559Y0564567
X0774606
X0771654
X0763779
X0760827
X0757874
X0628346Y0576772
Y0579724
Y0582677
Y0590551
Y0593504
Y0596457
X0603425Y0515748
Y0512795
Y0509842
Y050689
Y0503937
Y0500984
X0598425
Y0503937
Y050689
Y0509842
Y0512795
X0598425Y0515679
X0593425Y0515748
Y0512795
X0593504Y0509842
X0593425Y050689
X0593504Y0503937
Y0500984
X0444685Y0635827
X0440945Y067126
X0427165Y0665354
X0409449Y067126
X1062992Y0683071
X1086614Y0652795
Y0637795
X111811Y0635236
Y0632795
Y0627795
Y0642795
Y0645276
Y0647795
X1133858Y0645276
X1135827Y0642795
X1137795Y0635236
X1135827Y0692913
X1133858Y0697835
X1137795Y0702756
X1137795Y0895079
X1135827Y0902638
X1133858Y0905118
X111811
Y0902638
Y0907638
Y0895079
Y0892638
Y0887638
Y0930945
Y0935945
X1086614Y0925945
Y0912638
Y0897638
Y0882638
X0997126Y0883858
Y0886811
Y0889764
X0992126Y0889695
X0992126Y0886811
Y0883858
Y0880906
Y0877953
Y0875
X0987205
Y0877953
X0987126Y0880906
X0987205Y0883858
X0987126Y0886811
Y0889764
X0997126Y0880906
Y0877953
Y0875
X0997047Y0812992
X1
X0994094
Y0801181
X0997047
X1
X1007874
X1010827
X101378
Y0812992
X1010827
X1007874
X0816929
X0813976
X0811024
X080315
X0800197
X0797244
Y0801181
X0800197
X080315
X0811024
X0813976
X0816929
X0800276Y0875
Y0877953
Y0880906
Y0883858
Y0886811
Y0889764
X0795276Y0889695
Y0886811
Y0883858
Y0880906
Y0877953
Y0875
X0790354
Y0877953
X0790276Y0880906
X0790354Y0883858
X0790276Y0886811
Y0889764
X0777559Y0800787
X0774606
X0771654
X0763779
X0760827
X0757874
X0620079Y0801181
X0617126
X0614173
X0606299
X0603346
X0600394
Y0812992
X0603346
X0606299
X0614173
X0617126
X0620079
X0603425Y0875
Y0877953
Y0880906
Y0883858
Y0886811
Y0889764
X0598425Y0889695
X0598425Y0886811
Y0883858
Y0880906
Y0877953
Y0875
X0593504
Y0877953
X0593425Y0880906
X0593504Y0883858
X0593425Y0886811
Y0889764
X0456693Y0933071
X0429134Y0872047
X0628346Y0938976
Y0941929
Y0944882
Y0952756
Y0955709
Y0958661
X0907087
Y0955709
Y0952756
Y0944882
Y0941929
Y0938976
X1086614Y0940945
Y0955945
Y0969252
Y0984252
Y0999252
X111811Y0994252
Y0991732
Y0989252
Y0981693
Y0979252
Y0974252
Y0950945
Y0948425
Y0945945
Y0938386
X1137795
X1135827Y0945945
X1133858Y0948425
X1137795Y0981693
X1135827Y0989252
X1133858Y0991732
T02
X0426772Y0974409
Y0984252
Y0994094
X043937
Y0984252
Y0974409
T03
X0424213Y0912402
X0441929
Y0937992
X0424213
T04
X0452756Y0565551
Y0575551
Y0585551
Y0595551
Y0605551
Y0615551
X1105236Y0687717
Y0697717
Y0707717
Y0717717
Y0727717
Y0737717
Y0747717
Y0757717
Y0767717
Y0777717
X1115236
Y0767717
Y0757717
Y0747717
Y0737717
Y0727717
Y0717717
Y0707717
Y0697717
Y0687717
Y0787717
Y0797717
Y0807717
Y0817717
Y0827717
Y0837716
Y0847717
X1105236
Y0837716
Y0827717
Y0817717
Y0807717
Y0797717
Y0787717
T05
X0468386Y0709134
Y0749134
X0508386
Y0709134
Y0784134
Y0824134
X0468386
Y0784134
T06
X0492047Y0729134
Y0804134
T07
X0610236Y0728346
X0925197
Y1102362
X0610236
T08
X0464567Y0417323
X1035433
X111811Y0464567
X0417323Y05
Y1070866
X111811Y1035433
X1070866Y111811
X05
T09
X0669291Y0767717
X0866142
M30
