G04*
G04 #@! TF.GenerationSoftware,Altium Limited,CircuitStudio,1.5.2 (30)*
G04*
G04 Layer_Color=20142*
%FSLAX25Y25*%
%MOIN*%
G70*
G01*
G75*
%ADD44R,0.04343X0.03556*%
%ADD45R,0.04343X0.03162*%
%ADD46R,0.05918X0.05761*%
%ADD47R,0.04737X0.02965*%
%ADD48R,0.03713X0.11784*%
%ADD49R,0.05446X0.03084*%
%ADD50R,0.03162X0.04343*%
%ADD51C,0.08200*%
%ADD52C,0.06706*%
%ADD53C,0.08674*%
%ADD54C,0.24422*%
%ADD55C,0.14579*%
%ADD56C,0.24816*%
%ADD57C,0.32690*%
D44*
X429134Y868701D02*
D03*
Y863583D02*
D03*
X460630Y662795D02*
D03*
Y667913D02*
D03*
X409449D02*
D03*
Y662795D02*
D03*
X440945Y667913D02*
D03*
Y662795D02*
D03*
X1122047Y565551D02*
D03*
Y560433D02*
D03*
Y608858D02*
D03*
Y603740D02*
D03*
Y647047D02*
D03*
Y652165D02*
D03*
Y906890D02*
D03*
Y912008D02*
D03*
Y950197D02*
D03*
Y955315D02*
D03*
X775591Y902953D02*
D03*
Y908071D02*
D03*
X972441Y528937D02*
D03*
Y534055D02*
D03*
X578740Y528937D02*
D03*
Y534055D02*
D03*
Y902953D02*
D03*
Y908071D02*
D03*
X1122047Y993504D02*
D03*
Y998622D02*
D03*
X440945Y868701D02*
D03*
Y863583D02*
D03*
X456693Y922638D02*
D03*
Y927756D02*
D03*
X421260Y954134D02*
D03*
Y959252D02*
D03*
X972441Y908071D02*
D03*
Y902953D02*
D03*
X775591Y534055D02*
D03*
Y528937D02*
D03*
D45*
X420079Y661614D02*
D03*
Y669095D02*
D03*
X430315Y661614D02*
D03*
Y665354D02*
D03*
Y669095D02*
D03*
D46*
X992205Y417815D02*
D03*
Y448327D02*
D03*
X598504Y417815D02*
D03*
Y448327D02*
D03*
X795354Y417815D02*
D03*
Y448327D02*
D03*
X992205Y791831D02*
D03*
Y822342D02*
D03*
X795354Y791831D02*
D03*
Y822342D02*
D03*
X598504Y791831D02*
D03*
Y822342D02*
D03*
D47*
X1003937Y427165D02*
D03*
Y431102D02*
D03*
Y435039D02*
D03*
Y438976D02*
D03*
X610236Y427165D02*
D03*
Y431102D02*
D03*
Y435039D02*
D03*
Y438976D02*
D03*
X807087Y427165D02*
D03*
Y431102D02*
D03*
Y435039D02*
D03*
Y438976D02*
D03*
X1003937Y801181D02*
D03*
Y805118D02*
D03*
Y809055D02*
D03*
Y812992D02*
D03*
X807087Y801181D02*
D03*
Y805118D02*
D03*
Y809055D02*
D03*
Y812992D02*
D03*
X610236Y801181D02*
D03*
Y805118D02*
D03*
Y809055D02*
D03*
Y812992D02*
D03*
D48*
X1002126Y539508D02*
D03*
Y523484D02*
D03*
X997126Y539508D02*
D03*
Y523484D02*
D03*
X992126Y539508D02*
D03*
Y523484D02*
D03*
X987126Y539508D02*
D03*
Y523484D02*
D03*
X982126Y539508D02*
D03*
Y523484D02*
D03*
X608425Y539508D02*
D03*
Y523484D02*
D03*
X603425Y539508D02*
D03*
Y523484D02*
D03*
X598425Y539508D02*
D03*
Y523484D02*
D03*
X593425Y539508D02*
D03*
Y523484D02*
D03*
X588425Y539508D02*
D03*
Y523484D02*
D03*
X805276Y539508D02*
D03*
Y523484D02*
D03*
X800276Y539508D02*
D03*
Y523484D02*
D03*
X795276Y539508D02*
D03*
Y523484D02*
D03*
X790276Y539508D02*
D03*
Y523484D02*
D03*
X785276Y539508D02*
D03*
Y523484D02*
D03*
X1002126Y913524D02*
D03*
Y897500D02*
D03*
X997126Y913524D02*
D03*
Y897500D02*
D03*
X992126Y913524D02*
D03*
Y897500D02*
D03*
X987126Y913524D02*
D03*
Y897500D02*
D03*
X982126Y913524D02*
D03*
Y897500D02*
D03*
X805276Y913524D02*
D03*
Y897500D02*
D03*
X800276Y913524D02*
D03*
Y897500D02*
D03*
X795276Y913524D02*
D03*
Y897500D02*
D03*
X790276Y913524D02*
D03*
Y897500D02*
D03*
X785276Y913524D02*
D03*
Y897500D02*
D03*
X608425Y913524D02*
D03*
Y897500D02*
D03*
X603425Y913524D02*
D03*
Y897500D02*
D03*
X598425Y913524D02*
D03*
Y897500D02*
D03*
X593425Y913524D02*
D03*
Y897500D02*
D03*
X588425Y913524D02*
D03*
Y897500D02*
D03*
D49*
X1091890Y566181D02*
D03*
Y561181D02*
D03*
Y556181D02*
D03*
Y551181D02*
D03*
Y546181D02*
D03*
Y541181D02*
D03*
Y536181D02*
D03*
X1112835D02*
D03*
Y541181D02*
D03*
Y546181D02*
D03*
Y551181D02*
D03*
Y556181D02*
D03*
Y561181D02*
D03*
Y566181D02*
D03*
X1091890Y609488D02*
D03*
Y604488D02*
D03*
Y599488D02*
D03*
Y594488D02*
D03*
Y589488D02*
D03*
Y584488D02*
D03*
Y579488D02*
D03*
X1112835D02*
D03*
Y584488D02*
D03*
Y589488D02*
D03*
Y594488D02*
D03*
Y599488D02*
D03*
Y604488D02*
D03*
Y609488D02*
D03*
X1091890Y652795D02*
D03*
Y647795D02*
D03*
Y642795D02*
D03*
Y637795D02*
D03*
Y632795D02*
D03*
Y627795D02*
D03*
Y622795D02*
D03*
X1112835D02*
D03*
Y627795D02*
D03*
Y632795D02*
D03*
Y637795D02*
D03*
Y642795D02*
D03*
Y647795D02*
D03*
Y652795D02*
D03*
X1091890Y912638D02*
D03*
Y907638D02*
D03*
Y902638D02*
D03*
Y897638D02*
D03*
Y892638D02*
D03*
Y887638D02*
D03*
Y882638D02*
D03*
X1112835D02*
D03*
Y887638D02*
D03*
Y892638D02*
D03*
Y897638D02*
D03*
Y902638D02*
D03*
Y907638D02*
D03*
Y912638D02*
D03*
X1091890Y955945D02*
D03*
Y950945D02*
D03*
Y945945D02*
D03*
Y940945D02*
D03*
Y935945D02*
D03*
Y930945D02*
D03*
Y925945D02*
D03*
X1112835D02*
D03*
Y930945D02*
D03*
Y935945D02*
D03*
Y940945D02*
D03*
Y945945D02*
D03*
Y950945D02*
D03*
Y955945D02*
D03*
X1091890Y999252D02*
D03*
Y994252D02*
D03*
Y989252D02*
D03*
Y984252D02*
D03*
Y979252D02*
D03*
Y974252D02*
D03*
Y969252D02*
D03*
X1112835D02*
D03*
Y974252D02*
D03*
Y979252D02*
D03*
Y984252D02*
D03*
Y989252D02*
D03*
Y994252D02*
D03*
Y999252D02*
D03*
D50*
X440945Y650787D02*
D03*
X437205Y640551D02*
D03*
X444685D02*
D03*
D51*
X1105236Y847717D02*
D03*
X1115236D02*
D03*
X1105236Y837716D02*
D03*
X1115236D02*
D03*
X1105236Y827717D02*
D03*
X1115236D02*
D03*
X1105236Y817717D02*
D03*
X1115236D02*
D03*
X1105236Y807717D02*
D03*
X1115236D02*
D03*
X1105236Y797717D02*
D03*
X1115236D02*
D03*
X1105236Y787717D02*
D03*
X1115236D02*
D03*
X1105236Y777717D02*
D03*
X1115236D02*
D03*
X1105236Y767717D02*
D03*
X1115236D02*
D03*
X1105236Y757717D02*
D03*
X1115236D02*
D03*
X1105236Y747717D02*
D03*
X1115236D02*
D03*
X1105236Y737717D02*
D03*
X1115236D02*
D03*
X1105236Y727717D02*
D03*
X1115236D02*
D03*
X1105236Y717717D02*
D03*
X1115236D02*
D03*
X1105236Y707717D02*
D03*
X1115236D02*
D03*
X1105236Y697717D02*
D03*
X1115236D02*
D03*
X1105236Y687717D02*
D03*
X1115236D02*
D03*
X452756Y615551D02*
D03*
Y605551D02*
D03*
Y595551D02*
D03*
Y585551D02*
D03*
Y575551D02*
D03*
Y565551D02*
D03*
D52*
X439370Y974409D02*
D03*
Y984252D02*
D03*
Y994094D02*
D03*
X426772Y974409D02*
D03*
Y984252D02*
D03*
Y994094D02*
D03*
D53*
X441929Y937992D02*
D03*
Y912402D02*
D03*
X424213D02*
D03*
Y937992D02*
D03*
X508386Y749134D02*
D03*
X468386D02*
D03*
Y709134D02*
D03*
X508386D02*
D03*
Y824134D02*
D03*
X468386D02*
D03*
Y784134D02*
D03*
X508386D02*
D03*
D54*
X610236Y1102362D02*
D03*
X925197D02*
D03*
Y728346D02*
D03*
X610236D02*
D03*
D55*
X492047Y729134D02*
D03*
Y804134D02*
D03*
D56*
X500000Y1118110D02*
D03*
X417323Y1070866D02*
D03*
X464567Y417323D02*
D03*
X417323Y500000D02*
D03*
X1118110Y464567D02*
D03*
X1035433Y417323D02*
D03*
X1070866Y1118110D02*
D03*
X1118110Y1035433D02*
D03*
D57*
X669291Y767717D02*
D03*
X866142D02*
D03*
M02*
