G04*
G04 #@! TF.GenerationSoftware,Altium Limited,CircuitStudio,1.5.2 (30)*
G04*
G04 Layer_Physical_Order=4*
G04 Layer_Color=12500520*
%FSLAX25Y25*%
%MOIN*%
G70*
G01*
G75*
%ADD17C,0.00591*%
%ADD20C,0.02756*%
%ADD21C,0.07400*%
%ADD22C,0.05906*%
%ADD23C,0.07874*%
%ADD24C,0.23622*%
%ADD25C,0.13780*%
%ADD26C,0.24016*%
%ADD27C,0.31890*%
%ADD28C,0.01969*%
%ADD38R,0.02756X0.03150*%
%ADD39R,0.02756X0.03347*%
%ADD40R,0.03150X0.02756*%
%ADD41R,0.03347X0.02756*%
D17*
X1118110Y591929D02*
X1137795D01*
X1118110Y601968D02*
X1133858D01*
X1118110Y645276D02*
X1133858D01*
X1118110Y635236D02*
X1137795D01*
X1118110Y991732D02*
X1133858D01*
X1118110Y989252D02*
X1135827D01*
X1105236Y687717D02*
X1110433Y692913D01*
X1135827D01*
X1105236Y697717D02*
X1110276Y702756D01*
X1115236Y697717D02*
X1133740D01*
X1133858Y697835D01*
X1110276Y702756D02*
X1137795D01*
X1062992Y683071D02*
X1067638Y687717D01*
X1105236D01*
X1118110Y981693D02*
X1137795D01*
X1118110Y948425D02*
X1133858D01*
X1118110Y945945D02*
X1135827D01*
X1118110Y938386D02*
X1137795D01*
X1118110Y905118D02*
X1133858D01*
X1118110Y895079D02*
X1137795D01*
X1118110Y902638D02*
X1135827D01*
X1118110Y642795D02*
X1135827D01*
X1118110Y599488D02*
X1135827D01*
D20*
X767717Y564567D02*
X777559D01*
X911811Y586614D02*
X921191D01*
X907087Y576772D02*
Y586614D01*
Y596457D01*
X921191Y586614D02*
X992126Y515679D01*
Y500984D02*
Y515748D01*
Y500984D02*
X992126Y500984D01*
Y515679D01*
X628346Y576772D02*
Y586614D01*
Y596457D01*
X598425Y500984D02*
X598425Y500984D01*
X598425Y500984D02*
Y527559D01*
X623622Y552756D01*
Y586614D01*
X795276Y500984D02*
Y555118D01*
X781102Y569291D02*
X795276Y555118D01*
X767717Y569291D02*
X781102D01*
X623622Y926772D02*
Y948819D01*
X598425Y901575D02*
X623622Y926772D01*
X598425Y875000D02*
Y901575D01*
X795276Y846457D02*
Y889695D01*
X767717Y818898D02*
X795276Y846457D01*
X767717Y805512D02*
Y818898D01*
X992126Y875000D02*
Y889695D01*
X992126Y875000D02*
X992126Y875000D01*
X992126Y875000D02*
Y889764D01*
Y889695D02*
Y889764D01*
X933002Y948819D02*
X992126Y889695D01*
X911811Y948819D02*
X933002D01*
X598425Y875000D02*
X598425Y875000D01*
X757874Y564567D02*
X767717D01*
X907087Y948819D02*
Y958661D01*
Y938976D02*
Y948819D01*
X757874Y800787D02*
X767717D01*
X777559D01*
X628346Y948819D02*
Y958661D01*
Y938976D02*
Y948819D01*
D21*
X1105236Y847717D02*
D03*
X1115236D02*
D03*
X1105236Y837716D02*
D03*
X1115236D02*
D03*
X1105236Y827717D02*
D03*
X1115236D02*
D03*
X1105236Y817717D02*
D03*
X1115236D02*
D03*
X1105236Y807717D02*
D03*
X1115236D02*
D03*
X1105236Y797717D02*
D03*
X1115236D02*
D03*
X1105236Y787717D02*
D03*
X1115236D02*
D03*
X1105236Y777717D02*
D03*
X1115236D02*
D03*
X1105236Y767717D02*
D03*
X1115236D02*
D03*
X1105236Y757717D02*
D03*
X1115236D02*
D03*
X1105236Y747717D02*
D03*
X1115236D02*
D03*
X1105236Y737717D02*
D03*
X1115236D02*
D03*
X1105236Y727717D02*
D03*
X1115236D02*
D03*
X1105236Y717717D02*
D03*
X1115236D02*
D03*
X1105236Y707717D02*
D03*
X1115236D02*
D03*
X1105236Y697717D02*
D03*
X1115236D02*
D03*
X1105236Y687717D02*
D03*
X1115236D02*
D03*
X452756Y615551D02*
D03*
Y605551D02*
D03*
Y595551D02*
D03*
Y585551D02*
D03*
Y575551D02*
D03*
Y565551D02*
D03*
D22*
X439370Y974409D02*
D03*
Y984252D02*
D03*
Y994094D02*
D03*
X426772Y974409D02*
D03*
Y984252D02*
D03*
Y994094D02*
D03*
D23*
X441929Y937992D02*
D03*
Y912402D02*
D03*
X424213D02*
D03*
Y937992D02*
D03*
X508386Y749134D02*
D03*
X468386D02*
D03*
Y709134D02*
D03*
X508386D02*
D03*
Y824134D02*
D03*
X468386D02*
D03*
Y784134D02*
D03*
X508386D02*
D03*
D24*
X610236Y1102362D02*
D03*
X925197D02*
D03*
Y728346D02*
D03*
X610236D02*
D03*
D25*
X492047Y729134D02*
D03*
Y804134D02*
D03*
D26*
X500000Y1118110D02*
D03*
X417323Y1070866D02*
D03*
X464567Y417323D02*
D03*
X417323Y500000D02*
D03*
X1118110Y464567D02*
D03*
X1035433Y417323D02*
D03*
X1070866Y1118110D02*
D03*
X1118110Y1035433D02*
D03*
D27*
X669291Y767717D02*
D03*
X866142D02*
D03*
D28*
X444685Y635827D02*
D03*
X427165Y665354D02*
D03*
X409449Y671260D02*
D03*
X440945D02*
D03*
X1013780Y427165D02*
D03*
Y438976D02*
D03*
X1010827D02*
D03*
Y427165D02*
D03*
X994094D02*
D03*
X997047D02*
D03*
X994094Y438976D02*
D03*
X997047D02*
D03*
X987205Y500984D02*
D03*
Y503937D02*
D03*
X987126Y506890D02*
D03*
X987205Y509842D02*
D03*
X987126Y512795D02*
D03*
X997126Y500984D02*
D03*
Y503937D02*
D03*
Y506890D02*
D03*
Y509842D02*
D03*
Y512795D02*
D03*
X987126Y515748D02*
D03*
X907087Y576772D02*
D03*
Y582677D02*
D03*
Y579724D02*
D03*
X1007874Y427165D02*
D03*
Y438976D02*
D03*
X1000000Y427165D02*
D03*
Y438976D02*
D03*
X907087Y593504D02*
D03*
Y590551D02*
D03*
Y596457D02*
D03*
X997126Y515748D02*
D03*
X992126Y515679D02*
D03*
X992126Y512795D02*
D03*
Y509842D02*
D03*
Y506890D02*
D03*
Y503937D02*
D03*
Y500984D02*
D03*
X603425Y515748D02*
D03*
X628346Y576772D02*
D03*
Y582677D02*
D03*
Y579724D02*
D03*
X606299Y438976D02*
D03*
Y427165D02*
D03*
X614173Y438976D02*
D03*
Y427165D02*
D03*
X628346Y593504D02*
D03*
Y590551D02*
D03*
Y596457D02*
D03*
X593425Y515748D02*
D03*
X603425Y512795D02*
D03*
Y509842D02*
D03*
Y506890D02*
D03*
Y503937D02*
D03*
Y500984D02*
D03*
X593425Y512795D02*
D03*
X593504Y509842D02*
D03*
X593425Y506890D02*
D03*
X593504Y503937D02*
D03*
Y500984D02*
D03*
X603346Y438976D02*
D03*
X600394D02*
D03*
X603346Y427165D02*
D03*
X600394D02*
D03*
X617126D02*
D03*
Y438976D02*
D03*
X620079D02*
D03*
Y427165D02*
D03*
X598425Y512795D02*
D03*
X598425Y515679D02*
D03*
X598425Y509842D02*
D03*
Y506890D02*
D03*
Y503937D02*
D03*
Y500984D02*
D03*
X795276D02*
D03*
X795276Y503937D02*
D03*
Y506890D02*
D03*
Y509842D02*
D03*
Y512795D02*
D03*
Y515748D02*
D03*
Y875000D02*
D03*
Y877953D02*
D03*
Y880906D02*
D03*
Y883858D02*
D03*
Y886811D02*
D03*
Y889695D02*
D03*
X992126Y875000D02*
D03*
Y877953D02*
D03*
Y880906D02*
D03*
Y883858D02*
D03*
Y886811D02*
D03*
X992126Y889695D02*
D03*
X598425Y875000D02*
D03*
Y877953D02*
D03*
Y880906D02*
D03*
Y883858D02*
D03*
X598425Y889695D02*
D03*
X598425Y886811D02*
D03*
X800276Y515748D02*
D03*
X757874Y564567D02*
D03*
X763779D02*
D03*
X760827D02*
D03*
X803150Y438976D02*
D03*
Y427165D02*
D03*
X811024Y438976D02*
D03*
Y427165D02*
D03*
X774606Y564567D02*
D03*
X771654D02*
D03*
X777559D02*
D03*
X790276Y515748D02*
D03*
X800276Y512795D02*
D03*
Y509842D02*
D03*
Y506890D02*
D03*
Y503937D02*
D03*
Y500984D02*
D03*
X790276Y512795D02*
D03*
X790354Y509842D02*
D03*
X790276Y506890D02*
D03*
X790354Y503937D02*
D03*
Y500984D02*
D03*
X800197Y438976D02*
D03*
X797244D02*
D03*
X800197Y427165D02*
D03*
X797244D02*
D03*
X813976D02*
D03*
Y438976D02*
D03*
X816929D02*
D03*
Y427165D02*
D03*
X997126Y889764D02*
D03*
X907087Y958661D02*
D03*
Y952756D02*
D03*
Y955709D02*
D03*
X1000000Y812992D02*
D03*
Y801181D02*
D03*
X1007874Y812992D02*
D03*
Y801181D02*
D03*
X907087Y941929D02*
D03*
Y944882D02*
D03*
Y938976D02*
D03*
X987126Y889764D02*
D03*
X997126Y886811D02*
D03*
Y883858D02*
D03*
Y880906D02*
D03*
Y877953D02*
D03*
Y875000D02*
D03*
X987126Y886811D02*
D03*
X987205Y883858D02*
D03*
X987126Y880906D02*
D03*
X987205Y877953D02*
D03*
Y875000D02*
D03*
X997047Y812992D02*
D03*
X994094D02*
D03*
X997047Y801181D02*
D03*
X994094D02*
D03*
X1010827D02*
D03*
Y812992D02*
D03*
X1013780D02*
D03*
Y801181D02*
D03*
X800276Y889764D02*
D03*
X757874Y800787D02*
D03*
X763779D02*
D03*
X760827D02*
D03*
X803150Y812992D02*
D03*
Y801181D02*
D03*
X811024Y812992D02*
D03*
Y801181D02*
D03*
X774606Y800787D02*
D03*
X771654D02*
D03*
X777559D02*
D03*
X790276Y889764D02*
D03*
X800276Y886811D02*
D03*
Y883858D02*
D03*
Y880906D02*
D03*
Y877953D02*
D03*
Y875000D02*
D03*
X790276Y886811D02*
D03*
X790354Y883858D02*
D03*
X790276Y880906D02*
D03*
X790354Y877953D02*
D03*
Y875000D02*
D03*
X800197Y812992D02*
D03*
X797244D02*
D03*
X800197Y801181D02*
D03*
X797244D02*
D03*
X813976D02*
D03*
Y812992D02*
D03*
X816929D02*
D03*
Y801181D02*
D03*
X620079D02*
D03*
Y812992D02*
D03*
X617126D02*
D03*
Y801181D02*
D03*
X600394D02*
D03*
X603346D02*
D03*
X600394Y812992D02*
D03*
X603346D02*
D03*
X593504Y875000D02*
D03*
Y877953D02*
D03*
X593425Y880906D02*
D03*
X593504Y883858D02*
D03*
X593425Y886811D02*
D03*
X603425Y875000D02*
D03*
Y877953D02*
D03*
Y880906D02*
D03*
Y883858D02*
D03*
Y886811D02*
D03*
X593425Y889764D02*
D03*
X628346Y958661D02*
D03*
Y952756D02*
D03*
Y955709D02*
D03*
X614173Y801181D02*
D03*
Y812992D02*
D03*
X606299Y801181D02*
D03*
Y812992D02*
D03*
X429134Y872047D02*
D03*
X628346Y941929D02*
D03*
Y944882D02*
D03*
Y938976D02*
D03*
X603425Y889764D02*
D03*
X1118110Y546181D02*
D03*
Y541181D02*
D03*
X1086614Y536181D02*
D03*
Y551181D02*
D03*
Y566181D02*
D03*
X1118110Y561181D02*
D03*
X1137795Y591929D02*
D03*
X1133858Y601968D02*
D03*
X1118110Y604488D02*
D03*
Y601968D02*
D03*
Y591929D02*
D03*
X1086614Y609488D02*
D03*
Y594488D02*
D03*
Y579488D02*
D03*
X1118110Y584488D02*
D03*
Y589488D02*
D03*
Y599488D02*
D03*
Y642795D02*
D03*
Y632795D02*
D03*
Y627795D02*
D03*
X1086614Y622795D02*
D03*
Y637795D02*
D03*
Y652795D02*
D03*
X1118110Y635236D02*
D03*
Y645276D02*
D03*
Y647795D02*
D03*
X1133858Y645276D02*
D03*
X1137795Y635236D02*
D03*
X1118110Y902638D02*
D03*
Y892638D02*
D03*
Y887638D02*
D03*
X1086614Y882638D02*
D03*
Y897638D02*
D03*
Y912638D02*
D03*
X1118110Y895079D02*
D03*
Y905118D02*
D03*
Y907638D02*
D03*
X1133858Y905118D02*
D03*
X1137795Y895079D02*
D03*
Y938386D02*
D03*
X1135827Y945945D02*
D03*
X1133858Y948425D02*
D03*
X1118110Y950945D02*
D03*
Y948425D02*
D03*
Y938386D02*
D03*
X1086614Y955945D02*
D03*
Y940945D02*
D03*
Y925945D02*
D03*
X1118110Y930945D02*
D03*
Y935945D02*
D03*
Y945945D02*
D03*
Y989252D02*
D03*
Y979252D02*
D03*
Y974252D02*
D03*
X1086614Y969252D02*
D03*
Y984252D02*
D03*
Y999252D02*
D03*
X1118110Y981693D02*
D03*
Y991732D02*
D03*
Y994252D02*
D03*
X1133858Y991732D02*
D03*
X1135827Y989252D02*
D03*
X1137795Y981693D02*
D03*
X1135827Y692913D02*
D03*
X1133858Y697835D02*
D03*
X1137795Y702756D02*
D03*
X456693Y933071D02*
D03*
X1062992Y683071D02*
D03*
X1135827Y902638D02*
D03*
Y642795D02*
D03*
Y599488D02*
D03*
D38*
X902165Y570768D02*
D03*
X916732D02*
D03*
X633268Y602461D02*
D03*
X618701D02*
D03*
X902165Y932972D02*
D03*
X916732D02*
D03*
X633268Y964665D02*
D03*
X618701D02*
D03*
D39*
X907087Y586614D02*
D03*
X911811D02*
D03*
X628346D02*
D03*
X623622D02*
D03*
X907087Y948819D02*
D03*
X911811D02*
D03*
X628346D02*
D03*
X623622D02*
D03*
D40*
X783563Y559646D02*
D03*
Y574213D02*
D03*
Y795866D02*
D03*
Y810433D02*
D03*
D41*
X767717Y564567D02*
D03*
Y569291D02*
D03*
Y800787D02*
D03*
Y805512D02*
D03*
M02*
