G04*
G04 #@! TF.GenerationSoftware,Altium Limited,CircuitStudio,1.5.2 (30)*
G04*
G04 Layer_Color=8150272*
%FSLAX25Y25*%
%MOIN*%
G70*
G01*
G75*
%ADD51C,0.08200*%
%ADD52C,0.06706*%
%ADD53C,0.08674*%
%ADD54C,0.24422*%
%ADD55C,0.14579*%
%ADD56C,0.24816*%
%ADD57C,0.32690*%
%ADD58R,0.03556X0.03950*%
%ADD59R,0.03556X0.04147*%
%ADD60R,0.03950X0.03556*%
%ADD61R,0.04147X0.03556*%
D51*
X1105236Y847717D02*
D03*
X1115236D02*
D03*
X1105236Y837716D02*
D03*
X1115236D02*
D03*
X1105236Y827717D02*
D03*
X1115236D02*
D03*
X1105236Y817717D02*
D03*
X1115236D02*
D03*
X1105236Y807717D02*
D03*
X1115236D02*
D03*
X1105236Y797717D02*
D03*
X1115236D02*
D03*
X1105236Y787717D02*
D03*
X1115236D02*
D03*
X1105236Y777717D02*
D03*
X1115236D02*
D03*
X1105236Y767717D02*
D03*
X1115236D02*
D03*
X1105236Y757717D02*
D03*
X1115236D02*
D03*
X1105236Y747717D02*
D03*
X1115236D02*
D03*
X1105236Y737717D02*
D03*
X1115236D02*
D03*
X1105236Y727717D02*
D03*
X1115236D02*
D03*
X1105236Y717717D02*
D03*
X1115236D02*
D03*
X1105236Y707717D02*
D03*
X1115236D02*
D03*
X1105236Y697717D02*
D03*
X1115236D02*
D03*
X1105236Y687717D02*
D03*
X1115236D02*
D03*
X452756Y615551D02*
D03*
Y605551D02*
D03*
Y595551D02*
D03*
Y585551D02*
D03*
Y575551D02*
D03*
Y565551D02*
D03*
D52*
X439370Y974409D02*
D03*
Y984252D02*
D03*
Y994094D02*
D03*
X426772Y974409D02*
D03*
Y984252D02*
D03*
Y994094D02*
D03*
D53*
X441929Y937992D02*
D03*
Y912402D02*
D03*
X424213D02*
D03*
Y937992D02*
D03*
X508386Y749134D02*
D03*
X468386D02*
D03*
Y709134D02*
D03*
X508386D02*
D03*
Y824134D02*
D03*
X468386D02*
D03*
Y784134D02*
D03*
X508386D02*
D03*
D54*
X610236Y1102362D02*
D03*
X925197D02*
D03*
Y728346D02*
D03*
X610236D02*
D03*
D55*
X492047Y729134D02*
D03*
Y804134D02*
D03*
D56*
X500000Y1118110D02*
D03*
X417323Y1070866D02*
D03*
X464567Y417323D02*
D03*
X417323Y500000D02*
D03*
X1118110Y464567D02*
D03*
X1035433Y417323D02*
D03*
X1070866Y1118110D02*
D03*
X1118110Y1035433D02*
D03*
D57*
X669291Y767717D02*
D03*
X866142D02*
D03*
D58*
X902165Y570768D02*
D03*
X916732D02*
D03*
X633268Y602461D02*
D03*
X618701D02*
D03*
X902165Y932972D02*
D03*
X916732D02*
D03*
X633268Y964665D02*
D03*
X618701D02*
D03*
D59*
X907087Y586614D02*
D03*
X911811D02*
D03*
X628346D02*
D03*
X623622D02*
D03*
X907087Y948819D02*
D03*
X911811D02*
D03*
X628346D02*
D03*
X623622D02*
D03*
D60*
X783563Y559646D02*
D03*
Y574213D02*
D03*
Y795866D02*
D03*
Y810433D02*
D03*
D61*
X767717Y564567D02*
D03*
Y569291D02*
D03*
Y800787D02*
D03*
Y805512D02*
D03*
M02*
