G04 Output by ViewMate Deluxe V11.20.1  PentaLogix*
G04 Tue Nov 30 10:45:56 2021*
%IPPOS*%
%FSLAX25Y25*%
%MOIN*%
%ADD42C,0.00787*%

%LPD*%
X0Y0D2*G36*X409162Y982633D2*G1X405512Y981161D1*Y980291*X409162Y978838*Y979832*X407299Y980527*X407240Y980547*X407135Y980587*X407086Y980600*X406998Y980629*X406994Y980632*X406991*X406975Y980636*X406909Y980655*X406857Y980672*X406804Y980688*X406686Y980728*X406679Y980731*X406676*X407299Y980931*X409162Y981620*Y982633*G37*G36*X550826Y406245D2*G1X550748D1*X550588Y406241*X550436Y406232*X550293Y406216*X550162Y406195*X550043Y406171*X549932Y406142*X549833Y406113*X549743Y406085*X549665Y406056*X549596Y406027*X549538Y405999*X549456Y405954*X549428Y405937*X549411Y405929*X549407Y405925*X549325Y405859*X549251Y405790*X549182Y405716*X549116Y405638*X549059Y405556*X549005Y405474*X548960Y405392*X548919Y405314*X548882Y405240*X548849Y405170*X548825Y405109*X548776Y404974*X548772Y404953*X548768Y404945*X549866Y404748*X549887Y404806*X549911Y404859*X549936Y404908*X549961Y404949*X550006Y405027*X550055Y405089*X550096Y405134*X550129Y405166*X550149Y405187*X550231Y405232*X550313Y405265*X550395Y405285*X550477Y405302*X550551Y405310*X550608Y405318*X550748*X550826Y405310*X550900Y405306*X550965Y405294*X551022Y405285*X551076Y405273*X551121Y405257*X551166Y405244*X551199Y405232*X551232Y405216*X551256Y405203*X551277Y405195*X551289Y405183*X551301Y405179*X551309Y405170*X551338Y405142*X551367Y405105*X551408Y405031*X551441Y404949*X551461Y404867*X551474Y404793*X551478Y404761*Y404732*X551482Y404707*Y404551*X551338Y404498*X551252Y404473*X551068Y404424*X550969Y404400*X550772Y404355*X550596Y404314*X550514Y404297*X550449Y404285*X550346Y404264*X550317Y404256*X550309*X550194Y404232*X550088Y404211*X549895Y404162*X549657Y404092*X549592Y404072*X549534Y404051*X549444Y404014*X549407Y404002*X549362Y403981*X549350Y403973*X549346*X549227Y403908*X549124Y403834*X549038Y403756*X548964Y403682*X548907Y403617*X548882Y403584*X548862Y403559*X548849Y403539*X548837Y403522*X548833Y403514*X548829Y403510*X548796Y403453*X548768Y403395*X548722Y403276*X548690Y403157*X548669Y403051*X548661Y403002*X548653Y402961*X548649Y402920*Y402887*X548644Y402858*Y402821*X548649Y402715*X548661Y402612*X548681Y402514*X548710Y402423*X548739Y402337*X548772Y402259*X548808Y402186*X548849Y402116*X548886Y402059*X548923Y402005*X548956Y401960*X549014Y401895*X549034Y401870*X549050Y401854*X549128Y401788*X549214Y401726*X549305Y401677*X549395Y401632*X549489Y401595*X549579Y401567*X549670Y401542*X549760Y401521*X549842Y401505*X549916Y401493*X549985Y401485*X550047Y401476*X550096*X550129Y401472*X550162*X550309Y401480*X550449Y401497*X550576Y401517*X550637Y401534*X550740Y401558*X550785Y401575*X550822Y401587*X550854Y401595*X550879Y401608*X550900Y401612*X550912Y401620*X550916*X551047Y401681*X551166Y401755*X551281Y401829*X551379Y401903*X551461Y401968*X551523Y402022*X551547Y402042*X551576Y402071*X551584Y402055*X551588Y402034*X551613Y401968*X551617Y401948*X551621Y401936*Y401931*X551646Y401850*X551670Y401776*X551687Y401714*X551703Y401665*X551720Y401624*X551728Y401595*X551736Y401579*Y401575*X552933*X552880Y401694*X552831Y401809*X552794Y401911*X552765Y402001*X552753Y402042*X552744Y402079*X552732Y402108*X552728Y402137*X552724Y402157*X552720Y402173*X552716Y402182*Y402186*X552708Y402243*X552695Y402305*X552691Y402374*X552683Y402444*X552671Y402592*X552667Y402739*X552663Y402805*Y402870*X552658Y402928*Y403075*X552671Y404486*Y404629*X552663Y404756*X552646Y404986*X552634Y405084*X552617Y405175*X552605Y405253*X552589Y405322*X552572Y405380*X552560Y405429*X552544Y405474*X552531Y405507*X552523Y405531*X552515Y405552*X552507Y405560*Y405564*X552474Y405617*X552437Y405671*X552351Y405765*X552261Y405847*X552166Y405921*X552084Y405974*X552047Y405999*X552015Y406019*X551986Y406032*X551966Y406044*X551953Y406048*X551949Y406052*X551871Y406085*X551785Y406118*X551691Y406142*X551596Y406163*X551396Y406200*X551297Y406212*X551109Y406228*X551022Y406237*X550949Y406241*X550879*X550826Y406245*G37*G36*X410553Y991561D2*G1X405512D1*Y990597*X410553*Y991561*G37*G36*X406538Y995737D2*G1X406509D1*X406424Y995734*X406342Y995724*X406263Y995707*X406191Y995684*X406122Y995661*X406060Y995635*X406001Y995606*X405945Y995573*X405899Y995543*X405856Y995514*X405820Y995488*X405791Y995461*X405748Y995425*X405735Y995412*X405682Y995350*X405633Y995281*X405594Y995209*X405558Y995137*X405528Y995061*X405505Y994989*X405486Y994917*X405469Y994845*X405456Y994779*X405446Y994720*X405440Y994664*X405433Y994615*Y994576*X405430Y994549*Y994523*X405436Y994405*X405449Y994294*X405466Y994192*X405479Y994143*X405489Y994100*X405499Y994061*X405512Y994025*X405522Y993995*X405528Y993969*X405538Y993949*X405541Y993933*X405548Y993923*Y993920*X405597Y993815*X405656Y993720*X405715Y993628*X405745Y993589*X405774Y993549*X405800Y993516*X405869Y993434*X405886Y993415*X405899Y993402*X405905Y993395*X405909Y993392*X405896Y993385*X405879Y993382*X405843Y993369*X405827Y993362*X405810Y993359*X405800Y993356*X405797*X405732Y993336*X405673Y993316*X405623Y993303*X405584Y993290*X405551Y993277*X405528Y993270*X405515Y993264*X405512*Y992306*X405607Y992349*X405699Y992388*X405781Y992418*X405853Y992441*X405886Y992450*X405915Y992457*X405938Y992467*X405961Y992470*X405991Y992476*X405997Y992480*X406001*X406046Y992486*X406096Y992496*X406151Y992500*X406207Y992506*X406325Y992516*X406443Y992519*X406496Y992523*X406548*X406594Y992526*X406712*X407841Y992516*X407955*X408155Y992529*X408241Y992536*X408320Y992545*X408392Y992558*X408454Y992568*X408510Y992581*X408556Y992595*X408595Y992605*X408693Y992640*X408700Y992647*X408703*X408746Y992673*X408788Y992703*X408864Y992772*X408930Y992844*X408989Y992919*X409031Y992985*X409051Y993015*X409067Y993041*X409077Y993064*X409087Y993080*X409090Y993090*X409094Y993093*X409120Y993155*X409146Y993224*X409166Y993300*X409182Y993375*X409212Y993536*X409222Y993615*X409228Y993690*X409241Y993834*X409244Y993894*Y993949*X409248Y993992*Y994054*X409244Y994182*X409238Y994304*X409225Y994418*X409208Y994523*X409189Y994618*X409166Y994707*X409143Y994786*X409120Y994858*X409097Y994920*X409074Y994976*X409051Y995022*X408995Y995123*X408939Y995192*X408884Y995251*X408825Y995307*X408762Y995360*X408697Y995406*X408631Y995448*X408566Y995484*X408503Y995517*X408444Y995547*X408388Y995573*X408339Y995592*X408231Y995632*X408215Y995635*X408208Y995638*X408050Y994759*X408096Y994743*X408139Y994723*X408178Y994704*X408211Y994684*X408274Y994648*X408323Y994608*X408359Y994576*X408401Y994533*X408438Y994468*X408464Y994402*X408480Y994336*X408493Y994271*X408506Y994166*Y994054*X408500Y993992*X408497Y993933*X408487Y993880*X408480Y993834*X408470Y993792*X408457Y993756*X408447Y993720*X408438Y993693*X408424Y993667*X408408Y993631*X408398Y993621*X408395Y993611*X408388Y993605*X408365Y993582*X408336Y993559*X408277Y993526*X408211Y993500*X408146Y993484*X408060Y993470*X408037*X408018Y993467*X407893*X407850Y993582*X407811Y993723*X407791Y993798*X407772Y993877*X407703Y994176*X407680Y994294*X407660Y994389*X407657Y994399*Y994405*X407637Y994497*X407621Y994582*X407582Y994736*X407562Y994805*X407542Y994871*X407526Y994927*X407509Y994979*X407493Y995025*X407477Y995065*X407463Y995097*X407454Y995127*X407444Y995146*X407437Y995163*X407431Y995173*Y995176*X407378Y995271*X407319Y995353*X407257Y995422*X407198Y995481*X407145Y995527*X407099Y995563*X407083Y995573*X407070Y995583*X407063Y995586*X407060Y995589*X407014Y995615*X406968Y995638*X406873Y995675*X406778Y995701*X406620Y995730*X406588Y995734*X406561*X406538Y995737*G37*G36*X408077Y987845D2*G1X408001D1*X407782Y987839*X407677Y987829*X407575Y987816*X407381Y987783*X407286Y987763*X407112Y987717*X407030Y987691*X406952Y987665*X406801Y987606*X406732Y987576*X406666Y987543*X406604Y987514*X406548Y987484*X406440Y987422*X406394Y987393*X406270Y987311*X406237Y987288*X406210Y987265*X406184Y987245*X406161Y987225*X406128Y987199*X406119Y987189*X406115Y987186*X406050Y987120*X405991Y987051*X405938Y986986*X405886Y986914*X405794Y986769*X405715Y986622*X405650Y986471*X405594Y986323*X405548Y986179*X405512Y986038*X405463Y985782*X405456Y985726*X405446Y985674*X405443Y985625*X405436Y985579*X405430Y985500*Y985467*X405427Y985441*Y985392*X405433Y985188*X405443Y985093*X405456Y984998*X405489Y984818*X405535Y984647*X405587Y984490*X405643Y984345*X405705Y984211*X405771Y984090*X405836Y983981*X405866Y983935*X405899Y983889*X405955Y983807*X406007Y983742*X406030Y983712*X406053Y983689*X406086Y983650*X406112Y983624*X406115Y983620*X406250Y983502*X406322Y983450*X406394Y983401*X406470Y983355*X406548Y983312*X406706Y983237*X406863Y983171*X407021Y983119*X407178Y983073*X407329Y983037*X407470Y983010*X407539Y983001*X407663Y982981*X407719Y982974*X407775Y982968*X407824Y982965*X407906Y982958*X407942*X407972Y982955*X408024*X408251Y982961*X408356Y982971*X408562Y982997*X408661Y983017*X408752Y983037*X408933Y983083*X409018Y983109*X409097Y983138*X409176Y983168*X409248Y983197*X409320Y983227*X409385Y983257*X409448Y983289*X409507Y983322*X409563Y983352*X409615Y983381*X409664Y983411*X409707Y983440*X409750Y983470*X409818Y983519*X409874Y983562*X409897Y983581*X409930Y983607*X409943Y983620*X409946Y983624*X410009Y983686*X410068Y983755*X410123Y983824*X410176Y983893*X410268Y984037*X410307Y984109*X410347Y984185*X410412Y984336*X410471Y984483*X410514Y984628*X410553Y984765*X410602Y985021*X410609Y985077*X410619Y985129*X410622Y985178*X410629Y985225*X410635Y985300*Y985333*X410638Y985359*Y985408*X410635Y985523*X410629Y985631*X410609Y985838*X410593Y985933*X410576Y986022*X410556Y986104*X410540Y986182*X410520Y986251*X410484Y986366*X410471Y986412*X410442Y986487*X410438Y986494*X410409Y986559*X410376Y986625*X410304Y986746*X410268Y986802*X410232Y986855*X410123Y986996*X410091Y987032*X410061Y987068*X410035Y987094*X410015Y987117*X409986Y987146*X409868Y987251*X409750Y987343*X409691Y987386*X409631Y987425*X409579Y987461*X409526Y987491*X409477Y987521*X409431Y987543*X409392Y987566*X409333Y987596*X409310Y987609*X409297Y987612*X409294Y987616*X409192Y987655*X409087Y987691*X408982Y987720*X408871Y987747*X408762Y987770*X408654Y987789*X408552Y987806*X408359Y987825*X408195Y987839*X408129Y987842*X408103*X408077Y987845*G37*G36*X501777Y407876D2*G1X500502D1*Y401575*X501777*Y407876*G37*G36*X409162Y968841D2*G1X405512D1*Y967877*X409162*Y968841*G37*G36*X574323Y407901D2*G1X573343D1*X573302Y407795*X573249Y407692*X573195Y407594*X573134Y407503*X573072Y407413*X573011Y407331*X572945Y407253*X572884Y407184*X572822Y407118*X572716Y407011*X572671Y406970*X572605Y406913*X572588Y406897*X572580Y406892*X572478Y406815*X572375Y406745*X572281Y406679*X572187Y406618*X572096Y406565*X572010Y406519*X571933Y406474*X571859Y406437*X571793Y406405*X571732Y406380*X571678Y406355*X571633Y406339*X571600Y406323*X571572Y406314*X571555Y406306*X571551*Y405211*X571719Y405269*X571879Y405335*X572031Y405404*X572174Y405478*X572314Y405556*X572441Y405630*X572671Y405781*X572855Y405913*X572933Y405974*X572994Y406023*X573048Y406068*X573085Y406097*X573113Y406126*Y401575*X574323*Y407901*G37*G36*X407391Y967099D2*G1X407352D1*X407188Y967093*X407030Y967080*X406883Y967056*X406748Y967030*X406620Y966994*X406506Y966958*X406397Y966919*X406302Y966876*X406217Y966833*X406079Y966758*X406030Y966722*X405987Y966696*X405958Y966673*X405941Y966656*X405935Y966653*X405846Y966568*X405768Y966476*X405702Y966387*X405643Y966296*X405594Y966204*X405554Y966115*X405518Y966027*X405492Y965945*X405472Y965869*X405456Y965797*X405446Y965735*X405436Y965679*X405430Y965600*Y965574*X405436Y965459*X405453Y965348*X405479Y965243*X405492Y965193*X405518Y965108*X405545Y965039*X405558Y965013*X405568Y964990*X405574Y964974*X405581Y964964*Y964961*X405610Y964905*X405646Y964849*X405718Y964747*X405797Y964659*X405833Y964616*X405873Y964580*X405905Y964547*X405938Y964518*X405971Y964492*X405994Y964469*X406017Y964452*X406033Y964439*X406043Y964433*X406046Y964429*X405512*Y963534*X410553*Y964498*X408736*X408825Y964583*X408907Y964672*X408972Y964764*X409031Y964852*X409080Y964944*X409123Y965033*X409156Y965118*X409185Y965197*X409205Y965272*X409222Y965344*X409231Y965403*X409241Y965459*X409244Y965502*X409248Y965535*Y965561*X409241Y965682*X409228Y965800*X409202Y965909*X409172Y966014*X409136Y966112*X409094Y966201*X409051Y966286*X409005Y966361*X408959Y966430*X408916Y966489*X408874Y966542*X408838Y966584*X408808Y966617*X408762Y966663*X408667Y966738*X408562Y966807*X408454Y966866*X408339Y966916*X408221Y966958*X408103Y966991*X407988Y967021*X407877Y967043*X407768Y967063*X407670Y967076*X407582Y967086*X407542Y967089*X407506Y967093*X407470Y967096*X407414*X407391Y967099*G37*G36*X410553Y968841D2*G1X409658D1*Y967877*X410553*Y968841*G37*G36*X407349Y978527D2*G1X407309D1*X407168Y978523*X407037Y978510*X406909Y978494*X406791Y978471*X406679Y978441*X406578Y978412*X406479Y978379*X406394Y978346*X406315Y978314*X406247Y978281*X406187Y978248*X406138Y978222*X406102Y978199*X406073Y978182*X406056Y978169*X406050Y978166*X405994Y978123*X405941Y978074*X405892Y978025*X405846Y977976*X405761Y977867*X405692Y977753*X405630Y977638*X405581Y977520*X405541Y977402*X405509Y977290*X405482Y977182*X405463Y977080*X405449Y976992*X405443Y976949*X405440Y976913*X405433Y976847*Y976821*X405430Y976798*Y976756*X405433Y976644*X405443Y976539*X405456Y976441*X405472Y976346*X405495Y976257*X405518Y976175*X405541Y976099*X405568Y976031*X405617Y975912*X405643Y975867*X405679Y975795*X405692Y975775*X405702Y975758*X405705Y975755*X405761Y975683*X405820Y975614*X405882Y975552*X405948Y975493*X406014Y975440*X406082Y975391*X406148Y975348*X406214Y975309*X406273Y975276*X406328Y975247*X406381Y975224*X406424Y975204*X406506Y975171*X406512Y975168*X406673Y976129*X406624Y976145*X406578Y976162*X406535Y976182*X406496Y976198*X406427Y976237*X406397Y976257*X406325Y976313*X406296Y976339*X406279Y976359*X406273Y976362*Y976365*X406233Y976424*X406204Y976490*X406181Y976552*X406168Y976614*X406158Y976667*X406155Y976690*Y976706*X406151Y976723*Y976746*X406155Y976808*X406161Y976867*X406174Y976923*X406187Y976975*X406207Y977024*X406227Y977070*X406247Y977110*X406292Y977185*X406312Y977215*X406332Y977241*X406352Y977264*X406365Y977280*X406378Y977293*X406384Y977300*X406433Y977343*X406486Y977379*X406538Y977408*X406594Y977435*X406650Y977457*X406706Y977474*X406811Y977503*X406863Y977513*X406948Y977526*X407014Y977533*X407037Y977536*X407057*Y975115*X407158*X407355Y975122*X407447Y975129*X407536Y975138*X407621Y975148*X407703Y975161*X407860Y975194*X407932Y975211*X408001Y975230*X408067Y975250*X408129Y975270*X408188Y975293*X408300Y975335*X408395Y975378*X408477Y975420*X408549Y975460*X408651Y975525*X408680Y975548*X408700Y975562*X408707Y975568*X408802Y975660*X408884Y975758*X408959Y975860*X409018Y975968*X409071Y976073*X409117Y976182*X409153Y976287*X409179Y976388*X409202Y976483*X409218Y976572*X409231Y976651*X409244Y976775*Y976798*X409248Y976818*Y976854*X409241Y976985*X409225Y977113*X409202Y977234*X409169Y977346*X409130Y977454*X409084Y977553*X409038Y977644*X408992Y977726*X408943Y977798*X408897Y977864*X408815Y977969*X408782Y978005*X408733Y978054*X408631Y978136*X408523Y978209*X408411Y978274*X408293Y978327*X408175Y978372*X408057Y978412*X407828Y978468*X407723Y978487*X407624Y978500*X407536Y978514*X407460Y978520*X407427*X407398Y978523*X407372*X407349Y978527*G37*G36*X409162Y974368D2*G1X405512D1*Y973400*X406807*X406886Y973397*X406962*X407030Y973394*X407099*X407437Y973374*X407601Y973361*X407723Y973348*X407804Y973335*X407831Y973328*X407850Y973325*X407860Y973321*X407864*X407916Y973305*X407965Y973289*X408008Y973269*X408050Y973252*X408087Y973233*X408119Y973213*X408149Y973197*X408175Y973180*X408198Y973164*X408218Y973147*X408267Y973098*X408303Y973042*X408333Y972983*X408352Y972928*X408365Y972872*X408372Y972826*X408379Y972787*Y972754*X408375Y972715*X408372Y972675*X408356Y972593*X408329Y972518*X408300Y972449*X408247Y972344*X408234Y972324*X408228Y972311*X408221Y972301*X409064Y971999*X409097Y972058*X409126Y972114*X409149Y972173*X409169Y972229*X409202Y972337*X409215Y972386*X409225Y972433*X409231Y972475*X409238Y972515*X409244Y972580*X409248Y972603*Y972636*X409241Y972721*X409228Y972800*X409212Y972872*X409189Y972934*X409166Y972983*X409149Y973023*X409139Y973036*X409136Y973046*X409130Y973052*Y973056*X409103Y973092*X409074Y973125*X409041Y973161*X409005Y973197*X408923Y973266*X408844Y973331*X408733Y973410*X408661Y973459*X408647Y973466*X408644Y973469*X409162*Y974368*G37*G36*X409162Y971626D2*G1X405512D1*Y970658*X406807*X406886Y970655*X406962*X407030Y970651*X407099*X407224Y970645*X407437Y970632*X407601Y970619*X407667Y970612*X407768Y970599*X407804Y970592*X407850Y970582*X407860Y970579*X407864*X407916Y970563*X407965Y970547*X408008Y970527*X408050Y970510*X408087Y970491*X408119Y970471*X408149Y970455*X408175Y970438*X408198Y970422*X408218Y970405*X408267Y970356*X408303Y970300*X408333Y970241*X408352Y970186*X408365Y970130*X408372Y970084*X408379Y970045*Y970012*X408375Y969973*X408372Y969933*X408356Y969851*X408329Y969776*X408300Y969707*X408270Y969648*X408257Y969621*X408247Y969602*X408234Y969582*X408228Y969569*X408221Y969559*X409064Y969257*X409097Y969316*X409126Y969372*X409149Y969431*X409169Y969487*X409202Y969595*X409215Y969645*X409225Y969690*X409231Y969733*X409238Y969772*X409244Y969838*X409248Y969861*Y969894*X409241Y969979*X409228Y970058*X409212Y970130*X409189Y970192*X409166Y970241*X409149Y970281*X409139Y970294*X409136Y970304*X409130Y970310*Y970314*X409103Y970350*X409041Y970418*X409005Y970455*X408844Y970589*X408733Y970668*X408703Y970687*X408680Y970704*X408661Y970717*X408647Y970724*X408644Y970727*X409162*Y971626*G37*G36*X561026Y406245D2*G1X560981D1*X560817Y406237*X560658Y406216*X560506Y406187*X560366Y406146*X560231Y406097*X560108Y406040*X559993Y405982*X559891Y405925*X559719Y405806*X559645Y405749*X559587Y405703*X559542Y405662*X559481Y405601*X559378Y405474*X559288Y405339*X559206Y405199*X559140Y405052*X559083Y404904*X559034Y404756*X558997Y404609*X558964Y404469*X558940Y404338*X558923Y404215*X558907Y404105*X558899Y404010*Y403969*X558894Y403932*Y403899*X558890Y403871*Y403822*X558894Y403645*X558911Y403481*X558931Y403321*X558960Y403174*X558997Y403034*X559034Y402907*X559075Y402784*X559116Y402678*X559157Y402579*X559198Y402493*X559272Y402358*X559300Y402313*X559321Y402276*X559337Y402255*X559341Y402247*X559395Y402177*X559456Y402112*X559518Y402050*X559579Y401993*X559715Y401886*X559858Y401800*X560002Y401722*X560149Y401661*X560297Y401612*X560436Y401571*X560571Y401538*X560699Y401513*X560862Y401489*X560908Y401485*X560990Y401476*X561022*X561051Y401472*X561104*X561244Y401476*X561375Y401489*X561498Y401505*X561617Y401526*X561728Y401554*X561830Y401583*X561924Y401612*X562010Y401645*X562158Y401706*X562216Y401739*X562265Y401763*X562306Y401784*X562330Y401800*X562351Y401813*X562355Y401817*X562445Y401886*X562531Y401960*X562609Y402038*X562683Y402120*X562748Y402202*X562810Y402288*X562863Y402370*X562913Y402452*X562954Y402526*X562990Y402596*X563019Y402661*X563044Y402715*X563064Y402764*X563076Y402797*X563089Y402825*X561888Y403026*X561867Y402965*X561846Y402907*X561822Y402854*X561801Y402805*X561777Y402760*X561752Y402719*X561728Y402682*X561703Y402649*X561658Y402592*X561625Y402555*X561600Y402534*X561596Y402526*X561592*X561518Y402477*X561437Y402440*X561359Y402411*X561281Y402395*X561186Y402378*X561166*X561145Y402374*X561117*X561039Y402378*X560965Y402387*X560895Y402403*X560830Y402419*X560768Y402444*X560711Y402469*X560662Y402493*X560612Y402522*X560530Y402575*X560498Y402600*X560448Y402641*X560420Y402669*X560370Y402727*X560325Y402793*X560288Y402858*X560256Y402928*X560227Y402997*X560170Y403198*X560157Y403264*X560149Y403321*X560141Y403371*X560133Y403453*X560129Y403481*Y403506*X563154*Y403633*X563146Y403879*X563138Y403994*X563126Y404105*X563113Y404211*X563097Y404314*X563056Y404510*X563035Y404601*X563011Y404687*X562962Y404847*X562933Y404920*X562880Y405060*X562826Y405179*X562773Y405281*X562724Y405371*X562642Y405499*X562613Y405535*X562597Y405560*X562474Y405687*X562351Y405790*X562224Y405884*X562088Y405958*X561957Y406023*X561822Y406081*X561691Y406126*X561564Y406159*X561445Y406187*X561334Y406208*X561236Y406224*X561150Y406232*X561080Y406241*X561051*X561026Y406245*G37*G36*X410553Y588243D2*G1X409658D1*Y587279*X410553*Y588243*G37*G36*X409162Y591028D2*G1X405512D1*Y590060*X406807*X406886Y590057*X406962*X407030Y590054*X407099*X407336Y590041*X407526Y590028*X407601Y590021*X407723Y590008*X407804Y589995*X407831Y589988*X407850Y589985*X407860Y589982*X407864*X407965Y589949*X408008Y589929*X408050Y589913*X408087Y589893*X408119Y589873*X408149Y589857*X408175Y589841*X408198Y589824*X408218Y589808*X408267Y589758*X408303Y589703*X408333Y589644*X408352Y589588*X408365Y589532*X408372Y589486*X408379Y589447*Y589414*X408375Y589375*X408372Y589335*X408356Y589253*X408329Y589178*X408300Y589109*X408247Y589004*X408234Y588984*X408228Y588971*X408221Y588961*X409064Y588660*X409097Y588719*X409126Y588774*X409149Y588834*X409169Y588889*X409202Y588998*X409215Y589047*X409225Y589093*X409231Y589135*X409238Y589175*X409244Y589240*X409248Y589263*Y589296*X409241Y589381*X409228Y589460*X409212Y589532*X409189Y589595*X409166Y589644*X409149Y589683*X409139Y589696*X409136Y589706*X409130Y589713*Y589716*X409103Y589752*X409074Y589785*X409041Y589821*X409005Y589857*X408923Y589926*X408844Y589991*X408733Y590070*X408661Y590119*X408647Y590126*X408644Y590129*X409162*Y591028*G37*G36*X580661Y407901D2*G1X580620D1*X580452Y407893*X580297Y407872*X580149Y407844*X580014Y407803*X579886Y407754*X579768Y407696*X579661Y407639*X579563Y407581*X579403Y407462*X579341Y407405*X579288Y407360*X579247Y407319*X579218Y407286*X579198Y407266*X579194Y407257*X579136Y407179*X579083Y407102*X579034Y407011*X578989Y406921*X578907Y406729*X578837Y406528*X578775Y406314*X578726Y406101*X578685Y405892*X578652Y405683*X578616Y405392*X578599Y405211*X578595Y405134*X578587Y405056*X578583Y404986*Y404920*X578579Y404863*Y404814*X578575Y404773*Y404527*X578583Y404367*X578587Y404215*X578599Y404064*X578611Y403924*X578644Y403658*X578661Y403535*X578681Y403416*X578706Y403305*X578726Y403198*X578775Y403006*X578804Y402915*X578829Y402834*X578857Y402751*X578907Y402612*X578935Y402551*X578960Y402493*X578984Y402440*X579005Y402391*X579030Y402350*X579067Y402280*X579083Y402251*X579099Y402227*X579112Y402206*X579124Y402194*X579128Y402182*X579136Y402177*Y402173*X579189Y402108*X579247Y402050*X579362Y401940*X579485Y401845*X579608Y401767*X579731Y401698*X579854Y401640*X579977Y401595*X580091Y401558*X580198Y401526*X580301Y401505*X580391Y401489*X580469Y401480*X580530Y401472*X580559*X580579Y401468*X580620*X580789Y401476*X580944Y401497*X581092Y401530*X581227Y401571*X581358Y401616*X581473Y401673*X581580Y401731*X581678Y401792*X581764Y401850*X581838Y401907*X581953Y402013*X581994Y402055*X582023Y402083*X582043Y402104*X582047Y402112*X582105Y402190*X582158Y402268*X582207Y402354*X582252Y402448*X582334Y402637*X582404Y402842*X582465Y403055*X582515Y403268*X582556Y403481*X582588Y403690*X582625Y403986*X582633Y404076*X582642Y404162*X582646Y404244*X582654Y404322*X582658Y404391*Y404453*X582662Y404510*Y404564*X582666Y404605*Y404847*X582642Y405306*X582609Y405585*X582592Y405716*X582572Y405839*X582523Y406073*X582474Y406282*X582445Y406380*X582416Y406470*X582359Y406638*X582301Y406786*X582244Y406909*X582219Y406966*X582195Y407016*X582170Y407061*X582146Y407102*X582125Y407134*X582109Y407167*X582092Y407192*X582076Y407212*X582068Y407229*X582059Y407241*X582051Y407245*Y407249*X581949Y407364*X581842Y407467*X581727Y407553*X581608Y407626*X581490Y407688*X581371Y407741*X581256Y407786*X581141Y407819*X581035Y407848*X580936Y407868*X580772Y407893*X580707Y407897*X580682*X580661Y407901*G37*G36*X409162Y588243D2*G1X405512D1*Y587279*X409162*Y588243*G37*G36*X407152Y599858D2*G1X406998Y599835D1*X406853Y599802*X406719Y599762*X406594Y599720*X406479Y599671*X406371Y599618*X406276Y599566*X406191Y599513*X406115Y599461*X406046Y599411*X405991Y599366*X405909Y599294*X405882Y599267*X405863Y599244*X405784Y599143*X405718Y599034*X405659Y598919*X405610Y598798*X405568Y598677*X405532Y598556*X405502Y598434*X405479Y598316*X405459Y598208*X405446Y598106*X405436Y598011*X405427Y597896*Y597840*X405423Y597818*Y597775*X405430Y597539*X405440Y597430*X405453Y597326*X405479Y597139*X405495Y597056*X405515Y596981*X405532Y596912*X405548Y596853*X405561Y596801*X405574Y596758*X405597Y596699*X405600Y596686*X405604Y596679*X405640Y596601*X405679Y596525*X405768Y596387*X405863Y596273*X405909Y596220*X405955Y596174*X405997Y596135*X406037Y596099*X406073Y596069*X406102Y596043*X406128Y596027*X406148Y596010*X406161Y596004*X406165Y596000*X406237Y595958*X406309Y595922*X406381Y595889*X406453Y595859*X406522Y595836*X406588Y595817*X406653Y595800*X406716Y595787*X406771Y595777*X406820Y595771*X406866Y595764*X406906Y595761*X406935Y595758*X406978*X407066Y595761*X407149Y595767*X407231Y595777*X407306Y595787*X407378Y595803*X407444Y595820*X407503Y595840*X407558Y595856*X407611Y595876*X407723Y595925*X407749Y595938*X407765Y595948*X407778Y595954*X407782Y595958*X407841Y595997*X407949Y596082*X407998Y596128*X408044Y596174*X408087Y596223*X408126Y596266*X408159Y596312*X408192Y596355*X408218Y596391*X408260Y596456*X408290Y596512*X408293Y596515*X408329Y596587*X408398Y596748*X408431Y596837*X408493Y597017*X408546Y597197*X408572Y597283*X408641Y597542*X408644Y597565*X408651Y597581*X408654Y597594*Y597604*X408657Y597611*Y597614*X408690Y597749*X408723Y597867*X408785Y598073*X408841Y598237*X408867Y598303*X408893Y598362*X408916Y598408*X408936Y598451*X408953Y598483*X408969Y598506*X408979Y598526*X408989Y598539*X408992Y598546*X409044Y598598*X409097Y598637*X409149Y598664*X409195Y598680*X409238Y598693*X409271Y598697*X409284Y598700*X409300*X409336Y598697*X409369Y598693*X409431Y598673*X409487Y598647*X409533Y598618*X409592Y598565*X409609Y598546*X409615Y598542*Y598539*X409648Y598490*X409674Y598437*X409700Y598382*X409720Y598326*X409753Y598208*X409772Y598096*X409786Y597998*X409792Y597916*X409796Y597886*Y597844*X409789Y597693*X409779Y597624*X409769Y597562*X409756Y597503*X409743Y597450*X409727Y597404*X409694Y597322*X409664Y597263*X409651Y597240*X409641Y597224*X409631Y597211*X409628Y597204*X409592Y597161*X409553Y597125*X409510Y597096*X409468Y597066*X409376Y597017*X409284Y596978*X409241Y596965*X409199Y596951*X409162Y596942*X409130Y596932*X409103Y596925*X409084Y596922*X409071Y596919*X409067*X409113Y595902*X409241Y595912*X409359Y595931*X409474Y595958*X409579Y595991*X409677Y596030*X409769Y596072*X409851Y596118*X409927Y596164*X409996Y596210*X410055Y596253*X410104Y596295*X410179Y596361*X410202Y596387*X410219Y596400*X410222Y596407*X410294Y596502*X410360Y596607*X410415Y596715*X410461Y596833*X410504Y596951*X410537Y597070*X410563Y597188*X410586Y597299*X410602Y597407*X410615Y597509*X410625Y597598*X410635Y597713*Y597742*X410638Y597768*Y597834*X410632Y598044*X410612Y598234*X410599Y598323*X410583Y598405*X410550Y598549*X410534Y598611*X410517Y598667*X410504Y598713*X410488Y598756*X410478Y598785*X410468Y598808*X410465Y598824*X410461Y598828*X410428Y598903*X410389Y598972*X410350Y599038*X410268Y599156*X410225Y599208*X410143Y599297*X410068Y599366*X410009Y599418*X409969Y599448*X409956Y599454*X409953Y599457*X409891Y599497*X409825Y599530*X409763Y599559*X409638Y599605*X409579Y599621*X409468Y599648*X409418Y599654*X409333Y599667*X409271Y599674*X409231*X409123Y599667*X409018Y599654*X408916Y599631*X408821Y599602*X408733Y599566*X408647Y599526*X408572Y599487*X408500Y599441*X408382Y599359*X408333Y599320*X408260Y599254*X408238Y599231*X408224Y599218*X408162Y599143*X408113Y599067*X408064Y598982*X408014Y598893*X407972Y598798*X407929Y598703*X407893Y598605*X407857Y598513*X407828Y598421*X407798Y598336*X407755Y598195*X407749Y598165*X407739Y598139*X407732Y598116*X407726Y598080*X407723Y598070*X407719Y598064*Y598060*X407690Y597945*X407663Y597844*X407641Y597749*X407598Y597588*X407582Y597522*X407565Y597467*X407552Y597414*X407539Y597371*X407529Y597335*X407519Y597306*X407513Y597283*X407500Y597250*Y597247*X407480Y597201*X407463Y597155*X407444Y597116*X407424Y597079*X407408Y597047*X407388Y597014*X407355Y596965*X407326Y596925*X407299Y596899*X407286Y596883*X407231Y596843*X407178Y596817*X407129Y596801*X407080Y596788*X407037Y596781*X407004Y596774*X406975*X406922Y596778*X406873Y596784*X406827Y596797*X406781Y596814*X406699Y596853*X406627Y596899*X406594Y596922*X406568Y596945*X406542Y596965*X406522Y596984*X406506Y597001*X406496Y597014*X406489Y597020*X406450Y597073*X406417Y597125*X406391Y597184*X406368Y597243*X406328Y597368*X406306Y597486*X406296Y597545*X406289Y597594*X406283Y597683*X406279Y597719*Y597765*X406283Y597850*X406289Y597929*X406302Y598008*X406315Y598077*X406332Y598142*X406352Y598205*X406374Y598260*X406417Y598355*X406440Y598395*X406460Y598427*X406476Y598457*X406489Y598477*X406502Y598493*X406509Y598503*X406558Y598556*X406611Y598601*X406666Y598641*X406725Y598677*X406788Y598710*X406850Y598739*X406909Y598765*X406968Y598788*X407024Y598808*X407076Y598824*X407126Y598838*X407165Y598847*X407224Y598864*X407240Y598867*X407247*X407152Y599858*G37*G36*X429134Y866634D2*G1X428248Y865650D1*X430020*X429134Y866634*G37*G36*X407349Y595187D2*G1X407309D1*X407168Y595184*X407037Y595170*X406909Y595154*X406791Y595131*X406679Y595102*X406578Y595072*X406479Y595039*X406394Y595007*X406315Y594974*X406247Y594941*X406187Y594908*X406138Y594882*X406102Y594859*X406073Y594842*X406056Y594829*X406050Y594826*X405994Y594783*X405941Y594734*X405892Y594685*X405846Y594636*X405761Y594528*X405692Y594413*X405630Y594298*X405581Y594180*X405541Y594062*X405509Y593950*X405482Y593842*X405463Y593740*X405449Y593652*X405443Y593609*X405440Y593573*X405433Y593507*Y593481*X405430Y593458*Y593416*X405433Y593304*X405443Y593199*X405456Y593101*X405472Y593006*X405495Y592917*X405518Y592835*X405541Y592760*X405568Y592691*X405617Y592573*X405643Y592527*X405679Y592455*X405702Y592419*X405761Y592343*X405820Y592274*X405882Y592212*X405948Y592153*X406014Y592100*X406082Y592051*X406148Y592009*X406214Y591969*X406273Y591936*X406328Y591907*X406381Y591884*X406424Y591864*X406506Y591831*X406512Y591828*X406673Y592789*X406578Y592822*X406535Y592842*X406496Y592858*X406460Y592878*X406397Y592917*X406325Y592973*X406296Y592999*X406279Y593019*X406273Y593022*Y593025*X406233Y593084*X406204Y593150*X406181Y593212*X406158Y593327*X406155Y593350*Y593366*X406151Y593383*Y593406*X406155Y593468*X406161Y593527*X406187Y593636*X406207Y593685*X406227Y593731*X406247Y593770*X406292Y593845*X406312Y593875*X406332Y593901*X406352Y593924*X406365Y593940*X406384Y593960*X406433Y594003*X406486Y594039*X406538Y594068*X406594Y594095*X406650Y594118*X406811Y594164*X406863Y594173*X406948Y594186*X407014Y594193*X407037Y594196*X407057*Y591776*X407158*X407355Y591782*X407447Y591789*X407621Y591809*X407703Y591822*X407785Y591838*X407860Y591854*X407932Y591871*X408001Y591890*X408067Y591910*X408129Y591930*X408188Y591953*X408300Y591995*X408395Y592038*X408477Y592081*X408549Y592120*X408651Y592186*X408680Y592209*X408700Y592222*X408707Y592228*X408802Y592320*X408884Y592419*X408959Y592520*X409018Y592628*X409071Y592733*X409117Y592842*X409153Y592947*X409179Y593048*X409202Y593144*X409218Y593232*X409231Y593311*X409244Y593435*Y593458*X409248Y593478*Y593514*X409241Y593645*X409225Y593773*X409202Y593895*X409169Y594006*X409130Y594114*X409084Y594213*X409038Y594305*X408992Y594387*X408943Y594459*X408897Y594524*X408815Y594629*X408782Y594665*X408756Y594692*X408739Y594708*X408733Y594715*X408631Y594797*X408523Y594869*X408411Y594934*X408293Y594987*X408175Y595033*X408057Y595072*X407939Y595102*X407828Y595128*X407723Y595148*X407624Y595161*X407536Y595174*X407460Y595180*X407427*X407398Y595184*X407372*X407349Y595187*G37*G36*X555553Y406245D2*G1X555516D1*X555364Y406237*X555221Y406220*X555086Y406187*X554954Y406150*X554836Y406105*X554721Y406052*X554618Y405999*X554524Y405941*X554438Y405884*X554360Y405831*X554294Y405777*X554241Y405732*X554200Y405695*X554143Y405638*X554044Y405519*X553962Y405388*X553888Y405253*X553827Y405109*X553774Y404961*X553728Y404818*X553692Y404670*X553663Y404535*X553638Y404400*X553622Y404277*X553610Y404166*X553606Y404117*X553597Y404031*Y403961*X553593Y403932*Y403883*X553597Y403715*X553610Y403555*X553630Y403399*X553659Y403256*X553724Y402993*X553765Y402879*X553802Y402772*X553880Y402592*X553913Y402522*X553946Y402460*X553974Y402411*X554007Y402358*X554011Y402350*X554065Y402280*X554118Y402214*X554171Y402153*X554229Y402096*X554348Y401989*X554466Y401903*X554590Y401825*X554708Y401763*X554827Y401714*X554942Y401673*X555053Y401640*X555151Y401616*X555241Y401599*X555319Y401587*X555381Y401579*X555409*X555430Y401575*X555471*X555623Y401583*X555766Y401608*X555901Y401645*X556033Y401690*X556152Y401747*X556266Y401809*X556369Y401874*X556463Y401944*X556549Y402013*X556623Y402079*X556685Y402141*X556738Y402198*X556783Y402243*X556812Y402280*X556828Y402305*X556836Y402313*Y401575*X556832Y401505*Y401448*X556824Y401341*X556816Y401255*X556812Y401222*X556804Y401189*X556791Y401124*X556787Y401112*Y401103*X556750Y401021*X556709Y400960*X556672Y400907*X556631Y400866*X556566Y400808*X556549Y400796*X556496Y400767*X556443Y400742*X556332Y400710*X556213Y400685*X556098Y400665*X556045Y400661*X555947Y400652*X555910*X555877Y400648*X555766*X555705Y400652*X555590Y400669*X555545Y400677*X555500Y400689*X555422Y400714*X555393Y400722*X555364Y400734*X555344Y400747*X555323Y400755*X555299Y400771*X555295Y400775*X555291*X555245Y400816*X555213Y400866*X555184Y400919*X555163Y400976*X555147Y401025*X555139Y401066*X555135Y401083*X555131Y401095*Y401107*X553749Y401275*X553745Y401218*Y401128*X553749Y401017*X553765Y400911*X553790Y400808*X553819Y400714*X553856Y400624*X553897Y400542*X553942Y400464*X553987Y400394*X554032Y400332*X554118Y400230*X554155Y400193*X554184Y400160*X554208Y400136*X554225Y400123*X554229Y400119*X554327Y400050*X554442Y399988*X554561Y399935*X554692Y399890*X554827Y399853*X554967Y399820*X555102Y399791*X555237Y399771*X555369Y399754*X555487Y399742*X555647Y399730*X555692*X555733Y399726*X555770*X555803Y399722*X555996*X556102Y399726*X556299Y399742*X556389Y399750*X556549Y399775*X556685Y399799*X556787Y399824*X556824Y399832*X556857Y399840*X556881Y399849*X556894Y399853*X556898*X557041Y399906*X557107Y399935*X557168Y399963*X557226Y399992*X557324Y400050*X557369Y400078*X557406Y400107*X557472Y400152*X557492Y400173*X557513Y400189*X557525Y400201*X557533Y400205*X557537Y400210*X557623Y400304*X557697Y400406*X557763Y400509*X557816Y400611*X557837Y400656*X557874Y400742*X557886Y400775*X557906Y400824*X557910Y400837*Y400841*X557935Y400919*X557956Y401005*X557972Y401099*X557988Y401198*X558013Y401394*X558029Y401591*X558042Y401845*X558046Y401911*Y406138*X556914*Y405499*X556861Y405568*X556808Y405630*X556754Y405691*X556697Y405745*X556582Y405843*X556463Y405929*X556348Y406003*X556229Y406064*X556119Y406113*X556008Y406150*X555906Y406183*X555815Y406204*X555729Y406220*X555598Y406241*X555574*X555553Y406245*G37*G36*X409162Y1000224D2*G1X405512D1*Y999256*X406807*X406886Y999253*X406962*X407030Y999250*X407099*X407165Y999247*X407224Y999243*X407336Y999237*X407526Y999224*X407601Y999217*X407723Y999204*X407804Y999191*X407831Y999184*X407850Y999181*X407860Y999178*X407864*X407965Y999145*X408008Y999125*X408050Y999109*X408087Y999089*X408119Y999069*X408149Y999053*X408175Y999037*X408198Y999020*X408218Y999004*X408267Y998954*X408303Y998899*X408333Y998840*X408352Y998784*X408365Y998728*X408372Y998682*X408379Y998643*Y998610*X408375Y998571*X408372Y998531*X408356Y998449*X408329Y998374*X408300Y998305*X408247Y998200*X408234Y998180*X408228Y998167*X408224Y998161*X408221Y998158*X409064Y997856*X409097Y997915*X409126Y997970*X409149Y998030*X409169Y998085*X409202Y998194*X409215Y998243*X409225Y998289*X409231Y998331*X409238Y998371*X409244Y998436*X409248Y998459*Y998492*X409241Y998577*X409228Y998656*X409212Y998728*X409189Y998790*X409166Y998840*X409149Y998879*X409139Y998892*X409136Y998902*X409130Y998909*Y998912*X409103Y998948*X409074Y998981*X409041Y999017*X409005Y999053*X408923Y999122*X408844Y999187*X408733Y999266*X408661Y999315*X408647Y999322*X408644Y999325*X409162*Y1000224*G37*G36*X407349Y1004383D2*G1X407309D1*X407168Y1004380*X407037Y1004366*X406909Y1004350*X406791Y1004327*X406679Y1004298*X406578Y1004268*X406479Y1004235*X406394Y1004202*X406315Y1004170*X406247Y1004137*X406187Y1004104*X406138Y1004078*X406102Y1004055*X406073Y1004039*X406056Y1004025*X406050Y1004022*X405994Y1003979*X405941Y1003930*X405892Y1003881*X405846Y1003832*X405761Y1003724*X405692Y1003609*X405630Y1003494*X405581Y1003376*X405541Y1003258*X405509Y1003146*X405482Y1003038*X405463Y1002936*X405449Y1002848*X405443Y1002805*X405440Y1002769*X405433Y1002704*Y1002677*X405430Y1002654*Y1002612*X405433Y1002500*X405443Y1002395*X405456Y1002297*X405472Y1002202*X405495Y1002113*X405518Y1002031*X405541Y1001956*X405568Y1001887*X405617Y1001769*X405643Y1001723*X405663Y1001684*X405679Y1001651*X405702Y1001615*X405761Y1001539*X405820Y1001470*X405882Y1001408*X405948Y1001349*X406014Y1001297*X406082Y1001247*X406148Y1001205*X406214Y1001165*X406273Y1001132*X406328Y1001103*X406381Y1001080*X406424Y1001060*X406506Y1001027*X406512Y1001024*X406673Y1001985*X406578Y1002018*X406535Y1002038*X406496Y1002054*X406460Y1002074*X406397Y1002113*X406325Y1002169*X406296Y1002195*X406279Y1002215*X406273Y1002218*Y1002221*X406233Y1002281*X406204Y1002346*X406181Y1002408*X406158Y1002523*X406155Y1002546*Y1002563*X406151Y1002579*Y1002602*X406155Y1002664*X406161Y1002723*X406174Y1002779*X406187Y1002831*X406207Y1002881*X406227Y1002927*X406247Y1002966*X406292Y1003041*X406312Y1003071*X406332Y1003097*X406352Y1003120*X406365Y1003137*X406388Y1003160*X406433Y1003199*X406486Y1003235*X406538Y1003265*X406594Y1003291*X406650Y1003314*X406811Y1003360*X406863Y1003369*X406948Y1003382*X407014Y1003389*X407037Y1003392*X407057*Y1000972*X407158*X407355Y1000978*X407447Y1000985*X407621Y1001005*X407703Y1001018*X407785Y1001034*X407860Y1001050*X407932Y1001067*X408067Y1001106*X408129Y1001126*X408300Y1001192*X408395Y1001234*X408477Y1001277*X408549Y1001316*X408651Y1001382*X408680Y1001405*X408700Y1001418*X408707Y1001424*X408802Y1001516*X408884Y1001615*X408959Y1001716*X409018Y1001824*X409071Y1001929*X409117Y1002038*X409153Y1002143*X409179Y1002244*X409202Y1002339*X409218Y1002428*X409231Y1002507*X409244Y1002631*Y1002654*X409248Y1002674*Y1002710*X409241Y1002841*X409225Y1002969*X409202Y1003091*X409169Y1003202*X409130Y1003310*X409084Y1003409*X409038Y1003501*X408992Y1003583*X408943Y1003655*X408897Y1003720*X408815Y1003825*X408782Y1003861*X408756Y1003888*X408739Y1003904*X408733Y1003911*X408631Y1003993*X408523Y1004065*X408411Y1004130*X408293Y1004183*X408175Y1004229*X408057Y1004268*X407939Y1004298*X407828Y1004324*X407723Y1004344*X407624Y1004357*X407536Y1004370*X407460Y1004376*X407427*X407398Y1004380*X407372*X407349Y1004383*G37*G36*X409162Y997439D2*G1X405512D1*Y996475*X409162*Y997439*G37*G36*X410553Y997439D2*G1X409658D1*Y996475*X410553*Y997439*G37*G36*X410553Y582365D2*G1X405512D1*Y581401*X410553*Y582365*G37*G36*X406538Y586541D2*G1X406509D1*X406424Y586538*X406342Y586528*X406263Y586511*X406191Y586488*X406122Y586465*X406060Y586439*X406001Y586410*X405945Y586377*X405899Y586347*X405856Y586318*X405820Y586292*X405791Y586265*X405748Y586229*X405735Y586216*X405682Y586154*X405633Y586085*X405594Y586013*X405558Y585941*X405528Y585865*X405505Y585793*X405486Y585721*X405469Y585649*X405456Y585583*X405446Y585524*X405440Y585468*X405433Y585419*Y585380*X405430Y585353*Y585327*X405436Y585209*X405449Y585098*X405466Y584996*X405479Y584947*X405489Y584904*X405499Y584865*X405512Y584829*X405522Y584799*X405528Y584773*X405538Y584753*X405541Y584737*X405548Y584727*Y584724*X405597Y584619*X405656Y584524*X405715Y584432*X405774Y584353*X405827Y584287*X405850Y584261*X405869Y584238*X405905Y584199*X405909Y584196*X405896Y584189*X405879Y584186*X405843Y584173*X405827Y584166*X405810Y584163*X405800Y584160*X405797*X405732Y584140*X405673Y584120*X405623Y584107*X405584Y584094*X405551Y584081*X405528Y584074*X405515Y584068*X405512*Y583110*X405607Y583153*X405699Y583192*X405781Y583221*X405886Y583254*X405915Y583261*X405938Y583271*X405961Y583274*X405978Y583277*X405991Y583281*X405997Y583284*X406001*X406046Y583290*X406096Y583300*X406151Y583303*X406207Y583310*X406325Y583320*X406443Y583323*X406496Y583326*X406548*X406594Y583330*X406712*X407841Y583320*X407955*X408057Y583326*X408155Y583333*X408241Y583340*X408320Y583349*X408392Y583362*X408454Y583372*X408510Y583386*X408556Y583399*X408595Y583408*X408631Y583422*X408693Y583444*X408700Y583451*X408703*X408746Y583477*X408788Y583507*X408864Y583576*X408930Y583648*X408989Y583723*X409031Y583789*X409051Y583818*X409067Y583845*X409077Y583868*X409087Y583884*X409090Y583894*X409094Y583897*X409120Y583959*X409146Y584028*X409166Y584104*X409182Y584179*X409212Y584340*X409222Y584419*X409228Y584494*X409241Y584638*X409244Y584697*Y584753*X409248Y584796*Y584858*X409244Y584986*X409238Y585107*X409225Y585222*X409208Y585327*X409189Y585422*X409166Y585511*X409143Y585590*X409120Y585662*X409097Y585724*X409074Y585780*X409051Y585826*X408995Y585927*X408939Y585996*X408884Y586055*X408825Y586111*X408762Y586164*X408697Y586209*X408631Y586252*X408566Y586288*X408503Y586321*X408444Y586351*X408388Y586377*X408339Y586397*X408257Y586426*X408231Y586436*X408215Y586439*X408208Y586442*X408050Y585563*X408096Y585547*X408139Y585527*X408178Y585508*X408211Y585488*X408274Y585452*X408323Y585413*X408359Y585380*X408401Y585337*X408438Y585272*X408464Y585206*X408480Y585140*X408493Y585075*X408506Y584970*Y584858*X408500Y584796*X408497Y584737*X408487Y584684*X408480Y584638*X408470Y584596*X408457Y584560*X408447Y584524*X408438Y584497*X408424Y584471*X408408Y584435*X408398Y584425*X408395Y584415*X408388Y584409*X408365Y584386*X408336Y584363*X408277Y584330*X408211Y584304*X408146Y584287*X408060Y584274*X408037*X408018Y584271*X407893*X407850Y584386*X407811Y584527*X407791Y584602*X407772Y584681*X407703Y584979*X407680Y585098*X407660Y585193*X407657Y585203*Y585209*X407637Y585301*X407621Y585386*X407582Y585540*X407562Y585609*X407542Y585675*X407526Y585731*X407509Y585783*X407493Y585829*X407463Y585901*X407454Y585931*X407444Y585950*X407437Y585967*X407431Y585977*Y585980*X407378Y586075*X407319Y586157*X407257Y586226*X407198Y586285*X407145Y586331*X407099Y586367*X407083Y586377*X407070Y586387*X407063Y586390*X407060Y586393*X407014Y586419*X406968Y586442*X406873Y586479*X406778Y586505*X406620Y586534*X406588Y586538*X406561*X406538Y586541*G37*G36*X547300Y407754D2*G1X546086Y407048D1*Y406138*X545533*Y405175*X546086*Y402965*X546094Y402784*Y402706*X546098Y402637*X546111Y402473*X546119Y402403*Y402378*X546123Y402358*X546127Y402346*Y402333*X546148Y402227*X546172Y402137*X546201Y402055*X546230Y401989*X546254Y401931*X546275Y401895*X546291Y401870*X546295Y401866*Y401862*X546348Y401800*X546406Y401747*X546472Y401698*X546533Y401657*X546590Y401624*X546656Y401591*X546668Y401583*X546676Y401579*X546681*X546783Y401542*X546886Y401517*X546984Y401497*X547115Y401480*X547152Y401476*X547189*X547218Y401472*X547271*X547464Y401480*X547558Y401489*X547730Y401513*X547882Y401546*X547948Y401562*X548009Y401579*X548066Y401591*X548111Y401608*X548152Y401620*X548206Y401640*X548222Y401649*X548226*X548120Y402588*X548009Y402551*X547911Y402522*X547829Y402501*X547759Y402489*X547706Y402481*X547669Y402473*X547636*X547554Y402481*X547517Y402489*X547488Y402501*X547464Y402514*X547447Y402522*X547435Y402526*X547402Y402555*X547361Y402604*X547349Y402629*X547328Y402665*X547324Y402678*Y402682*X547320Y402706*X547312Y402776*Y402825*X547304Y402932*Y403100*X547300Y403153*Y405175*X548124*Y406138*X547300*Y407754*G37*G36*X407152Y1009054D2*G1X406998Y1009031D1*X406853Y1008998*X406719Y1008959*X406594Y1008916*X406479Y1008867*X406371Y1008814*X406276Y1008762*X406191Y1008709*X406115Y1008657*X406046Y1008608*X405991Y1008562*X405909Y1008490*X405882Y1008463*X405863Y1008440*X405784Y1008339*X405718Y1008230*X405659Y1008116*X405610Y1007994*X405568Y1007873*X405532Y1007751*X405502Y1007630*X405479Y1007512*X405459Y1007404*X405446Y1007302*X405436Y1007207*X405427Y1007092*Y1007036*X405423Y1007014*Y1006971*X405430Y1006735*X405440Y1006627*X405453Y1006522*X405479Y1006334*X405495Y1006252*X405515Y1006177*X405532Y1006108*X405548Y1006049*X405561Y1005997*X405574Y1005954*X405597Y1005895*X405600Y1005882*X405604Y1005875*X405640Y1005797*X405679Y1005721*X405768Y1005583*X405863Y1005469*X405909Y1005416*X405955Y1005370*X405997Y1005331*X406037Y1005295*X406073Y1005265*X406102Y1005239*X406128Y1005223*X406148Y1005206*X406161Y1005200*X406165Y1005196*X406237Y1005154*X406309Y1005118*X406381Y1005085*X406453Y1005055*X406522Y1005032*X406588Y1005013*X406653Y1004996*X406716Y1004983*X406771Y1004973*X406820Y1004967*X406866Y1004960*X406906Y1004957*X406935Y1004954*X406978*X407066Y1004957*X407149Y1004963*X407231Y1004973*X407306Y1004983*X407444Y1005016*X407503Y1005036*X407558Y1005052*X407611Y1005072*X407723Y1005121*X407749Y1005134*X407765Y1005144*X407778Y1005151*X407841Y1005193*X407949Y1005278*X407998Y1005324*X408044Y1005370*X408087Y1005419*X408126Y1005462*X408159Y1005508*X408192Y1005551*X408218Y1005587*X408260Y1005652*X408290Y1005708*X408293Y1005711*X408329Y1005783*X408398Y1005944*X408431Y1006033*X408493Y1006213*X408546Y1006394*X408572Y1006479*X408611Y1006627*X408641Y1006738*X408644Y1006761*X408651Y1006777*X408654Y1006791*Y1006800*X408657Y1006807*Y1006810*X408690Y1006945*X408723Y1007063*X408785Y1007269*X408841Y1007433*X408867Y1007499*X408893Y1007558*X408916Y1007604*X408936Y1007646*X408953Y1007679*X408969Y1007702*X408979Y1007722*X408989Y1007735*X408992Y1007742*X409044Y1007794*X409097Y1007833*X409149Y1007860*X409195Y1007876*X409238Y1007889*X409271Y1007893*X409284Y1007896*X409300*X409336Y1007893*X409369Y1007889*X409431Y1007870*X409487Y1007843*X409533Y1007814*X409592Y1007761*X409609Y1007742*X409615Y1007738*Y1007735*X409648Y1007686*X409674Y1007633*X409700Y1007578*X409720Y1007522*X409753Y1007404*X409772Y1007292*X409786Y1007194*X409792Y1007112*X409796Y1007082*Y1007040*X409789Y1006889*X409779Y1006820*X409769Y1006758*X409756Y1006699*X409743Y1006646*X409727Y1006600*X409694Y1006518*X409664Y1006459*X409651Y1006436*X409641Y1006420*X409631Y1006407*X409628Y1006400*X409592Y1006357*X409553Y1006321*X409510Y1006292*X409468Y1006262*X409376Y1006213*X409284Y1006174*X409199Y1006148*X409162Y1006138*X409130Y1006128*X409103Y1006121*X409084Y1006118*X409071Y1006115*X409067*X409113Y1005098*X409241Y1005108*X409359Y1005128*X409474Y1005154*X409579Y1005186*X409677Y1005226*X409769Y1005268*X409851Y1005315*X409927Y1005360*X409996Y1005406*X410055Y1005449*X410179Y1005557*X410202Y1005583*X410219Y1005597*X410222Y1005603*X410294Y1005698*X410360Y1005803*X410415Y1005911*X410461Y1006030*X410504Y1006148*X410537Y1006266*X410563Y1006384*X410586Y1006495*X410602Y1006604*X410615Y1006705*X410625Y1006794*X410635Y1006909*Y1006938*X410638Y1006964*Y1007030*X410632Y1007240*X410612Y1007430*X410599Y1007519*X410583Y1007601*X410550Y1007745*X410534Y1007807*X410517Y1007863*X410504Y1007909*X410488Y1007952*X410478Y1007981*X410468Y1008004*X410465Y1008020*X410461Y1008024*X410428Y1008099*X410389Y1008168*X410350Y1008234*X410268Y1008352*X410225Y1008404*X410143Y1008493*X410068Y1008562*X410009Y1008614*X409986Y1008630*X409969Y1008644*X409956Y1008650*X409953Y1008654*X409891Y1008693*X409825Y1008726*X409763Y1008755*X409638Y1008801*X409579Y1008817*X409468Y1008844*X409418Y1008850*X409333Y1008863*X409271Y1008870*X409231*X409123Y1008863*X409018Y1008850*X408916Y1008827*X408821Y1008798*X408733Y1008762*X408647Y1008722*X408572Y1008683*X408500Y1008637*X408438Y1008595*X408382Y1008555*X408333Y1008516*X408260Y1008450*X408238Y1008427*X408224Y1008414*X408162Y1008339*X408113Y1008263*X408064Y1008178*X408014Y1008089*X407972Y1007994*X407929Y1007899*X407893Y1007801*X407857Y1007709*X407828Y1007617*X407798Y1007532*X407755Y1007391*X407749Y1007361*X407739Y1007335*X407732Y1007312*X407726Y1007276*X407723Y1007266*X407719Y1007259*Y1007256*X407690Y1007141*X407663Y1007040*X407641Y1006945*X407598Y1006784*X407582Y1006718*X407565Y1006662*X407552Y1006610*X407539Y1006567*X407529Y1006531*X407519Y1006502*X407513Y1006479*X407500Y1006446*Y1006443*X407480Y1006397*X407463Y1006351*X407444Y1006312*X407424Y1006275*X407408Y1006243*X407388Y1006210*X407355Y1006161*X407326Y1006121*X407299Y1006095*X407286Y1006079*X407231Y1006039*X407178Y1006013*X407129Y1005997*X407080Y1005984*X407037Y1005977*X407004Y1005970*X406975*X406922Y1005974*X406873Y1005980*X406827Y1005993*X406781Y1006010*X406699Y1006049*X406627Y1006095*X406594Y1006118*X406568Y1006141*X406542Y1006161*X406522Y1006180*X406506Y1006197*X406496Y1006210*X406486Y1006220*X406450Y1006269*X406417Y1006321*X406391Y1006380*X406368Y1006439*X406328Y1006564*X406306Y1006682*X406296Y1006741*X406289Y1006791*X406283Y1006879*X406279Y1006915*Y1006961*X406283Y1007046*X406289Y1007125*X406302Y1007204*X406315Y1007273*X406332Y1007338*X406352Y1007401*X406374Y1007456*X406417Y1007551*X406440Y1007591*X406460Y1007624*X406476Y1007653*X406489Y1007673*X406502Y1007689*X406509Y1007699*X406558Y1007751*X406611Y1007797*X406666Y1007837*X406725Y1007873*X406788Y1007906*X406850Y1007935*X406909Y1007961*X406968Y1007984*X407024Y1008004*X407076Y1008020*X407126Y1008034*X407165Y1008043*X407224Y1008060*X407240Y1008063*X407247*X407152Y1009054*G37*G36*X577595Y402780D2*G1X576389D1*Y401575*X577595*Y402780*G37*G36*X409162Y867982D2*G1X405512Y866827D1*Y865886*X407860Y865269*X405512Y864639*Y863708*X409162Y862537*Y863488*X406768Y864187*X409162Y864797*Y865728*X406768Y866358*X409162Y867044*Y867982*G37*G36*X539461Y404461D2*G1X537087D1*Y403256*X539461*Y404461*G37*G36*X407349Y862307D2*G1X407309D1*X407168Y862304*X407037Y862291*X406909Y862275*X406791Y862252*X406679Y862222*X406578Y862193*X406479Y862160*X406394Y862127*X406315Y862094*X406247Y862061*X406187Y862029*X406138Y862002*X406102Y861979*X406073Y861963*X406056Y861950*X406050Y861947*X405994Y861904*X405941Y861855*X405892Y861806*X405846Y861756*X405761Y861648*X405692Y861533*X405630Y861419*X405581Y861300*X405541Y861182*X405509Y861071*X405482Y860963*X405463Y860861*X405449Y860772*X405443Y860730*X405440Y860694*X405433Y860628*Y860602*X405430Y860579*Y860536*X405433Y860425*X405443Y860320*X405456Y860221*X405472Y860126*X405495Y860038*X405518Y859956*X405541Y859880*X405568Y859811*X405617Y859693*X405643Y859647*X405663Y859608*X405679Y859575*X405692Y859556*X405702Y859539*X405705Y859536*X405761Y859464*X405820Y859395*X405882Y859332*X405948Y859273*X406014Y859221*X406082Y859172*X406148Y859129*X406214Y859090*X406328Y859027*X406463Y858968*X406489Y858959*X406512Y858949*X406673Y859910*X406624Y859926*X406578Y859943*X406496Y859979*X406460Y859998*X406427Y860018*X406397Y860038*X406371Y860057*X406325Y860093*X406296Y860120*X406279Y860139*X406273Y860143*Y860146*X406233Y860205*X406204Y860271*X406181Y860333*X406168Y860395*X406158Y860448*X406155Y860471*Y860487*X406151Y860503*Y860526*X406155Y860589*X406161Y860648*X406187Y860756*X406207Y860805*X406227Y860851*X406247Y860890*X406270Y860930*X406292Y860966*X406312Y860995*X406332Y861022*X406352Y861045*X406365Y861061*X406378Y861074*X406384Y861081*X406433Y861123*X406486Y861159*X406538Y861189*X406594Y861215*X406650Y861238*X406706Y861255*X406811Y861284*X406863Y861294*X406909Y861300*X406948Y861307*X406985Y861310*X407037Y861317*X407057*Y858896*X407158*X407260Y858899*X407355Y858903*X407447Y858909*X407621Y858929*X407703Y858942*X407860Y858975*X407932Y858991*X408001Y859011*X408129Y859050*X408300Y859116*X408395Y859159*X408477Y859201*X408549Y859241*X408651Y859306*X408680Y859329*X408700Y859342*X408802Y859441*X408884Y859539*X408959Y859641*X409018Y859749*X409071Y859854*X409117Y859962*X409153Y860067*X409179Y860169*X409202Y860264*X409218Y860353*X409231Y860431*X409244Y860556*Y860579*X409248Y860598*Y860635*X409241Y860766*X409225Y860894*X409202Y861015*X409169Y861127*X409130Y861235*X409084Y861333*X409038Y861425*X408992Y861507*X408943Y861579*X408897Y861645*X408815Y861750*X408782Y861786*X408733Y861835*X408631Y861917*X408523Y861989*X408411Y862055*X408293Y862107*X408175Y862153*X408057Y862193*X407939Y862222*X407828Y862248*X407723Y862268*X407624Y862281*X407536Y862294*X407460Y862301*X407427*X407398Y862304*X407372*X407349Y862307*G37*G36*X407411Y872033D2*G1X407388D1*X407273Y872029*X407162Y872023*X407057Y872010*X406955Y871996*X406860Y871977*X406693Y871937*X406617Y871914*X406552Y871891*X406493Y871872*X406440Y871852*X406397Y871832*X406365Y871819*X406325Y871800*X406319Y871796*X406240Y871751*X406165Y871698*X406096Y871646*X406030Y871590*X405971Y871531*X405919Y871475*X405869Y871416*X405823Y871360*X405784Y871311*X405751Y871262*X405699Y871180*X405679Y871147*X405659Y871111*X405617Y871019*X405581Y870934*X405551Y870845*X405525Y870763*X405502Y870681*X405486Y870599*X405469Y870524*X405449Y870389*X405443Y870330*X405436Y870278*X405430Y870196*Y870147*X405436Y869996*X405453Y869855*X405479Y869720*X405515Y869592*X405558Y869474*X405604Y869363*X405653Y869261*X405702Y869166*X405755Y869084*X405804Y869012*X405850Y868946*X405889Y868894*X405925Y868854*X405951Y868822*X405974Y868799*X406079Y868703*X406191Y868621*X406302Y868549*X406420Y868490*X406535Y868438*X406650Y868395*X406758Y868359*X406866Y868330*X406965Y868310*X407057Y868293*X407139Y868280*X407211Y868274*X407240Y868270*X407270Y868267*X407293*X407312Y868264*X407349*X407500Y868270*X407644Y868287*X407778Y868313*X407906Y868346*X408028Y868388*X408139Y868431*X408241Y868480*X408336Y868530*X408418Y868579*X408493Y868628*X408556Y868671*X408611Y868713*X408651Y868746*X408680Y868772*X408707Y868795*X408802Y868897*X408884Y869005*X408959Y869117*X409018Y869232*X409071Y869343*X409117Y869458*X409153Y869566*X409179Y869671*X409202Y869773*X409218Y869861*X409231Y869943*X409244Y870074*Y870097*X409248Y870117*Y870153*X409244Y870251*X409238Y870347*X409225Y870442*X409212Y870530*X409192Y870616*X409172Y870694*X409149Y870770*X409130Y870839*X409107Y870901*X409064Y871006*X409044Y871049*X409031Y871081*X409018Y871104*X409012Y871117*X408962Y871203*X408910Y871278*X408857Y871347*X408802Y871413*X408687Y871527*X408631Y871580*X408575Y871623*X408523Y871665*X408431Y871727*X408395Y871754*X408362Y871770*X408339Y871787*X408234Y871839*X408149Y871875*X408067Y871905*X407985Y871934*X407903Y871957*X407755Y871990*X407686Y872003*X407621Y872013*X407565Y872019*X407513Y872026*X407470Y872029*X407437*X407411Y872033*G37*G36*X499838Y404461D2*G1X497464D1*Y403256*X499838*Y404461*G37*G36*X405512Y876503D2*G1Y875486D1*X407414*Y874696*X407417Y874578*X407424Y874365*X407437Y874184*X407450Y874033*X407463Y873915*X407470Y873869*X407477Y873833*X407483Y873781*X407486Y873768*Y873764*X407513Y873666*X407545Y873571*X407585Y873482*X407624Y873404*X407663Y873335*X407680Y873308*X407693Y873285*X407706Y873266*X407716Y873253*X407719Y873243*X407723Y873240*X407795Y873145*X407877Y873063*X407959Y872987*X408037Y872925*X408074Y872898*X408139Y872856*X408205Y872816*X408215Y872813*X408218Y872810*X408280Y872780*X408342Y872754*X408408Y872731*X408474Y872711*X408605Y872682*X408670Y872669*X408730Y872659*X408785Y872653*X408923Y872643*X408956Y872639*X409002*X409113Y872643*X409218Y872653*X409317Y872666*X409408Y872685*X409497Y872708*X409576Y872731*X409651Y872761*X409720Y872787*X409779Y872813*X409832Y872840*X409877Y872866*X409914Y872889*X409943Y872908*X409966Y872921*X409979Y872931*X409982Y872935*X410051Y872990*X410114Y873049*X410169Y873108*X410222Y873171*X410264Y873233*X410307Y873292*X410343Y873351*X410373Y873407*X410399Y873459*X410422Y873509*X410438Y873551*X410455Y873587*X410465Y873617*X410471Y873640*X410478Y873653*Y873660*X410484Y873689*X410491Y873718*X410504Y873794*X410514Y873876*X410520Y873968*X410530Y874066*X410534Y874168*X410540Y874269*X410543Y874371*X410550Y874562*Y874647*X410553Y874719*Y876503*X405512*G37*G36*X523811Y404461D2*G1X521437D1*Y403256*X523811*Y404461*G37*G36*X409162Y858148D2*G1X405512D1*Y857181*X406807*X406886Y857178*X406962*X407030Y857174*X407099*X407224Y857168*X407336Y857161*X407526Y857148*X407667Y857135*X407768Y857122*X407804Y857115*X407850Y857105*X407860Y857102*X407864*X407916Y857086*X407965Y857069*X408008Y857049*X408050Y857033*X408087Y857014*X408119Y856994*X408149Y856977*X408175Y856961*X408198Y856945*X408218Y856928*X408267Y856879*X408303Y856823*X408333Y856764*X408352Y856708*X408365Y856653*X408372Y856607*X408379Y856567*Y856535*X408375Y856495*X408372Y856456*X408356Y856374*X408329Y856298*X408300Y856229*X408247Y856125*X408234Y856105*X408228Y856092*X408224Y856085*X408221Y856082*X409064Y855780*X409097Y855839*X409126Y855895*X409149Y855954*X409169Y856010*X409202Y856118*X409215Y856167*X409225Y856213*X409231Y856256*X409238Y856295*X409244Y856361*X409248Y856384*Y856417*X409241Y856502*X409228Y856581*X409212Y856653*X409189Y856715*X409166Y856764*X409149Y856804*X409139Y856817*X409136Y856826*X409130Y856833*Y856836*X409103Y856872*X409074Y856905*X409041Y856941*X409005Y856977*X408844Y857112*X408733Y857191*X408703Y857210*X408680Y857227*X408661Y857240*X408647Y857246*X408644Y857250*X409162*Y858148*G37*G36*X533651Y407983D2*G1X533602D1*X533360Y407975*X533245Y407963*X533130Y407946*X532913Y407901*X532708Y407848*X532519Y407782*X532343Y407708*X532183Y407630*X532035Y407549*X531904Y407467*X531847Y407430*X531789Y407389*X531691Y407315*X531609Y407249*X531547Y407196*X531519Y407171*X531498Y407151*X531470Y407122*X531461Y407114*X531388Y407032*X531318Y406942*X531252Y406851*X531195Y406761*X531138Y406663*X531084Y406565*X530994Y406364*X530912Y406163*X530846Y405958*X530793Y405761*X530752Y405568*X530703Y405298*X530691Y405216*X530666Y404994*X530658Y404871*X530654Y404822*Y404777*X530650Y404740*Y404670*X530658Y404400*X530682Y404141*X530723Y403899*X530777Y403678*X530805Y403572*X530838Y403469*X530871Y403371*X530904Y403276*X530941Y403186*X531014Y403018*X531055Y402940*X531092Y402866*X531129Y402797*X531236Y402620*X531269Y402571*X531301Y402522*X531330Y402481*X531359Y402444*X531384Y402415*X531404Y402387*X531425Y402366*X531437Y402346*X531449Y402333*X531535Y402247*X531613Y402173*X531695Y402108*X531781Y402042*X531863Y401985*X531949Y401927*X532122Y401829*X532298Y401747*X532470Y401677*X532634Y401620*X532794Y401575*X532946Y401542*X533085Y401513*X533146Y401505*X533208Y401493*X533265Y401489*X533315Y401480*X533401Y401472*X533438*X533466Y401468*X533524*X533708Y401472*X533884Y401489*X534053Y401513*X534212Y401546*X534360Y401583*X534500Y401628*X534627Y401673*X534741Y401718*X534844Y401763*X534934Y401809*X535012Y401854*X535078Y401891*X535131Y401923*X535168Y401948*X535188Y401964*X535196Y401968*X535315Y402067*X535426Y402177*X535529Y402296*X535623Y402419*X535709Y402547*X535787Y402674*X535857Y402797*X535918Y402920*X535971Y403039*X536017Y403145*X536058Y403243*X536115Y403399*X536123Y403428*X536131Y403453*X536135Y403473*X536139Y403485*X536144Y403494*Y403498*X534909Y403891*X534877Y403764*X534840Y403649*X534803Y403539*X534717Y403350*X534672Y403264*X534627Y403190*X534586Y403125*X534545Y403063*X534508Y403014*X534471Y402973*X534442Y402936*X534417Y402907*X534397Y402891*X534381Y402875*X534311Y402817*X534237Y402768*X534163Y402727*X534090Y402690*X534016Y402657*X533946Y402633*X533876Y402612*X533811Y402596*X533692Y402571*X533638Y402563*X533598Y402559*X533561*X533532Y402555*X533511*X533384Y402559*X533265Y402575*X533151Y402600*X533048Y402633*X532946Y402674*X532855Y402715*X532769Y402760*X532626Y402854*X532564Y402899*X532515Y402944*X532470Y402981*X532437Y403014*X532413Y403039*X532392Y403059*X532318Y403161*X532249Y403280*X532191Y403403*X532142Y403539*X532101Y403678*X532068Y403822*X532039Y403965*X532015Y404105*X531998Y404236*X531986Y404359*X531974Y404473*X531970Y404523*Y404568*X531966Y404613*Y404650*X531962Y404683*Y404765*X531966Y404970*X531982Y405158*X532003Y405335*X532031Y405494*X532064Y405642*X532101Y405773*X532138Y405896*X532179Y406003*X532257Y406175*X532294Y406241*X532327Y406298*X532355Y406339*X532376Y406368*X532392Y406388*X532482Y406483*X532573Y406560*X532663Y406626*X532761Y406683*X532855Y406733*X532950Y406774*X533130Y406835*X533216Y406856*X533290Y406872*X533360Y406880*X533421Y406888*X533470Y406892*X533503Y406897*X533536*X533630Y406892*X533720Y406884*X533803Y406872*X533962Y406831*X534098Y406782*X534159Y406757*X534258Y406704*X534299Y406679*X534336Y406659*X534360Y406638*X534381Y406626*X534393Y406618*X534397Y406614*X534463Y406560*X534520Y406499*X534573Y406437*X534622Y406372*X534663Y406310*X534700Y406245*X534737Y406183*X534766Y406122*X534791Y406064*X534811Y406011*X534828Y405962*X534840Y405921*X534852Y405888*X534864Y405843*Y405839*X536123Y406138*X536082Y406278*X536033Y406405*X535984Y406528*X535934Y406638*X535881Y406745*X535828Y406839*X535775Y406925*X535672Y407073*X535627Y407134*X535549Y407229*X535520Y407262*X535479Y407303*X535340Y407421*X535192Y407528*X535037Y407618*X534881Y407696*X534725Y407762*X534569Y407819*X534417Y407860*X534270Y407897*X534130Y407926*X534008Y407946*X533893Y407963*X533839Y407967*X533749Y407975*X533712Y407979*X533679*X533651Y407983*G37*G36*X527292Y407983D2*G1X527243D1*X527001Y407975*X526886Y407963*X526771Y407946*X526554Y407901*X526349Y407848*X526160Y407782*X525984Y407708*X525824Y407630*X525676Y407549*X525545Y407467*X525488Y407430*X525430Y407389*X525332Y407315*X525250Y407249*X525188Y407196*X525160Y407171*X525139Y407151*X525123Y407134*X525102Y407114*X525029Y407032*X524959Y406942*X524893Y406851*X524836Y406761*X524778Y406663*X524725Y406565*X524635Y406364*X524553Y406163*X524487Y405958*X524434Y405761*X524393Y405568*X524344Y405298*X524332Y405216*X524307Y404994*X524299Y404871*X524295Y404822*Y404777*X524291Y404740*Y404670*X524299Y404400*X524323Y404141*X524364Y403899*X524418Y403678*X524446Y403572*X524479Y403469*X524512Y403371*X524545Y403276*X524618Y403100*X524655Y403018*X524696Y402940*X524733Y402866*X524770Y402797*X524877Y402620*X524910Y402571*X524942Y402522*X524971Y402481*X525000Y402444*X525024Y402415*X525045Y402387*X525065Y402366*X525078Y402346*X525090Y402333*X525176Y402247*X525254Y402173*X525336Y402108*X525422Y402042*X525504Y401985*X525590Y401927*X525762Y401829*X525939Y401747*X526111Y401677*X526275Y401620*X526435Y401575*X526586Y401542*X526726Y401513*X526787Y401505*X526849Y401493*X526906Y401489*X526956Y401480*X527042Y401472*X527078*X527107Y401468*X527165*X527349Y401472*X527525Y401489*X527694Y401513*X527853Y401546*X528001Y401583*X528140Y401628*X528267Y401673*X528382Y401718*X528485Y401763*X528575Y401809*X528653Y401854*X528719Y401891*X528772Y401923*X528809Y401948*X528829Y401964*X528837Y401968*X528956Y402067*X529067Y402177*X529170Y402296*X529264Y402419*X529350Y402547*X529428Y402674*X529497Y402797*X529559Y402920*X529612Y403039*X529698Y403243*X529731Y403330*X529743Y403367*X529756Y403399*X529764Y403428*X529772Y403453*X529776Y403473*X529780Y403485*X529784Y403494*Y403498*X528550Y403891*X528518Y403764*X528481Y403649*X528444Y403539*X528358Y403350*X528313Y403264*X528227Y403125*X528186Y403063*X528149Y403014*X528112Y402973*X528083Y402936*X528058Y402907*X528038Y402891*X528026Y402879*X527952Y402817*X527878Y402768*X527804Y402727*X527730Y402690*X527657Y402657*X527587Y402633*X527517Y402612*X527452Y402596*X527333Y402571*X527279Y402563*X527238Y402559*X527202*X527173Y402555*X527152*X527025Y402559*X526906Y402575*X526791Y402600*X526689Y402633*X526586Y402674*X526496Y402715*X526410Y402760*X526267Y402854*X526205Y402899*X526156Y402944*X526111Y402981*X526033Y403059*X525959Y403161*X525889Y403280*X525832Y403403*X525783Y403539*X525742Y403678*X525709Y403822*X525680Y403965*X525656Y404105*X525639Y404236*X525627Y404359*X525615Y404473*X525611Y404523*Y404568*X525607Y404613*Y404650*X525602Y404683*Y404765*X525607Y404970*X525623Y405158*X525643Y405335*X525672Y405494*X525705Y405642*X525742Y405773*X525779Y405896*X525820Y406003*X525898Y406175*X525967Y406298*X526017Y406368*X526033Y406388*X526123Y406483*X526213Y406560*X526304Y406626*X526402Y406683*X526496Y406733*X526591Y406774*X526771Y406835*X526857Y406856*X526931Y406872*X527001Y406880*X527062Y406888*X527111Y406892*X527144Y406897*X527177*X527271Y406892*X527361Y406884*X527443Y406872*X527603Y406831*X527739Y406782*X527800Y406757*X527899Y406704*X527940Y406679*X527976Y406659*X528001Y406638*X528034Y406618*X528038Y406614*X528103Y406560*X528161Y406499*X528214Y406437*X528263Y406372*X528304Y406310*X528341Y406245*X528378Y406183*X528407Y406122*X528432Y406064*X528452Y406011*X528481Y405921*X528493Y405888*X528505Y405843*Y405839*X529764Y406138*X529723Y406278*X529674Y406405*X529625Y406528*X529575Y406638*X529522Y406745*X529469Y406839*X529416Y406925*X529313Y407073*X529268Y407134*X529190Y407229*X529161Y407262*X529124Y407298*X529120Y407303*X528981Y407421*X528833Y407528*X528678Y407618*X528522Y407696*X528366Y407762*X528210Y407819*X528058Y407860*X527911Y407897*X527771Y407926*X527648Y407946*X527534Y407963*X527480Y407967*X527390Y407975*X527353Y407979*X527320*X527292Y407983*G37*G36*X496747Y406138D2*G1X495324D1*X494475Y404883*X493668Y406138*X492192*X493770Y403924*X492122Y401575*X493536*X494475Y402989*X495402Y401575*X496886*X495197Y403977*X496747Y406138*G37*G36*X542453Y407983D2*G1X542372D1*X542109Y407975*X541986Y407963*X541871Y407950*X541761Y407934*X541658Y407913*X541564Y407893*X541478Y407872*X541400Y407852*X541330Y407831*X541273Y407815*X541183Y407782*X541154Y407770*X541133Y407766*X541129Y407762*X541035Y407721*X540949Y407671*X540867Y407622*X540789Y407569*X540719Y407520*X540654Y407467*X540543Y407364*X540420Y407229*X540391Y407196*X540371Y407167*X540354Y407147*X540346Y407130*X540342Y407126*X540293Y407048*X540252Y406966*X540215Y406888*X540186Y406811*X540158Y406733*X540137Y406659*X540121Y406585*X540104Y406519*X540088Y406400*X540080Y406351*X540071Y406273*Y406224*X540080Y406089*X540096Y405958*X540125Y405831*X540162Y405712*X540207Y405601*X540256Y405494*X540305Y405400*X540363Y405310*X540416Y405232*X540465Y405162*X540514Y405101*X540596Y405011*X540625Y404982*X540641Y404965*X540650Y404957*X540736Y404888*X540830Y404826*X541047Y404703*X541285Y404597*X541408Y404551*X541523Y404506*X541638Y404469*X541744Y404432*X541839Y404404*X541921Y404379*X541957Y404371*X541990Y404359*X542019Y404351*X542064Y404342*X542076Y404338*X542085Y404334*X542089*X542359Y404264*X542478Y404236*X542679Y404182*X542761Y404162*X542831Y404141*X542896Y404125*X542995Y404096*X543032Y404084*X543060Y404076*X543093Y404064*X543101Y404059*X543105*X543163Y404035*X543220Y404014*X543269Y403990*X543315Y403965*X543356Y403945*X543397Y403920*X543458Y403879*X543507Y403842*X543540Y403809*X543561Y403793*X543565Y403785*X543610Y403723*X543643Y403658*X543663Y403596*X543679Y403535*X543688Y403481*X543696Y403440*Y403403*X543692Y403338*X543683Y403276*X543667Y403219*X543647Y403161*X543597Y403059*X543540Y402969*X543511Y402928*X543483Y402895*X543458Y402862*X543433Y402838*X543413Y402817*X543397Y402805*X543384Y402793*X543323Y402747*X543257Y402706*X543183Y402674*X543110Y402645*X543032Y402620*X542954Y402596*X542806Y402567*X542732Y402555*X542671Y402547*X542515Y402534*X542458*X542351Y402538*X542253Y402547*X542154Y402563*X542068Y402579*X541986Y402600*X541908Y402624*X541839Y402653*X541777Y402682*X541720Y402706*X541670Y402735*X541629Y402760*X541593Y402780*X541568Y402797*X541547Y402813*X541535Y402821*X541469Y402883*X541412Y402948*X541363Y403018*X541318Y403092*X541277Y403170*X541240Y403248*X541207Y403321*X541178Y403395*X541154Y403465*X541133Y403531*X541117Y403592*X541105Y403641*X541084Y403715*X541080Y403735*Y403744*X539842Y403625*X539871Y403432*X539912Y403252*X539961Y403084*X540014Y402928*X540075Y402784*X540141Y402649*X540207Y402530*X540272Y402423*X540399Y402243*X540457Y402173*X540506Y402116*X540547Y402071*X540580Y402038*X540600Y402022*X540609Y402013*X540736Y401915*X540871Y401833*X541014Y401759*X541166Y401698*X541318Y401645*X541469Y401599*X541621Y401562*X541904Y401509*X542031Y401493*X542150Y401480*X542294Y401468*X542363*X542392Y401464*X542445*X542740Y401472*X542876Y401485*X543007Y401501*X543126Y401517*X543241Y401534*X543343Y401554*X543437Y401579*X543524Y401599*X543597Y401620*X543663Y401636*X543716Y401653*X543757Y401669*X543790Y401681*X543807Y401685*X543815Y401690*X543913Y401735*X544007Y401784*X544098Y401841*X544180Y401895*X544253Y401956*X544323Y402013*X544389Y402071*X544446Y402128*X544540Y402231*X544577Y402276*X544610Y402313*X544631Y402346*X544651Y402370*X544659Y402387*X544663Y402391*X544717Y402481*X544762Y402571*X544803Y402661*X544840Y402751*X544868Y402838*X544893Y402920*X544913Y403002*X544930Y403080*X544942Y403149*X544950Y403211*X544959Y403268*X544963Y403317*X544967Y403354*Y403407*X544963Y403518*X544954Y403621*X544942Y403723*X544930Y403818*X544909Y403908*X544889Y403990*X544864Y404064*X544844Y404133*X544819Y404199*X544795Y404252*X544758Y404338*X544741Y404371*X544729Y404391*X544721Y404408*X544717Y404412*X544667Y404486*X544614Y404556*X544561Y404621*X544503Y404683*X544446Y404740*X544385Y404793*X544331Y404843*X544274Y404883*X544221Y404924*X544175Y404957*X544130Y404986*X544094Y405011*X544061Y405027*X544024Y405048*X544020Y405052*X543929Y405097*X543835Y405138*X543729Y405183*X543618Y405224*X543392Y405302*X543167Y405367*X543060Y405400*X542798Y405470*X542736Y405486*X542708Y405490*X542687Y405499*X542671Y405503*X542659*X542650Y405507*X542646*X542478Y405548*X542331Y405589*X542191Y405630*X542072Y405667*X541961Y405703*X541867Y405736*X541785Y405769*X541711Y405802*X541654Y405831*X541601Y405855*X541560Y405876*X541531Y405896*X541506Y405908*X541490Y405921*X541482Y405925*X541416Y405991*X541367Y406056*X541334Y406122*X541314Y406179*X541297Y406232*X541293Y406273*X541289Y406290*Y406310*X541297Y406396*X541322Y406474*X541355Y406544*X541392Y406601*X541429Y406642*X541457Y406675*X541482Y406696*X541486Y406704*X541490*X541551Y406745*X541617Y406778*X541687Y406811*X541756Y406835*X541904Y406876*X542043Y406901*X542167Y406917*X542269Y406925*X542306Y406929*X542359*X542548Y406921*X542634Y406909*X542712Y406897*X542786Y406880*X542851Y406864*X542962Y406823*X543011Y406802*X543052Y406782*X543085Y406765*X543114Y406749*X543134Y406737*X543151Y406724*X543159Y406720*X543163Y406716*X543212Y406675*X543257Y406626*X543331Y406519*X543392Y406405*X543442Y406290*X543499Y406097*X543507Y406064*X543511Y406040*X543515Y406023*Y406019*X544786Y406077*X544774Y406237*X544749Y406384*X544717Y406528*X544676Y406659*X544627Y406782*X544573Y406897*X544516Y406999*X544458Y407093*X544401Y407179*X544348Y407253*X544294Y407315*X544249Y407368*X544212Y407409*X544180Y407438*X544163Y407458*X544155Y407462*X544036Y407553*X543905Y407635*X543770Y407704*X543622Y407762*X543474Y407815*X543327Y407856*X543179Y407889*X543040Y407917*X542905Y407938*X542777Y407954*X542667Y407967*X542564Y407975*X542523Y407979*X542486*X542453Y407983*G37*G36*X509063Y407876D2*G1X507153D1*X506021Y403576*X504877Y407876*X502975*Y401575*X504155*Y406536*X505402Y401575*X506628*X507878Y406536*Y401575*X509063*Y407876*G37*G36*X433115Y964567D2*G1X433040D1*X432928Y964564*X432820Y964560*X432715Y964550*X432613Y964537*X432420Y964505*X432325Y964485*X432236Y964462*X432151Y964439*X432069Y964413*X431990Y964386*X431839Y964328*X431770Y964298*X431705Y964265*X431642Y964236*X431587Y964206*X431531Y964173*X431478Y964144*X431387Y964085*X431308Y964032*X431275Y964009*X431249Y963986*X431223Y963967*X431200Y963947*X431167Y963921*X431088Y963842*X431029Y963773*X430977Y963708*X430924Y963635*X430832Y963491*X430754Y963344*X430688Y963193*X430632Y963045*X430586Y962901*X430550Y962760*X430501Y962504*X430494Y962448*X430485Y962396*X430481Y962346*X430475Y962300*X430472Y962258*X430468Y962222*Y962189*X430465Y962163*Y962113*X430468Y962012*X430472Y961910*X430481Y961815*X430494Y961720*X430527Y961539*X430573Y961369*X430626Y961211*X430681Y961067*X430744Y960933*X430809Y960811*X430842Y960756*X430904Y960657*X430967Y960569*X430993Y960529*X431023Y960493*X431068Y960434*X431091Y960411*X431108Y960392*X431124Y960372*X431154Y960342*X431219Y960283*X431288Y960224*X431360Y960172*X431432Y960122*X431508Y960077*X431587Y960034*X431744Y959958*X431902Y959893*X432059Y959840*X432216Y959795*X432367Y959758*X432508Y959732*X432640Y959713*X432702Y959703*X432758Y959696*X432813Y959690*X432945Y959680*X432981*X433010Y959676*X433063*X433178Y959680*X433289Y959683*X433394Y959693*X433601Y959719*X433791Y959758*X433883Y959781*X433971Y959804*X434057Y959831*X434214Y959890*X434286Y959919*X434358Y959949*X434424Y959978*X434486Y960011*X434545Y960044*X434601Y960073*X434654Y960103*X434703Y960132*X434745Y960162*X434788Y960191*X434824Y960218*X434857Y960241*X434886Y960264*X434913Y960283*X434936Y960303*X434968Y960329*X435047Y960408*X435106Y960477*X435162Y960546*X435214Y960614*X435306Y960759*X435346Y960831*X435385Y960906*X435451Y961057*X435510Y961205*X435592Y961487*X435641Y961743*X435647Y961799*X435657Y961851*X435660Y961900*X435667Y961946*X435670Y961986*X435674Y962022*Y962054*X435677Y962081*Y962130*X435674Y962245*X435667Y962353*X435647Y962560*X435631Y962655*X435614Y962743*X435595Y962825*X435578Y962904*X435559Y962973*X435539Y963035*X435523Y963088*X435510Y963134*X435496Y963166*X435487Y963193*X435477Y963216*X435447Y963281*X435414Y963347*X435342Y963468*X435306Y963524*X435270Y963576*X435231Y963629*X435162Y963717*X435129Y963754*X435100Y963790*X435073Y963816*X435054Y963839*X435024Y963868*X434906Y963973*X434788Y964065*X434729Y964108*X434670Y964147*X434617Y964183*X434516Y964242*X434470Y964265*X434430Y964288*X434398Y964305*X434371Y964318*X434348Y964331*X434335Y964334*X434332Y964337*X434230Y964377*X434125Y964413*X434020Y964442*X433909Y964468*X433801Y964491*X433692Y964511*X433591Y964528*X433489Y964537*X433397Y964547*X433233Y964560*X433168Y964564*X433141*X433115Y964567*G37*G36*X434201Y958893D2*G1X430550D1*Y957928*X432315*X432508Y957922*X432594Y957918*X432669Y957912*X432800Y957899*X432899Y957886*X432938Y957879*X432997Y957866*X433017Y957863*X433033Y957859*X433040Y957856*X433043*X433125Y957823*X433194Y957781*X433256Y957735*X433309Y957689*X433351Y957646*X433381Y957613*X433394Y957600*X433400Y957590*X433407Y957584*Y957580*X433453Y957505*X433486Y957426*X433512Y957348*X433528Y957279*X433542Y957193*Y957170*X433545Y957151*Y957128*X433542Y957059*X433528Y956993*X433515Y956938*X433496Y956888*X433479Y956849*X433463Y956820*X433446Y956797*X433407Y956747*X433364Y956705*X433319Y956669*X433276Y956642*X433237Y956619*X433184Y956596*X433181Y956593*X433178*X433141Y956583*X433043Y956564*X432984Y956557*X432925Y956551*X432859Y956547*X432731Y956538*X432669*X432610Y956534*X432554*X432508Y956531*X430550*Y955563*X432899*X433158Y955576*X433210Y955580*X433259Y955586*X433302Y955590*X433342Y955596*X433374Y955603*X433427Y955609*X433446Y955612*X433460Y955616*X433466Y955619*X433469*X433551Y955642*X433627Y955672*X433696Y955701*X433755Y955734*X433804Y955763*X433824Y955777*X433843Y955786*X433870Y955806*X433938Y955865*X433994Y955927*X434047Y955996*X434089Y956059*X434122Y956118*X434135Y956144*X434148Y956167*X434155Y956183*X434168Y956206*Y956209*X434207Y956311*X434237Y956413*X434257Y956508*X434273Y956600*X434276Y956639*X434283Y956711*Y956738*X434286Y956761*Y956793*X434280Y956928*X434260Y957052*X434230Y957174*X434191Y957289*X434142Y957394*X434089Y957492*X434034Y957584*X433978Y957666*X433919Y957741*X433863Y957807*X433765Y957912*X433673Y957990*X433670Y957997*X434201*Y958893*G37*G36*X409162Y939078D2*G1X405512Y937923D1*Y936982*X407860Y936365*X405512Y935736*Y934804*X409162Y933633*Y934584*X406768Y935283*X409162Y935893*Y936824*X406768Y937454*X409162Y938140*Y939078*G37*G36*X407349Y933403D2*G1X407309D1*X407168Y933400*X407037Y933387*X406909Y933371*X406791Y933348*X406679Y933318*X406578Y933289*X406479Y933256*X406394Y933223*X406315Y933190*X406247Y933157*X406187Y933125*X406138Y933098*X406102Y933075*X406073Y933059*X406056Y933046*X406050Y933043*X405994Y933000*X405941Y932951*X405892Y932901*X405846Y932852*X405761Y932744*X405692Y932629*X405630Y932514*X405581Y932396*X405541Y932278*X405509Y932167*X405482Y932059*X405463Y931957*X405449Y931868*X405443Y931826*X405440Y931790*X405433Y931724*Y931698*X405430Y931675*Y931632*X405433Y931521*X405443Y931416*X405456Y931317*X405472Y931222*X405495Y931134*X405518Y931052*X405541Y930976*X405568Y930907*X405617Y930789*X405643Y930743*X405663Y930704*X405679Y930671*X405702Y930635*X405705Y930632*X405761Y930560*X405820Y930491*X405882Y930428*X405948Y930369*X406014Y930317*X406082Y930268*X406148Y930225*X406214Y930186*X406328Y930123*X406463Y930064*X406506Y930048*X406512Y930045*X406673Y931006*X406624Y931022*X406578Y931038*X406535Y931058*X406496Y931075*X406460Y931094*X406427Y931114*X406397Y931134*X406371Y931153*X406325Y931189*X406296Y931216*X406279Y931235*X406273Y931239*Y931242*X406233Y931301*X406204Y931367*X406181Y931429*X406168Y931491*X406158Y931544*X406155Y931567*Y931583*X406151Y931599*Y931622*X406155Y931685*X406161Y931744*X406174Y931800*X406187Y931852*X406207Y931901*X406227Y931947*X406247Y931986*X406270Y932026*X406292Y932062*X406312Y932091*X406332Y932118*X406352Y932141*X406365Y932157*X406378Y932170*X406384Y932177*X406433Y932219*X406486Y932255*X406538Y932285*X406594Y932311*X406650Y932334*X406706Y932351*X406811Y932380*X406863Y932390*X406909Y932396*X406948Y932403*X407014Y932409*X407037Y932413*X407057*Y929992*X407158*X407355Y929999*X407447Y930005*X407621Y930025*X407703Y930038*X407785Y930054*X407932Y930087*X408001Y930107*X408129Y930146*X408300Y930212*X408395Y930255*X408477Y930297*X408549Y930337*X408651Y930402*X408680Y930425*X408700Y930438*X408802Y930537*X408884Y930635*X408959Y930737*X409018Y930845*X409071Y930950*X409117Y931058*X409153Y931163*X409179Y931265*X409202Y931360*X409218Y931448*X409231Y931527*X409244Y931652*Y931675*X409248Y931695*Y931731*X409241Y931862*X409225Y931990*X409202Y932111*X409169Y932223*X409130Y932331*X409084Y932429*X409038Y932521*X408992Y932603*X408943Y932675*X408897Y932741*X408815Y932846*X408782Y932882*X408756Y932908*X408739Y932924*X408733Y932931*X408631Y933013*X408523Y933085*X408411Y933151*X408293Y933203*X408175Y933249*X408057Y933289*X407939Y933318*X407828Y933344*X407723Y933364*X407624Y933377*X407536Y933390*X407496Y933393*X407460Y933397*X407427*X407398Y933400*X407372*X407349Y933403*G37*G36*X409162Y929244D2*G1X405512D1*Y928277*X406807*X406886Y928273*X406962*X407030Y928270*X407099*X407224Y928264*X407437Y928251*X407526Y928244*X407667Y928231*X407768Y928218*X407804Y928211*X407850Y928201*X407860Y928198*X407864*X407916Y928182*X407965Y928165*X408008Y928146*X408050Y928129*X408087Y928109*X408149Y928073*X408175Y928057*X408198Y928041*X408218Y928024*X408244Y927998*X408260Y927981*X408267Y927975*X408303Y927919*X408333Y927860*X408352Y927804*X408365Y927749*X408372Y927703*X408379Y927663*Y927631*X408375Y927591*X408372Y927552*X408356Y927470*X408329Y927394*X408300Y927326*X408270Y927267*X408257Y927240*X408247Y927221*X408234Y927201*X408228Y927188*X408224Y927181*X408221Y927178*X409064Y926876*X409097Y926935*X409126Y926991*X409149Y927050*X409169Y927106*X409202Y927214*X409215Y927263*X409225Y927309*X409231Y927352*X409238Y927391*X409244Y927457*X409248Y927480*Y927512*X409241Y927598*X409228Y927676*X409212Y927749*X409189Y927811*X409166Y927860*X409149Y927899*X409139Y927913*X409136Y927923*X409130Y927929*Y927932*X409103Y927968*X409074Y928001*X409041Y928037*X409005Y928073*X408844Y928208*X408733Y928287*X408703Y928306*X408680Y928323*X408661Y928336*X408647Y928342*X408644Y928346*X409162*Y929244*G37*G36*X407411Y943129D2*G1X407388D1*X407273Y943125*X407162Y943119*X406955Y943093*X406860Y943073*X406693Y943034*X406617Y943011*X406552Y942988*X406493Y942968*X406440Y942948*X406365Y942915*X406325Y942896*X406319Y942892*X406240Y942846*X406165Y942794*X406096Y942741*X406030Y942686*X405971Y942627*X405919Y942571*X405869Y942512*X405823Y942456*X405784Y942407*X405751Y942358*X405699Y942276*X405679Y942243*X405659Y942207*X405617Y942115*X405581Y942030*X405551Y941941*X405525Y941859*X405502Y941777*X405486Y941695*X405469Y941620*X405449Y941485*X405443Y941426*X405436Y941374*X405430Y941292*Y941243*X405436Y941092*X405453Y940951*X405479Y940816*X405515Y940688*X405558Y940570*X405604Y940459*X405653Y940357*X405702Y940262*X405755Y940180*X405804Y940108*X405850Y940042*X405889Y939990*X405925Y939950*X405951Y939917*X405968Y939901*X405974Y939894*X406079Y939799*X406191Y939717*X406302Y939645*X406420Y939586*X406535Y939534*X406650Y939491*X406758Y939455*X406866Y939425*X407057Y939389*X407139Y939376*X407211Y939370*X407240Y939366*X407270Y939363*X407293*X407312Y939360*X407349*X407500Y939366*X407644Y939383*X407778Y939409*X407906Y939442*X408028Y939485*X408139Y939527*X408241Y939576*X408336Y939625*X408418Y939675*X408493Y939724*X408556Y939767*X408611Y939809*X408651Y939842*X408680Y939868*X408707Y939891*X408802Y939993*X408884Y940101*X408959Y940213*X409018Y940327*X409071Y940439*X409117Y940554*X409153Y940662*X409179Y940767*X409202Y940869*X409218Y940957*X409231Y941039*X409244Y941170*Y941193*X409248Y941213*Y941249*X409244Y941348*X409238Y941443*X409225Y941538*X409212Y941626*X409192Y941712*X409172Y941790*X409149Y941866*X409130Y941935*X409107Y941997*X409064Y942102*X409044Y942145*X409031Y942177*X409018Y942200*X409012Y942214*X409008Y942220*X408962Y942299*X408910Y942374*X408857Y942443*X408802Y942509*X408687Y942624*X408631Y942676*X408575Y942719*X408523Y942761*X408474Y942794*X408395Y942850*X408362Y942866*X408339Y942883*X408234Y942935*X408149Y942971*X408067Y943001*X407985Y943030*X407903Y943053*X407828Y943069*X407755Y943086*X407686Y943099*X407621Y943109*X407513Y943122*X407470Y943125*X407437*X407411Y943129*G37*G36*X407349Y962861D2*G1X407309D1*X407168Y962858*X407037Y962845*X406909Y962829*X406791Y962806*X406679Y962776*X406578Y962747*X406479Y962714*X406394Y962681*X406315Y962648*X406247Y962615*X406187Y962583*X406138Y962556*X406102Y962533*X406073Y962517*X406056Y962504*X406050Y962501*X405994Y962458*X405941Y962409*X405892Y962360*X405846Y962310*X405761Y962202*X405692Y962087*X405630Y961973*X405581Y961854*X405541Y961736*X405509Y961625*X405482Y961517*X405463Y961415*X405449Y961326*X405443Y961284*X405440Y961248*X405433Y961182*Y961156*X405430Y961133*Y961090*X405433Y960979*X405443Y960874*X405456Y960775*X405472Y960680*X405495Y960592*X405518Y960510*X405541Y960434*X405568Y960365*X405617Y960247*X405643Y960201*X405663Y960162*X405679Y960129*X405692Y960110*X405702Y960093*X405705Y960090*X405761Y960018*X405820Y959949*X405882Y959886*X405948Y959827*X406014Y959775*X406082Y959726*X406148Y959683*X406214Y959644*X406328Y959581*X406463Y959522*X406489Y959513*X406512Y959503*X406673Y960464*X406624Y960480*X406578Y960497*X406496Y960533*X406460Y960552*X406427Y960572*X406397Y960592*X406371Y960611*X406325Y960647*X406296Y960674*X406279Y960693*X406273Y960697*Y960700*X406233Y960759*X406204Y960824*X406181Y960887*X406168Y960949*X406158Y961002*X406155Y961025*Y961041*X406151Y961057*Y961080*X406155Y961143*X406161Y961202*X406187Y961310*X406207Y961359*X406227Y961405*X406247Y961444*X406270Y961484*X406292Y961520*X406312Y961549*X406332Y961576*X406352Y961599*X406365Y961615*X406378Y961628*X406384Y961635*X406433Y961677*X406486Y961713*X406538Y961743*X406594Y961769*X406650Y961792*X406811Y961838*X406863Y961848*X406909Y961854*X406948Y961861*X406985Y961864*X407037Y961871*X407057*Y959450*X407158*X407260Y959453*X407355Y959457*X407447Y959463*X407621Y959483*X407703Y959496*X407860Y959529*X407932Y959545*X408001Y959565*X408129Y959604*X408300Y959670*X408395Y959713*X408477Y959755*X408549Y959795*X408651Y959860*X408680Y959883*X408700Y959896*X408802Y959995*X408884Y960093*X408959Y960195*X409018Y960303*X409071Y960408*X409117Y960516*X409153Y960621*X409179Y960723*X409202Y960818*X409218Y960907*X409231Y960985*X409244Y961110*Y961133*X409248Y961152*Y961189*X409241Y961320*X409225Y961448*X409202Y961569*X409169Y961681*X409130Y961789*X409084Y961887*X409038Y961979*X408992Y962061*X408943Y962133*X408897Y962199*X408815Y962304*X408782Y962340*X408733Y962389*X408631Y962471*X408523Y962543*X408411Y962609*X408293Y962661*X408175Y962707*X408057Y962747*X407939Y962776*X407828Y962802*X407723Y962822*X407624Y962835*X407536Y962848*X407460Y962855*X407427*X407398Y962858*X407372*X407349Y962861*G37*G36*X405512Y947599D2*G1Y946582D1*X407414*Y945792*X407417Y945674*X407424Y945461*X407437Y945280*X407450Y945129*X407463Y945011*X407470Y944965*X407477Y944929*X407483Y944877*X407486Y944864*Y944860*X407513Y944762*X407545Y944667*X407585Y944578*X407624Y944500*X407663Y944431*X407680Y944405*X407693Y944382*X407706Y944362*X407716Y944349*X407719Y944339*X407723Y944336*X407795Y944240*X407877Y944158*X407959Y944083*X408037Y944021*X408074Y943995*X408110Y943972*X408139Y943952*X408165Y943935*X408205Y943913*X408215Y943909*X408218Y943906*X408280Y943876*X408342Y943850*X408408Y943827*X408474Y943808*X408605Y943778*X408670Y943765*X408730Y943755*X408785Y943748*X408884Y943742*X408923Y943739*X408956Y943735*X409002*X409113Y943739*X409218Y943748*X409317Y943762*X409408Y943781*X409497Y943804*X409576Y943827*X409651Y943857*X409720Y943883*X409779Y943909*X409832Y943935*X409914Y943985*X409943Y944004*X409966Y944018*X409979Y944027*X409982Y944031*X410051Y944086*X410114Y944145*X410169Y944204*X410222Y944267*X410264Y944329*X410307Y944388*X410343Y944447*X410373Y944503*X410399Y944555*X410422Y944605*X410438Y944647*X410455Y944683*X410465Y944713*X410471Y944736*X410478Y944749*Y944755*X410484Y944785*X410491Y944814*X410504Y944890*X410514Y944972*X410520Y945064*X410530Y945162*X410534Y945264*X410540Y945366*X410543Y945467*X410550Y945658*Y945743*X410553Y945815*Y947599*X405512*G37*G36*X518469Y407901D2*G1X518407D1*X518218Y407893*X518128Y407885*X518042Y407872*X517882Y407840*X517808Y407823*X517743Y407803*X517681Y407786*X517583Y407749*X517542Y407737*X517509Y407721*X517489Y407713*X517472Y407708*X517468Y407704*X517390Y407667*X517320Y407626*X517189Y407540*X517132Y407495*X517079Y407450*X516984Y407364*X516947Y407323*X516911Y407286*X516882Y407253*X516861Y407225*X516828Y407184*X516820Y407171*X516816Y407167*X516775Y407102*X516734Y407032*X516665Y406880*X516603Y406729*X516554Y406585*X516496Y406400*X516484Y406351*X516476Y406310*X516468Y406282*X516464Y406265*Y406257*X517579Y406068*X517603Y406212*X517620Y406278*X517640Y406339*X517661Y406396*X517681Y406446*X517706Y406491*X517726Y406536*X517751Y406573*X517771Y406601*X517788Y406630*X517808Y406651*X517821Y406671*X517837Y406687*X517841Y406692*X517882Y406729*X517927Y406765*X517972Y406794*X518017Y406819*X518108Y406856*X518190Y406880*X518263Y406897*X518296Y406901*X518345Y406909*X518432*X518485Y406901*X518587Y406880*X518674Y406847*X518743Y406815*X518801Y406782*X518846Y406749*X518858Y406737*X518870Y406729*X518874Y406724*X518879Y406720*X518911Y406683*X518940Y406642*X518989Y406560*X519022Y406478*X519042Y406396*X519059Y406323*X519063Y406294*Y406265*X519067Y406245*Y406212*X519063Y406142*X519055Y406081*X519042Y406019*X519026Y405962*X519006Y405908*X518985Y405859*X518961Y405814*X518940Y405773*X518915Y405736*X518891Y405703*X518870Y405679*X518850Y405654*X518821Y405626*X518809Y405613*X518760Y405572*X518702Y405540*X518645Y405511*X518583Y405486*X518456Y405445*X518337Y405421*X518280Y405412*X518182Y405404*X518141Y405400*X518058*X517927Y404416*X518046Y404445*X518149Y404469*X518243Y404486*X518362Y404498*X518391Y404502*X518419*X518440Y404506*X518481*X518546Y404502*X518608Y404494*X518665Y404482*X518723Y404465*X518870Y404400*X518911Y404375*X518948Y404346*X518985Y404326*X519010Y404301*X519055Y404264*X519079Y404240*X519125Y404186*X519161Y404133*X519194Y404076*X519223Y404014*X519247Y403953*X519297Y403781*X519313Y403678*X519321Y403592*X519325Y403563*Y403518*X519321Y403428*X519313Y403346*X519301Y403268*X519284Y403194*X519264Y403125*X519243Y403063*X519219Y403006*X519198Y402952*X519174Y402907*X519129Y402834*X519108Y402805*X519092Y402780*X519079Y402764*X519071Y402756*X519067Y402751*X519018Y402702*X518969Y402657*X518915Y402620*X518862Y402588*X518809Y402559*X518755Y402538*X518706Y402518*X518612Y402493*X518571Y402485*X518534Y402477*X518501Y402473*X518477Y402469*X518440*X518313Y402477*X518255Y402489*X518202Y402505*X518099Y402542*X518013Y402588*X517940Y402629*X517915Y402649*X517890Y402665*X517870Y402682*X517858Y402694*X517849Y402698*X517800Y402747*X517726Y402854*X517694Y402911*X517644Y403022*X517603Y403133*X517587Y403186*X517575Y403231*X517558Y403313*X517554Y403346*X517550Y403367*X517546Y403383*Y403387*X516373Y403248*X516394Y403100*X516427Y402965*X516468Y402834*X516513Y402710*X516566Y402596*X516619Y402489*X516677Y402391*X516734Y402301*X516787Y402223*X516845Y402153*X516894Y402096*X516935Y402046*X516972Y402005*X517001Y401981*X517017Y401960*X517025Y401956*X517136Y401870*X517251Y401796*X517366Y401731*X517485Y401673*X517607Y401628*X517722Y401587*X517837Y401554*X517948Y401530*X518050Y401509*X518149Y401493*X518231Y401485*X518304Y401476*X518366Y401472*X518391Y401468*X518448*X518612Y401476*X518772Y401493*X518924Y401521*X519063Y401558*X519198Y401604*X519321Y401653*X519436Y401706*X519543Y401759*X519633Y401813*X519719Y401866*X519789Y401915*X519846Y401960*X519895Y401997*X519928Y402026*X519949Y402042*X520063Y402161*X520158Y402280*X520240Y402399*X520309Y402518*X520367Y402637*X520416Y402756*X520457Y402870*X520490Y402977*X520514Y403080*X520531Y403174*X520547Y403256*X520555Y403326*X520564Y403428*Y403465*X520560Y403572*X520551Y403670*X520535Y403768*X520514Y403859*X520461Y404023*X520400Y404166*X520371Y404227*X520338Y404281*X520314Y404330*X520289Y404367*X520264Y404400*X520240Y404437*X520236Y404441*X520174Y404515*X520104Y404580*X520035Y404642*X519965Y404695*X519891Y404740*X519822Y404785*X519682Y404855*X519617Y404879*X519559Y404904*X519506Y404924*X519461Y404937*X519424Y404949*X519379Y404961*X519371*X519530Y405060*X519604Y405109*X519670Y405162*X519735Y405216*X519793Y405269*X519846Y405322*X519895Y405380*X519985Y405490*X520059Y405597*X520121Y405708*X520166Y405810*X520203Y405908*X520231Y405999*X520252Y406077*X520268Y406150*X520277Y406208*X520281Y406249*Y406286*X520277Y406392*X520260Y406499*X520240Y406601*X520211Y406696*X520178Y406790*X520141Y406876*X520100Y406958*X520059Y407032*X520018Y407097*X519977Y407159*X519940Y407208*X519908Y407253*X519879Y407290*X519858Y407315*X519838Y407335*X519731Y407434*X519621Y407524*X519506Y407598*X519387Y407663*X519268Y407717*X519149Y407762*X519030Y407799*X518920Y407831*X518813Y407852*X518719Y407872*X518628Y407885*X518555Y407893*X518493Y407897*X518469Y407901*G37*G36*X514069Y407876D2*G1Y404252D1*X514065Y404129*Y404010*X514053Y403719*X514045Y403641*X514041Y403572*X514036Y403510*X514028Y403461*X514020Y403379*X514016Y403354*Y403334*X514012Y403321*Y403317*X514000Y403260*X513983Y403202*X513938Y403100*X513885Y403006*X513827Y402928*X513799Y402895*X513774Y402862*X513749Y402838*X513729Y402817*X513708Y402801*X513684Y402776*X513630Y402739*X513569Y402702*X513508Y402674*X513442Y402649*X513307Y402608*X513171Y402583*X513052Y402567*X512958Y402559*X512921Y402555*X512868*X512679Y402563*X512593Y402575*X512437Y402608*X512368Y402629*X512306Y402649*X512249Y402674*X512195Y402694*X512114Y402735*X512085Y402751*X512060Y402768*X512044Y402780*X512032Y402784*X511974Y402834*X511921Y402883*X511876Y402932*X511839Y402985*X511802Y403034*X511769Y403088*X511716Y403186*X511695Y403231*X511679Y403272*X511667Y403309*X511654Y403342*X511646Y403371*X511642Y403391*X511638Y403403*Y403407*X511630Y403461*X511613Y403596*X511601Y403846*X511597Y404027*X511593Y404113*Y404191*X511589Y404264*Y407876*X510318*Y404322*X510322Y404141*X510338Y403818*X510346Y403674*X510359Y403543*X510367Y403424*X510379Y403317*X510404Y403141*X510412Y403075*X510420Y403018*X510428Y402973*X510441Y402924*Y402915*X510457Y402846*X510531Y402653*X510592Y402534*X510650Y402428*X510678Y402383*X510707Y402342*X510732Y402305*X510752Y402272*X510773Y402247*X510785Y402231*X510793Y402218*X510851Y402153*X510908Y402096*X511027Y401989*X511150Y401899*X511269Y401821*X511322Y401788*X511371Y401755*X511421Y401731*X511457Y401710*X511490Y401694*X511515Y401681*X511531Y401677*X511535Y401673*X511630Y401636*X511728Y401608*X511835Y401579*X511945Y401554*X512175Y401517*X512396Y401493*X512499Y401485*X512757Y401472*X512819Y401468*X512905*X513171Y401476*X513294Y401485*X513409Y401497*X513520Y401513*X513708Y401546*X513795Y401562*X513934Y401595*X514036Y401628*X514069Y401640*X514098Y401649*X514114Y401657*X514118*X514205Y401694*X514360Y401776*X514430Y401817*X514557Y401903*X514610Y401944*X514705Y402022*X514746Y402059*X514779Y402091*X514807Y402116*X514828Y402141*X514856Y402169*X514906Y402231*X514955Y402296*X515033Y402432*X515098Y402563*X515152Y402686*X515172Y402743*X515193Y402797*X515205Y402842*X515217Y402883*X515225Y402915*X515234Y402940*X515238Y402956*Y402961*X515258Y403055*X515275Y403166*X515299Y403412*X515311Y403543*X515320Y403674*X515324Y403809*X515332Y403940*X515340Y404182*Y404289*X515344Y404379*Y407876*X514069*G37*G36*X570748Y406138D2*G1X569505D1*X568636Y403809*X568611Y403735*X568562Y403604*X568546Y403543*X568530Y403494*X568517Y403457*X568509Y403432*X568505Y403428*Y403424*X568501Y403403*X568493Y403379*X568476Y403321*X568435Y403190*X568415Y403129*X568398Y403080*X568390Y403059*X568386Y403043*X568382Y403034*Y403030*X568132Y403809*X567271Y406138*X566004*X567845Y401575*X568931*X570748Y406138*G37*G36*X407411Y910643D2*G1X407388D1*X407273Y910640*X407162Y910634*X406955Y910607*X406860Y910588*X406693Y910548*X406617Y910525*X406552Y910502*X406493Y910483*X406440Y910463*X406397Y910443*X406365Y910430*X406325Y910411*X406319Y910407*X406240Y910361*X406165Y910309*X406096Y910256*X406030Y910201*X405971Y910142*X405919Y910086*X405869Y910027*X405823Y909971*X405784Y909922*X405751Y909873*X405699Y909791*X405679Y909758*X405659Y909722*X405617Y909630*X405581Y909545*X405551Y909456*X405525Y909374*X405502Y909292*X405486Y909210*X405469Y909135*X405449Y909000*X405443Y908941*X405436Y908889*X405430Y908807*Y908757*X405436Y908607*X405453Y908465*X405479Y908331*X405515Y908203*X405558Y908085*X405604Y907973*X405653Y907872*X405702Y907777*X405755Y907695*X405804Y907623*X405850Y907557*X405889Y907504*X405925Y907465*X405951Y907432*X405968Y907416*X405974Y907409*X406079Y907314*X406191Y907232*X406302Y907160*X406420Y907101*X406535Y907049*X406650Y907006*X406758Y906970*X406866Y906940*X407057Y906904*X407139Y906891*X407211Y906885*X407240Y906881*X407270Y906878*X407293*X407312Y906875*X407349*X407500Y906881*X407644Y906898*X407778Y906924*X407906Y906957*X408028Y906999*X408139Y907042*X408241Y907091*X408336Y907140*X408418Y907190*X408556Y907281*X408611Y907324*X408651Y907357*X408680Y907383*X408700Y907399*X408802Y907508*X408884Y907616*X408959Y907728*X409018Y907842*X409071Y907954*X409117Y908069*X409153Y908177*X409179Y908282*X409202Y908383*X409218Y908472*X409231Y908554*X409244Y908685*Y908708*X409248Y908728*Y908764*X409244Y908862*X409238Y908957*X409225Y909053*X409212Y909141*X409192Y909227*X409172Y909305*X409149Y909381*X409130Y909449*X409107Y909512*X409064Y909617*X409044Y909659*X409031Y909692*X409018Y909715*X409012Y909728*X408962Y909814*X408910Y909889*X408857Y909958*X408802Y910023*X408743Y910083*X408687Y910138*X408631Y910191*X408575Y910233*X408523Y910276*X408431Y910338*X408395Y910365*X408362Y910381*X408339Y910398*X408234Y910450*X408149Y910486*X408067Y910515*X407985Y910545*X407903Y910568*X407828Y910584*X407755Y910601*X407686Y910614*X407621Y910624*X407565Y910630*X407513Y910637*X407470Y910640*X407437*X407411Y910643*G37*G36*X409162Y906124D2*G1X405512D1*Y905159*X407276*X407470Y905153*X407555Y905149*X407631Y905143*X407762Y905130*X407860Y905117*X407900Y905110*X407959Y905097*X407978Y905094*X407995Y905090*X408001Y905087*X408005*X408087Y905054*X408155Y905012*X408218Y904966*X408270Y904920*X408313Y904877*X408342Y904844*X408356Y904831*X408362Y904821*X408369Y904815*Y904812*X408415Y904736*X408447Y904657*X408474Y904579*X408490Y904510*X408500Y904451*X408503Y904425*Y904402*X408506Y904382*Y904359*X408503Y904290*X408490Y904224*X408477Y904169*X408441Y904080*X408424Y904051*X408411Y904034*X408408Y904028*X408369Y903979*X408326Y903936*X408280Y903900*X408238Y903874*X408198Y903851*X408169Y903837*X408155Y903831*X408146Y903828*X408142Y903824*X408139*X408103Y903815*X408057Y903805*X408005Y903795*X407946Y903788*X407887Y903782*X407821Y903778*X407693Y903769*X407631*X407572Y903765*X407516*X407470Y903762*X405512*Y902794*X407860*X408060Y902804*X408172Y902811*X408221Y902817*X408264Y902821*X408303Y902827*X408336Y902834*X408388Y902840*X408421Y902847*X408428Y902850*X408431*X408513Y902873*X408588Y902903*X408657Y902932*X408716Y902965*X408766Y902995*X408785Y903008*X408805Y903018*X408828Y903034*X408834Y903040*X408900Y903096*X408956Y903158*X409008Y903227*X409051Y903290*X409084Y903349*X409097Y903375*X409110Y903398*X409123Y903428*X409130Y903437*Y903441*X409169Y903542*X409199Y903644*X409218Y903739*X409235Y903831*X409241Y903910*X409244Y903942*Y903969*X409248Y903992*Y904024*X409244Y904090*X409241Y904159*X409222Y904284*X409192Y904405*X409153Y904520*X409103Y904625*X409051Y904723*X408995Y904815*X408939Y904897*X408880Y904972*X408825Y905038*X408726Y905143*X408634Y905222*X408631Y905228*X409162*Y906124*G37*G36*X409162Y913166D2*G1X408392D1*Y912723*X406624*X406548Y912720*X406479Y912716*X406417*X406312Y912710*X406270Y912707*X406174Y912697*X406155*X406138Y912694*X406128Y912690*X406119*X406033Y912674*X405961Y912654*X405896Y912631*X405843Y912608*X405797Y912589*X405768Y912572*X405748Y912559*X405745Y912556*X405741*X405692Y912513*X405650Y912467*X405610Y912415*X405577Y912366*X405551Y912319*X405532Y912280*X405525Y912267*X405518Y912257*X405515Y912251*Y912247*X405486Y912165*X405466Y912083*X405449Y912005*X405436Y911900*X405433Y911870*Y911841*X405430Y911818*Y911775*X405436Y911621*X405443Y911545*X405463Y911408*X405476Y911345*X405489Y911286*X405515Y911185*X405525Y911139*X405538Y911103*X405548Y911070*X405564Y911027*X405571Y911014*Y911011*X406322Y911096*X406292Y911185*X406270Y911263*X406253Y911329*X406243Y911385*X406237Y911427*X406230Y911457*Y911483*X406233Y911516*X406237Y911549*X406243Y911578*X406253Y911601*X406270Y911634*X406273Y911644*X406296Y911670*X406315Y911687*X406335Y911703*X406355Y911713*X406371Y911723*X406384Y911729*X406394Y911732*X406397*X406417Y911736*X406473Y911742*X406512*X406598Y911749*X406732*X406775Y911752*X408392*Y911093*X409162*Y911752*X410455*X409891Y912723*X409162*Y913166*G37*G36*X405512Y924492D2*G1Y922602D1*X405515Y922520*Y922369*X405518Y922301*Y922173*X405522Y922114*Y922058*X405525Y922009*Y921959*X405528Y921871*X405535Y921733*Y921677*X405541Y921602*Y921576*X405545Y921559*Y921546*X405554Y921471*X405568Y921402*X405584Y921333*X405600Y921271*X405620Y921208*X405640Y921153*X405663Y921103*X405682Y921054*X405702Y921012*X405722Y920975*X405738Y920943*X405755Y920916*X405764Y920897*X405774Y920880*X405781Y920870*X405784Y920867*X405863Y920769*X405948Y920680*X406033Y920605*X406115Y920543*X406155Y920516*X406220Y920474*X406273Y920444*X406289Y920434*X406299Y920431*X406302Y920428*X406365Y920398*X406424Y920375*X406486Y920352*X406657Y920306*X406758Y920287*X406804Y920280*X406847Y920277*X406883Y920270*X406912*X406939Y920267*X406971*X407053Y920270*X407129Y920277*X407204Y920290*X407273Y920306*X407342Y920326*X407404Y920346*X407463Y920369*X407516Y920392*X407565Y920415*X407644Y920457*X407673Y920477*X407700Y920493*X407729Y920513*X407791Y920566*X407844Y920618*X407896Y920674*X407942Y920730*X407982Y920788*X408021Y920848*X408054Y920907*X408083Y920962*X408110Y921015*X408133Y921064*X408152Y921110*X408165Y921149*X408178Y921179*X408185Y921205*X408192Y921218*Y921225*X408221Y921166*X408254Y921107*X408287Y921054*X408323Y921005*X408359Y920959*X408467Y920841*X408503Y920811*X408562Y920759*X408585Y920743*X408605Y920726*X408631Y920710*X408634Y920706*X408690Y920674*X408746Y920644*X408805Y920618*X408861Y920595*X408916Y920579*X408969Y920562*X409021Y920549*X409071Y920539*X409117Y920533*X409156Y920526*X409225Y920520*X409248Y920516*X409346*X409402Y920523*X409513Y920539*X409615Y920566*X409661Y920579*X409704Y920592*X409740Y920608*X409802Y920634*X409828Y920648*X409848Y920657*X409861Y920664*X409871Y920667*X409874Y920670*X409969Y920733*X410051Y920795*X410123Y920861*X410183Y920923*X410232Y920975*X410248Y920998*X410288Y921048*X410291Y921054*X410350Y921146*X410396Y921238*X410432Y921326*X410458Y921408*X410471Y921445*X410481Y921481*X410494Y921536*X410497Y921556*X410504Y921582*Y921585*X410514Y921645*X410534Y921848*X410543Y922071*X410547Y922140*X410550Y922209*Y922271*X410553Y922330*Y924492*X405512*G37*G36*X409162Y919437D2*G1X406758D1*X406670Y919431*X406509Y919417*X406437Y919408*X406368Y919394*X406309Y919385*X406253Y919372*X406204Y919358*X406165Y919349*X406125Y919335*X406073Y919319*X406056Y919312*X406046Y919306*X406043*X405991Y919280*X405941Y919250*X405850Y919185*X405810Y919149*X405771Y919116*X405738Y919080*X405709Y919044*X405679Y919014*X405656Y918981*X405636Y918955*X405607Y918909*X405597Y918896*X405594Y918886*X405590Y918883*X405561Y918827*X405538Y918771*X405515Y918712*X405499Y918657*X405469Y918545*X405449Y918443*X405443Y918394*X405440Y918351*X405430Y918256*Y918220*X405436Y918086*X405456Y917961*X405482Y917843*X405515Y917741*X405528Y917696*X405545Y917656*X405558Y917620*X405594Y917538*X405597Y917535*X405666Y917420*X405702Y917364*X405738Y917315*X405778Y917269*X405853Y917187*X405889Y917151*X405925Y917118*X405955Y917089*X405984Y917066*X406007Y917046*X406027Y917030*X406053Y917013*X406056Y917010*X405512*Y916111*X409162*Y917079*X407480*X407414Y917082*X407355*X407240Y917085*X407135Y917089*X407047Y917095*X406896Y917108*X406834Y917115*X406742Y917128*X406706Y917135*X406679Y917141*X406660Y917144*X406647Y917148*X406640Y917151*X406637*X406565Y917184*X406499Y917223*X406443Y917269*X406394Y917312*X406325Y917387*X406312Y917400*X406302Y917417*X406299Y917420*X406253Y917495*X406220Y917571*X406197Y917646*X406181Y917715*X406171Y917774*X406168Y917800*Y917820*X406165Y917840*Y917863*X406168Y917941*X406181Y918010*X406197Y918069*X406233Y918165*X406250Y918194*X406263Y918214*X406266Y918217*Y918220*X406309Y918270*X406352Y918309*X406397Y918345*X406443Y918371*X406483Y918391*X406512Y918407*X406525Y918410*X406535Y918414*X406538Y918417*X406542*X406561Y918420*X406581Y918427*X406693Y918440*X406762Y918447*X406837Y918453*X407158Y918466*X407303*X407362Y918470*X409162*Y919437*G37*G36*X409162Y915511D2*G1X408392D1*Y915068*X406624*X406479Y915062*X406417*X406230Y915049*X406174Y915042*X406155*X406138Y915039*X406128Y915035*X406119*X406033Y915019*X405961Y914999*X405896Y914976*X405843Y914953*X405797Y914934*X405768Y914917*X405748Y914904*X405745Y914901*X405741*X405692Y914858*X405650Y914812*X405610Y914760*X405577Y914711*X405551Y914665*X405532Y914625*X405525Y914612*X405518Y914602*X405515Y914596*Y914593*X405486Y914511*X405466Y914429*X405449Y914350*X405436Y914245*X405433Y914215*Y914186*X405430Y914163*Y914120*X405436Y913966*X405443Y913891*X405463Y913753*X405489Y913632*X405502Y913579*X405515Y913530*X405525Y913484*X405538Y913448*X405548Y913415*X405564Y913372*X405571Y913359*Y913356*X406322Y913441*X406292Y913530*X406270Y913609*X406253Y913674*X406243Y913730*X406237Y913773*X406230Y913802*Y913828*X406233Y913861*X406237Y913894*X406243Y913923*X406253Y913946*X406270Y913979*X406273Y913989*X406296Y914015*X406315Y914032*X406335Y914048*X406355Y914058*X406371Y914068*X406394Y914078*X406443Y914084*X406473Y914087*X406512*X406552Y914091*X406598Y914094*X406732*X406775Y914097*X408392*Y913438*X409162*Y914097*X410455*X409891Y915068*X409162*Y915511*G37*
%LPC*%
X0Y0D2*G36*X409714Y923475D2*G1X408549D1*Y922553*X408552Y922491*Y922363*X408556Y922304*Y922245*X408559Y922189*Y922140*X408562Y922101*X408566Y922068*Y922064*X408569Y922055*Y922042*X408572Y922025*X408579Y922002*X408582Y921976*X408598Y921917*X408621Y921851*X408654Y921782*X408693Y921717*X408752Y921651*X408762Y921645*X408772Y921635*X408805Y921609*X408851Y921582*X408910Y921556*X408976Y921530*X409054Y921513*X409094Y921507*X409162*X409179Y921510*X409199*X409222Y921513*X409274Y921523*X409333Y921536*X409399Y921559*X409458Y921592*X409517Y921635*X409520*X409523Y921641*X409540Y921658*X409566Y921687*X409595Y921730*X409625Y921786*X409654Y921851*X409681Y921930*X409697Y922019*Y922038*X409700Y922055*Y922074*X409704Y922104*Y922140*X409707Y922182*Y922297*X409710Y922366*Y922448*X409714Y922540*Y923475*G37*G36*X407709Y923475D2*G1X406361D1*Y922399*X406365Y922350*Y922238*X406368Y922120*X406374Y922005*X406384Y921864*X406391Y921832*Y921828*X406394Y921822*X406401Y921795*X406414Y921753*X406433Y921700*X406460Y921641*X406493Y921582*X406538Y921520*X406594Y921461*X406620Y921441*X406637Y921431*X406657Y921418*X406679Y921405*X406706Y921392*X406768Y921366*X406840Y921343*X406925Y921326*X406971Y921320*X407060*X407076Y921323*X407155Y921333*X407214Y921346*X407280Y921366*X407342Y921395*X407404Y921431*X407408*X407411Y921438*X407431Y921451*X407460Y921477*X407493Y921510*X407532Y921556*X407572Y921612*X407608Y921674*X407637Y921749*Y921753*X407641Y921759*X407644Y921772*X407647Y921792*X407654Y921818*X407667Y921891*X407680Y921996*X407693Y922133*X407700Y922219*X407709Y922527*Y923475*G37*G36*X407336Y942138D2*G1X407312D1*X407283Y942135*X407247*X407201Y942132*X407149Y942125*X407093Y942115*X407030Y942105*X406962Y942092*X406896Y942076*X406827Y942056*X406758Y942030*X406689Y942000*X406624Y941967*X406561Y941928*X406502Y941879*X406493Y941869*X406479Y941856*X406460Y941836*X406440Y941810*X406414Y941780*X406388Y941744*X406361Y941705*X406335Y941662*X406309Y941613*X406283Y941561*X406263Y941505*X406243Y941446*X406230Y941380*X406220Y941315*X406217Y941246*Y941230*X406220Y941210*Y941183*X406227Y941151*X406240Y941069*X406253Y941023*X406270Y940974*X406289Y940924*X406312Y940872*X406338Y940816*X406371Y940764*X406411Y940711*X406456Y940659*X406509Y940606*X406519Y940600*X406535Y940587*X406558Y940570*X406591Y940551*X406627Y940528*X406670Y940505*X406719Y940482*X406775Y940459*X406837Y940436*X406906Y940413*X406981Y940393*X407063Y940377*X407152Y940364*X407244Y940357*X407345Y940354*X407398*X407480Y940360*X407529Y940367*X407588Y940377*X407650Y940386*X407782Y940416*X407850Y940436*X407919Y940462*X407985Y940491*X408050Y940524*X408113Y940564*X408169Y940609*X408172Y940613*X408215Y940656*X408234Y940682*X408260Y940711*X408287Y940744*X408313Y940783*X408339Y940829*X408365Y940878*X408392Y940931*X408431Y941046*X408444Y941108*X408454Y941177*X408457Y941246*Y941262*X408454Y941282*Y941308*X408447Y941341*X408441Y941380*X408434Y941420*X408421Y941466*X408388Y941567*X408336Y941672*X408303Y941728*X408264Y941780*X408221Y941833*X408169Y941882*X408155Y941892*X408139Y941905*X408116Y941922*X408087Y941941*X408047Y941964*X408005Y941987*X407955Y942010*X407900Y942033*X407837Y942056*X407768Y942079*X407696Y942099*X407614Y942115*X407529Y942128*X407434Y942135*X407336Y942138*G37*G36*X407650Y932396D2*G1Y930953D1*X407670*X407690Y930956*X407719*X407755Y930963*X407795Y930966*X407841Y930973*X407887Y930983*X407992Y931009*X408044Y931029*X408096Y931048*X408149Y931071*X408198Y931101*X408244Y931134*X408290Y931173*X408296Y931180*X408306Y931189*X408323Y931206*X408339Y931225*X408356Y931252*X408375Y931278*X408398Y931311*X408418Y931343*X408438Y931383*X408474Y931468*X408487Y931514*X408497Y931567*X408503Y931616*X408506Y931672*Y931701*X408500Y931750*X408493Y931783*X408487Y931816*X408467Y931895*X408451Y931937*X408431Y931980*X408411Y932026*X408352Y932111*X408316Y932154*X408267Y932203*X408254Y932213*X408234Y932226*X408211Y932242*X408149Y932278*X408113Y932295*X408070Y932314*X408021Y932334*X407972Y932351*X407916Y932367*X407854Y932380*X407791Y932390*X407650Y932396*G37*G36*X407336Y909653D2*G1X407312D1*X407283Y909650*X407247*X407201Y909646*X407149Y909640*X407093Y909630*X407030Y909620*X406962Y909607*X406896Y909591*X406827Y909571*X406758Y909545*X406689Y909515*X406624Y909482*X406561Y909443*X406502Y909394*X406493Y909384*X406479Y909371*X406460Y909351*X406440Y909325*X406414Y909295*X406388Y909259*X406361Y909220*X406335Y909177*X406309Y909128*X406283Y909076*X406263Y909020*X406243Y908961*X406230Y908895*X406220Y908830*X406217Y908761*Y908744*X406220Y908725*Y908698*X406227Y908666*X406240Y908584*X406253Y908538*X406270Y908488*X406289Y908439*X406312Y908387*X406338Y908331*X406371Y908279*X406411Y908226*X406456Y908174*X406509Y908121*X406519Y908115*X406535Y908101*X406558Y908085*X406591Y908065*X406627Y908042*X406670Y908020*X406719Y907996*X406775Y907973*X406837Y907951*X406906Y907928*X406981Y907908*X407063Y907891*X407152Y907878*X407244Y907872*X407345Y907869*X407398*X407480Y907875*X407588Y907891*X407650Y907901*X407782Y907931*X407850Y907951*X407919Y907977*X407985Y908006*X408050Y908039*X408113Y908078*X408169Y908124*X408172Y908128*X408215Y908170*X408234Y908197*X408260Y908226*X408287Y908259*X408313Y908298*X408339Y908344*X408365Y908393*X408392Y908446*X408431Y908561*X408444Y908623*X408454Y908692*X408457Y908761*Y908777*X408454Y908797*Y908823*X408447Y908856*X408441Y908895*X408434Y908935*X408421Y908980*X408388Y909082*X408336Y909187*X408303Y909243*X408264Y909295*X408221Y909348*X408169Y909397*X408155Y909407*X408139Y909420*X408087Y909456*X408047Y909479*X408005Y909502*X407955Y909525*X407900Y909548*X407837Y909571*X407768Y909594*X407696Y909614*X407614Y909630*X407529Y909643*X407434Y909650*X407336Y909653*G37*G36*X407650Y861300D2*G1Y859857D1*X407670*X407690Y859861*X407719*X407755Y859867*X407795Y859870*X407841Y859877*X407887Y859887*X407992Y859913*X408044Y859933*X408096Y859952*X408149Y859975*X408198Y860005*X408244Y860038*X408287Y860074*X408323Y860110*X408339Y860130*X408356Y860156*X408375Y860182*X408398Y860215*X408418Y860248*X408438Y860287*X408474Y860372*X408487Y860418*X408497Y860471*X408503Y860520*X408506Y860575*Y860605*X408500Y860654*X408493Y860687*X408487Y860720*X408467Y860799*X408451Y860841*X408431Y860884*X408411Y860930*X408352Y861015*X408316Y861058*X408267Y861107*X408254Y861117*X408234Y861130*X408211Y861146*X408149Y861182*X408113Y861199*X408070Y861218*X408021Y861238*X407972Y861255*X407916Y861271*X407854Y861284*X407791Y861294*X407650Y861300*G37*G36*X433073Y963517D2*G1X433013D1*X432991Y963514*X432964*X432859Y963504*X432777Y963498*X432590Y963468*X432485Y963448*X432380Y963422*X432272Y963389*X432164Y963350*X432059Y963307*X431957Y963255*X431862Y963193*X431774Y963124*X431734Y963084*X431705Y963052*X431672Y963012*X431636Y962966*X431554Y962848*X431472Y962704*X431436Y962622*X431403Y962530*X431374Y962435*X431354Y962337*X431341Y962228*X431334Y962117*Y962090*X431341Y962015*X431347Y961963*X431357Y961904*X431370Y961838*X431390Y961766*X431413Y961687*X431442Y961605*X431475Y961523*X431518Y961441*X431567Y961356*X431626Y961274*X431695Y961195*X431770Y961120*X431777Y961116*X431790Y961103*X431852Y961057*X431898Y961028*X431957Y960995*X432102Y960923*X432187Y960887*X432285Y960854*X432394Y960821*X432512Y960792*X432640Y960765*X432781Y960746*X432928Y960733*X433089Y960729*X433148*X433171Y960733*X433200*X433384Y960749*X433476Y960762*X433574Y960775*X433784Y960821*X433892Y960854*X434001Y960890*X434102Y960933*X434204Y960985*X434296Y961044*X434381Y961110*X434384Y961113*X434401Y961126*X434480Y961218*X434516Y961261*X434555Y961316*X434594Y961376*X434634Y961444*X434673Y961520*X434709Y961605*X434742Y961694*X434768Y961789*X434788Y961894*X434804Y962002*X434808Y962117*Y962143*X434804Y962176*X434801Y962222*X434795Y962274*X434785Y962337*X434772Y962405*X434755Y962481*X434732Y962560*X434703Y962642*X434667Y962727*X434624Y962812*X434575Y962897*X434519Y962979*X434450Y963058*X434375Y963134*X434368Y963137*X434355Y963150*X434329Y963170*X434293Y963193*X434250Y963222*X434194Y963255*X434125Y963291*X434050Y963324*X433965Y963360*X433870Y963396*X433761Y963429*X433643Y963458*X433515Y963481*X433378Y963501*X433230Y963514*X433073Y963517*G37*G36*X409700Y875486D2*G1X408270D1*Y874830*X408274Y874781*Y874729*X408280Y874601*X408290Y874466*X408296Y874401*X408303Y874335*X408313Y874273*X408323Y874217*X408336Y874168*X408349Y874125*Y874122*X408352Y874115*X408359Y874105*X408382Y874056*X408408Y874010*X408444Y873958*X408487Y873905*X408536Y873853*X408595Y873807*X408598*X408602Y873800*X408611Y873797*X408625Y873787*X408641Y873781*X408710Y873748*X408766Y873725*X408834Y873709*X408907Y873695*X408989Y873689*X409015*X409034Y873692*X409058*X409084Y873699*X409149Y873709*X409222Y873728*X409297Y873758*X409372Y873797*X409408Y873824*X409445Y873856*X409448Y873860*X409458Y873869*X409471Y873882*X409484Y873899*X409500Y873915*X409536Y873965*X409576Y874024*X409612Y874092*X409641Y874171*X409664Y874260*Y874263*X409668Y874269*Y874279*X409671Y874296*X409681Y874381*X409691Y874519*Y874581*X409700Y874804*Y875486*G37*G36*X407336Y871042D2*G1X407312D1*X407283Y871039*X407247*X407201Y871035*X407149Y871029*X407093Y871019*X407030Y871009*X406962Y870996*X406896Y870980*X406827Y870960*X406758Y870934*X406689Y870904*X406624Y870872*X406561Y870832*X406502Y870783*X406493Y870773*X406479Y870760*X406460Y870740*X406440Y870714*X406414Y870685*X406361Y870609*X406335Y870566*X406309Y870517*X406283Y870465*X406263Y870409*X406243Y870350*X406230Y870284*X406220Y870219*X406217Y870150*Y870133*X406220Y870114*Y870088*X406227Y870055*X406240Y869973*X406253Y869927*X406270Y869878*X406289Y869828*X406312Y869776*X406338Y869720*X406371Y869668*X406411Y869615*X406456Y869563*X406506Y869514*X406509Y869510*X406519Y869504*X406535Y869491*X406558Y869474*X406591Y869454*X406627Y869431*X406670Y869409*X406719Y869386*X406775Y869363*X406837Y869340*X406906Y869317*X406981Y869297*X407063Y869281*X407152Y869267*X407244Y869261*X407345Y869258*X407398*X407480Y869264*X407529Y869271*X407650Y869291*X407713Y869304*X407782Y869320*X407850Y869340*X407919Y869366*X407985Y869396*X408050Y869428*X408113Y869468*X408169Y869514*X408195Y869540*X408215Y869559*X408234Y869586*X408260Y869615*X408287Y869648*X408313Y869687*X408339Y869733*X408392Y869835*X408431Y869950*X408444Y870012*X408454Y870081*X408457Y870150*Y870166*X408454Y870186*Y870212*X408447Y870245*X408441Y870284*X408434Y870324*X408421Y870370*X408388Y870471*X408336Y870576*X408303Y870632*X408264Y870685*X408221Y870737*X408165Y870790*X408155Y870796*X408139Y870809*X408087Y870845*X408047Y870868*X408005Y870891*X407955Y870914*X407900Y870937*X407837Y870960*X407768Y870983*X407696Y871003*X407614Y871019*X407529Y871032*X407434Y871039*X407336Y871042*G37*G36*X407650Y1003376D2*G1Y1001933D1*X407670*X407690Y1001936*X407719*X407755Y1001943*X407795Y1001946*X407841Y1001952*X407887Y1001962*X407992Y1001989*X408044Y1002008*X408096Y1002028*X408149Y1002051*X408198Y1002080*X408244Y1002113*X408287Y1002149*X408290Y1002153*X408323Y1002185*X408339Y1002205*X408356Y1002231*X408398Y1002290*X408418Y1002323*X408438Y1002363*X408474Y1002448*X408487Y1002494*X408497Y1002546*X408503Y1002595*X408506Y1002651*Y1002681*X408500Y1002730*X408487Y1002795*X408467Y1002874*X408451Y1002917*X408431Y1002959*X408411Y1003005*X408382Y1003048*X408352Y1003091*X408316Y1003133*X408267Y1003183*X408234Y1003205*X408211Y1003222*X408182Y1003238*X408149Y1003258*X408070Y1003294*X408021Y1003314*X407972Y1003330*X407916Y1003347*X407854Y1003360*X407791Y1003369*X407723Y1003373*X407650Y1003376*G37*G36*X406607Y994769D2*G1X406588D1*X406574Y994766*X406535Y994763*X406486Y994750*X406433Y994733*X406374Y994707*X406315Y994668*X406286Y994645*X406256Y994618*Y994615*X406250Y994612*X406243Y994602*X406233Y994592*X406210Y994559*X406184Y994513*X406155Y994458*X406132Y994392*X406115Y994317*X406109Y994235*Y994208*X406119Y994139*X406122Y994107*X406132Y994074*X406151Y993999*X406181Y993913*X406201Y993871*X406224Y993825*X406250Y993782*X406279Y993736*Y993733*X406286Y993729*X406302Y993707*X406368Y993641*X406417Y993602*X406470Y993562*X406532Y993529*X406601Y993503*X406607Y993500*X406614*X406627Y993497*X406640Y993493*X406679Y993487*X406735Y993480*X406771Y993477*X406811*X406899Y993470*X406952Y993467*X407263*Y993470*X407260Y993477*X407257Y993487*X407254Y993503*X407247Y993523*X407231Y993575*X407224Y993608*X407214Y993647*X407201Y993690*X407188Y993739*X407175Y993792*X407149Y993913*X407132Y993982*X407116Y994054*Y994057*X407106Y994094*X407103Y994120*X407093Y994153*X407073Y994228*X407063Y994271*X407011Y994448*X406978Y994523*X406965Y994556*X406948Y994582*Y994586*X406942Y994589*X406925Y994612*X406896Y994641*X406857Y994674*X406807Y994710*X406748Y994740*X406716Y994753*X406683Y994763*X406607Y994769*G37*G36*X407650Y594180D2*G1Y592737D1*X407670*X407690Y592740*X407719*X407755Y592747*X407795Y592750*X407841Y592756*X407887Y592766*X407992Y592793*X408044Y592812*X408096Y592832*X408149Y592855*X408198Y592884*X408244Y592917*X408290Y592956*X408296Y592963*X408323Y592989*X408339Y593009*X408356Y593035*X408375Y593061*X408398Y593094*X408418Y593127*X408438Y593166*X408474Y593252*X408487Y593298*X408497Y593350*X408503Y593399*X408506Y593455*Y593485*X408500Y593534*X408487Y593599*X408467Y593678*X408451Y593721*X408431Y593763*X408411Y593809*X408382Y593852*X408352Y593895*X408316Y593937*X408274Y593980*X408254Y593996*X408234Y594009*X408211Y594026*X408182Y594042*X408149Y594062*X408070Y594098*X408021Y594118*X407972Y594134*X407916Y594150*X407854Y594164*X407791Y594173*X407723Y594177*X407650Y594180*G37*G36*X406607Y585573D2*G1X406588D1*X406574Y585570*X406535Y585567*X406486Y585554*X406433Y585537*X406374Y585511*X406315Y585471*X406286Y585449*X406256Y585422*Y585419*X406250Y585416*X406243Y585406*X406233Y585396*X406210Y585363*X406184Y585317*X406155Y585262*X406132Y585196*X406115Y585121*X406109Y585039*Y585012*X406119Y584943*X406122Y584911*X406132Y584878*X406151Y584802*X406181Y584717*X406201Y584675*X406224Y584629*X406250Y584586*X406279Y584540*Y584537*X406286Y584533*X406302Y584511*X406368Y584445*X406417Y584406*X406470Y584366*X406532Y584333*X406601Y584307*X406607Y584304*X406614*X406627Y584301*X406640Y584297*X406706Y584287*X406771Y584281*X406811*X406899Y584274*X406952Y584271*X407263*Y584274*X407260Y584281*X407257Y584291*X407254Y584307*X407247Y584327*X407231Y584379*X407224Y584412*X407214Y584451*X407201Y584494*X407188Y584543*X407175Y584596*X407149Y584717*X407132Y584786*X407116Y584858*Y584861*X407106Y584898*X407103Y584924*X407093Y584957*X407073Y585032*X407063Y585075*X407011Y585252*X406978Y585327*X406965Y585360*X406948Y585386*Y585390*X406942Y585393*X406925Y585416*X406896Y585445*X406857Y585478*X406807Y585514*X406748Y585544*X406716Y585557*X406683Y585567*X406607Y585573*G37*G36*X408034Y986796D2*G1X407975D1*X407952Y986792*X407926*X407821Y986782*X407739Y986776*X407650Y986763*X407447Y986727*X407342Y986701*X407234Y986668*X407126Y986628*X407021Y986586*X406919Y986533*X406824Y986471*X406735Y986402*X406716Y986382*X406696Y986363*X406666Y986330*X406598Y986244*X406558Y986189*X406516Y986127*X406476Y986058*X406433Y985982*X406397Y985900*X406365Y985808*X406335Y985713*X406315Y985615*X406302Y985507*X406296Y985395*Y985369*X406302Y985293*X406309Y985241*X406319Y985182*X406332Y985116*X406374Y984965*X406404Y984883*X406437Y984801*X406479Y984719*X406529Y984634*X406588Y984552*X406657Y984473*X406732Y984398*X406739Y984395*X406752Y984381*X406814Y984336*X406860Y984306*X406919Y984273*X406985Y984241*X407063Y984201*X407149Y984165*X407247Y984132*X407355Y984099*X407473Y984070*X407601Y984044*X407742Y984024*X407890Y984011*X408050Y984008*X408110*X408133Y984011*X408162*X408264Y984021*X408346Y984027*X408536Y984054*X408641Y984076*X408746Y984099*X408854Y984132*X408962Y984168*X409064Y984211*X409166Y984263*X409258Y984322*X409343Y984388*X409346Y984391*X409363Y984404*X409477Y984539*X409517Y984595*X409556Y984654*X409595Y984723*X409635Y984798*X409671Y984883*X409704Y984972*X409730Y985067*X409750Y985172*X409766Y985280*X409769Y985395*Y985421*X409766Y985454*X409763Y985500*X409756Y985553*X409746Y985615*X409733Y985684*X409717Y985759*X409694Y985838*X409664Y985920*X409628Y986005*X409586Y986090*X409536Y986176*X409481Y986258*X409412Y986336*X409336Y986412*X409330Y986415*X409317Y986428*X409290Y986448*X409254Y986471*X409212Y986500*X409156Y986533*X409087Y986569*X409012Y986602*X408926Y986638*X408831Y986674*X408723Y986707*X408605Y986736*X408477Y986759*X408339Y986779*X408192Y986792*X408034Y986796*G37*G36*X407650Y961854D2*G1Y960411D1*X407670*X407690Y960415*X407719*X407755Y960421*X407795Y960424*X407841Y960431*X407887Y960441*X407992Y960467*X408044Y960487*X408096Y960506*X408149Y960529*X408198Y960559*X408244Y960592*X408290Y960631*X408296Y960638*X408306Y960647*X408323Y960664*X408339Y960684*X408356Y960710*X408375Y960736*X408398Y960769*X408418Y960802*X408438Y960841*X408474Y960926*X408487Y960972*X408497Y961025*X408503Y961074*X408506Y961130*Y961159*X408500Y961208*X408493Y961241*X408487Y961274*X408467Y961353*X408451Y961395*X408431Y961438*X408411Y961484*X408352Y961569*X408316Y961612*X408267Y961661*X408254Y961671*X408234Y961684*X408211Y961700*X408149Y961736*X408070Y961773*X408021Y961792*X407972Y961808*X407916Y961825*X407854Y961838*X407791Y961848*X407650Y961854*G37*G36*X409700Y946582D2*G1X408270D1*Y945926*X408274Y945877*Y945825*X408280Y945697*X408290Y945562*X408296Y945497*X408303Y945431*X408313Y945369*X408323Y945313*X408336Y945264*X408349Y945221*Y945218*X408352Y945211*X408359Y945201*X408382Y945152*X408408Y945106*X408444Y945054*X408487Y945002*X408536Y944949*X408595Y944903*X408598*X408602Y944897*X408611Y944893*X408625Y944883*X408641Y944877*X408710Y944844*X408766Y944821*X408834Y944805*X408907Y944792*X408989Y944785*X409015*X409034Y944788*X409058*X409084Y944795*X409149Y944805*X409222Y944824*X409297Y944854*X409333Y944874*X409372Y944893*X409408Y944919*X409441Y944949*X409445Y944952*X409448Y944956*X409458Y944965*X409471Y944979*X409484Y944995*X409500Y945011*X409536Y945061*X409576Y945119*X409612Y945188*X409641Y945267*X409664Y945356*Y945359*X409668Y945366*Y945375*X409671Y945392*X409681Y945477*X409691Y945615*Y945677*X409700Y945900*Y946582*G37*G36*X407650Y977520D2*G1Y976077D1*X407670*X407690Y976080*X407719*X407755Y976086*X407795Y976090*X407841Y976096*X407887Y976106*X407992Y976132*X408096Y976172*X408149Y976195*X408198Y976224*X408244Y976257*X408290Y976296*X408296Y976303*X408323Y976329*X408339Y976349*X408356Y976375*X408375Y976401*X408398Y976434*X408418Y976467*X408438Y976506*X408474Y976591*X408487Y976637*X408497Y976690*X408503Y976739*X408506Y976795*Y976824*X408500Y976874*X408493Y976906*X408487Y976939*X408467Y977018*X408451Y977061*X408431Y977103*X408411Y977149*X408382Y977192*X408352Y977234*X408316Y977277*X408277Y977316*X408274Y977320*X408254Y977336*X408234Y977349*X408211Y977366*X408182Y977382*X408149Y977402*X408070Y977438*X408021Y977457*X407972Y977474*X407916Y977490*X407854Y977503*X407791Y977513*X407650Y977520*G37*G36*X407417Y966112D2*G1X407362D1*X407273Y966105*X407158Y966099*X407093Y966092*X406952Y966072*X406814Y966043*X406745Y966027*X406683Y966004*X406624Y965981*X406571Y965951*X406568Y965948*X406555Y965941*X406535Y965928*X406483Y965886*X406450Y965856*X406381Y965781*X406345Y965738*X406312Y965689*X406279Y965636*X406250Y965577*X406227Y965515*X406207Y965446*X406194Y965374*X406191Y965298*Y965282*X406194Y965266*Y965243*X406201Y965213*X406214Y965144*X406240Y965059*X406260Y965013*X406283Y964967*X406309Y964918*X406342Y964869*X406381Y964823*X406424Y964777*X406476Y964728*X406486Y964721*X406502Y964708*X406525Y964695*X406555Y964675*X406594Y964656*X406686Y964613*X406742Y964590*X406804Y964570*X406952Y964531*X407034Y964518*X407126Y964505*X407221Y964498*X407322Y964495*X407381*X407477Y964501*X407601Y964515*X407673Y964524*X407746Y964534*X407821Y964551*X407896Y964570*X407969Y964590*X408110Y964649*X408172Y964685*X408228Y964725*X408231Y964728*X408241Y964734*X408293Y964787*X408316Y964813*X408342Y964846*X408369Y964882*X408392Y964921*X408418Y964967*X408441Y965013*X408464Y965066*X408480Y965121*X408493Y965177*X408503Y965239*X408506Y965305*Y965321*X408503Y965338*Y965361*X408497Y965390*X408493Y965426*X408484Y965466*X408474Y965505*X408457Y965551*X408441Y965597*X408418Y965646*X408392Y965695*X408323Y965790*X408280Y965836*X408231Y965882*X408228Y965886*X408201Y965902*X408178Y965918*X408152Y965935*X408116Y965954*X408074Y965974*X408028Y965997*X407972Y966017*X407913Y966040*X407847Y966059*X407772Y966076*X407693Y966092*X407608Y966102*X407516Y966109*X407417Y966112*G37*G36*X561055Y405318D2*G1X561018D1*X560957Y405310*X560875Y405294*X560826Y405281*X560776Y405269*X560723Y405248*X560670Y405224*X560612Y405199*X560506Y405125*X560453Y405080*X560391Y405019*X560342Y404949*X560297Y404871*X560252Y404773*X560227Y404711*X560207Y404650*X560186Y404580*X560170Y404502*X560157Y404424*X560149Y404248*X561953*Y404273*X561949Y404297*Y404334*X561941Y404379*X561937Y404428*X561929Y404486*X561916Y404543*X561883Y404674*X561859Y404740*X561834Y404806*X561805Y404871*X561769Y404933*X561728Y404990*X561683Y405043*X561637Y405089*X561613Y405109*X561580Y405129*X561547Y405154*X561506Y405183*X561465Y405207*X561416Y405232*X561309Y405277*X561252Y405294*X561186Y405306*X561125Y405314*X561055Y405318*G37*G36*X580620Y406901D2*G1X580583D1*X580543Y406892*X580489Y406884*X580428Y406868*X580362Y406843*X580292Y406806*X580227Y406761*X580198Y406733*X580169Y406700*X580149Y406675*X580132Y406646*X580108Y406614*X580087Y406577*X580067Y406536*X580042Y406491*X580001Y406388*X579960Y406261*Y406257*X579948Y406212*X579940Y406171*X579932Y406118*X579923Y406052*X579911Y405978*X579886Y405786*X579878Y405671*X579866Y405540*X579841Y405068*X579837Y404883*Y404502*X579841Y404412*Y404310*X579846Y404195*X579850Y404076*X579882Y403572*X579899Y403453*X579911Y403342*X579927Y403243*X579948Y403157*Y403153*X579960Y403116*X579981Y403059*X579993Y403018*X580026Y402932*X580067Y402842*X580116Y402747*X580141Y402706*X580169Y402669*X580198Y402633*X580231Y402604*X580239Y402600*X580260Y402583*X580342Y402538*X580399Y402510*X580465Y402489*X580538Y402473*X580620Y402469*X580641*X580657Y402473*X580698Y402477*X580752Y402485*X580813Y402501*X580875Y402526*X580944Y402563*X581010Y402608*X581071Y402669*X581108Y402723*X581129Y402756*X581149Y402793*X581174Y402834*X581240Y402985*X581260Y403043*X581276Y403108*Y403112*X581289Y403157*X581297Y403198*X581305Y403252*X581317Y403313*X581330Y403391*X581342Y403477*X581350Y403580*X581362Y403694*X581375Y403826*X581391Y404125*X581399Y404297*X581403Y404482*Y404863*X581399Y404953*Y405056*X581391Y405289*X581367Y405667*X581342Y405908*X581326Y406019*X581309Y406118*X581289Y406204*Y406208*X581276Y406245*X581268Y406273*X581256Y406306*X581244Y406343*X581211Y406429*X581170Y406524*X581125Y406614*X581096Y406659*X581039Y406733*X581006Y406761*X580998Y406765*X580977Y406782*X580940Y406806*X580895Y406831*X580838Y406856*X580772Y406880*X580698Y406897*X580620Y406901*G37*G36*X551482Y403764D2*G1X551478D1*X551469Y403760*X551457Y403756*X551437Y403752*X551346Y403723*X551305Y403715*X551256Y403703*X551203Y403686*X551076Y403653*X551002Y403637*X550924Y403621*X550838Y403600*X550748Y403580*X550744*X550727Y403576*X550699Y403567*X550666Y403563*X550625Y403551*X550530Y403526*X550477Y403514*X550256Y403448*X550207Y403428*X550162Y403407*X550120Y403391*X550088Y403371*X550084*X550079Y403362*X550067Y403354*X550051Y403342*X550014Y403305*X549973Y403256*X549928Y403194*X549891Y403121*X549874Y403080*X549862Y403039*X549854Y402944*Y402920*X549858Y402903*X549862Y402854*X549879Y402793*X549899Y402727*X549932Y402653*X549981Y402579*X550010Y402542*X550043Y402505*X550047*X550051Y402497*X550063Y402489*X550075Y402477*X550116Y402448*X550174Y402415*X550244Y402378*X550325Y402350*X550420Y402329*X550522Y402321*X550555*X550608Y402329*X550641Y402333*X550682Y402337*X550723Y402350*X550817Y402374*X550924Y402411*X551035Y402464*X551146Y402534*X551150*X551154Y402542*X551182Y402563*X551264Y402645*X551314Y402706*X551363Y402772*X551404Y402850*X551437Y402936*X551441Y402944*Y402952*X551449Y402985*X551457Y403034*X551465Y403104*X551469Y403149*Y403198*X551474Y403252*X551482Y403375*Y403764*G37*G36*X555828Y405318D2*G1X555807D1*X555787Y405314*X555754*X555717Y405306*X555676Y405302*X555627Y405289*X555574Y405277*X555463Y405236*X555401Y405207*X555340Y405175*X555282Y405138*X555221Y405089*X555163Y405039*X555106Y404974*X555086Y404941*X555065Y404916*X555045Y404879*X555024Y404834*X554995Y404785*X554971Y404724*X554946Y404654*X554922Y404580*X554897Y404494*X554877Y404404*X554856Y404301*X554844Y404195*X554836Y404080*X554831Y403953*Y403883*X554836Y403834*X554840Y403772*X554856Y403629*X554868Y403547*X554901Y403371*X554922Y403285*X554950Y403194*X554983Y403108*X555020Y403030*X555061Y402952*X555110Y402887*X555123Y402875*X555139Y402854*X555159Y402834*X555221Y402780*X555262Y402751*X555303Y402719*X555352Y402686*X555405Y402657*X555463Y402629*X555524Y402604*X555590Y402583*X555660Y402567*X555729Y402555*X555807Y402551*X555828*X555848Y402555*X555881*X555918Y402563*X555963Y402567*X556012Y402579*X556066Y402596*X556123Y402612*X556184Y402637*X556246Y402661*X556307Y402694*X556373Y402735*X556434Y402780*X556496Y402834*X556553Y402895*X556558Y402899*X556566Y402911*X556603Y402961*X556623Y402997*X556652Y403039*X556680Y403092*X556709Y403153*X556738Y403219*X556763Y403297*X556791Y403379*X556812Y403473*X556832Y403572*X556849Y403682*X556857Y403797*X556861Y403920*Y403990*X556857Y404035*X556853Y404096*X556836Y404236*X556824Y404318*X556808Y404404*X556787Y404490*X556767Y404576*X556738Y404662*X556701Y404748*X556664Y404830*X556619Y404904*X556566Y404974*X556562Y404978*X556553Y404990*X556537Y405007*X556512Y405027*X556484Y405056*X556451Y405084*X556410Y405113*X556365Y405146*X556316Y405179*X556258Y405207*X556197Y405240*X556131Y405265*X556061Y405285*X555988Y405302*X555910Y405314*X555828Y405318*G37*
%LPD*%
X0Y0D2*D42*G75*G1X1098425Y999213D2*G2X1098425Y999213I-787J0D1*G1X1098425Y955906D2*G2X1098425Y955906I-787J0D1*G1X1098425Y912598D2*G2X1098425Y912598I-787J0D1*G1X1098425Y652756D2*G2X1098425Y652756I-787J0D1*G1X1098425Y609449D2*G2X1098425Y609449I-787J0D1*G1X1098425Y566142D2*G2X1098425Y566142I-787J0D1*G1X0Y0D2*M02*