G04*
G04 #@! TF.GenerationSoftware,Altium Limited,CircuitStudio,1.5.2 (30)*
G04*
G04 Layer_Color=13948096*
%FSLAX25Y25*%
%MOIN*%
G70*
G01*
G75*
%ADD42C,0.00787*%
%ADD43C,0.00079*%
D42*
X925197Y488189D02*
X1059055D01*
X925197Y685039D02*
X1059055D01*
X925197Y488189D02*
Y685039D01*
X1059055Y488189D02*
Y685039D01*
X476378Y488189D02*
Y685039D01*
X610236Y488189D02*
Y685039D01*
X476378Y488189D02*
X610236D01*
X476378Y685039D02*
X610236D01*
X669291Y716535D02*
X866142D01*
X669291Y582677D02*
X866142D01*
X669291D02*
Y716535D01*
X866142Y582677D02*
Y716535D01*
X1059055Y850394D02*
Y1047244D01*
X925197Y850394D02*
Y1047244D01*
X1059055D01*
X925197Y850394D02*
X1059055D01*
X669291Y952756D02*
X866142D01*
X669291Y818898D02*
X866142D01*
X669291D02*
Y952756D01*
X866142Y818898D02*
Y952756D01*
X476378Y1047244D02*
X610236D01*
X476378Y850394D02*
X610236D01*
Y1047244D01*
X476378Y850394D02*
Y1047244D01*
D43*
X909806Y578890D02*
X910003D01*
X909905D01*
Y578398D01*
X910003Y578300D01*
X910102D01*
X910200Y578398D01*
X909610Y578300D02*
X909413D01*
X909511D01*
Y578890D01*
X909610Y578792D01*
X909118D02*
X909019Y578890D01*
X908823D01*
X908724Y578792D01*
Y578694D01*
X908823Y578595D01*
X908724Y578497D01*
Y578398D01*
X908823Y578300D01*
X909019D01*
X909118Y578398D01*
Y578497D01*
X909019Y578595D01*
X909118Y578694D01*
Y578792D01*
X909019Y578595D02*
X908823D01*
X626306Y594890D02*
X626503D01*
X626405D01*
Y594398D01*
X626503Y594300D01*
X626602D01*
X626700Y594398D01*
X626110Y594300D02*
X625913D01*
X626011D01*
Y594890D01*
X626110Y594792D01*
X625224Y594300D02*
X625618D01*
X625224Y594694D01*
Y594792D01*
X625322Y594890D01*
X625519D01*
X625618Y594792D01*
X776106Y567190D02*
X776303D01*
X776205D01*
Y566698D01*
X776303Y566600D01*
X776402D01*
X776500Y566698D01*
X775910Y566600D02*
X775713D01*
X775811D01*
Y567190D01*
X775910Y567092D01*
X775418Y567190D02*
X775024D01*
Y567092D01*
X775418Y566698D01*
Y566600D01*
X909706Y941090D02*
X909903D01*
X909805D01*
Y940598D01*
X909903Y940500D01*
X910002D01*
X910100Y940598D01*
X909510Y940500D02*
X909313D01*
X909411D01*
Y941090D01*
X909510Y940992D01*
X909018Y940500D02*
X908821D01*
X908919D01*
Y941090D01*
X909018Y940992D01*
X775806Y803490D02*
X776003D01*
X775905D01*
Y802998D01*
X776003Y802900D01*
X776102D01*
X776200Y802998D01*
X775216Y803490D02*
X775413Y803392D01*
X775610Y803195D01*
Y802998D01*
X775511Y802900D01*
X775315D01*
X775216Y802998D01*
Y803097D01*
X775315Y803195D01*
X775610D01*
X626106Y957090D02*
X626303D01*
X626205D01*
Y956598D01*
X626303Y956500D01*
X626402D01*
X626500Y956598D01*
X625516Y957090D02*
X625910D01*
Y956795D01*
X625713Y956894D01*
X625615D01*
X625516Y956795D01*
Y956598D01*
X625615Y956500D01*
X625811D01*
X625910Y956598D01*
M02*
