G04*
G04 #@! TF.GenerationSoftware,Altium Limited,CircuitStudio,1.5.2 (30)*
G04*
G04 Layer_Physical_Order=3*
G04 Layer_Color=553216*
%FSLAX25Y25*%
%MOIN*%
G70*
G01*
G75*
%ADD22C,0.05906*%
%ADD29C,0.03937*%
%ADD30C,0.05181*%
%ADD31C,0.04331*%
%ADD32C,0.05118*%
%ADD33C,0.24410*%
%ADD34C,0.09843*%
%ADD35C,0.25197*%
%ADD36C,0.33071*%
%ADD37C,0.02362*%
G36*
X1043307Y531496D02*
X446850Y531496D01*
X446850Y637795D01*
X442913D01*
Y531496D01*
X393701D01*
Y787402D01*
X1043307D01*
Y531496D01*
D02*
G37*
G36*
Y905512D02*
X393701D01*
Y1141732D01*
X1043307D01*
Y905512D01*
D02*
G37*
D22*
X508386Y749134D02*
D03*
X468386D02*
D03*
Y709134D02*
D03*
X508386D02*
D03*
Y824134D02*
D03*
X468386D02*
D03*
Y784134D02*
D03*
X508386D02*
D03*
D29*
X393701Y500000D02*
G03*
X417323Y476378I23622J0D01*
G01*
Y1094488D02*
G03*
X393701Y1070866I0J-23622D01*
G01*
X500000Y1141732D02*
G03*
X476378Y1118110I0J-23622D01*
G01*
X1094488D02*
G03*
X1070866Y1141732I-23622J0D01*
G01*
X1141732Y1035433D02*
G03*
X1118110Y1059055I-23622J0D01*
G01*
Y440945D02*
G03*
X1141732Y464567I0J23622D01*
G01*
X1035433Y393701D02*
G03*
X1059055Y417323I0J23622D01*
G01*
X440945D02*
G03*
X464567Y393701I23622J0D01*
G01*
X393701Y500000D02*
X393701D01*
X393701D02*
Y1070866D01*
X393701D01*
X417323Y1094488D02*
X476378D01*
Y1118110D01*
X500000Y1141732D02*
Y1141732D01*
X1070866D01*
Y1141732D02*
Y1141732D01*
X1094488Y1059055D02*
Y1118110D01*
Y1059055D02*
X1118110D01*
X1141732Y1035433D02*
X1141732Y1035433D01*
Y464567D02*
Y1035433D01*
X1141732Y464567D02*
X1141732D01*
X1059055Y440945D02*
X1118110D01*
X1059055Y417323D02*
Y440945D01*
X1035433Y393701D02*
Y393701D01*
X464567Y393701D02*
X1035433D01*
X464567D02*
Y393701D01*
X440945Y417323D02*
Y476378D01*
X417323D02*
X440945D01*
D30*
X1115236Y847717D02*
D03*
Y837716D02*
D03*
Y827717D02*
D03*
Y817717D02*
D03*
Y807717D02*
D03*
Y797717D02*
D03*
Y787717D02*
D03*
Y777717D02*
D03*
Y767717D02*
D03*
Y757717D02*
D03*
Y747717D02*
D03*
Y737717D02*
D03*
Y727717D02*
D03*
Y717717D02*
D03*
Y707717D02*
D03*
X1105236Y697717D02*
D03*
X1115236D02*
D03*
X1105236Y687717D02*
D03*
X1115236D02*
D03*
X452756Y615551D02*
D03*
Y605551D02*
D03*
Y595551D02*
D03*
Y585551D02*
D03*
Y575551D02*
D03*
Y565551D02*
D03*
D31*
X439370Y974409D02*
D03*
Y984252D02*
D03*
Y994094D02*
D03*
X426772Y974409D02*
D03*
Y984252D02*
D03*
Y994094D02*
D03*
D32*
X441929Y937992D02*
D03*
Y912402D02*
D03*
X424213D02*
D03*
Y937992D02*
D03*
D33*
X610236Y1102362D02*
D03*
X925197D02*
D03*
Y728346D02*
D03*
X610236D02*
D03*
D34*
X492047Y729134D02*
D03*
D35*
X500000Y1118110D02*
D03*
X417323Y1070866D02*
D03*
X464567Y417323D02*
D03*
X417323Y500000D02*
D03*
X1118110Y464567D02*
D03*
X1035433Y417323D02*
D03*
X1070866Y1118110D02*
D03*
X1118110Y1035433D02*
D03*
D36*
X669291Y767717D02*
D03*
X866142D02*
D03*
D37*
X427165Y665354D02*
D03*
X409449Y671260D02*
D03*
X440945D02*
D03*
X1013780Y438976D02*
D03*
X1010827D02*
D03*
X994094D02*
D03*
X997047D02*
D03*
X997126Y500984D02*
D03*
Y503937D02*
D03*
Y506890D02*
D03*
Y509842D02*
D03*
Y512795D02*
D03*
X907087Y576772D02*
D03*
Y582677D02*
D03*
Y579724D02*
D03*
X1007874Y438976D02*
D03*
X1000000D02*
D03*
X907087Y593504D02*
D03*
Y590551D02*
D03*
Y596457D02*
D03*
X997126Y515748D02*
D03*
X992126Y515679D02*
D03*
X992126Y512795D02*
D03*
Y509842D02*
D03*
Y506890D02*
D03*
Y503937D02*
D03*
Y500984D02*
D03*
X603425Y515748D02*
D03*
X628346Y576772D02*
D03*
Y582677D02*
D03*
Y579724D02*
D03*
X606299Y438976D02*
D03*
X614173D02*
D03*
X628346Y593504D02*
D03*
Y590551D02*
D03*
Y596457D02*
D03*
X603425Y512795D02*
D03*
Y509842D02*
D03*
Y506890D02*
D03*
Y503937D02*
D03*
Y500984D02*
D03*
X603346Y438976D02*
D03*
X600394D02*
D03*
X617126D02*
D03*
X620079D02*
D03*
X598425Y512795D02*
D03*
X598425Y515679D02*
D03*
X598425Y509842D02*
D03*
Y506890D02*
D03*
Y503937D02*
D03*
Y500984D02*
D03*
X795276D02*
D03*
X795276Y503937D02*
D03*
Y506890D02*
D03*
Y509842D02*
D03*
Y512795D02*
D03*
Y515748D02*
D03*
Y875000D02*
D03*
Y877953D02*
D03*
Y880906D02*
D03*
Y883858D02*
D03*
Y886811D02*
D03*
Y889695D02*
D03*
X992126Y875000D02*
D03*
Y877953D02*
D03*
Y880906D02*
D03*
Y883858D02*
D03*
Y886811D02*
D03*
X992126Y889695D02*
D03*
X598425Y875000D02*
D03*
Y877953D02*
D03*
Y880906D02*
D03*
Y883858D02*
D03*
X598425Y889695D02*
D03*
X598425Y886811D02*
D03*
X800276Y515748D02*
D03*
X757874Y564567D02*
D03*
X763779D02*
D03*
X760827D02*
D03*
X803150Y438976D02*
D03*
X811024D02*
D03*
X774606Y564567D02*
D03*
X771654D02*
D03*
X777559D02*
D03*
X800276Y512795D02*
D03*
Y509842D02*
D03*
Y506890D02*
D03*
Y503937D02*
D03*
Y500984D02*
D03*
X800197Y438976D02*
D03*
X797244D02*
D03*
X813976D02*
D03*
X816929D02*
D03*
X997126Y889764D02*
D03*
X907087Y958661D02*
D03*
Y952756D02*
D03*
Y955709D02*
D03*
X1000000Y812992D02*
D03*
X1007874D02*
D03*
X907087Y941929D02*
D03*
Y944882D02*
D03*
Y938976D02*
D03*
X997126Y886811D02*
D03*
Y883858D02*
D03*
Y880906D02*
D03*
Y877953D02*
D03*
Y875000D02*
D03*
X997047Y812992D02*
D03*
X994094D02*
D03*
X1010827D02*
D03*
X1013780D02*
D03*
X800276Y889764D02*
D03*
X757874Y800787D02*
D03*
X763779D02*
D03*
X760827D02*
D03*
X803150Y812992D02*
D03*
X811024D02*
D03*
X774606Y800787D02*
D03*
X771654D02*
D03*
X777559D02*
D03*
X800276Y886811D02*
D03*
Y883858D02*
D03*
Y880906D02*
D03*
Y877953D02*
D03*
Y875000D02*
D03*
X800197Y812992D02*
D03*
X797244D02*
D03*
X813976D02*
D03*
X816929D02*
D03*
X620079D02*
D03*
X617126D02*
D03*
X600394D02*
D03*
X603346D02*
D03*
X603425Y875000D02*
D03*
Y877953D02*
D03*
Y880906D02*
D03*
Y883858D02*
D03*
Y886811D02*
D03*
X628346Y958661D02*
D03*
Y952756D02*
D03*
Y955709D02*
D03*
X614173Y812992D02*
D03*
X606299D02*
D03*
X429134Y872047D02*
D03*
X628346Y941929D02*
D03*
Y944882D02*
D03*
Y938976D02*
D03*
X603425Y889764D02*
D03*
X1118110Y546181D02*
D03*
Y541181D02*
D03*
X1086614Y536181D02*
D03*
Y551181D02*
D03*
Y566181D02*
D03*
X1118110Y561181D02*
D03*
X1137795Y591929D02*
D03*
X1133858Y601968D02*
D03*
X1118110Y604488D02*
D03*
Y601968D02*
D03*
Y591929D02*
D03*
X1086614Y609488D02*
D03*
Y594488D02*
D03*
Y579488D02*
D03*
X1118110Y584488D02*
D03*
Y589488D02*
D03*
Y599488D02*
D03*
Y642795D02*
D03*
Y632795D02*
D03*
Y627795D02*
D03*
X1086614Y622795D02*
D03*
Y637795D02*
D03*
Y652795D02*
D03*
X1118110Y635236D02*
D03*
Y645276D02*
D03*
Y647795D02*
D03*
X1133858Y645276D02*
D03*
X1137795Y635236D02*
D03*
X1118110Y902638D02*
D03*
Y892638D02*
D03*
Y887638D02*
D03*
X1086614Y882638D02*
D03*
Y897638D02*
D03*
Y912638D02*
D03*
X1118110Y895079D02*
D03*
Y905118D02*
D03*
Y907638D02*
D03*
X1133858Y905118D02*
D03*
X1137795Y895079D02*
D03*
Y938386D02*
D03*
X1135827Y945945D02*
D03*
X1133858Y948425D02*
D03*
X1118110Y950945D02*
D03*
Y948425D02*
D03*
Y938386D02*
D03*
X1086614Y955945D02*
D03*
Y940945D02*
D03*
Y925945D02*
D03*
X1118110Y930945D02*
D03*
Y935945D02*
D03*
Y945945D02*
D03*
Y989252D02*
D03*
Y979252D02*
D03*
Y974252D02*
D03*
X1086614Y969252D02*
D03*
Y984252D02*
D03*
Y999252D02*
D03*
X1118110Y981693D02*
D03*
Y991732D02*
D03*
Y994252D02*
D03*
X1133858Y991732D02*
D03*
X1135827Y989252D02*
D03*
X1137795Y981693D02*
D03*
X1135827Y692913D02*
D03*
X1133858Y697835D02*
D03*
X1137795Y702756D02*
D03*
X456693Y933071D02*
D03*
X1062992Y683071D02*
D03*
X1135827Y902638D02*
D03*
Y642795D02*
D03*
Y599488D02*
D03*
M02*
