G04*
G04 #@! TF.GenerationSoftware,Altium Limited,CircuitStudio,1.5.2 (30)*
G04*
G04 Layer_Physical_Order=1*
G04 Layer_Color=11767835*
%FSLAX25Y25*%
%MOIN*%
G70*
G01*
G75*
%ADD10R,0.03543X0.02756*%
%ADD11R,0.03543X0.02362*%
%ADD12R,0.05118X0.04961*%
%ADD13R,0.03937X0.02165*%
%ADD14R,0.02913X0.10984*%
%ADD15R,0.04646X0.02284*%
%ADD16R,0.02362X0.03543*%
%ADD17C,0.00591*%
%ADD18C,0.03937*%
%ADD19C,0.02362*%
%ADD20C,0.02756*%
%ADD21C,0.07400*%
%ADD22C,0.05906*%
%ADD23C,0.07874*%
%ADD24C,0.23622*%
%ADD25C,0.13780*%
%ADD26C,0.24016*%
%ADD27C,0.31890*%
%ADD28C,0.01969*%
D10*
X429134Y868701D02*
D03*
Y863583D02*
D03*
X460630Y662795D02*
D03*
Y667913D02*
D03*
X409449D02*
D03*
Y662795D02*
D03*
X440945Y667913D02*
D03*
Y662795D02*
D03*
X1122047Y565551D02*
D03*
Y560433D02*
D03*
Y608858D02*
D03*
Y603740D02*
D03*
Y647047D02*
D03*
Y652165D02*
D03*
Y906890D02*
D03*
Y912008D02*
D03*
Y950197D02*
D03*
Y955315D02*
D03*
X775591Y902953D02*
D03*
Y908071D02*
D03*
X972441Y528937D02*
D03*
Y534055D02*
D03*
X578740Y528937D02*
D03*
Y534055D02*
D03*
Y902953D02*
D03*
Y908071D02*
D03*
X1122047Y993504D02*
D03*
Y998622D02*
D03*
X440945Y868701D02*
D03*
Y863583D02*
D03*
X456693Y922638D02*
D03*
Y927756D02*
D03*
X421260Y954134D02*
D03*
Y959252D02*
D03*
X972441Y908071D02*
D03*
Y902953D02*
D03*
X775591Y534055D02*
D03*
Y528937D02*
D03*
D11*
X420079Y661614D02*
D03*
Y669095D02*
D03*
X430315Y661614D02*
D03*
Y665354D02*
D03*
Y669095D02*
D03*
D12*
X992205Y417815D02*
D03*
Y448327D02*
D03*
X598504Y417815D02*
D03*
Y448327D02*
D03*
X795354Y417815D02*
D03*
Y448327D02*
D03*
X992205Y791831D02*
D03*
Y822342D02*
D03*
X795354Y791831D02*
D03*
Y822342D02*
D03*
X598504Y791831D02*
D03*
Y822342D02*
D03*
D13*
X1003937Y427165D02*
D03*
Y431102D02*
D03*
Y435039D02*
D03*
Y438976D02*
D03*
X610236Y427165D02*
D03*
Y431102D02*
D03*
Y435039D02*
D03*
Y438976D02*
D03*
X807087Y427165D02*
D03*
Y431102D02*
D03*
Y435039D02*
D03*
Y438976D02*
D03*
X1003937Y801181D02*
D03*
Y805118D02*
D03*
Y809055D02*
D03*
Y812992D02*
D03*
X807087Y801181D02*
D03*
Y805118D02*
D03*
Y809055D02*
D03*
Y812992D02*
D03*
X610236Y801181D02*
D03*
Y805118D02*
D03*
Y809055D02*
D03*
Y812992D02*
D03*
D14*
X1002126Y539508D02*
D03*
Y523484D02*
D03*
X997126Y539508D02*
D03*
Y523484D02*
D03*
X992126Y539508D02*
D03*
Y523484D02*
D03*
X987126Y539508D02*
D03*
Y523484D02*
D03*
X982126Y539508D02*
D03*
Y523484D02*
D03*
X608425Y539508D02*
D03*
Y523484D02*
D03*
X603425Y539508D02*
D03*
Y523484D02*
D03*
X598425Y539508D02*
D03*
Y523484D02*
D03*
X593425Y539508D02*
D03*
Y523484D02*
D03*
X588425Y539508D02*
D03*
Y523484D02*
D03*
X805276Y539508D02*
D03*
Y523484D02*
D03*
X800276Y539508D02*
D03*
Y523484D02*
D03*
X795276Y539508D02*
D03*
Y523484D02*
D03*
X790276Y539508D02*
D03*
Y523484D02*
D03*
X785276Y539508D02*
D03*
Y523484D02*
D03*
X1002126Y913524D02*
D03*
Y897500D02*
D03*
X997126Y913524D02*
D03*
Y897500D02*
D03*
X992126Y913524D02*
D03*
Y897500D02*
D03*
X987126Y913524D02*
D03*
Y897500D02*
D03*
X982126Y913524D02*
D03*
Y897500D02*
D03*
X805276Y913524D02*
D03*
Y897500D02*
D03*
X800276Y913524D02*
D03*
Y897500D02*
D03*
X795276Y913524D02*
D03*
Y897500D02*
D03*
X790276Y913524D02*
D03*
Y897500D02*
D03*
X785276Y913524D02*
D03*
Y897500D02*
D03*
X608425Y913524D02*
D03*
Y897500D02*
D03*
X603425Y913524D02*
D03*
Y897500D02*
D03*
X598425Y913524D02*
D03*
Y897500D02*
D03*
X593425Y913524D02*
D03*
Y897500D02*
D03*
X588425Y913524D02*
D03*
Y897500D02*
D03*
D15*
X1091890Y566181D02*
D03*
Y561181D02*
D03*
Y556181D02*
D03*
Y551181D02*
D03*
Y546181D02*
D03*
Y541181D02*
D03*
Y536181D02*
D03*
X1112835D02*
D03*
Y541181D02*
D03*
Y546181D02*
D03*
Y551181D02*
D03*
Y556181D02*
D03*
Y561181D02*
D03*
Y566181D02*
D03*
X1091890Y609488D02*
D03*
Y604488D02*
D03*
Y599488D02*
D03*
Y594488D02*
D03*
Y589488D02*
D03*
Y584488D02*
D03*
Y579488D02*
D03*
X1112835D02*
D03*
Y584488D02*
D03*
Y589488D02*
D03*
Y594488D02*
D03*
Y599488D02*
D03*
Y604488D02*
D03*
Y609488D02*
D03*
X1091890Y652795D02*
D03*
Y647795D02*
D03*
Y642795D02*
D03*
Y637795D02*
D03*
Y632795D02*
D03*
Y627795D02*
D03*
Y622795D02*
D03*
X1112835D02*
D03*
Y627795D02*
D03*
Y632795D02*
D03*
Y637795D02*
D03*
Y642795D02*
D03*
Y647795D02*
D03*
Y652795D02*
D03*
X1091890Y912638D02*
D03*
Y907638D02*
D03*
Y902638D02*
D03*
Y897638D02*
D03*
Y892638D02*
D03*
Y887638D02*
D03*
Y882638D02*
D03*
X1112835D02*
D03*
Y887638D02*
D03*
Y892638D02*
D03*
Y897638D02*
D03*
Y902638D02*
D03*
Y907638D02*
D03*
Y912638D02*
D03*
X1091890Y955945D02*
D03*
Y950945D02*
D03*
Y945945D02*
D03*
Y940945D02*
D03*
Y935945D02*
D03*
Y930945D02*
D03*
Y925945D02*
D03*
X1112835D02*
D03*
Y930945D02*
D03*
Y935945D02*
D03*
Y940945D02*
D03*
Y945945D02*
D03*
Y950945D02*
D03*
Y955945D02*
D03*
X1091890Y999252D02*
D03*
Y994252D02*
D03*
Y989252D02*
D03*
Y984252D02*
D03*
Y979252D02*
D03*
Y974252D02*
D03*
Y969252D02*
D03*
X1112835D02*
D03*
Y974252D02*
D03*
Y979252D02*
D03*
Y984252D02*
D03*
Y989252D02*
D03*
Y994252D02*
D03*
Y999252D02*
D03*
D16*
X440945Y650787D02*
D03*
X437205Y640551D02*
D03*
X444685D02*
D03*
D17*
X457677Y703740D02*
X460630Y700787D01*
X457677Y703740D02*
Y751968D01*
X460630Y667913D02*
Y700787D01*
Y603425D02*
Y662795D01*
X452756Y595551D02*
X460630Y603425D01*
X457677Y751968D02*
X469488Y763779D01*
X436417Y662795D02*
Y665945D01*
X433268Y669095D02*
X436417Y665945D01*
X430315Y669095D02*
X433268D01*
X578740Y902953D02*
X584193Y897500D01*
X588425D01*
X608425Y913524D02*
Y943071D01*
X805276Y913524D02*
Y919449D01*
X790276Y920197D02*
X818898Y948819D01*
X790276Y913524D02*
Y920197D01*
X987126Y913524D02*
Y920197D01*
X1002126Y919449D02*
X1003937Y921260D01*
X1002126Y913524D02*
Y919449D01*
X790276Y539508D02*
Y550118D01*
X987126Y539508D02*
Y546181D01*
X1007874Y476378D02*
Y527559D01*
X984252Y452756D02*
X1007874Y476378D01*
X984252Y437008D02*
Y452756D01*
X988189Y531496D02*
X1003937D01*
X990158Y431102D02*
X1003937D01*
X984252Y437008D02*
X990158Y431102D01*
X1003937Y531496D02*
X1007874Y527559D01*
X987126Y532559D02*
Y539508D01*
Y532559D02*
X988189Y531496D01*
X593425Y532559D02*
X594488Y531496D01*
X593425Y532559D02*
Y539508D01*
X610236Y531496D02*
X614173Y527559D01*
X590551Y437008D02*
X596457Y431102D01*
X610236D01*
X594488Y531496D02*
X610236D01*
X590551Y437008D02*
Y452756D01*
X614173Y476378D01*
Y527559D01*
X608425Y539508D02*
Y551181D01*
X593425Y539508D02*
Y551181D01*
X790276Y532559D02*
X791339Y531496D01*
X790276Y532559D02*
Y539508D01*
X807087Y531496D02*
X811024Y527559D01*
X787402Y437008D02*
X793307Y431102D01*
X807087D01*
X791339Y531496D02*
X807087D01*
X787402Y437008D02*
Y452756D01*
X811024Y476378D01*
Y527559D01*
X987126Y906575D02*
X988189Y905512D01*
X987126Y906575D02*
Y913524D01*
X1003937Y905512D02*
X1007874Y901575D01*
X984252Y811024D02*
X990158Y805118D01*
X1003937D01*
X988189Y905512D02*
X1003937D01*
X984252Y811024D02*
Y826772D01*
X1007874Y850394D01*
Y901575D01*
X790276Y906575D02*
X791339Y905512D01*
X790276Y906575D02*
Y913524D01*
X807087Y905512D02*
X811024Y901575D01*
X787402Y811024D02*
X793307Y805118D01*
X807087D01*
X791339Y905512D02*
X807087D01*
X787402Y811024D02*
Y826772D01*
X811024Y850394D01*
Y901575D01*
X429134Y863583D02*
X440945D01*
X429134Y868701D02*
Y872047D01*
X614173Y850394D02*
Y901575D01*
X590551Y826772D02*
X614173Y850394D01*
X590551Y811024D02*
Y826772D01*
X594488Y905512D02*
X610236D01*
X596457Y805118D02*
X610236D01*
X590551Y811024D02*
X596457Y805118D01*
X610236Y905512D02*
X614173Y901575D01*
X426772Y974409D02*
X438976D01*
X1112835Y546181D02*
X1118110D01*
X1112835Y541181D02*
X1118110D01*
X1086614Y536181D02*
X1091890D01*
X1086614Y551181D02*
X1091890D01*
X1086614Y566181D02*
X1091890D01*
X1002283Y541181D02*
X1091890D01*
Y561181D02*
X1096457D01*
X1091890Y546181D02*
X1096457D01*
X1098898Y548622D01*
X1096457D02*
X1099016Y551181D01*
X1112835D01*
X1096457Y561181D02*
X1098976Y558661D01*
X1112835Y561181D02*
X1118110D01*
X1112835Y604488D02*
X1118110D01*
X1098976Y601968D02*
X1118110D01*
X1096457Y604488D02*
X1098976Y601968D01*
X1099016Y594488D02*
X1112835D01*
X1096457Y591929D02*
X1099016Y594488D01*
X1096457Y589488D02*
X1098898Y591929D01*
X1091890Y589488D02*
X1096457D01*
X1091890Y604488D02*
X1096457D01*
X1098898Y591929D02*
X1118110D01*
X1086614Y609488D02*
X1091890D01*
X1086614Y594488D02*
X1091890D01*
X1086614Y579488D02*
X1091890D01*
X1112835Y584488D02*
X1118110D01*
X1112835Y589488D02*
X1118110D01*
X1112835Y599488D02*
X1118110D01*
X1112835Y642795D02*
X1118110D01*
X1112835Y632795D02*
X1118110D01*
X1112835Y627795D02*
X1118110D01*
X1086614Y622795D02*
X1091890D01*
X1086614Y637795D02*
X1091890D01*
X1086614Y652795D02*
X1091890D01*
X1098898Y635236D02*
X1118110D01*
X1091890Y647795D02*
X1096457D01*
X1091890Y632795D02*
X1096457D01*
X1098898Y635236D01*
X1096457D02*
X1099016Y637795D01*
X1112835D01*
X1096457Y647795D02*
X1098976Y645276D01*
X1118110D01*
X1112835Y647795D02*
X1118110D01*
X1112835Y902638D02*
X1118110D01*
X1112835Y892638D02*
X1118110D01*
X1112835Y887638D02*
X1118110D01*
X1086614Y882638D02*
X1091890D01*
X1086614Y897638D02*
X1091890D01*
X1086614Y912638D02*
X1091890D01*
X1098898Y895079D02*
X1118110D01*
X1091890Y907638D02*
X1096457D01*
X1091890Y892638D02*
X1096457D01*
X1098898Y895079D01*
X1096457D02*
X1099016Y897638D01*
X1112835D01*
X1096457Y907638D02*
X1098976Y905118D01*
X1118110D01*
X1112835Y907638D02*
X1118110D01*
X1112835Y950945D02*
X1118110D01*
X1098976Y948425D02*
X1118110D01*
X1096457Y950945D02*
X1098976Y948425D01*
X1096457Y935945D02*
X1098898Y938386D01*
X1091890Y935945D02*
X1096457D01*
X1091890Y950945D02*
X1096457D01*
X1098898Y938386D02*
X1118110D01*
X1086614Y955945D02*
X1091890D01*
X1086614Y940945D02*
X1091890D01*
X1086614Y925945D02*
X1091890D01*
X1112835Y930945D02*
X1118110D01*
X1112835Y935945D02*
X1118110D01*
X1112835Y945945D02*
X1118110D01*
X1112835Y989252D02*
X1118110D01*
X1112835Y979252D02*
X1118110D01*
X1112835Y974252D02*
X1118110D01*
X1086614Y969252D02*
X1091890D01*
X1086614Y984252D02*
X1091890D01*
X1086614Y999252D02*
X1091890D01*
X1098898Y981693D02*
X1118110D01*
X1091890Y994252D02*
X1096457D01*
X1091890Y979252D02*
X1096457D01*
X1098898Y981693D01*
X1096457D02*
X1099016Y984252D01*
X1112835D01*
X1096457Y994252D02*
X1098976Y991732D01*
X1118110D01*
X1112835Y994252D02*
X1118110D01*
X593425Y906575D02*
Y913524D01*
Y906575D02*
X594488Y905512D01*
X421260Y959252D02*
Y968898D01*
X426772Y974409D01*
X441929Y922638D02*
X456693D01*
X441929Y912402D02*
Y922638D01*
Y937992D01*
X439370Y974409D02*
X460630Y953150D01*
X1110433Y692913D02*
X1115236Y697717D01*
X456693Y783465D02*
Y922638D01*
Y783465D02*
X468504Y771654D01*
X460630Y782480D02*
Y953150D01*
Y782480D02*
X469488Y773622D01*
X456693Y927756D02*
Y933071D01*
X469488Y773622D02*
X613189D01*
X469488Y763779D02*
X608268D01*
X639764Y732283D01*
X468504Y771654D02*
X612205D01*
X643701Y740158D01*
X613189Y773622D02*
X644685Y742126D01*
X639764Y732283D02*
X894685D01*
X644685Y742126D02*
X891732D01*
X643701Y740158D02*
X892717D01*
X1063976Y692913D02*
X1110433D01*
X1062126Y697717D02*
X1105236D01*
X894685Y732283D02*
X918307Y755905D01*
X991142D01*
X892717Y740158D02*
X916339Y763779D01*
X993110D01*
X891732Y742126D02*
X915354Y765748D01*
X994094D01*
X1062126Y697717D01*
X993110Y763779D02*
X1063976Y692913D01*
X1062992Y683071D02*
Y684055D01*
X991142Y755905D02*
X1062992Y684055D01*
X1133858Y948425D02*
Y991732D01*
Y601968D02*
Y645276D01*
Y905118D01*
Y948425D01*
X1135827Y945945D02*
Y989252D01*
X1137795Y938386D02*
Y981693D01*
Y591929D02*
Y635236D01*
Y895079D01*
Y938386D01*
X1135827Y692913D02*
Y902638D01*
Y945945D01*
Y642795D02*
Y692913D01*
Y599488D02*
Y642795D01*
X1118110Y604488D02*
X1121299D01*
X1118110Y561181D02*
X1121299D01*
X1118110Y647795D02*
X1121299D01*
X1118110Y907638D02*
X1121299D01*
X1118110Y950945D02*
X1121299D01*
X1118110Y994252D02*
X1121299D01*
X1125984Y557087D02*
X1133858Y564961D01*
Y601968D01*
X1126968Y555118D02*
X1135827Y563976D01*
Y599488D01*
X1098898Y548622D02*
X1123425D01*
X1137795Y562992D01*
Y591929D01*
X1112835Y556181D02*
X1117047D01*
X1118110Y555118D01*
X1126968D01*
X1098976Y558661D02*
X1117520D01*
X1119094Y557087D01*
X1125984D01*
X775591Y908071D02*
Y917323D01*
X972441Y908071D02*
Y917323D01*
X1099016Y940945D02*
X1112835D01*
X1096457Y938386D02*
X1099016Y940945D01*
X1061181Y887638D02*
X1091890D01*
X1003937Y921260D02*
X1027559D01*
X1061181Y887638D01*
X1061614Y895079D02*
X1096457D01*
X1061929Y902638D02*
X1091890D01*
X781043Y897500D02*
X785276D01*
X775591Y902953D02*
X781043Y897500D01*
X608425Y943071D02*
X639606Y974252D01*
X1091890D01*
X1041496Y930945D02*
X1091890D01*
X818898Y948819D02*
X909449D01*
X919882Y938386D01*
X1096457D01*
X775591Y917323D02*
X820866Y962598D01*
X909449D01*
X926102Y945945D01*
X1091890D01*
X578740Y534055D02*
Y551181D01*
X670354Y642795D01*
X1091890D01*
X677480Y635236D02*
X1096457D01*
X593425Y551181D02*
X677480Y635236D01*
X608425Y551181D02*
X685039Y627795D01*
X1091890D01*
X775591Y551181D02*
X823898Y599488D01*
X775591Y534055D02*
Y551181D01*
X823898Y599488D02*
X1091890D01*
X909449Y586614D02*
X914764Y591929D01*
X826772Y586614D02*
X909449D01*
X790276Y550118D02*
X826772Y586614D01*
X914764Y591929D02*
X1096457D01*
X909449Y572835D02*
X921102Y584488D01*
X1091890D01*
X578740Y908071D02*
Y933071D01*
X634921Y989252D01*
X1091890D01*
X593425Y913524D02*
Y937913D01*
X637205Y981693D01*
X1096457D01*
X805276Y919449D02*
X820866Y935039D01*
X1037402D01*
X1041496Y930945D01*
X1031496Y925197D02*
X1061614Y895079D01*
X987126Y920197D02*
X992126Y925197D01*
X1031496D01*
X1035433Y929134D02*
X1061929Y902638D01*
X972441Y917323D02*
X984252Y929134D01*
X1035433D01*
X972441Y534055D02*
Y541339D01*
X987284Y556181D01*
X1091890D01*
X987126Y546181D02*
X989567Y548622D01*
X1096457D01*
X1002126Y541339D02*
X1002283Y541181D01*
X1002126Y539508D02*
Y541339D01*
X805276Y539508D02*
Y549370D01*
X828740Y572835D01*
X909449D01*
X977894Y523484D02*
X982126D01*
X972441Y528937D02*
X977894Y523484D01*
X781043D02*
X785276D01*
X775591Y528937D02*
X781043Y523484D01*
X584193D02*
X588425D01*
X578740Y528937D02*
X584193Y523484D01*
X977894Y897500D02*
X982126D01*
X972441Y902953D02*
X977894Y897500D01*
D18*
X437205Y601102D02*
Y635827D01*
Y601102D02*
X452756Y585551D01*
X424213Y877953D02*
Y912402D01*
Y877953D02*
X437008D01*
X440945Y874016D01*
Y870079D02*
Y874016D01*
X424213Y912402D02*
Y937992D01*
X421260Y940945D02*
X424213Y937992D01*
X421260Y940945D02*
Y952756D01*
X424213Y767717D02*
Y877953D01*
Y767717D02*
X610236D01*
X641732Y736221D01*
X1115236Y687717D02*
X1128661D01*
X1129921Y688976D01*
X1108622Y681102D02*
X1115236Y687717D01*
X1070866Y681102D02*
X1108622D01*
X424213Y674213D02*
Y767717D01*
X641732Y736221D02*
X893701D01*
X917323Y759842D01*
X992126D01*
X1070866Y681102D01*
X1122677Y566181D02*
X1129921Y573425D01*
X1112835Y566181D02*
X1122677D01*
X1112835Y652795D02*
X1129173D01*
X1112835Y912638D02*
X1129173D01*
X1112835Y955945D02*
X1129173D01*
X1124764Y999252D02*
X1129921Y994094D01*
X1112835Y999252D02*
X1124764D01*
X1129921Y688976D02*
Y994094D01*
X1112835Y609488D02*
X1129173D01*
X1129921Y573425D02*
Y688976D01*
D19*
X437205Y635827D02*
Y640551D01*
X444685Y635827D02*
Y640551D01*
X427165Y665354D02*
X430315D01*
X420079Y661614D02*
X424213Y665748D01*
Y674213D01*
X436417Y662795D02*
X440945D01*
X435236Y661614D02*
X436417Y662795D01*
X430315Y661614D02*
X435236D01*
X413976Y662795D02*
X415158Y661614D01*
X409449Y662795D02*
X413976D01*
X415158Y661614D02*
X420079D01*
X440945Y650787D02*
Y662795D01*
X1003937Y427165D02*
X1013780D01*
X1003937Y438976D02*
X1013780D01*
X994094Y427165D02*
X1003937D01*
X994094Y438976D02*
X1003937D01*
X600394D02*
X610236D01*
X600394Y427165D02*
X610236D01*
Y438976D02*
X620079D01*
X610236Y427165D02*
X620079D01*
X797244Y438976D02*
X807087D01*
X797244Y427165D02*
X807087D01*
Y438976D02*
X816929D01*
X807087Y427165D02*
X816929D01*
X994094Y812992D02*
X1003937D01*
X994094Y801181D02*
X1003937D01*
Y812992D02*
X1013780D01*
X1003937Y801181D02*
X1013780D01*
X797244Y812992D02*
X807087D01*
X797244Y801181D02*
X807087D01*
Y812992D02*
X816929D01*
X807087Y801181D02*
X816929D01*
X610236D02*
X620079D01*
X610236Y812992D02*
X620079D01*
X600394Y801181D02*
X610236D01*
X600394Y812992D02*
X610236D01*
D20*
X409449Y667913D02*
Y671260D01*
X440945Y667913D02*
Y671260D01*
X987205Y500984D02*
Y523406D01*
X987126Y523484D02*
X987205Y523406D01*
X997126Y500984D02*
Y509842D01*
Y515748D01*
Y523484D01*
X992126Y500984D02*
Y523484D01*
X598425Y500984D02*
Y523484D01*
X603425Y515748D02*
Y523484D01*
Y509842D02*
Y515748D01*
Y500984D02*
Y509842D01*
X593425Y523484D02*
X593504Y523406D01*
Y500984D02*
Y523406D01*
X795276Y500984D02*
Y523484D01*
X800276Y515748D02*
Y523484D01*
Y509842D02*
Y515748D01*
Y500984D02*
Y509842D01*
X790276Y523484D02*
X790354Y523406D01*
Y500984D02*
Y523406D01*
X992126Y875000D02*
Y897500D01*
X997126Y889764D02*
Y897500D01*
Y883858D02*
Y889764D01*
Y875000D02*
Y883858D01*
X987126Y897500D02*
X987205Y897421D01*
Y875000D02*
Y897421D01*
X795276Y875000D02*
Y897500D01*
X800276Y889764D02*
Y897500D01*
Y883858D02*
Y889764D01*
Y875000D02*
Y883858D01*
X790276Y897500D02*
X790354Y897421D01*
Y875000D02*
Y897421D01*
X593504Y875000D02*
Y897421D01*
X593425Y897500D02*
X593504Y897421D01*
X603425Y875000D02*
Y883858D01*
Y889764D01*
Y897500D01*
X598425Y875000D02*
Y897500D01*
D21*
X1105236Y847717D02*
D03*
X1115236D02*
D03*
X1105236Y837716D02*
D03*
X1115236D02*
D03*
X1105236Y827717D02*
D03*
X1115236D02*
D03*
X1105236Y817717D02*
D03*
X1115236D02*
D03*
X1105236Y807717D02*
D03*
X1115236D02*
D03*
X1105236Y797717D02*
D03*
X1115236D02*
D03*
X1105236Y787717D02*
D03*
X1115236D02*
D03*
X1105236Y777717D02*
D03*
X1115236D02*
D03*
X1105236Y767717D02*
D03*
X1115236D02*
D03*
X1105236Y757717D02*
D03*
X1115236D02*
D03*
X1105236Y747717D02*
D03*
X1115236D02*
D03*
X1105236Y737717D02*
D03*
X1115236D02*
D03*
X1105236Y727717D02*
D03*
X1115236D02*
D03*
X1105236Y717717D02*
D03*
X1115236D02*
D03*
X1105236Y707717D02*
D03*
X1115236D02*
D03*
X1105236Y697717D02*
D03*
X1115236D02*
D03*
X1105236Y687717D02*
D03*
X1115236D02*
D03*
X452756Y615551D02*
D03*
Y605551D02*
D03*
Y595551D02*
D03*
Y585551D02*
D03*
Y575551D02*
D03*
Y565551D02*
D03*
D22*
X439370Y974409D02*
D03*
Y984252D02*
D03*
Y994094D02*
D03*
X426772Y974409D02*
D03*
Y984252D02*
D03*
Y994094D02*
D03*
D23*
X441929Y937992D02*
D03*
Y912402D02*
D03*
X424213D02*
D03*
Y937992D02*
D03*
X508386Y749134D02*
D03*
X468386D02*
D03*
Y709134D02*
D03*
X508386D02*
D03*
Y824134D02*
D03*
X468386D02*
D03*
Y784134D02*
D03*
X508386D02*
D03*
D24*
X610236Y1102362D02*
D03*
X925197D02*
D03*
Y728346D02*
D03*
X610236D02*
D03*
D25*
X492047Y729134D02*
D03*
Y804134D02*
D03*
D26*
X500000Y1118110D02*
D03*
X417323Y1070866D02*
D03*
X464567Y417323D02*
D03*
X417323Y500000D02*
D03*
X1118110Y464567D02*
D03*
X1035433Y417323D02*
D03*
X1070866Y1118110D02*
D03*
X1118110Y1035433D02*
D03*
D27*
X669291Y767717D02*
D03*
X866142D02*
D03*
D28*
X444685Y635827D02*
D03*
X427165Y665354D02*
D03*
X409449Y671260D02*
D03*
X440945D02*
D03*
X1013780Y427165D02*
D03*
Y438976D02*
D03*
X1010827D02*
D03*
Y427165D02*
D03*
X994094D02*
D03*
X997047D02*
D03*
X994094Y438976D02*
D03*
X997047D02*
D03*
X987205Y500984D02*
D03*
Y503937D02*
D03*
X987126Y506890D02*
D03*
X987205Y509842D02*
D03*
X987126Y512795D02*
D03*
X997126Y500984D02*
D03*
Y503937D02*
D03*
Y506890D02*
D03*
Y509842D02*
D03*
Y512795D02*
D03*
X987126Y515748D02*
D03*
X907087Y576772D02*
D03*
Y582677D02*
D03*
Y579724D02*
D03*
X1007874Y427165D02*
D03*
Y438976D02*
D03*
X1000000Y427165D02*
D03*
Y438976D02*
D03*
X907087Y593504D02*
D03*
Y590551D02*
D03*
Y596457D02*
D03*
X997126Y515748D02*
D03*
X992126Y515679D02*
D03*
X992126Y512795D02*
D03*
Y509842D02*
D03*
Y506890D02*
D03*
Y503937D02*
D03*
Y500984D02*
D03*
X603425Y515748D02*
D03*
X628346Y576772D02*
D03*
Y582677D02*
D03*
Y579724D02*
D03*
X606299Y438976D02*
D03*
Y427165D02*
D03*
X614173Y438976D02*
D03*
Y427165D02*
D03*
X628346Y593504D02*
D03*
Y590551D02*
D03*
Y596457D02*
D03*
X593425Y515748D02*
D03*
X603425Y512795D02*
D03*
Y509842D02*
D03*
Y506890D02*
D03*
Y503937D02*
D03*
Y500984D02*
D03*
X593425Y512795D02*
D03*
X593504Y509842D02*
D03*
X593425Y506890D02*
D03*
X593504Y503937D02*
D03*
Y500984D02*
D03*
X603346Y438976D02*
D03*
X600394D02*
D03*
X603346Y427165D02*
D03*
X600394D02*
D03*
X617126D02*
D03*
Y438976D02*
D03*
X620079D02*
D03*
Y427165D02*
D03*
X598425Y512795D02*
D03*
X598425Y515679D02*
D03*
X598425Y509842D02*
D03*
Y506890D02*
D03*
Y503937D02*
D03*
Y500984D02*
D03*
X795276D02*
D03*
X795276Y503937D02*
D03*
Y506890D02*
D03*
Y509842D02*
D03*
Y512795D02*
D03*
Y515748D02*
D03*
Y875000D02*
D03*
Y877953D02*
D03*
Y880906D02*
D03*
Y883858D02*
D03*
Y886811D02*
D03*
Y889695D02*
D03*
X992126Y875000D02*
D03*
Y877953D02*
D03*
Y880906D02*
D03*
Y883858D02*
D03*
Y886811D02*
D03*
X992126Y889695D02*
D03*
X598425Y875000D02*
D03*
Y877953D02*
D03*
Y880906D02*
D03*
Y883858D02*
D03*
X598425Y889695D02*
D03*
X598425Y886811D02*
D03*
X800276Y515748D02*
D03*
X757874Y564567D02*
D03*
X763779D02*
D03*
X760827D02*
D03*
X803150Y438976D02*
D03*
Y427165D02*
D03*
X811024Y438976D02*
D03*
Y427165D02*
D03*
X774606Y564567D02*
D03*
X771654D02*
D03*
X777559D02*
D03*
X790276Y515748D02*
D03*
X800276Y512795D02*
D03*
Y509842D02*
D03*
Y506890D02*
D03*
Y503937D02*
D03*
Y500984D02*
D03*
X790276Y512795D02*
D03*
X790354Y509842D02*
D03*
X790276Y506890D02*
D03*
X790354Y503937D02*
D03*
Y500984D02*
D03*
X800197Y438976D02*
D03*
X797244D02*
D03*
X800197Y427165D02*
D03*
X797244D02*
D03*
X813976D02*
D03*
Y438976D02*
D03*
X816929D02*
D03*
Y427165D02*
D03*
X997126Y889764D02*
D03*
X907087Y958661D02*
D03*
Y952756D02*
D03*
Y955709D02*
D03*
X1000000Y812992D02*
D03*
Y801181D02*
D03*
X1007874Y812992D02*
D03*
Y801181D02*
D03*
X907087Y941929D02*
D03*
Y944882D02*
D03*
Y938976D02*
D03*
X987126Y889764D02*
D03*
X997126Y886811D02*
D03*
Y883858D02*
D03*
Y880906D02*
D03*
Y877953D02*
D03*
Y875000D02*
D03*
X987126Y886811D02*
D03*
X987205Y883858D02*
D03*
X987126Y880906D02*
D03*
X987205Y877953D02*
D03*
Y875000D02*
D03*
X997047Y812992D02*
D03*
X994094D02*
D03*
X997047Y801181D02*
D03*
X994094D02*
D03*
X1010827D02*
D03*
Y812992D02*
D03*
X1013780D02*
D03*
Y801181D02*
D03*
X800276Y889764D02*
D03*
X757874Y800787D02*
D03*
X763779D02*
D03*
X760827D02*
D03*
X803150Y812992D02*
D03*
Y801181D02*
D03*
X811024Y812992D02*
D03*
Y801181D02*
D03*
X774606Y800787D02*
D03*
X771654D02*
D03*
X777559D02*
D03*
X790276Y889764D02*
D03*
X800276Y886811D02*
D03*
Y883858D02*
D03*
Y880906D02*
D03*
Y877953D02*
D03*
Y875000D02*
D03*
X790276Y886811D02*
D03*
X790354Y883858D02*
D03*
X790276Y880906D02*
D03*
X790354Y877953D02*
D03*
Y875000D02*
D03*
X800197Y812992D02*
D03*
X797244D02*
D03*
X800197Y801181D02*
D03*
X797244D02*
D03*
X813976D02*
D03*
Y812992D02*
D03*
X816929D02*
D03*
Y801181D02*
D03*
X620079D02*
D03*
Y812992D02*
D03*
X617126D02*
D03*
Y801181D02*
D03*
X600394D02*
D03*
X603346D02*
D03*
X600394Y812992D02*
D03*
X603346D02*
D03*
X593504Y875000D02*
D03*
Y877953D02*
D03*
X593425Y880906D02*
D03*
X593504Y883858D02*
D03*
X593425Y886811D02*
D03*
X603425Y875000D02*
D03*
Y877953D02*
D03*
Y880906D02*
D03*
Y883858D02*
D03*
Y886811D02*
D03*
X593425Y889764D02*
D03*
X628346Y958661D02*
D03*
Y952756D02*
D03*
Y955709D02*
D03*
X614173Y801181D02*
D03*
Y812992D02*
D03*
X606299Y801181D02*
D03*
Y812992D02*
D03*
X429134Y872047D02*
D03*
X628346Y941929D02*
D03*
Y944882D02*
D03*
Y938976D02*
D03*
X603425Y889764D02*
D03*
X1118110Y546181D02*
D03*
Y541181D02*
D03*
X1086614Y536181D02*
D03*
Y551181D02*
D03*
Y566181D02*
D03*
X1118110Y561181D02*
D03*
X1137795Y591929D02*
D03*
X1133858Y601968D02*
D03*
X1118110Y604488D02*
D03*
Y601968D02*
D03*
Y591929D02*
D03*
X1086614Y609488D02*
D03*
Y594488D02*
D03*
Y579488D02*
D03*
X1118110Y584488D02*
D03*
Y589488D02*
D03*
Y599488D02*
D03*
Y642795D02*
D03*
Y632795D02*
D03*
Y627795D02*
D03*
X1086614Y622795D02*
D03*
Y637795D02*
D03*
Y652795D02*
D03*
X1118110Y635236D02*
D03*
Y645276D02*
D03*
Y647795D02*
D03*
X1133858Y645276D02*
D03*
X1137795Y635236D02*
D03*
X1118110Y902638D02*
D03*
Y892638D02*
D03*
Y887638D02*
D03*
X1086614Y882638D02*
D03*
Y897638D02*
D03*
Y912638D02*
D03*
X1118110Y895079D02*
D03*
Y905118D02*
D03*
Y907638D02*
D03*
X1133858Y905118D02*
D03*
X1137795Y895079D02*
D03*
Y938386D02*
D03*
X1135827Y945945D02*
D03*
X1133858Y948425D02*
D03*
X1118110Y950945D02*
D03*
Y948425D02*
D03*
Y938386D02*
D03*
X1086614Y955945D02*
D03*
Y940945D02*
D03*
Y925945D02*
D03*
X1118110Y930945D02*
D03*
Y935945D02*
D03*
Y945945D02*
D03*
Y989252D02*
D03*
Y979252D02*
D03*
Y974252D02*
D03*
X1086614Y969252D02*
D03*
Y984252D02*
D03*
Y999252D02*
D03*
X1118110Y981693D02*
D03*
Y991732D02*
D03*
Y994252D02*
D03*
X1133858Y991732D02*
D03*
X1135827Y989252D02*
D03*
X1137795Y981693D02*
D03*
X1135827Y692913D02*
D03*
X1133858Y697835D02*
D03*
X1137795Y702756D02*
D03*
X456693Y933071D02*
D03*
X1062992Y683071D02*
D03*
X1135827Y902638D02*
D03*
Y642795D02*
D03*
Y599488D02*
D03*
M02*
