ISO-10303-21;
HEADER;
FILE_DESCRIPTION (( 'STEP AP214' ),
    '1' );
FILE_NAME ('Encoder Pin.STEP',
    '2026-01-31T06:37:36',
    ( '' ),
    ( '' ),
    'SwSTEP 2.0',
    'SolidWorks 2026',
    '' );
FILE_SCHEMA (( 'AUTOMOTIVE_DESIGN' ));
ENDSEC;

DATA;
#1 = VECTOR ( 'NONE', #224, 1000.000000000000000 ) ;
#2 = CARTESIAN_POINT ( 'NONE',  ( 7.347880794884119736E-16, -10.49999999999999822, -6.000000000000000888 ) ) ;
#3 = EDGE_CURVE ( 'NONE', #258, #260, #293, .T. ) ;
#4 = FACE_OUTER_BOUND ( 'NONE', #278, .T. ) ;
#5 = CARTESIAN_POINT ( 'NONE',  ( 0.000000000000000000, 13.00000000000000000, 10.50000000000000000 ) ) ;
#6 = MECHANICAL_DESIGN_GEOMETRIC_PRESENTATION_REPRESENTATION (  '', ( #124 ), #116 ) ;
#7 = PRODUCT ( 'Encoder Pin', 'Encoder Pin', '', ( #113 ) ) ;
#8 = ADVANCED_FACE ( 'NONE', ( #257 ), #218, .T. ) ;
#9 = DIRECTION ( 'NONE',  ( 0.000000000000000000, 0.000000000000000000, -1.000000000000000000 ) ) ;
#10 = CARTESIAN_POINT ( 'NONE',  ( 0.000000000000000000, 13.00000000000000000, -12.50000000000000000 ) ) ;
#11 = ORIENTED_EDGE ( 'NONE', *, *, #77, .F. ) ;
#12 = ORIENTED_EDGE ( 'NONE', *, *, #97, .F. ) ;
#13 = TOROIDAL_SURFACE ( 'NONE', #191, 10.50000000000000000, 2.000000000000000000 ) ;
#14 = EDGE_CURVE ( 'NONE', #207, #112, #239, .T. ) ;
#15 = DIRECTION ( 'NONE',  ( 0.000000000000000000, 0.000000000000000000, -1.000000000000000000 ) ) ;
#16 = ORIENTED_EDGE ( 'NONE', *, *, #17, .F. ) ;
#17 = EDGE_CURVE ( 'NONE', #240, #61, #146, .T. ) ;
#18 = DIRECTION ( 'NONE',  ( 0.000000000000000000, 0.000000000000000000, -1.000000000000000000 ) ) ;
#19 = TOROIDAL_SURFACE ( 'NONE', #111, 3.500000000000000888, 2.500000000000000000 ) ;
#20 = CIRCLE ( 'NONE', #104, 6.000000000000000888 ) ;
#21 = ORIENTED_EDGE ( 'NONE', *, *, #134, .T. ) ;
#22 = PRODUCT_DEFINITION_CONTEXT ( 'detailed design', #213, 'design' ) ;
#23 = APPLICATION_PROTOCOL_DEFINITION ( 'draft international standard', 'automotive_design', 1998, #213 ) ;
#24 = CARTESIAN_POINT ( 'NONE',  ( 0.000000000000000000, 13.00000000000000000, 0.000000000000000000 ) ) ;
#25 = ORIENTED_EDGE ( 'NONE', *, *, #230, .F. ) ;
#26 = AXIS2_PLACEMENT_3D ( 'NONE', #92, #272, #38 ) ;
#27 = AXIS2_PLACEMENT_3D ( 'NONE', #190, #66, #251 ) ;
#28 = FACE_OUTER_BOUND ( 'NONE', #141, .T. ) ;
#29 = SURFACE_STYLE_FILL_AREA ( #154 ) ;
#30 = EDGE_CURVE ( 'NONE', #295, #260, #94, .T. ) ;
#31 = CARTESIAN_POINT ( 'NONE',  ( 0.000000000000000000, 0.000000000000000000, 0.000000000000000000 ) ) ;
#32 = AXIS2_PLACEMENT_3D ( 'NONE', #193, #285, #284 ) ;
#33 = CARTESIAN_POINT ( 'NONE',  ( 0.000000000000000000, -10.49999999999999822, -3.500000000000000888 ) ) ;
#34 = DIRECTION ( 'NONE',  ( 0.000000000000000000, 0.000000000000000000, 1.000000000000000000 ) ) ;
#35 = EDGE_CURVE ( 'NONE', #61, #240, #200, .T. ) ;
#36 = AXIS2_PLACEMENT_3D ( 'NONE', #274, #229, #15 ) ;
#37 = ORIENTED_EDGE ( 'NONE', *, *, #256, .F. ) ;
#38 = DIRECTION ( 'NONE',  ( -1.224646799147353207E-16, 0.000000000000000000, -1.000000000000000000 ) ) ;
#39 = ORIENTED_EDGE ( 'NONE', *, *, #64, .F. ) ;
#40 = FACE_OUTER_BOUND ( 'NONE', #166, .T. ) ;
#41 = CYLINDRICAL_SURFACE ( 'NONE', #202, 12.50000000000000000 ) ;
#42 = ORIENTED_EDGE ( 'NONE', *, *, #130, .T. ) ;
#43 = AXIS2_PLACEMENT_3D ( 'NONE', #204, #208, #34 ) ;
#44 = ORIENTED_EDGE ( 'NONE', *, *, #3, .T. ) ;
#45 = CARTESIAN_POINT ( 'NONE',  ( 0.000000000000000000, 15.00000000000000000, 0.000000000000000000 ) ) ;
#46 = FACE_OUTER_BOUND ( 'NONE', #275, .T. ) ;
#47 = AXIS2_PLACEMENT_3D ( 'NONE', #168, #172, #194 ) ;
#48 = EDGE_LOOP ( 'NONE', ( #93, #209, #189, #86 ) ) ;
#49 = CARTESIAN_POINT ( 'NONE',  ( 0.000000000000000000, -13.00000000000000000, 6.000000000000000888 ) ) ;
#50 = ORIENTED_EDGE ( 'NONE', *, *, #171, .T. ) ;
#51 = COLOUR_RGB ( '',0.2509803921568627416, 0.2509803921568627416, 0.2509803921568627416 ) ;
#52 = TOROIDAL_SURFACE ( 'NONE', #128, 3.500000000000000888, 2.500000000000000000 ) ;
#53 = CARTESIAN_POINT ( 'NONE',  ( 0.000000000000000000, -10.49999999999999822, 0.000000000000000000 ) ) ;
#54 = EDGE_CURVE ( 'NONE', #90, #258, #255, .T. ) ;
#55 =( LENGTH_UNIT ( ) NAMED_UNIT ( * ) SI_UNIT ( .MILLI., .METRE. ) );
#56 = CIRCLE ( 'NONE', #27, 12.50000000000000000 ) ;
#57 = DIRECTION ( 'NONE',  ( 0.000000000000000000, -1.000000000000000000, 0.000000000000000000 ) ) ;
#58 = AXIS2_PLACEMENT_3D ( 'NONE', #95, #187, #281 ) ;
#59 = ADVANCED_FACE ( 'NONE', ( #46 ), #98, .T. ) ;
#60 = CARTESIAN_POINT ( 'NONE',  ( 0.000000000000000000, 13.00000000000000000, 0.000000000000000000 ) ) ;
#61 = VERTEX_POINT ( 'NONE', #261 ) ;
#62 = CYLINDRICAL_SURFACE ( 'NONE', #250, 6.000000000000000888 ) ;
#63 = AXIS2_PLACEMENT_3D ( 'NONE', #234, #216, #212 ) ;
#64 = EDGE_CURVE ( 'NONE', #207, #139, #144, .T. ) ;
#65 =( NAMED_UNIT ( * ) SI_UNIT ( $, .STERADIAN. ) SOLID_ANGLE_UNIT ( ) );
#66 = DIRECTION ( 'NONE',  ( 0.000000000000000000, 1.000000000000000000, 0.000000000000000000 ) ) ;
#67 = CARTESIAN_POINT ( 'NONE',  ( 0.000000000000000000, 15.00000000000000000, 10.50000000000000000 ) ) ;
#68 = VECTOR ( 'NONE', #214, 1000.000000000000000 ) ;
#69 = ORIENTED_EDGE ( 'NONE', *, *, #130, .F. ) ;
#70 = DIRECTION ( 'NONE',  ( -0.000000000000000000, 1.000000000000000000, -0.000000000000000000 ) ) ;
#71 = VERTEX_POINT ( 'NONE', #288 ) ;
#72 = CIRCLE ( 'NONE', #81, 12.50000000000000000 ) ;
#73 = ADVANCED_FACE ( 'NONE', ( #28 ), #19, .T. ) ;
#74 = DIRECTION ( 'NONE',  ( -0.000000000000000000, -1.000000000000000000, -0.000000000000000000 ) ) ;
#75 = ORIENTED_EDGE ( 'NONE', *, *, #167, .T. ) ;
#76 =( NAMED_UNIT ( * ) PLANE_ANGLE_UNIT ( ) SI_UNIT ( $, .RADIAN. ) );
#77 = EDGE_CURVE ( 'NONE', #139, #217, #306, .T. ) ;
#78 = DIRECTION ( 'NONE',  ( -0.000000000000000000, 1.000000000000000000, -0.000000000000000000 ) ) ;
#79 = DIRECTION ( 'NONE',  ( 0.000000000000000000, 0.000000000000000000, -1.000000000000000000 ) ) ;
#80 = DIRECTION ( 'NONE',  ( 0.000000000000000000, -1.000000000000000000, 0.000000000000000000 ) ) ;
#81 = AXIS2_PLACEMENT_3D ( 'NONE', #60, #132, #210 ) ;
#82 = ADVANCED_FACE ( 'NONE', ( #308, #269 ), #150, .F. ) ;
#83 = FACE_OUTER_BOUND ( 'NONE', #48, .T. ) ;
#84 = UNCERTAINTY_MEASURE_WITH_UNIT (LENGTH_MEASURE( 1.000000000000000082E-05 ), #180, 'distance_accuracy_value', 'NONE');
#85 = DIRECTION ( 'NONE',  ( -0.000000000000000000, 1.000000000000000000, -0.000000000000000000 ) ) ;
#86 = ORIENTED_EDGE ( 'NONE', *, *, #77, .T. ) ;
#87 = FACE_OUTER_BOUND ( 'NONE', #211, .T. ) ;
#88 = FACE_OUTER_BOUND ( 'NONE', #304, .T. ) ;
#89 = AXIS2_PLACEMENT_3D ( 'NONE', #33, #198, #223 ) ;
#90 = VERTEX_POINT ( 'NONE', #100 ) ;
#91 = DIRECTION ( 'NONE',  ( 0.000000000000000000, -0.000000000000000000, 1.000000000000000000 ) ) ;
#92 = CARTESIAN_POINT ( 'NONE',  ( 4.286263797015737088E-16, -10.49999999999999822, 3.500000000000000888 ) ) ;
#93 = ORIENTED_EDGE ( 'NONE', *, *, #134, .F. ) ;
#94 = CIRCLE ( 'NONE', #270, 10.50000000000000000 ) ;
#95 = CARTESIAN_POINT ( 'NONE',  ( 0.000000000000000000, 0.000000000000000000, 0.000000000000000000 ) ) ;
#96 = DIRECTION ( 'NONE',  ( 0.000000000000000000, -1.000000000000000000, 0.000000000000000000 ) ) ;
#97 = EDGE_CURVE ( 'NONE', #71, #307, #196, .T. ) ;
#98 = CYLINDRICAL_SURFACE ( 'NONE', #235, 12.50000000000000000 ) ;
#99 = ORIENTED_EDGE ( 'NONE', *, *, #151, .F. ) ;
#100 = CARTESIAN_POINT ( 'NONE',  ( 1.530808498934191521E-15, 13.00000000000000000, 12.50000000000000000 ) ) ;
#101 = PLANE ( 'NONE',  #47 ) ;
#102 = AXIS2_PLACEMENT_3D ( 'NONE', #221, #309, #195 ) ;
#103 = AXIS2_PLACEMENT_3D ( 'NONE', #31, #57, #219 ) ;
#104 = AXIS2_PLACEMENT_3D ( 'NONE', #138, #85, #9 ) ;
#105 = DIRECTION ( 'NONE',  ( 0.000000000000000000, 0.000000000000000000, -1.000000000000000000 ) ) ;
#106 = CARTESIAN_POINT ( 'NONE',  ( 0.000000000000000000, 15.00000000000000000, 0.000000000000000000 ) ) ;
#107 = ORIENTED_EDGE ( 'NONE', *, *, #54, .T. ) ;
#108 = DIRECTION ( 'NONE',  ( 0.000000000000000000, 1.000000000000000000, 0.000000000000000000 ) ) ;
#109 = EDGE_LOOP ( 'NONE', ( #11, #25 ) ) ;
#110 = CARTESIAN_POINT ( 'NONE',  ( 0.000000000000000000, -10.49999999999999822, 6.000000000000000888 ) ) ;
#111 = AXIS2_PLACEMENT_3D ( 'NONE', #53, #80, #79 ) ;
#112 = VERTEX_POINT ( 'NONE', #2 ) ;
#113 = PRODUCT_CONTEXT ( 'NONE', #177, 'mechanical' ) ;
#114 = DIRECTION ( 'NONE',  ( 0.000000000000000000, 0.000000000000000000, -1.000000000000000000 ) ) ;
#115 = DIRECTION ( 'NONE',  ( 0.000000000000000000, 1.000000000000000000, 0.000000000000000000 ) ) ;
#116 =( GEOMETRIC_REPRESENTATION_CONTEXT ( 3 ) GLOBAL_UNCERTAINTY_ASSIGNED_CONTEXT ( ( #289 ) ) GLOBAL_UNIT_ASSIGNED_CONTEXT ( ( #55, #76, #126 ) ) REPRESENTATION_CONTEXT ( 'NONE', 'WORKASPACE' ) );
#117 =( GEOMETRIC_REPRESENTATION_CONTEXT ( 3 ) GLOBAL_UNCERTAINTY_ASSIGNED_CONTEXT ( ( #84 ) ) GLOBAL_UNIT_ASSIGNED_CONTEXT ( ( #180, #158, #65 ) ) REPRESENTATION_CONTEXT ( 'NONE', 'WORKASPACE' ) );
#118 = ORIENTED_EDGE ( 'NONE', *, *, #54, .F. ) ;
#119 = ADVANCED_FACE ( 'NONE', ( #4 ), #101, .T. ) ;
#120 = SHAPE_DEFINITION_REPRESENTATION ( #142, #252 ) ;
#121 = ORIENTED_EDGE ( 'NONE', *, *, #30, .F. ) ;
#122 = MANIFOLD_SOLID_BREP ( 'Fillet2', #249 ) ;
#123 = ORIENTED_EDGE ( 'NONE', *, *, #3, .F. ) ;
#124 = STYLED_ITEM ( 'NONE', ( #244 ), #122 ) ;
#125 = DIRECTION ( 'NONE',  ( 0.000000000000000000, 1.000000000000000000, 0.000000000000000000 ) ) ;
#126 =( NAMED_UNIT ( * ) SI_UNIT ( $, .STERADIAN. ) SOLID_ANGLE_UNIT ( ) );
#127 = AXIS2_PLACEMENT_3D ( 'NONE', #5, #292, #175 ) ;
#128 = AXIS2_PLACEMENT_3D ( 'NONE', #136, #231, #247 ) ;
#129 = CARTESIAN_POINT ( 'NONE',  ( 0.000000000000000000, 0.000000000000000000, 0.000000000000000000 ) ) ;
#130 = EDGE_CURVE ( 'NONE', #112, #61, #283, .T. ) ;
#131 = CARTESIAN_POINT ( 'NONE',  ( 1.530808498934191521E-15, 15.00000000000000000, 12.50000000000000000 ) ) ;
#132 = DIRECTION ( 'NONE',  ( -0.000000000000000000, -1.000000000000000000, -0.000000000000000000 ) ) ;
#133 = PRESENTATION_LAYER_ASSIGNMENT (  '', '', ( #124 ) ) ;
#134 = EDGE_CURVE ( 'NONE', #112, #217, #197, .T. ) ;
#135 = ORIENTED_EDGE ( 'NONE', *, *, #220, .F. ) ;
#136 = CARTESIAN_POINT ( 'NONE',  ( 0.000000000000000000, -10.49999999999999822, 0.000000000000000000 ) ) ;
#137 = ORIENTED_EDGE ( 'NONE', *, *, #167, .F. ) ;
#138 = CARTESIAN_POINT ( 'NONE',  ( 0.000000000000000000, -10.49999999999999822, 0.000000000000000000 ) ) ;
#139 = VERTEX_POINT ( 'NONE', #264 ) ;
#140 = AXIS2_PLACEMENT_3D ( 'NONE', #185, #70, #18 ) ;
#141 = EDGE_LOOP ( 'NONE', ( #143, #301, #145, #69 ) ) ;
#142 = PRODUCT_DEFINITION_SHAPE ( 'NONE', 'NONE',  #203 ) ;
#143 = ORIENTED_EDGE ( 'NONE', *, *, #14, .F. ) ;
#144 = LINE ( 'NONE', #49, #68 ) ;
#145 = ORIENTED_EDGE ( 'NONE', *, *, #35, .F. ) ;
#146 = CIRCLE ( 'NONE', #259, 3.500000000000000888 ) ;
#147 = ORIENTED_EDGE ( 'NONE', *, *, #171, .F. ) ;
#148 = ORIENTED_EDGE ( 'NONE', *, *, #268, .F. ) ;
#149 = ORIENTED_EDGE ( 'NONE', *, *, #256, .T. ) ;
#150 = PLANE ( 'NONE',  #174 ) ;
#151 = EDGE_CURVE ( 'NONE', #260, #295, #302, .T. ) ;
#152 = CARTESIAN_POINT ( 'NONE',  ( 7.347880794884119736E-16, -13.00000000000000000, -6.000000000000000888 ) ) ;
#153 = CIRCLE ( 'NONE', #36, 6.000000000000000888 ) ;
#154 = FILL_AREA_STYLE ('',( #267 ) ) ;
#155 = DIRECTION ( 'NONE',  ( 0.000000000000000000, 1.000000000000000000, 0.000000000000000000 ) ) ;
#156 = AXIS2_PLACEMENT_3D ( 'NONE', #222, #155, #170 ) ;
#157 = FACE_OUTER_BOUND ( 'NONE', #282, .T. ) ;
#158 =( NAMED_UNIT ( * ) PLANE_ANGLE_UNIT ( ) SI_UNIT ( $, .RADIAN. ) );
#159 = EDGE_LOOP ( 'NONE', ( #123, #118, #238, #99 ) ) ;
#160 = AXIS2_PLACEMENT_3D ( 'NONE', #106, #273, #91 ) ;
#161 = EDGE_LOOP ( 'NONE', ( #37, #12 ) ) ;
#162 = DIRECTION ( 'NONE',  ( 0.000000000000000000, 0.000000000000000000, 1.000000000000000000 ) ) ;
#163 = DIRECTION ( 'NONE',  ( 0.000000000000000000, 0.000000000000000000, 1.000000000000000000 ) ) ;
#164 = CARTESIAN_POINT ( 'NONE',  ( 0.000000000000000000, 15.00000000000000000, 0.000000000000000000 ) ) ;
#165 = DIRECTION ( 'NONE',  ( 0.000000000000000000, 0.000000000000000000, -1.000000000000000000 ) ) ;
#166 = EDGE_LOOP ( 'NONE', ( #303, #21, #254, #39 ) ) ;
#167 = EDGE_CURVE ( 'NONE', #258, #307, #266, .T. ) ;
#168 = CARTESIAN_POINT ( 'NONE',  ( 0.000000000000000000, -13.00000000000000000, 0.000000000000000000 ) ) ;
#169 = VECTOR ( 'NONE', #199, 1000.000000000000000 ) ;
#170 = DIRECTION ( 'NONE',  ( 0.000000000000000000, 0.000000000000000000, 1.000000000000000000 ) ) ;
#171 = EDGE_CURVE ( 'NONE', #90, #71, #173, .T. ) ;
#172 = DIRECTION ( 'NONE',  ( 0.000000000000000000, -1.000000000000000000, 0.000000000000000000 ) ) ;
#173 = LINE ( 'NONE', #131, #1 ) ;
#174 = AXIS2_PLACEMENT_3D ( 'NONE', #129, #125, #242 ) ;
#175 = DIRECTION ( 'NONE',  ( 0.000000000000000000, 0.000000000000000000, 1.000000000000000000 ) ) ;
#176 = DIRECTION ( 'NONE',  ( -0.000000000000000000, 1.000000000000000000, -0.000000000000000000 ) ) ;
#177 = APPLICATION_CONTEXT ( 'automotive_design' ) ;
#178 = PLANE ( 'NONE',  #160 ) ;
#179 = CIRCLE ( 'NONE', #127, 2.000000000000000000 ) ;
#180 =( LENGTH_UNIT ( ) NAMED_UNIT ( * ) SI_UNIT ( .MILLI., .METRE. ) );
#181 = EDGE_CURVE ( 'NONE', #90, #295, #179, .T. ) ;
#182 = CARTESIAN_POINT ( 'NONE',  ( 0.000000000000000000, 0.000000000000000000, -12.50000000000000000 ) ) ;
#183 = APPLICATION_PROTOCOL_DEFINITION ( 'draft international standard', 'automotive_design', 1998, #177 ) ;
#184 = ORIENTED_EDGE ( 'NONE', *, *, #265, .F. ) ;
#185 = CARTESIAN_POINT ( 'NONE',  ( 0.000000000000000000, -10.49999999999999822, 0.000000000000000000 ) ) ;
#186 = ADVANCED_FACE ( 'NONE', ( #83 ), #271, .T. ) ;
#187 = DIRECTION ( 'NONE',  ( 0.000000000000000000, 0.000000000000000000, 1.000000000000000000 ) ) ;
#188 = CARTESIAN_POINT ( 'NONE',  ( 0.000000000000000000, -13.00000000000000000, 0.000000000000000000 ) ) ;
#189 = ORIENTED_EDGE ( 'NONE', *, *, #64, .T. ) ;
#190 = CARTESIAN_POINT ( 'NONE',  ( 0.000000000000000000, 0.000000000000000000, 0.000000000000000000 ) ) ;
#191 = AXIS2_PLACEMENT_3D ( 'NONE', #294, #108, #299 ) ;
#192 = PRODUCT_RELATED_PRODUCT_CATEGORY ( 'part', '', ( #7 ) ) ;
#193 = CARTESIAN_POINT ( 'NONE',  ( 1.285879139104720831E-15, 13.00000000000000000, -10.50000000000000000 ) ) ;
#194 = DIRECTION ( 'NONE',  ( 0.000000000000000000, -0.000000000000000000, -1.000000000000000000 ) ) ;
#195 = DIRECTION ( 'NONE',  ( 0.000000000000000000, 0.000000000000000000, 1.000000000000000000 ) ) ;
#196 = CIRCLE ( 'NONE', #156, 12.50000000000000000 ) ;
#197 = LINE ( 'NONE', #152, #227 ) ;
#198 = DIRECTION ( 'NONE',  ( -1.000000000000000000, -0.000000000000000000, -0.000000000000000000 ) ) ;
#199 = DIRECTION ( 'NONE',  ( -0.000000000000000000, -1.000000000000000000, -0.000000000000000000 ) ) ;
#200 = CIRCLE ( 'NONE', #263, 3.500000000000000888 ) ;
#201 = CIRCLE ( 'NONE', #26, 2.500000000000000000 ) ;
#202 = AXIS2_PLACEMENT_3D ( 'NONE', #246, #228, #105 ) ;
#203 = PRODUCT_DEFINITION ( 'UNKNOWN', '', #241, #22 ) ;
#204 = CARTESIAN_POINT ( 'NONE',  ( 0.000000000000000000, -13.00000000000000000, 0.000000000000000000 ) ) ;
#205 = ORIENTED_EDGE ( 'NONE', *, *, #220, .T. ) ;
#206 = CARTESIAN_POINT ( 'NONE',  ( 1.408343819019456176E-15, 15.00000000000000000, -10.50000000000000000 ) ) ;
#207 = VERTEX_POINT ( 'NONE', #110 ) ;
#208 = DIRECTION ( 'NONE',  ( -0.000000000000000000, 1.000000000000000000, -0.000000000000000000 ) ) ;
#209 = ORIENTED_EDGE ( 'NONE', *, *, #268, .T. ) ;
#210 = DIRECTION ( 'NONE',  ( 0.000000000000000000, 0.000000000000000000, 1.000000000000000000 ) ) ;
#211 = EDGE_LOOP ( 'NONE', ( #248, #300 ) ) ;
#212 = DIRECTION ( 'NONE',  ( 0.000000000000000000, 0.000000000000000000, 1.000000000000000000 ) ) ;
#213 = APPLICATION_CONTEXT ( 'automotive_design' ) ;
#214 = DIRECTION ( 'NONE',  ( -0.000000000000000000, 1.000000000000000000, -0.000000000000000000 ) ) ;
#215 = ORIENTED_EDGE ( 'NONE', *, *, #35, .T. ) ;
#216 = DIRECTION ( 'NONE',  ( 0.000000000000000000, 1.000000000000000000, 0.000000000000000000 ) ) ;
#217 = VERTEX_POINT ( 'NONE', #226 ) ;
#218 = TOROIDAL_SURFACE ( 'NONE', #63, 10.50000000000000000, 2.000000000000000000 ) ;
#219 = DIRECTION ( 'NONE',  ( 0.000000000000000000, 0.000000000000000000, -1.000000000000000000 ) ) ;
#220 = EDGE_CURVE ( 'NONE', #258, #90, #72, .T. ) ;
#221 = CARTESIAN_POINT ( 'NONE',  ( 0.000000000000000000, 15.00000000000000000, 0.000000000000000000 ) ) ;
#222 = CARTESIAN_POINT ( 'NONE',  ( 0.000000000000000000, 0.000000000000000000, 0.000000000000000000 ) ) ;
#223 = DIRECTION ( 'NONE',  ( 0.000000000000000000, 0.000000000000000000, 1.000000000000000000 ) ) ;
#224 = DIRECTION ( 'NONE',  ( -0.000000000000000000, -1.000000000000000000, -0.000000000000000000 ) ) ;
#225 = ADVANCED_FACE ( 'NONE', ( #87 ), #178, .T. ) ;
#226 = CARTESIAN_POINT ( 'NONE',  ( 7.347880794884119736E-16, 0.000000000000000000, -6.000000000000000888 ) ) ;
#227 = VECTOR ( 'NONE', #78, 1000.000000000000000 ) ;
#228 = DIRECTION ( 'NONE',  ( -0.000000000000000000, -1.000000000000000000, -0.000000000000000000 ) ) ;
#229 = DIRECTION ( 'NONE',  ( 0.000000000000000000, -1.000000000000000000, 0.000000000000000000 ) ) ;
#230 = EDGE_CURVE ( 'NONE', #217, #139, #153, .T. ) ;
#231 = DIRECTION ( 'NONE',  ( 0.000000000000000000, -1.000000000000000000, 0.000000000000000000 ) ) ;
#232 = ORIENTED_EDGE ( 'NONE', *, *, #181, .F. ) ;
#233 = AXIS2_PLACEMENT_3D ( 'NONE', #24, #305, #162 ) ;
#234 = CARTESIAN_POINT ( 'NONE',  ( 0.000000000000000000, 13.00000000000000000, 0.000000000000000000 ) ) ;
#235 = AXIS2_PLACEMENT_3D ( 'NONE', #45, #74, #165 ) ;
#236 = ORIENTED_EDGE ( 'NONE', *, *, #17, .T. ) ;
#237 = DIRECTION ( 'NONE',  ( 0.000000000000000000, -1.000000000000000000, 0.000000000000000000 ) ) ;
#238 = ORIENTED_EDGE ( 'NONE', *, *, #181, .T. ) ;
#239 = CIRCLE ( 'NONE', #140, 6.000000000000000888 ) ;
#240 = VERTEX_POINT ( 'NONE', #276 ) ;
#241 = PRODUCT_DEFINITION_FORMATION_WITH_SPECIFIED_SOURCE ( 'ANY', '', #7, .NOT_KNOWN. ) ;
#242 = DIRECTION ( 'NONE',  ( 0.000000000000000000, -0.000000000000000000, 1.000000000000000000 ) ) ;
#243 = SURFACE_SIDE_STYLE ('',( #29 ) ) ;
#244 = PRESENTATION_STYLE_ASSIGNMENT (( #286 ) ) ;
#245 = ADVANCED_FACE ( 'NONE', ( #253 ), #13, .T. ) ;
#246 = CARTESIAN_POINT ( 'NONE',  ( 0.000000000000000000, 15.00000000000000000, 0.000000000000000000 ) ) ;
#247 = DIRECTION ( 'NONE',  ( 0.000000000000000000, 0.000000000000000000, -1.000000000000000000 ) ) ;
#248 = ORIENTED_EDGE ( 'NONE', *, *, #30, .T. ) ;
#249 = CLOSED_SHELL ( 'NONE', ( #73, #8, #277, #59, #287, #225, #82, #186, #119, #245, #290 ) ) ;
#250 = AXIS2_PLACEMENT_3D ( 'NONE', #296, #176, #298 ) ;
#251 = DIRECTION ( 'NONE',  ( 0.000000000000000000, 0.000000000000000000, 1.000000000000000000 ) ) ;
#252 = ADVANCED_BREP_SHAPE_REPRESENTATION ( 'Encoder Pin', ( #122, #58 ), #117 ) ;
#253 = FACE_OUTER_BOUND ( 'NONE', #159, .T. ) ;
#254 = ORIENTED_EDGE ( 'NONE', *, *, #230, .T. ) ;
#255 = CIRCLE ( 'NONE', #233, 12.50000000000000000 ) ;
#256 = EDGE_CURVE ( 'NONE', #307, #71, #56, .T. ) ;
#257 = FACE_OUTER_BOUND ( 'NONE', #280, .T. ) ;
#258 = VERTEX_POINT ( 'NONE', #10 ) ;
#259 = AXIS2_PLACEMENT_3D ( 'NONE', #262, #96, #114 ) ;
#260 = VERTEX_POINT ( 'NONE', #206 ) ;
#261 = CARTESIAN_POINT ( 'NONE',  ( 0.000000000000000000, -13.00000000000000000, -3.500000000000000888 ) ) ;
#262 = CARTESIAN_POINT ( 'NONE',  ( 0.000000000000000000, -13.00000000000000000, 0.000000000000000000 ) ) ;
#263 = AXIS2_PLACEMENT_3D ( 'NONE', #188, #237, #279 ) ;
#264 = CARTESIAN_POINT ( 'NONE',  ( 0.000000000000000000, 0.000000000000000000, 6.000000000000000888 ) ) ;
#265 = EDGE_CURVE ( 'NONE', #207, #240, #201, .T. ) ;
#266 = LINE ( 'NONE', #291, #169 ) ;
#267 = FILL_AREA_STYLE_COLOUR ( '', #51 ) ;
#268 = EDGE_CURVE ( 'NONE', #112, #207, #20, .T. ) ;
#269 = FACE_OUTER_BOUND ( 'NONE', #161, .T. ) ;
#270 = AXIS2_PLACEMENT_3D ( 'NONE', #164, #115, #163 ) ;
#271 = CYLINDRICAL_SURFACE ( 'NONE', #43, 6.000000000000000888 ) ;
#272 = DIRECTION ( 'NONE',  ( 1.000000000000000000, 0.000000000000000000, -1.224646799147353207E-16 ) ) ;
#273 = DIRECTION ( 'NONE',  ( 0.000000000000000000, 1.000000000000000000, 0.000000000000000000 ) ) ;
#274 = CARTESIAN_POINT ( 'NONE',  ( 0.000000000000000000, 0.000000000000000000, 0.000000000000000000 ) ) ;
#275 = EDGE_LOOP ( 'NONE', ( #205, #50, #297, #137 ) ) ;
#276 = CARTESIAN_POINT ( 'NONE',  ( 5.817072295949928412E-16, -13.00000000000000000, 3.500000000000000888 ) ) ;
#277 = ADVANCED_FACE ( 'NONE', ( #40 ), #62, .T. ) ;
#278 = EDGE_LOOP ( 'NONE', ( #215, #236 ) ) ;
#279 = DIRECTION ( 'NONE',  ( 0.000000000000000000, 0.000000000000000000, -1.000000000000000000 ) ) ;
#280 = EDGE_LOOP ( 'NONE', ( #135, #44, #121, #232 ) ) ;
#281 = DIRECTION ( 'NONE',  ( 1.000000000000000000, 0.000000000000000000, 0.000000000000000000 ) ) ;
#282 = EDGE_LOOP ( 'NONE', ( #147, #107, #75, #149 ) ) ;
#283 = CIRCLE ( 'NONE', #89, 2.500000000000000000 ) ;
#284 = DIRECTION ( 'NONE',  ( 1.224646799147353454E-16, 0.000000000000000000, -1.000000000000000000 ) ) ;
#285 = DIRECTION ( 'NONE',  ( 1.000000000000000000, -0.000000000000000000, 1.224646799147353207E-16 ) ) ;
#286 = SURFACE_STYLE_USAGE ( .BOTH. , #243 ) ;
#287 = ADVANCED_FACE ( 'NONE', ( #157 ), #41, .T. ) ;
#288 = CARTESIAN_POINT ( 'NONE',  ( 1.530808498934191521E-15, 0.000000000000000000, 12.50000000000000000 ) ) ;
#289 = UNCERTAINTY_MEASURE_WITH_UNIT (LENGTH_MEASURE( 1.000000000000000082E-05 ), #55, 'distance_accuracy_value', 'NONE');
#290 = ADVANCED_FACE ( 'NONE', ( #88 ), #52, .T. ) ;
#291 = CARTESIAN_POINT ( 'NONE',  ( 0.000000000000000000, 15.00000000000000000, -12.50000000000000000 ) ) ;
#292 = DIRECTION ( 'NONE',  ( -1.000000000000000000, 0.000000000000000000, 0.000000000000000000 ) ) ;
#293 = CIRCLE ( 'NONE', #32, 2.000000000000000000 ) ;
#294 = CARTESIAN_POINT ( 'NONE',  ( 0.000000000000000000, 13.00000000000000000, 0.000000000000000000 ) ) ;
#295 = VERTEX_POINT ( 'NONE', #67 ) ;
#296 = CARTESIAN_POINT ( 'NONE',  ( 0.000000000000000000, -13.00000000000000000, 0.000000000000000000 ) ) ;
#297 = ORIENTED_EDGE ( 'NONE', *, *, #97, .T. ) ;
#298 = DIRECTION ( 'NONE',  ( 0.000000000000000000, 0.000000000000000000, 1.000000000000000000 ) ) ;
#299 = DIRECTION ( 'NONE',  ( 0.000000000000000000, 0.000000000000000000, 1.000000000000000000 ) ) ;
#300 = ORIENTED_EDGE ( 'NONE', *, *, #151, .T. ) ;
#301 = ORIENTED_EDGE ( 'NONE', *, *, #265, .T. ) ;
#302 = CIRCLE ( 'NONE', #102, 10.50000000000000000 ) ;
#303 = ORIENTED_EDGE ( 'NONE', *, *, #14, .T. ) ;
#304 = EDGE_LOOP ( 'NONE', ( #184, #148, #42, #16 ) ) ;
#305 = DIRECTION ( 'NONE',  ( -0.000000000000000000, -1.000000000000000000, -0.000000000000000000 ) ) ;
#306 = CIRCLE ( 'NONE', #103, 6.000000000000000888 ) ;
#307 = VERTEX_POINT ( 'NONE', #182 ) ;
#308 = FACE_BOUND ( 'NONE', #109, .T. ) ;
#309 = DIRECTION ( 'NONE',  ( 0.000000000000000000, 1.000000000000000000, 0.000000000000000000 ) ) ;
ENDSEC;
END-ISO-10303-21;
