ISO-10303-21;
HEADER;
FILE_DESCRIPTION (( 'STEP AP214' ),
    '1' );
FILE_NAME ('Horizontal Bracket.STEP',
    '2026-01-30T10:17:17',
    ( '' ),
    ( '' ),
    'SwSTEP 2.0',
    'SolidWorks 2026',
    '' );
FILE_SCHEMA (( 'AUTOMOTIVE_DESIGN' ));
ENDSEC;

DATA;
#1 = DIRECTION ( 'NONE',  ( -0.000000000000000000, -0.000000000000000000, -1.000000000000000000 ) ) ;
#2 = VERTEX_POINT ( 'NONE', #45 ) ;
#3 = CARTESIAN_POINT ( 'NONE',  ( 20.00000000000000711, 7.500000000000000000, 20.99999999999999645 ) ) ;
#4 = CARTESIAN_POINT ( 'NONE',  ( 44.99999999999997158, 7.499999999999984013, -20.99999999999999645 ) ) ;
#5 = AXIS2_PLACEMENT_3D ( 'NONE', #3, #421, #644 ) ;
#6 = DIRECTION ( 'NONE',  ( -1.000000000000000000, 0.000000000000000000, 0.000000000000000000 ) ) ;
#7 = ORIENTED_EDGE ( 'NONE', *, *, #387, .T. ) ;
#8 = EDGE_CURVE ( 'NONE', #609, #1002, #903, .T. ) ;
#9 = LINE ( 'NONE', #221, #488 ) ;
#10 = CARTESIAN_POINT ( 'NONE',  ( 23.74999999999998579, 0.000000000000000000, -17.50000000000000000 ) ) ;
#11 = ORIENTED_EDGE ( 'NONE', *, *, #397, .F. ) ;
#12 = CIRCLE ( 'NONE', #786, 2.499999999999998668 ) ;
#13 = DIRECTION ( 'NONE',  ( -0.000000000000000000, 1.000000000000000000, -0.000000000000000000 ) ) ;
#14 = AXIS2_PLACEMENT_3D ( 'NONE', #620, #315, #305 ) ;
#15 = PRODUCT_DEFINITION_FORMATION_WITH_SPECIFIED_SOURCE ( 'ANY', '', #1312, .NOT_KNOWN. ) ;
#16 = CARTESIAN_POINT ( 'NONE',  ( -59.99999999999997868, 0.000000000000000000, 17.50000000000000000 ) ) ;
#17 = VERTEX_POINT ( 'NONE', #810 ) ;
#18 = FACE_BOUND ( 'NONE', #657, .T. ) ;
#19 = VERTEX_POINT ( 'NONE', #575 ) ;
#20 = EDGE_CURVE ( 'NONE', #128, #250, #39, .T. ) ;
#21 = VECTOR ( 'NONE', #369, 1000.000000000000000 ) ;
#22 = EDGE_CURVE ( 'NONE', #1018, #151, #590, .T. ) ;
#23 = CARTESIAN_POINT ( 'NONE',  ( -45.00000000000002842, 7.499999999999984013, -20.99999999999999645 ) ) ;
#24 = EDGE_LOOP ( 'NONE', ( #1321, #1253, #1144, #967 ) ) ;
#25 = CARTESIAN_POINT ( 'NONE',  ( -23.75000000000000000, 15.00000000000000000, -17.49999999999999645 ) ) ;
#26 = ORIENTED_EDGE ( 'NONE', *, *, #593, .F. ) ;
#27 = DIRECTION ( 'NONE',  ( 0.000000000000000000, 0.000000000000000000, 1.000000000000000000 ) ) ;
#28 = ORIENTED_EDGE ( 'NONE', *, *, #468, .F. ) ;
#29 = CARTESIAN_POINT ( 'NONE',  ( 65.00000000000000000, 15.00000000000000000, -5.000000000000000888 ) ) ;
#30 = COLOUR_RGB ( '',0.8941176470588234615, 0.8941176470588234615, 0.8941176470588234615 ) ;
#31 = CARTESIAN_POINT ( 'NONE',  ( 14.99999999999996980, 7.499999999999984013, -19.49784845243109643 ) ) ;
#32 = CIRCLE ( 'NONE', #186, 17.49999999999999645 ) ;
#33 = AXIS2_PLACEMENT_3D ( 'NONE', #806, #1209, #274 ) ;
#34 = DIRECTION ( 'NONE',  ( 0.000000000000000000, 0.000000000000000000, 1.000000000000000000 ) ) ;
#35 = ORIENTED_EDGE ( 'NONE', *, *, #346, .F. ) ;
#36 = ADVANCED_FACE ( 'NONE', ( #257 ), #1115, .F. ) ;
#37 = DIRECTION ( 'NONE',  ( 0.000000000000000000, 1.000000000000000000, 0.000000000000000000 ) ) ;
#38 = EDGE_CURVE ( 'NONE', #697, #1250, #64, .T. ) ;
#39 = LINE ( 'NONE', #1089, #1075 ) ;
#40 = VECTOR ( 'NONE', #176, 1000.000000000000000 ) ;
#41 = FACE_BOUND ( 'NONE', #442, .T. ) ;
#42 = ORIENTED_EDGE ( 'NONE', *, *, #827, .T. ) ;
#43 = CARTESIAN_POINT ( 'NONE',  ( 47.49999999999996447, 7.499999999999984013, -20.99999999999999645 ) ) ;
#44 = EDGE_LOOP ( 'NONE', ( #477, #991, #197, #922 ) ) ;
#45 = CARTESIAN_POINT ( 'NONE',  ( -89.99999999999998579, 0.000000000000000000, 30.00000000000000000 ) ) ;
#46 = FACE_OUTER_BOUND ( 'NONE', #331, .T. ) ;
#47 = ORIENTED_EDGE ( 'NONE', *, *, #1333, .T. ) ;
#48 = CARTESIAN_POINT ( 'NONE',  ( -90.00000000000000000, 15.00000000000000000, -4.999999999999993783 ) ) ;
#49 = PLANE ( 'NONE',  #1142 ) ;
#50 = EDGE_LOOP ( 'NONE', ( #1066, #1241, #262, #958 ) ) ;
#51 = CARTESIAN_POINT ( 'NONE',  ( 23.74999999999998579, 15.00000000000000000, -17.50000000000000000 ) ) ;
#52 = DIRECTION ( 'NONE',  ( 1.000000000000000000, 0.000000000000000000, 0.000000000000000000 ) ) ;
#53 = VECTOR ( 'NONE', #139, 1000.000000000000000 ) ;
#54 = EDGE_CURVE ( 'NONE', #1033, #1028, #194, .T. ) ;
#55 = DIRECTION ( 'NONE',  ( -0.000000000000000000, -0.000000000000000000, -1.000000000000000000 ) ) ;
#56 = ORIENTED_EDGE ( 'NONE', *, *, #397, .T. ) ;
#57 = CARTESIAN_POINT ( 'NONE',  ( 62.50000000000000000, 7.500000000000000000, 30.00000000000000000 ) ) ;
#58 = AXIS2_PLACEMENT_3D ( 'NONE', #713, #1119, #273 ) ;
#59 = DIRECTION ( 'NONE',  ( -0.000000000000000000, -0.000000000000000000, 1.000000000000000000 ) ) ;
#60 = CARTESIAN_POINT ( 'NONE',  ( -15.00000000000002665, 7.499999999999984013, -20.99999999999999645 ) ) ;
#61 = ORIENTED_EDGE ( 'NONE', *, *, #805, .T. ) ;
#62 = DIRECTION ( 'NONE',  ( -0.000000000000000000, -0.000000000000000000, 1.000000000000000000 ) ) ;
#63 = DIRECTION ( 'NONE',  ( -1.000000000000000000, 0.000000000000000000, 0.000000000000000000 ) ) ;
#64 = CIRCLE ( 'NONE', #435, 2.499999999999988454 ) ;
#65 = ADVANCED_FACE ( 'NONE', ( #371 ), #994, .F. ) ;
#66 = CARTESIAN_POINT ( 'NONE',  ( 44.99999999999997158, 7.499999999999984013, -20.99999999999999645 ) ) ;
#67 = ORIENTED_EDGE ( 'NONE', *, *, #548, .F. ) ;
#68 = EDGE_CURVE ( 'NONE', #678, #2, #269, .T. ) ;
#69 = LINE ( 'NONE', #1334, #1246 ) ;
#70 = VECTOR ( 'NONE', #1106, 1000.000000000000000 ) ;
#71 = LINE ( 'NONE', #622, #1248 ) ;
#72 = DIRECTION ( 'NONE',  ( 0.000000000000000000, 0.000000000000000000, 1.000000000000000000 ) ) ;
#73 = DIRECTION ( 'NONE',  ( 0.000000000000000000, 0.000000000000000000, 1.000000000000000000 ) ) ;
#74 = EDGE_LOOP ( 'NONE', ( #1110, #758 ) ) ;
#75 = LINE ( 'NONE', #1019, #592 ) ;
#76 = DIRECTION ( 'NONE',  ( -1.000000000000000000, -0.000000000000000000, -1.914177628664063868E-16 ) ) ;
#77 = CARTESIAN_POINT ( 'NONE',  ( 22.50000000000000711, 7.500000000000000000, 20.99999999999999645 ) ) ;
#78 = ORIENTED_EDGE ( 'NONE', *, *, #1140, .F. ) ;
#79 = DIRECTION ( 'NONE',  ( 0.000000000000000000, 0.000000000000000000, -1.000000000000000000 ) ) ;
#80 = AXIS2_PLACEMENT_3D ( 'NONE', #231, #226, #636 ) ;
#81 = EDGE_CURVE ( 'NONE', #1028, #1033, #965, .T. ) ;
#82 = PLANE ( 'NONE',  #506 ) ;
#83 = ORIENTED_EDGE ( 'NONE', *, *, #809, .F. ) ;
#84 = CIRCLE ( 'NONE', #855, 2.499999999999992006 ) ;
#85 = DIRECTION ( 'NONE',  ( -0.000000000000000000, 1.000000000000000000, -0.000000000000000000 ) ) ;
#86 = AXIS2_PLACEMENT_3D ( 'NONE', #1058, #112, #1217 ) ;
#87 = EDGE_CURVE ( 'NONE', #901, #1166, #1095, .T. ) ;
#88 = CARTESIAN_POINT ( 'NONE',  ( 17.49999999999997158, 7.499999999999984013, -20.99999999999999645 ) ) ;
#89 = EDGE_CURVE ( 'NONE', #323, #184, #1325, .T. ) ;
#90 = VERTEX_POINT ( 'NONE', #31 ) ;
#91 = CARTESIAN_POINT ( 'NONE',  ( 17.50000000000000711, 7.500000000000000000, 20.99999999999999645 ) ) ;
#92 = CIRCLE ( 'NONE', #1252, 17.49999999999999289 ) ;
#93 = CARTESIAN_POINT ( 'NONE',  ( -19.99999999999999289, 7.500000000000000000, 20.99999999999999645 ) ) ;
#94 = EDGE_LOOP ( 'NONE', ( #1088, #977, #726 ) ) ;
#95 = CARTESIAN_POINT ( 'NONE',  ( 14.99999999999997158, 7.499999999999984013, -30.00000000000000000 ) ) ;
#96 = ORIENTED_EDGE ( 'NONE', *, *, #764, .F. ) ;
#97 = LINE ( 'NONE', #637, #1053 ) ;
#98 = ORIENTED_EDGE ( 'NONE', *, *, #972, .T. ) ;
#99 = LINE ( 'NONE', #519, #1353 ) ;
#100 = EDGE_LOOP ( 'NONE', ( #374, #383, #1256, #1076 ) ) ;
#101 = CONICAL_SURFACE ( 'NONE', #731, 2.499999999999998668, 1.029744258676654090 ) ;
#102 = VECTOR ( 'NONE', #919, 1000.000000000000000 ) ;
#103 = AXIS2_PLACEMENT_3D ( 'NONE', #611, #600, #72 ) ;
#104 = DIRECTION ( 'NONE',  ( -0.000000000000000000, 1.000000000000000000, -0.000000000000000000 ) ) ;
#105 = CARTESIAN_POINT ( 'NONE',  ( -60.00000000000000000, 7.500000000000000000, 30.00000000000000000 ) ) ;
#106 = EDGE_CURVE ( 'NONE', #212, #667, #199, .T. ) ;
#107 = ORIENTED_EDGE ( 'NONE', *, *, #1298, .F. ) ;
#108 = CARTESIAN_POINT ( 'NONE',  ( 64.99999999999994316, 15.00000000000000000, -30.00000000000000000 ) ) ;
#109 = EDGE_LOOP ( 'NONE', ( #509, #306, #355, #640 ) ) ;
#110 = EDGE_CURVE ( 'NONE', #445, #1277, #1128, .T. ) ;
#111 = DIRECTION ( 'NONE',  ( -0.000000000000000000, -0.000000000000000000, -1.000000000000000000 ) ) ;
#112 = DIRECTION ( 'NONE',  ( -0.000000000000000000, -0.000000000000000000, -1.000000000000000000 ) ) ;
#113 = CIRCLE ( 'NONE', #825, 2.499999999999988454 ) ;
#114 = DIRECTION ( 'NONE',  ( -0.8571673007021120005, 1.049727191138618326E-16, 0.5150380749100547106 ) ) ;
#115 = EDGE_LOOP ( 'NONE', ( #1048, #842 ) ) ;
#116 = DIRECTION ( 'NONE',  ( 0.000000000000000000, -1.000000000000000000, 0.000000000000000000 ) ) ;
#117 = ORIENTED_EDGE ( 'NONE', *, *, #1077, .T. ) ;
#118 = LINE ( 'NONE', #1180, #53 ) ;
#119 = AXIS2_PLACEMENT_3D ( 'NONE', #1227, #1125, #181 ) ;
#120 = CARTESIAN_POINT ( 'NONE',  ( -22.49999999999999289, 7.500000000000000000, 20.99999999999999645 ) ) ;
#121 = ADVANCED_FACE ( 'NONE', ( #843 ), #409, .T. ) ;
#122 = VECTOR ( 'NONE', #652, 1000.000000000000000 ) ;
#123 = EDGE_CURVE ( 'NONE', #556, #17, #695, .T. ) ;
#124 = LINE ( 'NONE', #451, #655 ) ;
#125 = VERTEX_POINT ( 'NONE', #1244 ) ;
#126 = PLANE ( 'NONE',  #1171 ) ;
#127 = CARTESIAN_POINT ( 'NONE',  ( 60.00000000000001421, 0.000000000000000000, -3.827021247335481268E-15 ) ) ;
#128 = VERTEX_POINT ( 'NONE', #1036 ) ;
#129 = AXIS2_PLACEMENT_3D ( 'NONE', #857, #642, #954 ) ;
#130 = VECTOR ( 'NONE', #978, 1000.000000000000000 ) ;
#131 = FACE_OUTER_BOUND ( 'NONE', #630, .T. ) ;
#132 = ORIENTED_EDGE ( 'NONE', *, *, #646, .T. ) ;
#133 = FACE_OUTER_BOUND ( 'NONE', #706, .T. ) ;
#134 = EDGE_CURVE ( 'NONE', #1122, #418, #616, .T. ) ;
#135 = ORIENTED_EDGE ( 'NONE', *, *, #1320, .F. ) ;
#136 = EDGE_CURVE ( 'NONE', #1230, #128, #92, .T. ) ;
#137 = DIRECTION ( 'NONE',  ( -0.000000000000000000, -0.000000000000000000, -1.000000000000000000 ) ) ;
#138 = EDGE_LOOP ( 'NONE', ( #277, #1178 ) ) ;
#139 = DIRECTION ( 'NONE',  ( -0.8571673007021121116, 0.000000000000000000, -0.5150380749100544886 ) ) ;
#140 = CARTESIAN_POINT ( 'NONE',  ( 20.00000000000000711, 7.500000000000000000, 20.99999999999999645 ) ) ;
#141 = DIRECTION ( 'NONE',  ( -0.000000000000000000, -0.000000000000000000, -1.000000000000000000 ) ) ;
#142 = EDGE_CURVE ( 'NONE', #205, #418, #864, .T. ) ;
#143 = PLANE ( 'NONE',  #251 ) ;
#144 = ORIENTED_EDGE ( 'NONE', *, *, #263, .T. ) ;
#145 = CYLINDRICAL_SURFACE ( 'NONE', #1069, 25.00000000000000000 ) ;
#146 = ORIENTED_EDGE ( 'NONE', *, *, #1060, .F. ) ;
#147 = AXIS2_PLACEMENT_3D ( 'NONE', #735, #629, #1358 ) ;
#148 = CARTESIAN_POINT ( 'NONE',  ( 20.00000000000000711, 7.500000000000000000, 30.00000000000000000 ) ) ;
#149 = VERTEX_POINT ( 'NONE', #88 ) ;
#150 = FACE_OUTER_BOUND ( 'NONE', #550, .T. ) ;
#151 = VERTEX_POINT ( 'NONE', #1251 ) ;
#152 = CARTESIAN_POINT ( 'NONE',  ( 60.00000000000001421, 7.500000000000000000, 30.00000000000000000 ) ) ;
#153 = DIRECTION ( 'NONE',  ( 0.000000000000000000, 0.000000000000000000, 1.000000000000000000 ) ) ;
#154 = PRODUCT_DEFINITION_SHAPE ( 'NONE', 'NONE',  #776 ) ;
#155 = ADVANCED_FACE ( 'NONE', ( #610 ), #1023, .F. ) ;
#156 = CARTESIAN_POINT ( 'NONE',  ( 62.50000000000000000, 7.500000000000000000, 30.00000000000000000 ) ) ;
#157 = EDGE_LOOP ( 'NONE', ( #1104, #560, #396, #1357 ) ) ;
#158 = CARTESIAN_POINT ( 'NONE',  ( -62.49999999999998579, 7.500000000000000000, 30.00000000000000000 ) ) ;
#159 = DIRECTION ( 'NONE',  ( -0.000000000000000000, -0.000000000000000000, 1.000000000000000000 ) ) ;
#160 = CARTESIAN_POINT ( 'NONE',  ( 23.74999999999998579, 0.000000000000000000, -1.331687700383580391E-14 ) ) ;
#161 = EDGE_CURVE ( 'NONE', #151, #256, #429, .T. ) ;
#162 = ORIENTED_EDGE ( 'NONE', *, *, #180, .T. ) ;
#163 = EDGE_CURVE ( 'NONE', #901, #445, #12, .T. ) ;
#164 = FACE_OUTER_BOUND ( 'NONE', #177, .T. ) ;
#165 = ORIENTED_EDGE ( 'NONE', *, *, #664, .T. ) ;
#166 = DIRECTION ( 'NONE',  ( -0.000000000000000000, -0.000000000000000000, -1.000000000000000000 ) ) ;
#167 = CARTESIAN_POINT ( 'NONE',  ( -42.50000000000003553, 7.499999999999984013, -30.00000000000000000 ) ) ;
#168 = MANIFOLD_SOLID_BREP ( 'Tap Drill for M6x1.0 Tap2', #796 ) ;
#169 = LINE ( 'NONE', #265, #40 ) ;
#170 = DIRECTION ( 'NONE',  ( 0.8571673007021120005, 0.000000000000000000, 0.5150380749100547106 ) ) ;
#171 = LINE ( 'NONE', #360, #457 ) ;
#172 = DIRECTION ( 'NONE',  ( -0.000000000000000000, -0.000000000000000000, 1.000000000000000000 ) ) ;
#173 = ORIENTED_EDGE ( 'NONE', *, *, #1116, .T. ) ;
#174 = DIRECTION ( 'NONE',  ( 1.000000000000000000, 0.000000000000000000, 0.000000000000000000 ) ) ;
#175 = CARTESIAN_POINT ( 'NONE',  ( -47.50000000000001421, 7.499999999999984013, -30.00000000000000000 ) ) ;
#176 = DIRECTION ( 'NONE',  ( -0.000000000000000000, -0.000000000000000000, 1.000000000000000000 ) ) ;
#177 = EDGE_LOOP ( 'NONE', ( #465, #822, #907, #1315 ) ) ;
#178 = DIRECTION ( 'NONE',  ( -0.000000000000000000, -0.000000000000000000, 1.000000000000000000 ) ) ;
#179 = DIRECTION ( 'NONE',  ( 0.000000000000000000, 0.000000000000000000, 1.000000000000000000 ) ) ;
#180 = EDGE_CURVE ( 'NONE', #125, #532, #71, .T. ) ;
#181 = DIRECTION ( 'NONE',  ( 0.000000000000000000, 0.000000000000000000, 1.000000000000000000 ) ) ;
#182 = ORIENTED_EDGE ( 'NONE', *, *, #638, .T. ) ;
#183 = CARTESIAN_POINT ( 'NONE',  ( -59.99999999999997868, 0.000000000000000000, 17.50000000000000000 ) ) ;
#184 = VERTEX_POINT ( 'NONE', #219 ) ;
#185 = CARTESIAN_POINT ( 'NONE',  ( -17.50000000000002132, 7.499999999999984013, -30.00000000000000000 ) ) ;
#186 = AXIS2_PLACEMENT_3D ( 'NONE', #497, #1117, #1197 ) ;
#187 = CARTESIAN_POINT ( 'NONE',  ( -17.49999999999999645, 7.500000000000000000, 30.00000000000000000 ) ) ;
#188 = VERTEX_POINT ( 'NONE', #756 ) ;
#189 = AXIS2_PLACEMENT_3D ( 'NONE', #689, #59, #698 ) ;
#190 = FACE_OUTER_BOUND ( 'NONE', #687, .T. ) ;
#191 = ORIENTED_EDGE ( 'NONE', *, *, #123, .T. ) ;
#192 = DIRECTION ( 'NONE',  ( -0.000000000000000000, -0.000000000000000000, -1.000000000000000000 ) ) ;
#193 = CYLINDRICAL_SURFACE ( 'NONE', #214, 2.499999999999995115 ) ;
#194 = CIRCLE ( 'NONE', #688, 2.499999999999988454 ) ;
#195 = VERTEX_POINT ( 'NONE', #337 ) ;
#196 = DIRECTION ( 'NONE',  ( -0.000000000000000000, 1.000000000000000000, -0.000000000000000000 ) ) ;
#197 = ORIENTED_EDGE ( 'NONE', *, *, #939, .T. ) ;
#198 = AXIS2_PLACEMENT_3D ( 'NONE', #932, #502, #798 ) ;
#199 = CIRCLE ( 'NONE', #741, 2.499999999999995115 ) ;
#200 = EDGE_CURVE ( 'NONE', #667, #212, #417, .T. ) ;
#201 = DIRECTION ( 'NONE',  ( 0.8571673007021120005, 1.049727191138618326E-16, -0.5150380749100547106 ) ) ;
#202 = EDGE_CURVE ( 'NONE', #1250, #697, #113, .T. ) ;
#203 = VERTEX_POINT ( 'NONE', #529 ) ;
#204 = DIRECTION ( 'NONE',  ( -0.000000000000000000, -0.000000000000000000, 1.000000000000000000 ) ) ;
#205 = VERTEX_POINT ( 'NONE', #749 ) ;
#206 = CYLINDRICAL_SURFACE ( 'NONE', #80, 2.499999999999988454 ) ;
#207 = CYLINDRICAL_SURFACE ( 'NONE', #507, 2.499999999999988454 ) ;
#208 = ADVANCED_FACE ( 'NONE', ( #849, #18, #1159 ), #859, .T. ) ;
#209 = EDGE_CURVE ( 'NONE', #524, #940, #649, .T. ) ;
#210 = ORIENTED_EDGE ( 'NONE', *, *, #950, .F. ) ;
#211 = DIRECTION ( 'NONE',  ( -0.000000000000000000, 1.000000000000000000, -0.000000000000000000 ) ) ;
#212 = VERTEX_POINT ( 'NONE', #1057 ) ;
#213 = AXIS2_PLACEMENT_3D ( 'NONE', #312, #204, #634 ) ;
#214 = AXIS2_PLACEMENT_3D ( 'NONE', #632, #1237, #935 ) ;
#215 = FACE_OUTER_BOUND ( 'NONE', #1202, .T. ) ;
#216 = CARTESIAN_POINT ( 'NONE',  ( -23.74999999999999645, 15.00000000000000000, 17.49999999999998934 ) ) ;
#217 = LINE ( 'NONE', #647, #336 ) ;
#218 = EDGE_LOOP ( 'NONE', ( #162, #498, #969, #933 ) ) ;
#219 = CARTESIAN_POINT ( 'NONE',  ( -59.99999999999997868, 15.00000000000000000, 17.50000000000000000 ) ) ;
#220 = CONICAL_SURFACE ( 'NONE', #694, 2.499999999999998668, 1.029744258676654090 ) ;
#221 = CARTESIAN_POINT ( 'NONE',  ( 22.50000000000000355, 7.500000000000000000, 30.00000000000000000 ) ) ;
#222 = EDGE_CURVE ( 'NONE', #920, #532, #1257, .T. ) ;
#223 = LINE ( 'NONE', #1065, #1285 ) ;
#224 = ORIENTED_EDGE ( 'NONE', *, *, #975, .T. ) ;
#225 = LINE ( 'NONE', #1094, #122 ) ;
#226 = DIRECTION ( 'NONE',  ( -0.000000000000000000, -0.000000000000000000, 1.000000000000000000 ) ) ;
#227 = CARTESIAN_POINT ( 'NONE',  ( 17.50000000000001421, 7.500000000000000000, 30.00000000000000000 ) ) ;
#228 = ORIENTED_EDGE ( 'NONE', *, *, #1044, .F. ) ;
#229 = DIRECTION ( 'NONE',  ( 0.000000000000000000, 0.000000000000000000, -1.000000000000000000 ) ) ;
#230 = VECTOR ( 'NONE', #650, 1000.000000000000000 ) ;
#231 = CARTESIAN_POINT ( 'NONE',  ( 60.00000000000001421, 7.500000000000000000, 30.00000000000000000 ) ) ;
#232 = CIRCLE ( 'NONE', #1133, 25.00000000000000000 ) ;
#233 = ORIENTED_EDGE ( 'NONE', *, *, #1356, .F. ) ;
#234 = CARTESIAN_POINT ( 'NONE',  ( 23.74999999999998934, 0.000000000000000000, 17.50000000000000000 ) ) ;
#235 = ORIENTED_EDGE ( 'NONE', *, *, #20, .F. ) ;
#236 = ORIENTED_EDGE ( 'NONE', *, *, #517, .T. ) ;
#237 = LINE ( 'NONE', #668, #968 ) ;
#238 = EDGE_CURVE ( 'NONE', #17, #556, #1149, .T. ) ;
#239 = ORIENTED_EDGE ( 'NONE', *, *, #334, .F. ) ;
#240 = CIRCLE ( 'NONE', #576, 2.499999999999988454 ) ;
#241 = DIRECTION ( 'NONE',  ( 1.000000000000000000, 0.000000000000000000, 0.000000000000000000 ) ) ;
#242 = ORIENTED_EDGE ( 'NONE', *, *, #517, .F. ) ;
#243 = CARTESIAN_POINT ( 'NONE',  ( 20.00000000000000711, 7.500000000000000000, 30.00000000000000000 ) ) ;
#244 = ORIENTED_EDGE ( 'NONE', *, *, #785, .T. ) ;
#245 = ADVANCED_FACE ( 'NONE', ( #215 ), #206, .F. ) ;
#246 = EDGE_CURVE ( 'NONE', #445, #901, #675, .T. ) ;
#247 = DIRECTION ( 'NONE',  ( -0.000000000000000000, -0.000000000000000000, 1.000000000000000000 ) ) ;
#248 = ORIENTED_EDGE ( 'NONE', *, *, #454, .F. ) ;
#249 = ORIENTED_EDGE ( 'NONE', *, *, #699, .F. ) ;
#250 = VERTEX_POINT ( 'NONE', #25 ) ;
#251 = AXIS2_PLACEMENT_3D ( 'NONE', #966, #677, #987 ) ;
#252 = AXIS2_PLACEMENT_3D ( 'NONE', #4, #422, #850 ) ;
#253 = CARTESIAN_POINT ( 'NONE',  ( -90.00000000000000000, 15.00000000000000000, -30.00000000000000000 ) ) ;
#254 = ORIENTED_EDGE ( 'NONE', *, *, #840, .T. ) ;
#255 = DIRECTION ( 'NONE',  ( -0.000000000000000000, -1.000000000000000000, -0.000000000000000000 ) ) ;
#256 = VERTEX_POINT ( 'NONE', #120 ) ;
#257 = FACE_OUTER_BOUND ( 'NONE', #44, .T. ) ;
#258 = DIRECTION ( 'NONE',  ( -0.000000000000000000, -0.000000000000000000, -1.000000000000000000 ) ) ;
#259 = VECTOR ( 'NONE', #992, 1000.000000000000000 ) ;
#260 = AXIS2_PLACEMENT_3D ( 'NONE', #398, #178, #729 ) ;
#261 = CYLINDRICAL_SURFACE ( 'NONE', #1307, 2.499999999999995115 ) ;
#262 = ORIENTED_EDGE ( 'NONE', *, *, #1141, .F. ) ;
#263 = EDGE_CURVE ( 'NONE', #203, #538, #547, .T. ) ;
#264 = DIRECTION ( 'NONE',  ( -0.000000000000000000, -0.000000000000000000, 1.000000000000000000 ) ) ;
#265 = CARTESIAN_POINT ( 'NONE',  ( 57.50000000000001421, 7.500000000000000000, 30.00000000000000000 ) ) ;
#266 = ORIENTED_EDGE ( 'NONE', *, *, #363, .T. ) ;
#267 = DIRECTION ( 'NONE',  ( 1.000000000000000000, 0.000000000000000000, 0.000000000000000000 ) ) ;
#268 = ADVANCED_FACE ( 'NONE', ( #660 ), #1073, .F. ) ;
#269 = LINE ( 'NONE', #1107, #624 ) ;
#270 = CARTESIAN_POINT ( 'NONE',  ( 57.50000000000002132, 7.500000000000000000, 30.00000000000000000 ) ) ;
#271 = DIRECTION ( 'NONE',  ( -0.000000000000000000, -0.000000000000000000, -1.000000000000000000 ) ) ;
#272 = EDGE_LOOP ( 'NONE', ( #449, #11, #1079, #648 ) ) ;
#273 = DIRECTION ( 'NONE',  ( 1.000000000000000000, 0.000000000000000000, 0.000000000000000000 ) ) ;
#274 = DIRECTION ( 'NONE',  ( 1.000000000000000000, 0.000000000000000000, 0.000000000000000000 ) ) ;
#275 = CARTESIAN_POINT ( 'NONE',  ( -45.00000000000002842, 7.499999999999984013, -20.99999999999999645 ) ) ;
#276 = VERTEX_POINT ( 'NONE', #536 ) ;
#277 = ORIENTED_EDGE ( 'NONE', *, *, #926, .F. ) ;
#278 = DIRECTION ( 'NONE',  ( 0.000000000000000000, 1.000000000000000000, 0.000000000000000000 ) ) ;
#279 = VECTOR ( 'NONE', #976, 1000.000000000000000 ) ;
#280 = CARTESIAN_POINT ( 'NONE',  ( -59.99999999999997868, 15.00000000000000000, 17.50000000000000000 ) ) ;
#281 = ORIENTED_EDGE ( 'NONE', *, *, #908, .F. ) ;
#282 = CYLINDRICAL_SURFACE ( 'NONE', #300, 2.499999999999995115 ) ;
#283 = CARTESIAN_POINT ( 'NONE',  ( 62.50000000000001421, 7.500000000000000000, 20.99999999999999645 ) ) ;
#284 = DIRECTION ( 'NONE',  ( 1.000000000000000000, 0.000000000000000000, -2.312964634635742957E-16 ) ) ;
#285 = ORIENTED_EDGE ( 'NONE', *, *, #1000, .T. ) ;
#286 = EDGE_CURVE ( 'NONE', #1166, #1277, #628, .T. ) ;
#287 = DIRECTION ( 'NONE',  ( -1.000000000000000000, 0.000000000000000000, 0.000000000000000000 ) ) ;
#288 = ORIENTED_EDGE ( 'NONE', *, *, #81, .T. ) ;
#289 = VECTOR ( 'NONE', #765, 1000.000000000000000 ) ;
#290 = LINE ( 'NONE', #394, #1093 ) ;
#291 = FACE_OUTER_BOUND ( 'NONE', #109, .T. ) ;
#292 = DIRECTION ( 'NONE',  ( -0.000000000000000000, -0.000000000000000000, 1.000000000000000000 ) ) ;
#293 = EDGE_LOOP ( 'NONE', ( #47, #808, #249, #236 ) ) ;
#294 = CARTESIAN_POINT ( 'NONE',  ( -57.50000000000000711, 7.500000000000000000, 30.00000000000000000 ) ) ;
#295 = SURFACE_SIDE_STYLE ('',( #1236 ) ) ;
#296 = FACE_OUTER_BOUND ( 'NONE', #773, .T. ) ;
#297 = AXIS2_PLACEMENT_3D ( 'NONE', #906, #1319, #595 ) ;
#298 = ORIENTED_EDGE ( 'NONE', *, *, #427, .T. ) ;
#299 = CARTESIAN_POINT ( 'NONE',  ( -47.50000000000002132, 7.499999999999984013, -20.99999999999999645 ) ) ;
#300 = AXIS2_PLACEMENT_3D ( 'NONE', #1332, #813, #174 ) ;
#301 = ADVANCED_FACE ( 'NONE', ( #1283 ), #463, .F. ) ;
#302 = CARTESIAN_POINT ( 'NONE',  ( -22.49999999999998579, 7.500000000000000000, 30.00000000000000000 ) ) ;
#303 = VECTOR ( 'NONE', #170, 1000.000000000000000 ) ;
#304 = ORIENTED_EDGE ( 'NONE', *, *, #1116, .F. ) ;
#305 = DIRECTION ( 'NONE',  ( 1.000000000000000000, 0.000000000000000000, 0.000000000000000000 ) ) ;
#306 = ORIENTED_EDGE ( 'NONE', *, *, #246, .F. ) ;
#307 = EDGE_CURVE ( 'NONE', #671, #17, #854, .T. ) ;
#308 = VECTOR ( 'NONE', #85, 1000.000000000000000 ) ;
#309 = CARTESIAN_POINT ( 'NONE',  ( 22.50000000000000711, 7.500000000000000000, 20.99999999999999645 ) ) ;
#310 = ADVANCED_FACE ( 'NONE', ( #133 ), #740, .F. ) ;
#311 = EDGE_LOOP ( 'NONE', ( #1084, #844, #613 ) ) ;
#312 = CARTESIAN_POINT ( 'NONE',  ( -19.99999999999999289, 7.500000000000000000, 30.00000000000000000 ) ) ;
#313 = ORIENTED_EDGE ( 'NONE', *, *, #427, .F. ) ;
#314 = DIRECTION ( 'NONE',  ( 0.000000000000000000, 1.000000000000000000, 0.000000000000000000 ) ) ;
#315 = DIRECTION ( 'NONE',  ( -0.000000000000000000, -0.000000000000000000, 1.000000000000000000 ) ) ;
#316 = VERTEX_POINT ( 'NONE', #887 ) ;
#317 = VECTOR ( 'NONE', #172, 1000.000000000000000 ) ;
#318 = ADVANCED_FACE ( 'NONE', ( #683 ), #914, .F. ) ;
#319 = CIRCLE ( 'NONE', #1346, 17.49999999999999289 ) ;
#320 = CARTESIAN_POINT ( 'NONE',  ( -15.00000000000002665, 7.499999999999984013, -30.00000000000000000 ) ) ;
#321 = EDGE_CURVE ( 'NONE', #1352, #203, #566, .T. ) ;
#322 = FACE_BOUND ( 'NONE', #1196, .T. ) ;
#323 = VERTEX_POINT ( 'NONE', #1328 ) ;
#324 = DIRECTION ( 'NONE',  ( -0.000000000000000000, 1.000000000000000000, -0.000000000000000000 ) ) ;
#325 = DIRECTION ( 'NONE',  ( -0.000000000000000000, -0.000000000000000000, -1.000000000000000000 ) ) ;
#326 = DIRECTION ( 'NONE',  ( -1.000000000000000000, 0.000000000000000000, 0.000000000000000000 ) ) ;
#327 = VERTEX_POINT ( 'NONE', #1181 ) ;
#328 = CARTESIAN_POINT ( 'NONE',  ( -65.00000000000000000, 15.00000000000000000, -5.000000000000000888 ) ) ;
#329 = DIRECTION ( 'NONE',  ( 1.000000000000000000, 0.000000000000000000, -1.914177628664061403E-16 ) ) ;
#330 = FACE_OUTER_BOUND ( 'NONE', #50, .T. ) ;
#331 = EDGE_LOOP ( 'NONE', ( #862, #931, #585, #368 ) ) ;
#332 = CARTESIAN_POINT ( 'NONE',  ( -45.00000000000002842, 7.499999999999984013, -30.00000000000000000 ) ) ;
#333 = EDGE_LOOP ( 'NONE', ( #633, #235, #982, #513 ) ) ;
#334 = EDGE_CURVE ( 'NONE', #1363, #1303, #1015, .T. ) ;
#335 = LINE ( 'NONE', #344, #658 ) ;
#336 = VECTOR ( 'NONE', #537, 1000.000000000000000 ) ;
#337 = CARTESIAN_POINT ( 'NONE',  ( -15.00000000000002842, 7.499999999999984013, -19.49784845243109643 ) ) ;
#338 = VECTOR ( 'NONE', #292, 1000.000000000000000 ) ;
#339 = VECTOR ( 'NONE', #201, 1000.000000000000000 ) ;
#340 = EDGE_LOOP ( 'NONE', ( #615, #281, #7, #812 ) ) ;
#341 = AXIS2_PLACEMENT_3D ( 'NONE', #653, #111, #970 ) ;
#342 = FACE_OUTER_BOUND ( 'NONE', #834, .T. ) ;
#343 = VERTEX_POINT ( 'NONE', #51 ) ;
#344 = CARTESIAN_POINT ( 'NONE',  ( 23.74999999999998934, 0.000000000000000000, 17.50000000000000000 ) ) ;
#345 = ORIENTED_EDGE ( 'NONE', *, *, #805, .F. ) ;
#346 = EDGE_CURVE ( 'NONE', #795, #276, #902, .T. ) ;
#347 = CARTESIAN_POINT ( 'NONE',  ( -45.00000000000002842, 7.499999999999984013, -30.00000000000000000 ) ) ;
#348 = EDGE_CURVE ( 'NONE', #556, #1028, #1203, .T. ) ;
#349 = DIRECTION ( 'NONE',  ( -0.000000000000000000, -0.000000000000000000, -1.000000000000000000 ) ) ;
#350 = ORIENTED_EDGE ( 'NONE', *, *, #540, .F. ) ;
#351 = EDGE_LOOP ( 'NONE', ( #1158, #1207, #35, #971, #1151, #83 ) ) ;
#352 = CARTESIAN_POINT ( 'NONE',  ( -17.49999999999999645, 7.500000000000000000, 20.99999999999999645 ) ) ;
#353 = CYLINDRICAL_SURFACE ( 'NONE', #103, 17.49999999999999289 ) ;
#354 = DIRECTION ( 'NONE',  ( 1.000000000000000000, 0.000000000000000000, 0.000000000000000000 ) ) ;
#355 = ORIENTED_EDGE ( 'NONE', *, *, #110, .T. ) ;
#356 = DIRECTION ( 'NONE',  ( 1.000000000000000000, 0.000000000000000000, 0.000000000000000000 ) ) ;
#357 = CIRCLE ( 'NONE', #119, 17.50000000000000000 ) ;
#358 = CARTESIAN_POINT ( 'NONE',  ( -65.00000000000000000, 15.00000000000000000, -30.00000000000000000 ) ) ;
#359 = ORIENTED_EDGE ( 'NONE', *, *, #200, .T. ) ;
#360 = CARTESIAN_POINT ( 'NONE',  ( -59.99999999999997868, 0.000000000000000000, 17.50000000000000000 ) ) ;
#361 = VECTOR ( 'NONE', #790, 1000.000000000000000 ) ;
#362 = CIRCLE ( 'NONE', #252, 2.499999999999995115 ) ;
#363 = EDGE_CURVE ( 'NONE', #746, #343, #486, .T. ) ;
#364 = DIRECTION ( 'NONE',  ( -0.000000000000000000, -0.000000000000000000, -1.000000000000000000 ) ) ;
#365 = EDGE_LOOP ( 'NONE', ( #146, #947, #210, #893 ) ) ;
#366 = CARTESIAN_POINT ( 'NONE',  ( 60.00000000000001421, 7.500000000000000000, 20.99999999999999645 ) ) ;
#367 = LINE ( 'NONE', #378, #1179 ) ;
#368 = ORIENTED_EDGE ( 'NONE', *, *, #926, .T. ) ;
#369 = DIRECTION ( 'NONE',  ( -1.000000000000000000, -0.000000000000000000, -0.000000000000000000 ) ) ;
#370 = AXIS2_PLACEMENT_3D ( 'NONE', #799, #1204, #52 ) ;
#371 = FACE_OUTER_BOUND ( 'NONE', #1331, .T. ) ;
#372 = AXIS2_PLACEMENT_3D ( 'NONE', #1351, #690, #403 ) ;
#373 = CARTESIAN_POINT ( 'NONE',  ( 22.50000000000000000, 7.500000000000000000, 30.00000000000000000 ) ) ;
#374 = ORIENTED_EDGE ( 'NONE', *, *, #238, .F. ) ;
#375 = CARTESIAN_POINT ( 'NONE',  ( -62.49999999999998579, 7.500000000000000000, 30.00000000000000000 ) ) ;
#376 = APPLICATION_CONTEXT ( 'automotive_design' ) ;
#377 = LINE ( 'NONE', #1012, #1223 ) ;
#378 = CARTESIAN_POINT ( 'NONE',  ( 17.49999999999997158, 7.499999999999984013, -20.99999999999999645 ) ) ;
#379 = EDGE_LOOP ( 'NONE', ( #1054, #224, #666 ) ) ;
#380 = CARTESIAN_POINT ( 'NONE',  ( -47.50000000000001421, 7.499999999999984013, -30.00000000000000000 ) ) ;
#381 = EDGE_CURVE ( 'NONE', #1230, #1213, #237, .T. ) ;
#382 = DIRECTION ( 'NONE',  ( -0.000000000000000000, -0.000000000000000000, 1.000000000000000000 ) ) ;
#383 = ORIENTED_EDGE ( 'NONE', *, *, #1320, .T. ) ;
#384 = FACE_OUTER_BOUND ( 'NONE', #830, .T. ) ;
#385 = FACE_OUTER_BOUND ( 'NONE', #528, .T. ) ;
#386 = LINE ( 'NONE', #1235, #308 ) ;
#387 = EDGE_CURVE ( 'NONE', #418, #896, #9, .T. ) ;
#388 = DIRECTION ( 'NONE',  ( 0.000000000000000000, 0.000000000000000000, 1.000000000000000000 ) ) ;
#389 = FACE_OUTER_BOUND ( 'NONE', #333, .T. ) ;
#390 = AXIS2_PLACEMENT_3D ( 'NONE', #95, #1131, #841 ) ;
#391 = VECTOR ( 'NONE', #918, 1000.000000000000000 ) ;
#392 = DIRECTION ( 'NONE',  ( -0.000000000000000000, -0.000000000000000000, 1.000000000000000000 ) ) ;
#393 = ORIENTED_EDGE ( 'NONE', *, *, #707, .T. ) ;
#394 = CARTESIAN_POINT ( 'NONE',  ( -22.49999999999999289, 7.500000000000000000, 20.99999999999999645 ) ) ;
#395 = CARTESIAN_POINT ( 'NONE',  ( 12.49999999999997335, 7.499999999999984013, -20.99999999999999645 ) ) ;
#396 = ORIENTED_EDGE ( 'NONE', *, *, #723, .F. ) ;
#397 = EDGE_CURVE ( 'NONE', #276, #1216, #993, .T. ) ;
#398 = CARTESIAN_POINT ( 'NONE',  ( 20.00000000000000711, 7.500000000000000000, 20.99999999999999645 ) ) ;
#399 = CARTESIAN_POINT ( 'NONE',  ( -23.74999999999999645, 0.000000000000000000, 17.49999999999998934 ) ) ;
#400 = DIRECTION ( 'NONE',  ( 0.8571673007021125557, 0.000000000000000000, 0.5150380749100536004 ) ) ;
#401 = ORIENTED_EDGE ( 'NONE', *, *, #985, .F. ) ;
#402 = CONICAL_SURFACE ( 'NONE', #198, 2.499999999999998668, 1.029744258676653867 ) ;
#403 = DIRECTION ( 'NONE',  ( 1.000000000000000000, 0.000000000000000000, 0.000000000000000000 ) ) ;
#404 = ORIENTED_EDGE ( 'NONE', *, *, #606, .T. ) ;
#405 = FILL_AREA_STYLE_COLOUR ( '', #30 ) ;
#406 = EDGE_LOOP ( 'NONE', ( #953, #792, #1326, #244 ) ) ;
#407 = ADVANCED_FACE ( 'NONE', ( #330 ), #662, .F. ) ;
#408 = FACE_OUTER_BOUND ( 'NONE', #94, .T. ) ;
#409 = CYLINDRICAL_SURFACE ( 'NONE', #441, 25.00000000000000000 ) ;
#410 = ADVANCED_FACE ( 'NONE', ( #722 ), #1335, .F. ) ;
#411 = ORIENTED_EDGE ( 'NONE', *, *, #89, .F. ) ;
#412 = DIRECTION ( 'NONE',  ( -0.000000000000000000, -0.000000000000000000, 1.000000000000000000 ) ) ;
#413 = ORIENTED_EDGE ( 'NONE', *, *, #348, .T. ) ;
#414 = EDGE_CURVE ( 'NONE', #940, #1173, #386, .T. ) ;
#415 =( NAMED_UNIT ( * ) SI_UNIT ( $, .STERADIAN. ) SOLID_ANGLE_UNIT ( ) );
#416 = FACE_OUTER_BOUND ( 'NONE', #1291, .T. ) ;
#417 = CIRCLE ( 'NONE', #1293, 2.499999999999995115 ) ;
#418 = VERTEX_POINT ( 'NONE', #77 ) ;
#419 = LINE ( 'NONE', #1240, #1190 ) ;
#420 = ORIENTED_EDGE ( 'NONE', *, *, #54, .F. ) ;
#421 = DIRECTION ( 'NONE',  ( -0.000000000000000000, -0.000000000000000000, 1.000000000000000000 ) ) ;
#422 = DIRECTION ( 'NONE',  ( -0.000000000000000000, -0.000000000000000000, -1.000000000000000000 ) ) ;
#423 = ADVANCED_FACE ( 'NONE', ( #816 ), #402, .F. ) ;
#424 = FACE_OUTER_BOUND ( 'NONE', #1139, .T. ) ;
#425 = EDGE_LOOP ( 'NONE', ( #518, #1175, #949, #829 ) ) ;
#426 = DIRECTION ( 'NONE',  ( -1.000000000000000000, 0.000000000000000000, 0.000000000000000000 ) ) ;
#427 = EDGE_CURVE ( 'NONE', #188, #1363, #169, .T. ) ;
#428 = EDGE_CURVE ( 'NONE', #316, #1250, #807, .T. ) ;
#429 = CIRCLE ( 'NONE', #1188, 2.499999999999998668 ) ;
#430 = LINE ( 'NONE', #1041, #1100 ) ;
#431 = VERTEX_POINT ( 'NONE', #1021 ) ;
#432 = CONICAL_SURFACE ( 'NONE', #837, 2.499999999999995115, 1.029744258676653867 ) ;
#433 = FACE_BOUND ( 'NONE', #406, .T. ) ;
#434 = CARTESIAN_POINT ( 'NONE',  ( -45.00000000000002842, 7.499999999999984013, -20.99999999999999645 ) ) ;
#435 = AXIS2_PLACEMENT_3D ( 'NONE', #889, #1294, #674 ) ;
#436 = FACE_OUTER_BOUND ( 'NONE', #685, .T. ) ;
#437 = ORIENTED_EDGE ( 'NONE', *, *, #1254, .T. ) ;
#438 = FACE_OUTER_BOUND ( 'NONE', #365, .T. ) ;
#439 = DIRECTION ( 'NONE',  ( 1.000000000000000000, 0.000000000000000000, 0.000000000000000000 ) ) ;
#440 = CIRCLE ( 'NONE', #147, 2.499999999999998668 ) ;
#441 = AXIS2_PLACEMENT_3D ( 'NONE', #1347, #1337, #1359 ) ;
#442 = EDGE_LOOP ( 'NONE', ( #619, #736 ) ) ;
#443 = EDGE_CURVE ( 'NONE', #188, #1082, #1268, .T. ) ;
#444 = DIRECTION ( 'NONE',  ( 0.000000000000000000, 1.000000000000000000, 0.000000000000000000 ) ) ;
#445 = VERTEX_POINT ( 'NONE', #1220 ) ;
#446 = ADVANCED_FACE ( 'NONE', ( #1345 ), #49, .F. ) ;
#447 = CARTESIAN_POINT ( 'NONE',  ( -89.99999999999998579, 15.00000000000000000, 30.00000000000000000 ) ) ;
#448 = APPLICATION_CONTEXT ( 'automotive_design' ) ;
#449 = ORIENTED_EDGE ( 'NONE', *, *, #1027, .F. ) ;
#450 = EDGE_CURVE ( 'NONE', #90, #609, #715, .T. ) ;
#451 = CARTESIAN_POINT ( 'NONE',  ( 17.49999999999996803, 7.499999999999984013, -30.00000000000000000 ) ) ;
#452 = ORIENTED_EDGE ( 'NONE', *, *, #881, .F. ) ;
#453 = CARTESIAN_POINT ( 'NONE',  ( 20.00000000000000711, 7.500000000000000000, 30.00000000000000000 ) ) ;
#454 = EDGE_CURVE ( 'NONE', #1303, #1363, #1160, .T. ) ;
#455 = AXIS2_PLACEMENT_3D ( 'NONE', #1362, #534, #515 ) ;
#456 = CIRCLE ( 'NONE', #1052, 2.499999999999992006 ) ;
#457 = VECTOR ( 'NONE', #800, 1000.000000000000000 ) ;
#458 = ORIENTED_EDGE ( 'NONE', *, *, #450, .T. ) ;
#459 = FACE_BOUND ( 'NONE', #578, .T. ) ;
#460 = ORIENTED_EDGE ( 'NONE', *, *, #22, .T. ) ;
#461 = DIRECTION ( 'NONE',  ( 0.000000000000000000, -0.000000000000000000, 1.000000000000000000 ) ) ;
#462 = ORIENTED_EDGE ( 'NONE', *, *, #888, .F. ) ;
#463 = CONICAL_SURFACE ( 'NONE', #5, 2.499999999999998668, 1.029744258676653867 ) ;
#464 = FACE_BOUND ( 'NONE', #867, .T. ) ;
#465 = ORIENTED_EDGE ( 'NONE', *, *, #163, .F. ) ;
#466 = LINE ( 'NONE', #1313, #733 ) ;
#467 = ORIENTED_EDGE ( 'NONE', *, *, #428, .T. ) ;
#468 = EDGE_CURVE ( 'NONE', #90, #149, #367, .T. ) ;
#469 = ORIENTED_EDGE ( 'NONE', *, *, #346, .T. ) ;
#470 = APPLICATION_PROTOCOL_DEFINITION ( 'draft international standard', 'automotive_design', 1998, #448 ) ;
#471 = CYLINDRICAL_SURFACE ( 'NONE', #476, 2.499999999999993339 ) ;
#472 = ORIENTED_EDGE ( 'NONE', *, *, #941, .T. ) ;
#473 = DIRECTION ( 'NONE',  ( 0.000000000000000000, 1.000000000000000000, 0.000000000000000000 ) ) ;
#474 = DIRECTION ( 'NONE',  ( -0.000000000000000000, 1.000000000000000000, -0.000000000000000000 ) ) ;
#475 = ORIENTED_EDGE ( 'NONE', *, *, #1278, .F. ) ;
#476 = AXIS2_PLACEMENT_3D ( 'NONE', #1309, #364, #819 ) ;
#477 = ORIENTED_EDGE ( 'NONE', *, *, #972, .F. ) ;
#478 = CARTESIAN_POINT ( 'NONE',  ( 23.74999999999998579, 15.00000000000000000, -1.331687700383580391E-14 ) ) ;
#479 = CIRCLE ( 'NONE', #732, 2.499999999999988454 ) ;
#480 = DIRECTION ( 'NONE',  ( -1.000000000000000000, 0.000000000000000000, 0.000000000000000000 ) ) ;
#481 = EDGE_LOOP ( 'NONE', ( #228, #173, #625 ) ) ;
#482 = LINE ( 'NONE', #910, #1366 ) ;
#483 = DIRECTION ( 'NONE',  ( -0.000000000000000000, -0.000000000000000000, -1.000000000000000000 ) ) ;
#484 =( GEOMETRIC_REPRESENTATION_CONTEXT ( 3 ) GLOBAL_UNCERTAINTY_ASSIGNED_CONTEXT ( ( #1271 ) ) GLOBAL_UNIT_ASSIGNED_CONTEXT ( ( #737, #521, #415 ) ) REPRESENTATION_CONTEXT ( 'NONE', 'WORKASPACE' ) );
#485 = ORIENTED_EDGE ( 'NONE', *, *, #321, .T. ) ;
#486 = LINE ( 'NONE', #912, #826 ) ;
#487 = CARTESIAN_POINT ( 'NONE',  ( -12.50000000000003197, 7.499999999999984013, -30.00000000000000000 ) ) ;
#488 = VECTOR ( 'NONE', #1186, 1000.000000000000000 ) ;
#489 = CARTESIAN_POINT ( 'NONE',  ( -15.00000000000002665, 7.499999999999984013, -20.99999999999999645 ) ) ;
#490 = ADVANCED_FACE ( 'NONE', ( #1006 ), #220, .F. ) ;
#491 = ORIENTED_EDGE ( 'NONE', *, *, #443, .F. ) ;
#492 = LINE ( 'NONE', #158, #391 ) ;
#493 = DIRECTION ( 'NONE',  ( -0.8571673007021120005, 1.049727191138618326E-16, 0.5150380749100547106 ) ) ;
#494 = ADVANCED_FACE ( 'NONE', ( #705 ), #801, .F. ) ;
#495 = DIRECTION ( 'NONE',  ( 0.8571673007021120005, 0.000000000000000000, 0.5150380749100547106 ) ) ;
#496 = DIRECTION ( 'NONE',  ( -0.000000000000000000, -0.000000000000000000, 1.000000000000000000 ) ) ;
#497 = CARTESIAN_POINT ( 'NONE',  ( 60.00000000000001421, 0.000000000000000000, -3.827021247335481268E-15 ) ) ;
#498 = ORIENTED_EDGE ( 'NONE', *, *, #222, .F. ) ;
#499 = ADVANCED_FACE ( 'NONE', ( #408 ), #1323, .F. ) ;
#500 = DIRECTION ( 'NONE',  ( 0.8571673007021120005, 0.000000000000000000, 0.5150380749100547106 ) ) ;
#501 = AXIS2_PLACEMENT_3D ( 'NONE', #434, #325, #426 ) ;
#502 = DIRECTION ( 'NONE',  ( -0.000000000000000000, -0.000000000000000000, 1.000000000000000000 ) ) ;
#503 = ORIENTED_EDGE ( 'NONE', *, *, #307, .T. ) ;
#504 = EDGE_CURVE ( 'NONE', #1277, #1166, #240, .T. ) ;
#505 = DIRECTION ( 'NONE',  ( 1.000000000000000000, 0.000000000000000000, 0.000000000000000000 ) ) ;
#506 = AXIS2_PLACEMENT_3D ( 'NONE', #1215, #73, #921 ) ;
#507 = AXIS2_PLACEMENT_3D ( 'NONE', #730, #1135, #1043 ) ;
#508 = DIRECTION ( 'NONE',  ( -0.000000000000000000, -0.000000000000000000, -1.000000000000000000 ) ) ;
#509 = ORIENTED_EDGE ( 'NONE', *, *, #87, .F. ) ;
#510 = CARTESIAN_POINT ( 'NONE',  ( 42.49999999999998579, 7.499999999999984013, -30.00000000000000000 ) ) ;
#511 = ORIENTED_EDGE ( 'NONE', *, *, #1254, .F. ) ;
#512 = CARTESIAN_POINT ( 'NONE',  ( -23.75000000000000000, 0.000000000000000000, -3.827021247335477324E-15 ) ) ;
#513 = ORIENTED_EDGE ( 'NONE', *, *, #381, .T. ) ;
#514 = VECTOR ( 'NONE', #1101, 1000.000000000000000 ) ;
#515 = DIRECTION ( 'NONE',  ( -1.000000000000000000, 0.000000000000000000, 0.000000000000000000 ) ) ;
#516 = SURFACE_STYLE_USAGE ( .BOTH. , #295 ) ;
#517 = EDGE_CURVE ( 'NONE', #651, #343, #99, .T. ) ;
#518 = ORIENTED_EDGE ( 'NONE', *, *, #593, .T. ) ;
#519 = CARTESIAN_POINT ( 'NONE',  ( 23.74999999999998579, 0.000000000000000000, -17.50000000000000000 ) ) ;
#520 = ORIENTED_EDGE ( 'NONE', *, *, #553, .T. ) ;
#521 =( NAMED_UNIT ( * ) PLANE_ANGLE_UNIT ( ) SI_UNIT ( $, .RADIAN. ) );
#522 = DIRECTION ( 'NONE',  ( -0.000000000000000000, -1.000000000000000000, -0.000000000000000000 ) ) ;
#523 = AXIS2_PLACEMENT_3D ( 'NONE', #757, #444, #27 ) ;
#524 = VERTEX_POINT ( 'NONE', #938 ) ;
#525 = AXIS2_PLACEMENT_3D ( 'NONE', #892, #598, #1344 ) ;
#526 = CIRCLE ( 'NONE', #929, 17.50000000000000000 ) ;
#527 = CARTESIAN_POINT ( 'NONE',  ( -47.50000000000002132, 7.499999999999984013, -20.99999999999999645 ) ) ;
#528 = EDGE_LOOP ( 'NONE', ( #304, #996, #359 ) ) ;
#529 = CARTESIAN_POINT ( 'NONE',  ( -89.99999999999998579, 15.00000000000000000, 30.00000000000000000 ) ) ;
#530 = DIRECTION ( 'NONE',  ( -0.000000000000000000, -0.000000000000000000, 1.000000000000000000 ) ) ;
#531 = PRODUCT_RELATED_PRODUCT_CATEGORY ( 'part', '', ( #1312 ) ) ;
#532 = VERTEX_POINT ( 'NONE', #1260 ) ;
#533 = EDGE_CURVE ( 'NONE', #609, #149, #440, .T. ) ;
#534 = DIRECTION ( 'NONE',  ( -0.000000000000000000, -0.000000000000000000, -1.000000000000000000 ) ) ;
#535 = ORIENTED_EDGE ( 'NONE', *, *, #1156, .F. ) ;
#536 = CARTESIAN_POINT ( 'NONE',  ( -65.00000000000000000, 0.000000000000000000, -30.00000000000000000 ) ) ;
#537 = DIRECTION ( 'NONE',  ( -0.000000000000000000, -0.000000000000000000, 1.000000000000000000 ) ) ;
#538 = VERTEX_POINT ( 'NONE', #942 ) ;
#539 = PRODUCT_DEFINITION_CONTEXT ( 'detailed design', #448, 'design' ) ;
#540 = EDGE_CURVE ( 'NONE', #19, #697, #430, .T. ) ;
#541 = DIRECTION ( 'NONE',  ( -0.000000000000000000, -0.000000000000000000, 1.000000000000000000 ) ) ;
#542 = AXIS2_PLACEMENT_3D ( 'NONE', #562, #981, #34 ) ;
#543 = DIRECTION ( 'NONE',  ( -0.000000000000000000, -0.000000000000000000, -1.000000000000000000 ) ) ;
#544 = VERTEX_POINT ( 'NONE', #108 ) ;
#545 = CIRCLE ( 'NONE', #189, 2.499999999999988454 ) ;
#546 = FACE_BOUND ( 'NONE', #937, .T. ) ;
#547 = LINE ( 'NONE', #447, #1318 ) ;
#548 = EDGE_CURVE ( 'NONE', #327, #188, #419, .T. ) ;
#549 = FACE_OUTER_BOUND ( 'NONE', #663, .T. ) ;
#550 = EDGE_LOOP ( 'NONE', ( #876, #1296, #769 ) ) ;
#551 = DIRECTION ( 'NONE',  ( -1.000000000000000000, 0.000000000000000000, 0.000000000000000000 ) ) ;
#552 = ORIENTED_EDGE ( 'NONE', *, *, #180, .F. ) ;
#553 = EDGE_CURVE ( 'NONE', #212, #1137, #846, .T. ) ;
#554 = EDGE_CURVE ( 'NONE', #149, #609, #1004, .T. ) ;
#555 = CYLINDRICAL_SURFACE ( 'NONE', #1364, 2.499999999999988454 ) ;
#556 = VERTEX_POINT ( 'NONE', #299 ) ;
#557 = CARTESIAN_POINT ( 'NONE',  ( -12.50000000000002842, 7.499999999999984013, -20.99999999999999645 ) ) ;
#558 = ORIENTED_EDGE ( 'NONE', *, *, #1369, .T. ) ;
#559 = CARTESIAN_POINT ( 'NONE',  ( 60.00000000000001421, 7.500000000000000000, 20.99999999999999645 ) ) ;
#560 = ORIENTED_EDGE ( 'NONE', *, *, #381, .F. ) ;
#561 = MECHANICAL_DESIGN_GEOMETRIC_PRESENTATION_REPRESENTATION (  '', ( #1339 ), #484 ) ;
#562 = CARTESIAN_POINT ( 'NONE',  ( -59.99999999999998579, 0.000000000000000000, 4.089868909768884495E-16 ) ) ;
#563 = ORIENTED_EDGE ( 'NONE', *, *, #161, .T. ) ;
#564 = FACE_OUTER_BOUND ( 'NONE', #351, .T. ) ;
#565 = VECTOR ( 'NONE', #114, 1000.000000000000000 ) ;
#566 = LINE ( 'NONE', #1292, #259 ) ;
#567 = AXIS2_PLACEMENT_3D ( 'NONE', #645, #944, #1367 ) ;
#568 = ORIENTED_EDGE ( 'NONE', *, *, #1301, .F. ) ;
#569 = ADVANCED_FACE ( 'NONE', ( #424 ), #727, .F. ) ;
#570 = CARTESIAN_POINT ( 'NONE',  ( -62.49999999999999289, 7.500000000000000000, 20.99999999999999645 ) ) ;
#571 = ORIENTED_EDGE ( 'NONE', *, *, #540, .T. ) ;
#572 = CARTESIAN_POINT ( 'NONE',  ( 12.49999999999998401, 7.499999999999984013, -30.00000000000000000 ) ) ;
#573 = DIRECTION ( 'NONE',  ( 1.000000000000000000, 0.000000000000000000, 0.000000000000000000 ) ) ;
#574 = ADVANCED_FACE ( 'NONE', ( #190 ), #1263, .F. ) ;
#575 = CARTESIAN_POINT ( 'NONE',  ( 47.49999999999996447, 7.499999999999984013, -20.99999999999999645 ) ) ;
#576 = AXIS2_PLACEMENT_3D ( 'NONE', #754, #1, #6 ) ;
#577 = CYLINDRICAL_SURFACE ( 'NONE', #789, 2.499999999999988454 ) ;
#578 = EDGE_LOOP ( 'NONE', ( #233, #1146 ) ) ;
#579 = CARTESIAN_POINT ( 'NONE',  ( 20.00000000000000355, 7.500000000000000000, 19.49784845243109643 ) ) ;
#580 = DIRECTION ( 'NONE',  ( 1.914177628664063868E-16, 0.000000000000000000, -1.000000000000000000 ) ) ;
#581 = ORIENTED_EDGE ( 'NONE', *, *, #263, .F. ) ;
#582 = DIRECTION ( 'NONE',  ( -0.000000000000000000, -0.000000000000000000, 1.000000000000000000 ) ) ;
#583 = CARTESIAN_POINT ( 'NONE',  ( 12.49999999999997868, 7.499999999999984013, -30.00000000000000000 ) ) ;
#584 = DIRECTION ( 'NONE',  ( -1.000000000000000000, -0.000000000000000000, -0.000000000000000000 ) ) ;
#585 = ORIENTED_EDGE ( 'NONE', *, *, #8, .T. ) ;
#586 = LINE ( 'NONE', #1342, #1287 ) ;
#587 = DIRECTION ( 'NONE',  ( 0.000000000000000000, 0.000000000000000000, 1.000000000000000000 ) ) ;
#588 = DIRECTION ( 'NONE',  ( 0.8571673007021121116, 1.049727191138618449E-16, -0.5150380749100544886 ) ) ;
#589 = AXIS2_PLACEMENT_3D ( 'NONE', #768, #1183, #761 ) ;
#590 = LINE ( 'NONE', #352, #303 ) ;
#591 = CONICAL_SURFACE ( 'NONE', #525, 2.499999999999995115, 1.029744258676653867 ) ;
#592 = VECTOR ( 'NONE', #923, 1000.000000000000000 ) ;
#593 = EDGE_CURVE ( 'NONE', #532, #746, #767, .T. ) ;
#594 = CIRCLE ( 'NONE', #33, 2.499999999999988454 ) ;
#595 = DIRECTION ( 'NONE',  ( 1.000000000000000000, 0.000000000000000000, 0.000000000000000000 ) ) ;
#596 = ORIENTED_EDGE ( 'NONE', *, *, #881, .T. ) ;
#597 = CARTESIAN_POINT ( 'NONE',  ( -17.50000000000001421, 7.499999999999984013, -30.00000000000000000 ) ) ;
#598 = DIRECTION ( 'NONE',  ( -0.000000000000000000, -0.000000000000000000, 1.000000000000000000 ) ) ;
#599 = DIRECTION ( 'NONE',  ( -1.000000000000000000, 0.000000000000000000, -1.914177628664063868E-16 ) ) ;
#600 = DIRECTION ( 'NONE',  ( -0.000000000000000000, 1.000000000000000000, -0.000000000000000000 ) ) ;
#601 = ADVANCED_FACE ( 'NONE', ( #957 ), #1145, .F. ) ;
#602 = AXIS2_PLACEMENT_3D ( 'NONE', #140, #62, #573 ) ;
#603 = FACE_BOUND ( 'NONE', #138, .T. ) ;
#604 = ORIENTED_EDGE ( 'NONE', *, *, #1027, .T. ) ;
#605 = CYLINDRICAL_SURFACE ( 'NONE', #58, 2.499999999999988454 ) ;
#606 = EDGE_CURVE ( 'NONE', #671, #556, #1047, .T. ) ;
#607 = DIRECTION ( 'NONE',  ( -0.000000000000000000, 1.000000000000000000, -0.000000000000000000 ) ) ;
#608 = CARTESIAN_POINT ( 'NONE',  ( 60.00000000000001421, 7.500000000000000000, 30.00000000000000000 ) ) ;
#609 = VERTEX_POINT ( 'NONE', #747 ) ;
#610 = FACE_OUTER_BOUND ( 'NONE', #734, .T. ) ;
#611 = CARTESIAN_POINT ( 'NONE',  ( -23.75000000000000000, 0.000000000000000000, -3.827021247335477324E-15 ) ) ;
#612 = DIRECTION ( 'NONE',  ( -0.000000000000000000, -0.000000000000000000, 1.000000000000000000 ) ) ;
#613 = ORIENTED_EDGE ( 'NONE', *, *, #1272, .T. ) ;
#614 = LINE ( 'NONE', #43, #339 ) ;
#615 = ORIENTED_EDGE ( 'NONE', *, *, #638, .F. ) ;
#616 = LINE ( 'NONE', #309, #915 ) ;
#617 = CIRCLE ( 'NONE', #1132, 2.499999999999992006 ) ;
#618 = DIRECTION ( 'NONE',  ( -1.000000000000000000, 0.000000000000000000, 0.000000000000000000 ) ) ;
#619 = ORIENTED_EDGE ( 'NONE', *, *, #1074, .F. ) ;
#620 = CARTESIAN_POINT ( 'NONE',  ( -19.99999999999999289, 7.500000000000000000, 20.99999999999999645 ) ) ;
#621 = EDGE_CURVE ( 'NONE', #431, #746, #1035, .T. ) ;
#622 = CARTESIAN_POINT ( 'NONE',  ( 23.74999999999998934, 15.00000000000000000, 17.50000000000000000 ) ) ;
#623 = CARTESIAN_POINT ( 'NONE',  ( 14.99999999999997158, 7.499999999999984013, -20.99999999999999645 ) ) ;
#624 = VECTOR ( 'NONE', #1182, 1000.000000000000000 ) ;
#625 = ORIENTED_EDGE ( 'NONE', *, *, #106, .T. ) ;
#626 = VECTOR ( 'NONE', #1276, 1000.000000000000000 ) ;
#627 = AXIS2_PLACEMENT_3D ( 'NONE', #835, #717, #1224 ) ;
#628 = CIRCLE ( 'NONE', #909, 2.499999999999988454 ) ;
#629 = DIRECTION ( 'NONE',  ( -0.000000000000000000, -0.000000000000000000, -1.000000000000000000 ) ) ;
#630 = EDGE_LOOP ( 'NONE', ( #988, #1040, #452, #1222 ) ) ;
#631 = CARTESIAN_POINT ( 'NONE',  ( -15.00000000000002665, 7.499999999999984013, -20.99999999999999645 ) ) ;
#632 = CARTESIAN_POINT ( 'NONE',  ( -15.00000000000002665, 7.499999999999984013, -30.00000000000000000 ) ) ;
#633 = ORIENTED_EDGE ( 'NONE', *, *, #1189, .T. ) ;
#634 = DIRECTION ( 'NONE',  ( 1.000000000000000000, 0.000000000000000000, 0.000000000000000000 ) ) ;
#635 = VERTEX_POINT ( 'NONE', #1055 ) ;
#636 = DIRECTION ( 'NONE',  ( 1.000000000000000000, 0.000000000000000000, 0.000000000000000000 ) ) ;
#637 = CARTESIAN_POINT ( 'NONE',  ( 90.00000000000000000, 15.00000000000000000, 30.00000000000000000 ) ) ;
#638 = EDGE_CURVE ( 'NONE', #205, #743, #217, .T. ) ;
#639 = AXIS2_PLACEMENT_3D ( 'NONE', #66, #794, #287 ) ;
#640 = ORIENTED_EDGE ( 'NONE', *, *, #504, .T. ) ;
#641 = CONICAL_SURFACE ( 'NONE', #1155, 2.499999999999995115, 1.029744258676653867 ) ;
#642 = DIRECTION ( 'NONE',  ( -0.000000000000000000, -0.000000000000000000, -1.000000000000000000 ) ) ;
#643 = ORIENTED_EDGE ( 'NONE', *, *, #454, .T. ) ;
#644 = DIRECTION ( 'NONE',  ( 1.000000000000000000, 0.000000000000000000, 0.000000000000000000 ) ) ;
#645 = CARTESIAN_POINT ( 'NONE',  ( -19.99999999999999289, 7.500000000000000000, 20.99999999999999645 ) ) ;
#646 = EDGE_CURVE ( 'NONE', #1122, #205, #1061, .T. ) ;
#647 = CARTESIAN_POINT ( 'NONE',  ( 17.50000000000001066, 7.500000000000000000, 30.00000000000000000 ) ) ;
#648 = ORIENTED_EDGE ( 'NONE', *, *, #1077, .F. ) ;
#649 = LINE ( 'NONE', #1068, #289 ) ;
#650 = DIRECTION ( 'NONE',  ( -0.8571673007021120005, 0.000000000000000000, -0.5150380749100547106 ) ) ;
#651 = VERTEX_POINT ( 'NONE', #10 ) ;
#652 = DIRECTION ( 'NONE',  ( -0.000000000000000000, -0.000000000000000000, 1.000000000000000000 ) ) ;
#653 = CARTESIAN_POINT ( 'NONE',  ( -15.00000000000002665, 7.499999999999984013, -20.99999999999999645 ) ) ;
#654 = EDGE_CURVE ( 'NONE', #1228, #635, #617, .T. ) ;
#655 = VECTOR ( 'NONE', #137, 1000.000000000000000 ) ;
#656 = CARTESIAN_POINT ( 'NONE',  ( 14.99999999999997158, 7.499999999999984013, -20.99999999999999645 ) ) ;
#657 = EDGE_LOOP ( 'NONE', ( #839, #1071, #26, #552 ) ) ;
#658 = VECTOR ( 'NONE', #324, 1000.000000000000000 ) ;
#659 = CARTESIAN_POINT ( 'NONE',  ( 65.00000000000000000, 0.000000000000000000, -5.000000000000000888 ) ) ;
#660 = FACE_OUTER_BOUND ( 'NONE', #425, .T. ) ;
#661 = ADVANCED_FACE ( 'NONE', ( #342 ), #555, .F. ) ;
#662 = PLANE ( 'NONE',  #1231 ) ;
#663 = EDGE_LOOP ( 'NONE', ( #748, #404, #191 ) ) ;
#664 = EDGE_CURVE ( 'NONE', #149, #1247, #124, .T. ) ;
#665 = DIRECTION ( 'NONE',  ( 1.000000000000000000, 0.000000000000000000, -1.914177628664061403E-16 ) ) ;
#666 = ORIENTED_EDGE ( 'NONE', *, *, #163, .T. ) ;
#667 = VERTEX_POINT ( 'NONE', #570 ) ;
#668 = CARTESIAN_POINT ( 'NONE',  ( -23.74999999999999645, 0.000000000000000000, 17.49999999999998934 ) ) ;
#669 = ORIENTED_EDGE ( 'NONE', *, *, #134, .T. ) ;
#670 = CARTESIAN_POINT ( 'NONE',  ( 47.49999999999995737, 7.499999999999984013, -30.00000000000000000 ) ) ;
#671 = VERTEX_POINT ( 'NONE', #1161 ) ;
#672 = DIRECTION ( 'NONE',  ( 0.000000000000000000, 0.000000000000000000, 1.000000000000000000 ) ) ;
#673 = EDGE_CURVE ( 'NONE', #793, #316, #1177, .T. ) ;
#674 = DIRECTION ( 'NONE',  ( -1.000000000000000000, 0.000000000000000000, 0.000000000000000000 ) ) ;
#675 = CIRCLE ( 'NONE', #341, 2.499999999999998668 ) ;
#676 = ADVANCED_FACE ( 'NONE', ( #459, #322, #41, #464, #861 ), #143, .F. ) ;
#677 = DIRECTION ( 'NONE',  ( 0.000000000000000000, 0.000000000000000000, -1.000000000000000000 ) ) ;
#678 = VERTEX_POINT ( 'NONE', #1070 ) ;
#679 = ADVANCED_FACE ( 'NONE', ( #549 ), #432, .F. ) ;
#680 = FACE_OUTER_BOUND ( 'NONE', #218, .T. ) ;
#681 = VECTOR ( 'NONE', #584, 1000.000000000000000 ) ;
#682 = ORIENTED_EDGE ( 'NONE', *, *, #8, .F. ) ;
#683 = FACE_OUTER_BOUND ( 'NONE', #1261, .T. ) ;
#684 = CIRCLE ( 'NONE', #856, 2.499999999999988454 ) ;
#685 = EDGE_LOOP ( 'NONE', ( #1368, #766, #788 ) ) ;
#686 = CARTESIAN_POINT ( 'NONE',  ( 44.99999999999997158, 7.499999999999984013, -19.49784845243109643 ) ) ;
#687 = EDGE_LOOP ( 'NONE', ( #78, #460, #563 ) ) ;
#688 = AXIS2_PLACEMENT_3D ( 'NONE', #347, #708, #63 ) ;
#689 = CARTESIAN_POINT ( 'NONE',  ( -60.00000000000000000, 7.500000000000000000, 30.00000000000000000 ) ) ;
#690 = DIRECTION ( 'NONE',  ( -0.000000000000000000, -0.000000000000000000, 1.000000000000000000 ) ) ;
#691 = ORIENTED_EDGE ( 'NONE', *, *, #1238, .T. ) ;
#692 = DIRECTION ( 'NONE',  ( -0.000000000000000000, -0.000000000000000000, -1.000000000000000000 ) ) ;
#693 = DIRECTION ( 'NONE',  ( -1.000000000000000000, 0.000000000000000000, 0.000000000000000000 ) ) ;
#694 = AXIS2_PLACEMENT_3D ( 'NONE', #60, #483, #1324 ) ;
#695 = CIRCLE ( 'NONE', #627, 2.499999999999995115 ) ;
#696 = CARTESIAN_POINT ( 'NONE',  ( -15.00000000000002665, 7.499999999999984013, -30.00000000000000000 ) ) ;
#697 = VERTEX_POINT ( 'NONE', #670 ) ;
#698 = DIRECTION ( 'NONE',  ( 1.000000000000000000, 0.000000000000000000, 0.000000000000000000 ) ) ;
#699 = EDGE_CURVE ( 'NONE', #651, #974, #1343, .T. ) ;
#700 = CARTESIAN_POINT ( 'NONE',  ( -59.99999999999998579, 15.00000000000000000, 4.089868909768884495E-16 ) ) ;
#701 = DIRECTION ( 'NONE',  ( -1.000000000000000000, 0.000000000000000000, 0.000000000000000000 ) ) ;
#702 = ORIENTED_EDGE ( 'NONE', *, *, #321, .F. ) ;
#703 = FACE_OUTER_BOUND ( 'NONE', #832, .T. ) ;
#704 = DIRECTION ( 'NONE',  ( -1.000000000000000000, -0.000000000000000000, -1.914177628664063868E-16 ) ) ;
#705 = FACE_OUTER_BOUND ( 'NONE', #998, .T. ) ;
#706 = EDGE_LOOP ( 'NONE', ( #67, #472, #1284 ) ) ;
#707 = EDGE_CURVE ( 'NONE', #544, #795, #223, .T. ) ;
#708 = DIRECTION ( 'NONE',  ( -0.000000000000000000, -0.000000000000000000, -1.000000000000000000 ) ) ;
#709 = VECTOR ( 'NONE', #166, 1000.000000000000000 ) ;
#710 = ADVANCED_FACE ( 'NONE', ( #436 ), #101, .F. ) ;
#711 = FACE_OUTER_BOUND ( 'NONE', #311, .T. ) ;
#712 = ORIENTED_EDGE ( 'NONE', *, *, #136, .T. ) ;
#713 = CARTESIAN_POINT ( 'NONE',  ( 60.00000000000001421, 7.500000000000000000, 30.00000000000000000 ) ) ;
#714 = FACE_OUTER_BOUND ( 'NONE', #775, .T. ) ;
#715 = LINE ( 'NONE', #395, #759 ) ;
#716 = ORIENTED_EDGE ( 'NONE', *, *, #202, .T. ) ;
#717 = DIRECTION ( 'NONE',  ( -0.000000000000000000, -0.000000000000000000, -1.000000000000000000 ) ) ;
#718 = DIRECTION ( 'NONE',  ( 1.000000000000000000, 0.000000000000000000, 0.000000000000000000 ) ) ;
#719 = LINE ( 'NONE', #1025, #1090 ) ;
#720 = EDGE_LOOP ( 'NONE', ( #411, #535, #1062, #96 ) ) ;
#721 = CARTESIAN_POINT ( 'NONE',  ( -65.00000000000000000, 0.000000000000000000, -5.000000000000000888 ) ) ;
#722 = FACE_OUTER_BOUND ( 'NONE', #293, .T. ) ;
#723 = EDGE_CURVE ( 'NONE', #1184, #1230, #875, .T. ) ;
#724 = LINE ( 'NONE', #1349, #900 ) ;
#725 = ADVANCED_FACE ( 'NONE', ( #1279 ), #774, .F. ) ;
#726 = ORIENTED_EDGE ( 'NONE', *, *, #1264, .T. ) ;
#727 = CYLINDRICAL_SURFACE ( 'NONE', #390, 2.499999999999993339 ) ;
#728 = ORIENTED_EDGE ( 'NONE', *, *, #414, .T. ) ;
#729 = DIRECTION ( 'NONE',  ( 1.000000000000000000, 0.000000000000000000, 0.000000000000000000 ) ) ;
#730 = CARTESIAN_POINT ( 'NONE',  ( -45.00000000000002842, 7.499999999999984013, -30.00000000000000000 ) ) ;
#731 = AXIS2_PLACEMENT_3D ( 'NONE', #656, #543, #1087 ) ;
#732 = AXIS2_PLACEMENT_3D ( 'NONE', #828, #508, #618 ) ;
#733 = VECTOR ( 'NONE', #500, 1000.000000000000000 ) ;
#734 = EDGE_LOOP ( 'NONE', ( #266, #242, #107, #1026 ) ) ;
#735 = CARTESIAN_POINT ( 'NONE',  ( 14.99999999999997158, 7.499999999999984013, -20.99999999999999645 ) ) ;
#736 = ORIENTED_EDGE ( 'NONE', *, *, #1152, .F. ) ;
#737 =( LENGTH_UNIT ( ) NAMED_UNIT ( * ) SI_UNIT ( .MILLI., .METRE. ) );
#738 = CARTESIAN_POINT ( 'NONE',  ( 42.49999999999998579, 7.499999999999984013, -30.00000000000000000 ) ) ;
#739 = ORIENTED_EDGE ( 'NONE', *, *, #1272, .F. ) ;
#740 = CONICAL_SURFACE ( 'NONE', #1200, 2.500000000000002220, 1.029744258676655200 ) ;
#741 = AXIS2_PLACEMENT_3D ( 'NONE', #999, #913, #1329 ) ;
#742 = DIRECTION ( 'NONE',  ( -0.8571673007021125557, 1.049727191138618942E-16, 0.5150380749100536004 ) ) ;
#743 = VERTEX_POINT ( 'NONE', #227 ) ;
#744 = PRESENTATION_STYLE_ASSIGNMENT (( #516 ) ) ;
#745 = ADVANCED_FACE ( 'NONE', ( #1078 ), #962, .F. ) ;
#746 = VERTEX_POINT ( 'NONE', #1165 ) ;
#747 = CARTESIAN_POINT ( 'NONE',  ( 12.49999999999997335, 7.499999999999984013, -20.99999999999999645 ) ) ;
#748 = ORIENTED_EDGE ( 'NONE', *, *, #307, .F. ) ;
#749 = CARTESIAN_POINT ( 'NONE',  ( 17.50000000000000711, 7.500000000000000000, 20.99999999999999645 ) ) ;
#750 = DIRECTION ( 'NONE',  ( -0.000000000000000000, -0.000000000000000000, -1.000000000000000000 ) ) ;
#751 = EDGE_CURVE ( 'NONE', #974, #920, #1295, .T. ) ;
#752 = ADVANCED_FACE ( 'NONE', ( #131 ), #1288, .F. ) ;
#753 = AXIS2_PLACEMENT_3D ( 'NONE', #105, #530, #1348 ) ;
#754 = CARTESIAN_POINT ( 'NONE',  ( -15.00000000000002665, 7.499999999999984013, -30.00000000000000000 ) ) ;
#755 = ORIENTED_EDGE ( 'NONE', *, *, #1085, .F. ) ;
#756 = CARTESIAN_POINT ( 'NONE',  ( 57.50000000000000711, 7.500000000000000000, 20.99999999999999645 ) ) ;
#757 = CARTESIAN_POINT ( 'NONE',  ( 23.74999999999998579, 0.000000000000000000, -1.331687700383580391E-14 ) ) ;
#758 = ORIENTED_EDGE ( 'NONE', *, *, #38, .F. ) ;
#759 = VECTOR ( 'NONE', #1314, 1000.000000000000000 ) ;
#760 = DIRECTION ( 'NONE',  ( 1.000000000000000000, 0.000000000000000000, -1.914177628664061896E-16 ) ) ;
#761 = DIRECTION ( 'NONE',  ( 1.000000000000000000, 0.000000000000000000, -3.828355257328129215E-16 ) ) ;
#762 = ORIENTED_EDGE ( 'NONE', *, *, #209, .T. ) ;
#763 = UNCERTAINTY_MEASURE_WITH_UNIT (LENGTH_MEASURE( 1.000000000000000082E-05 ), #1300, 'distance_accuracy_value', 'NONE');
#764 = EDGE_CURVE ( 'NONE', #184, #1213, #890, .T. ) ;
#765 = DIRECTION ( 'NONE',  ( -0.000000000000000000, -0.000000000000000000, -1.000000000000000000 ) ) ;
#766 = ORIENTED_EDGE ( 'NONE', *, *, #468, .T. ) ;
#767 = CIRCLE ( 'NONE', #1029, 17.49999999999999645 ) ;
#768 = CARTESIAN_POINT ( 'NONE',  ( -59.99999999999997868, 0.000000000000000000, 17.50000000000000000 ) ) ;
#769 = ORIENTED_EDGE ( 'NONE', *, *, #443, .T. ) ;
#770 = AXIS2_PLACEMENT_3D ( 'NONE', #1120, #997, #1304 ) ;
#771 = CARTESIAN_POINT ( 'NONE',  ( 23.74999999999998934, 0.000000000000000000, 17.50000000000000000 ) ) ;
#772 = CARTESIAN_POINT ( 'NONE',  ( 0.000000000000000000, 15.00000000000000000, 0.000000000000000000 ) ) ;
#773 = EDGE_LOOP ( 'NONE', ( #135, #1092, #413, #288 ) ) ;
#774 = CYLINDRICAL_SURFACE ( 'NONE', #1170, 2.499999999999988454 ) ;
#775 = EDGE_LOOP ( 'NONE', ( #762, #728, #568, #691 ) ) ;
#776 = PRODUCT_DEFINITION ( 'UNKNOWN', '', #15, #539 ) ;
#777 = LINE ( 'NONE', #557, #279 ) ;
#778 = ADVANCED_FACE ( 'NONE', ( #711 ), #1218, .F. ) ;
#779 = EDGE_LOOP ( 'NONE', ( #42, #604, #485, #144, #882, #911 ) ) ;
#780 = DIRECTION ( 'NONE',  ( -0.000000000000000000, -0.000000000000000000, -1.000000000000000000 ) ) ;
#781 = ORIENTED_EDGE ( 'NONE', *, *, #827, .F. ) ;
#782 = ORIENTED_EDGE ( 'NONE', *, *, #142, .F. ) ;
#783 = CARTESIAN_POINT ( 'NONE',  ( 44.99999999999997158, 7.499999999999984013, -30.00000000000000000 ) ) ;
#784 = SHAPE_DEFINITION_REPRESENTATION ( #154, #1273 ) ;
#785 = EDGE_CURVE ( 'NONE', #920, #431, #32, .T. ) ;
#786 = AXIS2_PLACEMENT_3D ( 'NONE', #631, #192, #1355 ) ;
#787 = FACE_BOUND ( 'NONE', #115, .T. ) ;
#788 = ORIENTED_EDGE ( 'NONE', *, *, #554, .T. ) ;
#789 = AXIS2_PLACEMENT_3D ( 'NONE', #811, #392, #995 ) ;
#790 = DIRECTION ( 'NONE',  ( -0.000000000000000000, -1.000000000000000000, -0.000000000000000000 ) ) ;
#791 = CONICAL_SURFACE ( 'NONE', #877, 2.500000000000002220, 1.029744258676655200 ) ;
#792 = ORIENTED_EDGE ( 'NONE', *, *, #699, .T. ) ;
#793 = VERTEX_POINT ( 'NONE', #686 ) ;
#794 = DIRECTION ( 'NONE',  ( -0.000000000000000000, -0.000000000000000000, -1.000000000000000000 ) ) ;
#795 = VERTEX_POINT ( 'NONE', #1097 ) ;
#796 = CLOSED_SHELL ( 'NONE', ( #569, #710, #878, #490, #725, #494, #661, #499, #601, #423, #1282, #301, #848, #1039, #1297, #1063, #1045, #824, #446, #676, #208, #1016, #410, #155, #268, #959, #752, #407, #1336, #745, #310, #245, #1086, #1258, #318, #946, #574, #36, #121, #980, #778, #65, #679, #1214, #905, #1212, #1226, #851 ) ) ;
#797 = LINE ( 'NONE', #1005, #1365 ) ;
#798 = DIRECTION ( 'NONE',  ( 1.000000000000000000, 0.000000000000000000, 0.000000000000000000 ) ) ;
#799 = CARTESIAN_POINT ( 'NONE',  ( -19.99999999999999289, 7.500000000000000000, 30.00000000000000000 ) ) ;
#800 = DIRECTION ( 'NONE',  ( -0.000000000000000000, 1.000000000000000000, -0.000000000000000000 ) ) ;
#801 = CONICAL_SURFACE ( 'NONE', #1037, 2.499999999999995115, 1.029744258676653867 ) ;
#802 = AXIS2_PLACEMENT_3D ( 'NONE', #700, #1306, #153 ) ;
#803 = CARTESIAN_POINT ( 'NONE',  ( -12.50000000000002842, 7.499999999999984013, -20.99999999999999645 ) ) ;
#804 = ORIENTED_EDGE ( 'NONE', *, *, #840, .F. ) ;
#805 = EDGE_CURVE ( 'NONE', #1082, #1303, #1340, .T. ) ;
#806 = CARTESIAN_POINT ( 'NONE',  ( -60.00000000000000000, 7.500000000000000000, 30.00000000000000000 ) ) ;
#807 = LINE ( 'NONE', #510, #863 ) ;
#808 = ORIENTED_EDGE ( 'NONE', *, *, #956, .F. ) ;
#809 = EDGE_CURVE ( 'NONE', #2, #524, #719, .T. ) ;
#810 = CARTESIAN_POINT ( 'NONE',  ( -42.50000000000002842, 7.499999999999984013, -20.99999999999999645 ) ) ;
#811 = CARTESIAN_POINT ( 'NONE',  ( -60.00000000000000000, 7.500000000000000000, 30.00000000000000000 ) ) ;
#812 = ORIENTED_EDGE ( 'NONE', *, *, #985, .T. ) ;
#813 = DIRECTION ( 'NONE',  ( -0.000000000000000000, -0.000000000000000000, 1.000000000000000000 ) ) ;
#814 = PRESENTATION_LAYER_ASSIGNMENT (  '', '', ( #1339 ) ) ;
#815 = DIRECTION ( 'NONE',  ( -0.8571673007021120005, 1.049727191138618326E-16, 0.5150380749100547106 ) ) ;
#816 = FACE_OUTER_BOUND ( 'NONE', #1098, .T. ) ;
#817 = VECTOR ( 'NONE', #412, 1000.000000000000000 ) ;
#818 = CIRCLE ( 'NONE', #961, 25.00000000000000000 ) ;
#819 = DIRECTION ( 'NONE',  ( -1.000000000000000000, 0.000000000000000000, 0.000000000000000000 ) ) ;
#820 = EDGE_LOOP ( 'NONE', ( #511, #98, #986, #1270 ) ) ;
#821 = CARTESIAN_POINT ( 'NONE',  ( -60.00000000000000000, 7.500000000000000000, 20.99999999999999645 ) ) ;
#822 = ORIENTED_EDGE ( 'NONE', *, *, #87, .T. ) ;
#823 = CARTESIAN_POINT ( 'NONE',  ( 23.74999999999998579, 0.000000000000000000, -17.50000000000000000 ) ) ;
#824 = ADVANCED_FACE ( 'NONE', ( #603, #787, #1017, #1103, #1330 ), #82, .F. ) ;
#825 = AXIS2_PLACEMENT_3D ( 'NONE', #1275, #1049, #1064 ) ;
#826 = VECTOR ( 'NONE', #1174, 1000.000000000000000 ) ;
#827 = EDGE_CURVE ( 'NONE', #544, #1216, #1191, .T. ) ;
#828 = CARTESIAN_POINT ( 'NONE',  ( 14.99999999999997158, 7.499999999999984013, -30.00000000000000000 ) ) ;
#829 = ORIENTED_EDGE ( 'NONE', *, *, #222, .T. ) ;
#830 = EDGE_LOOP ( 'NONE', ( #782, #182, #254, #943 ) ) ;
#831 = FILL_AREA_STYLE ('',( #405 ) ) ;
#832 = EDGE_LOOP ( 'NONE', ( #491, #298, #873, #345 ) ) ;
#833 = DIRECTION ( 'NONE',  ( -0.000000000000000000, -0.000000000000000000, -1.000000000000000000 ) ) ;
#834 = EDGE_LOOP ( 'NONE', ( #891, #571, #1126, #1056 ) ) ;
#835 = CARTESIAN_POINT ( 'NONE',  ( -45.00000000000002842, 7.499999999999984013, -20.99999999999999645 ) ) ;
#836 = DIRECTION ( 'NONE',  ( -1.000000000000000000, 0.000000000000000000, 0.000000000000000000 ) ) ;
#837 = AXIS2_PLACEMENT_3D ( 'NONE', #23, #1266, #1172 ) ;
#838 = AXIS2_PLACEMENT_3D ( 'NONE', #865, #37, #461 ) ;
#839 = ORIENTED_EDGE ( 'NONE', *, *, #1333, .F. ) ;
#840 = EDGE_CURVE ( 'NONE', #743, #896, #84, .T. ) ;
#841 = DIRECTION ( 'NONE',  ( -1.000000000000000000, 0.000000000000000000, 0.000000000000000000 ) ) ;
#842 = ORIENTED_EDGE ( 'NONE', *, *, #286, .F. ) ;
#843 = FACE_OUTER_BOUND ( 'NONE', #272, .T. ) ;
#844 = ORIENTED_EDGE ( 'NONE', *, *, #673, .T. ) ;
#845 = AXIS2_PLACEMENT_3D ( 'NONE', #160, #474, #1121 ) ;
#846 = LINE ( 'NONE', #294, #817 ) ;
#847 = ORIENTED_EDGE ( 'NONE', *, *, #809, .T. ) ;
#848 = ADVANCED_FACE ( 'NONE', ( #895 ), #577, .F. ) ;
#849 = FACE_BOUND ( 'NONE', #720, .T. ) ;
#850 = DIRECTION ( 'NONE',  ( -1.000000000000000000, 0.000000000000000000, 0.000000000000000000 ) ) ;
#851 = ADVANCED_FACE ( 'NONE', ( #46 ), #471, .F. ) ;
#852 = DIRECTION ( 'NONE',  ( 0.000000000000000000, 0.000000000000000000, 1.000000000000000000 ) ) ;
#853 = ORIENTED_EDGE ( 'NONE', *, *, #554, .F. ) ;
#854 = LINE ( 'NONE', #1262, #514 ) ;
#855 = AXIS2_PLACEMENT_3D ( 'NONE', #148, #382, #1001 ) ;
#856 = AXIS2_PLACEMENT_3D ( 'NONE', #1123, #258, #693 ) ;
#857 = CARTESIAN_POINT ( 'NONE',  ( 44.99999999999997158, 7.499999999999984013, -20.99999999999999645 ) ) ;
#858 = ORIENTED_EDGE ( 'NONE', *, *, #1140, .T. ) ;
#859 = PLANE ( 'NONE',  #885 ) ;
#860 = AXIS2_PLACEMENT_3D ( 'NONE', #783, #692, #1102 ) ;
#861 = FACE_OUTER_BOUND ( 'NONE', #1267, .T. ) ;
#862 = ORIENTED_EDGE ( 'NONE', *, *, #664, .F. ) ;
#863 = VECTOR ( 'NONE', #1013, 1000.000000000000000 ) ;
#864 = CIRCLE ( 'NONE', #260, 2.499999999999998668 ) ;
#865 = CARTESIAN_POINT ( 'NONE',  ( 0.000000000000000000, 0.000000000000000000, 0.000000000000000000 ) ) ;
#866 = CARTESIAN_POINT ( 'NONE',  ( -60.00000000000000000, 7.500000000000000000, 20.99999999999999645 ) ) ;
#867 = EDGE_LOOP ( 'NONE', ( #248, #239 ) ) ;
#868 = CARTESIAN_POINT ( 'NONE',  ( 44.99999999999997158, 7.499999999999984013, -30.00000000000000000 ) ) ;
#869 = EDGE_LOOP ( 'NONE', ( #28, #458, #1118 ) ) ;
#870 = DIRECTION ( 'NONE',  ( -0.000000000000000000, -0.000000000000000000, 1.000000000000000000 ) ) ;
#871 = DIRECTION ( 'NONE',  ( 0.000000000000000000, 0.000000000000000000, 1.000000000000000000 ) ) ;
#872 = CARTESIAN_POINT ( 'NONE',  ( -59.99999999999998579, 0.000000000000000000, -17.50000000000000000 ) ) ;
#873 = ORIENTED_EDGE ( 'NONE', *, *, #334, .T. ) ;
#874 = VECTOR ( 'NONE', #665, 1000.000000000000000 ) ;
#875 = LINE ( 'NONE', #16, #927 ) ;
#876 = ORIENTED_EDGE ( 'NONE', *, *, #941, .F. ) ;
#877 = AXIS2_PLACEMENT_3D ( 'NONE', #366, #264, #356 ) ;
#878 = ADVANCED_FACE ( 'NONE', ( #164 ), #261, .F. ) ;
#879 = DIRECTION ( 'NONE',  ( -0.000000000000000000, -0.000000000000000000, 1.000000000000000000 ) ) ;
#880 = DIRECTION ( 'NONE',  ( -0.000000000000000000, -0.000000000000000000, 1.000000000000000000 ) ) ;
#881 = EDGE_CURVE ( 'NONE', #963, #1184, #357, .T. ) ;
#882 = ORIENTED_EDGE ( 'NONE', *, *, #1301, .T. ) ;
#883 = CARTESIAN_POINT ( 'NONE',  ( -19.99999999999999289, 7.500000000000000000, 30.00000000000000000 ) ) ;
#884 = ORIENTED_EDGE ( 'NONE', *, *, #975, .F. ) ;
#885 = AXIS2_PLACEMENT_3D ( 'NONE', #772, #1153, #1164 ) ;
#886 = CARTESIAN_POINT ( 'NONE',  ( -19.99999999999999645, 7.500000000000000000, 19.49784845243109643 ) ) ;
#887 = CARTESIAN_POINT ( 'NONE',  ( 42.49999999999997868, 7.499999999999984013, -20.99999999999999645 ) ) ;
#888 = EDGE_CURVE ( 'NONE', #1082, #188, #897, .T. ) ;
#889 = CARTESIAN_POINT ( 'NONE',  ( 44.99999999999997158, 7.499999999999984013, -30.00000000000000000 ) ) ;
#890 = LINE ( 'NONE', #280, #1051 ) ;
#891 = ORIENTED_EDGE ( 'NONE', *, *, #1264, .F. ) ;
#892 = CARTESIAN_POINT ( 'NONE',  ( -60.00000000000000000, 7.500000000000000000, 20.99999999999999645 ) ) ;
#893 = ORIENTED_EDGE ( 'NONE', *, *, #707, .F. ) ;
#894 = CARTESIAN_POINT ( 'NONE',  ( -45.00000000000002842, 7.499999999999984013, -30.00000000000000000 ) ) ;
#895 = FACE_OUTER_BOUND ( 'NONE', #24, .T. ) ;
#896 = VERTEX_POINT ( 'NONE', #373 ) ;
#897 = CIRCLE ( 'NONE', #297, 2.500000000000002220 ) ;
#898 = LINE ( 'NONE', #48, #102 ) ;
#899 = CARTESIAN_POINT ( 'NONE',  ( -90.00000000000000000, 15.00000000000000000, -30.00000000000000000 ) ) ;
#900 = VECTOR ( 'NONE', #400, 1000.000000000000114 ) ;
#901 = VERTEX_POINT ( 'NONE', #803 ) ;
#902 = LINE ( 'NONE', #1316, #21 ) ;
#903 = LINE ( 'NONE', #583, #1034 ) ;
#904 = PRODUCT_CONTEXT ( 'NONE', #376, 'mechanical' ) ;
#905 = ADVANCED_FACE ( 'NONE', ( #1206 ), #1308, .F. ) ;
#906 = CARTESIAN_POINT ( 'NONE',  ( 60.00000000000001421, 7.500000000000000000, 20.99999999999999645 ) ) ;
#907 = ORIENTED_EDGE ( 'NONE', *, *, #286, .T. ) ;
#908 = EDGE_CURVE ( 'NONE', #418, #205, #1242, .T. ) ;
#909 = AXIS2_PLACEMENT_3D ( 'NONE', #320, #951, #551 ) ;
#910 = CARTESIAN_POINT ( 'NONE',  ( -59.99999999999998579, 0.000000000000000000, -17.50000000000000000 ) ) ;
#911 = ORIENTED_EDGE ( 'NONE', *, *, #1060, .T. ) ;
#912 = CARTESIAN_POINT ( 'NONE',  ( 23.74999999999998579, 15.00000000000000000, -17.50000000000000000 ) ) ;
#913 = DIRECTION ( 'NONE',  ( -0.000000000000000000, -0.000000000000000000, 1.000000000000000000 ) ) ;
#914 = CONICAL_SURFACE ( 'NONE', #602, 2.499999999999998668, 1.029744258676653867 ) ;
#915 = VECTOR ( 'NONE', #495, 1000.000000000000000 ) ;
#916 = CARTESIAN_POINT ( 'NONE',  ( -60.00000000000000000, 7.500000000000000000, 19.49784845243109643 ) ) ;
#917 = VERTEX_POINT ( 'NONE', #916 ) ;
#918 = DIRECTION ( 'NONE',  ( -0.000000000000000000, -0.000000000000000000, 1.000000000000000000 ) ) ;
#919 = DIRECTION ( 'NONE',  ( 0.000000000000000000, -1.000000000000000000, 0.000000000000000000 ) ) ;
#920 = VERTEX_POINT ( 'NONE', #1233 ) ;
#921 = DIRECTION ( 'NONE',  ( 1.000000000000000000, 0.000000000000000000, -0.000000000000000000 ) ) ;
#922 = ORIENTED_EDGE ( 'NONE', *, *, #1356, .T. ) ;
#923 = DIRECTION ( 'NONE',  ( -1.000000000000000000, -0.000000000000000000, -0.000000000000000000 ) ) ;
#924 = CARTESIAN_POINT ( 'NONE',  ( -12.50000000000003730, 7.499999999999984013, -30.00000000000000000 ) ) ;
#925 = DIRECTION ( 'NONE',  ( -0.000000000000000000, -0.000000000000000000, 1.000000000000000000 ) ) ;
#926 = EDGE_CURVE ( 'NONE', #1002, #1247, #479, .T. ) ;
#927 = VECTOR ( 'NONE', #1269, 1000.000000000000000 ) ;
#928 = DIRECTION ( 'NONE',  ( -0.000000000000000000, -0.000000000000000000, 1.000000000000000000 ) ) ;
#929 = AXIS2_PLACEMENT_3D ( 'NONE', #478, #278, #179 ) ;
#930 = LINE ( 'NONE', #187, #338 ) ;
#931 = ORIENTED_EDGE ( 'NONE', *, *, #533, .F. ) ;
#932 = CARTESIAN_POINT ( 'NONE',  ( -19.99999999999999289, 7.500000000000000000, 20.99999999999999645 ) ) ;
#933 = ORIENTED_EDGE ( 'NONE', *, *, #956, .T. ) ;
#934 = DIRECTION ( 'NONE',  ( 1.000000000000000000, 0.000000000000000000, 0.000000000000000000 ) ) ;
#935 = DIRECTION ( 'NONE',  ( -1.000000000000000000, 0.000000000000000000, 0.000000000000000000 ) ) ;
#936 = AXIS2_PLACEMENT_3D ( 'NONE', #608, #925, #1201 ) ;
#937 = EDGE_LOOP ( 'NONE', ( #1011, #596, #1046, #712 ) ) ;
#938 = CARTESIAN_POINT ( 'NONE',  ( 90.00000000000000000, 0.000000000000000000, 30.00000000000000000 ) ) ;
#939 = EDGE_CURVE ( 'NONE', #151, #635, #930, .T. ) ;
#940 = VERTEX_POINT ( 'NONE', #1032 ) ;
#941 = EDGE_CURVE ( 'NONE', #327, #1082, #724, .T. ) ;
#942 = CARTESIAN_POINT ( 'NONE',  ( 90.00000000000000000, 15.00000000000000000, 30.00000000000000000 ) ) ;
#943 = ORIENTED_EDGE ( 'NONE', *, *, #387, .F. ) ;
#944 = DIRECTION ( 'NONE',  ( -0.000000000000000000, -0.000000000000000000, 1.000000000000000000 ) ) ;
#945 = AXIS2_PLACEMENT_3D ( 'NONE', #489, #271, #701 ) ;
#946 = ADVANCED_FACE ( 'NONE', ( #1129 ), #1290, .F. ) ;
#947 = ORIENTED_EDGE ( 'NONE', *, *, #414, .F. ) ;
#948 = DIRECTION ( 'NONE',  ( -0.8571673007021120005, 0.000000000000000000, -0.5150380749100547106 ) ) ;
#949 = ORIENTED_EDGE ( 'NONE', *, *, #785, .F. ) ;
#950 = EDGE_CURVE ( 'NONE', #795, #940, #960, .T. ) ;
#951 = DIRECTION ( 'NONE',  ( -0.000000000000000000, -0.000000000000000000, -1.000000000000000000 ) ) ;
#952 = DIRECTION ( 'NONE',  ( 0.000000000000000000, 0.000000000000000000, 1.000000000000000000 ) ) ;
#953 = ORIENTED_EDGE ( 'NONE', *, *, #1298, .T. ) ;
#954 = DIRECTION ( 'NONE',  ( -1.000000000000000000, 0.000000000000000000, 0.000000000000000000 ) ) ;
#955 = ORIENTED_EDGE ( 'NONE', *, *, #106, .F. ) ;
#956 = EDGE_CURVE ( 'NONE', #974, #125, #335, .T. ) ;
#957 = FACE_OUTER_BOUND ( 'NONE', #820, .T. ) ;
#958 = ORIENTED_EDGE ( 'NONE', *, *, #20, .T. ) ;
#959 = ADVANCED_FACE ( 'NONE', ( #680 ), #126, .F. ) ;
#960 = CIRCLE ( 'NONE', #1007, 25.00000000000000000 ) ;
#961 = AXIS2_PLACEMENT_3D ( 'NONE', #721, #255, #1127 ) ;
#962 = PLANE ( 'NONE',  #589 ) ;
#963 = VERTEX_POINT ( 'NONE', #1163 ) ;
#964 = DIRECTION ( 'NONE',  ( 1.000000000000000000, 0.000000000000000000, 0.000000000000000000 ) ) ;
#965 = CIRCLE ( 'NONE', #1143, 2.499999999999988454 ) ;
#966 = CARTESIAN_POINT ( 'NONE',  ( -89.99999999999998579, 15.00000000000000000, 30.00000000000000000 ) ) ;
#967 = ORIENTED_EDGE ( 'NONE', *, *, #553, .F. ) ;
#968 = VECTOR ( 'NONE', #1083, 1000.000000000000000 ) ;
#969 = ORIENTED_EDGE ( 'NONE', *, *, #751, .F. ) ;
#970 = DIRECTION ( 'NONE',  ( -1.000000000000000000, 0.000000000000000000, 0.000000000000000000 ) ) ;
#971 = ORIENTED_EDGE ( 'NONE', *, *, #950, .T. ) ;
#972 = EDGE_CURVE ( 'NONE', #256, #1228, #225, .T. ) ;
#973 = DIRECTION ( 'NONE',  ( -1.000000000000000000, 0.000000000000000000, 0.000000000000000000 ) ) ;
#974 = VERTEX_POINT ( 'NONE', #1067 ) ;
#975 = EDGE_CURVE ( 'NONE', #195, #901, #777, .T. ) ;
#976 = DIRECTION ( 'NONE',  ( 0.8571673007021121116, 1.049727191138618449E-16, -0.5150380749100544886 ) ) ;
#977 = ORIENTED_EDGE ( 'NONE', *, *, #1185, .T. ) ;
#978 = DIRECTION ( 'NONE',  ( -0.000000000000000000, -0.000000000000000000, -1.000000000000000000 ) ) ;
#979 = VECTOR ( 'NONE', #948, 1000.000000000000000 ) ;
#980 = ADVANCED_FACE ( 'NONE', ( #438 ), #145, .T. ) ;
#981 = DIRECTION ( 'NONE',  ( -0.000000000000000000, 1.000000000000000000, -0.000000000000000000 ) ) ;
#982 = ORIENTED_EDGE ( 'NONE', *, *, #136, .F. ) ;
#983 = CIRCLE ( 'NONE', #567, 2.499999999999998668 ) ;
#984 = PLANE ( 'NONE',  #838 ) ;
#985 = EDGE_CURVE ( 'NONE', #896, #743, #456, .T. ) ;
#986 = ORIENTED_EDGE ( 'NONE', *, *, #654, .T. ) ;
#987 = DIRECTION ( 'NONE',  ( -1.000000000000000000, 0.000000000000000000, -0.000000000000000000 ) ) ;
#988 = ORIENTED_EDGE ( 'NONE', *, *, #89, .T. ) ;
#989 = DIRECTION ( 'NONE',  ( 0.000000000000000000, -1.000000000000000000, 0.000000000000000000 ) ) ;
#990 = AXIS2_PLACEMENT_3D ( 'NONE', #152, #582, #267 ) ;
#991 = ORIENTED_EDGE ( 'NONE', *, *, #161, .F. ) ;
#992 = DIRECTION ( 'NONE',  ( 2.312964634635742957E-16, 0.000000000000000000, 1.000000000000000000 ) ) ;
#993 = LINE ( 'NONE', #358, #626 ) ;
#994 = CYLINDRICAL_SURFACE ( 'NONE', #860, 2.499999999999988454 ) ;
#995 = DIRECTION ( 'NONE',  ( 1.000000000000000000, 0.000000000000000000, 0.000000000000000000 ) ) ;
#996 = ORIENTED_EDGE ( 'NONE', *, *, #1044, .T. ) ;
#997 = DIRECTION ( 'NONE',  ( -1.000000000000000000, 0.000000000000000000, 0.000000000000000000 ) ) ;
#998 = EDGE_LOOP ( 'NONE', ( #1211, #503, #1022 ) ) ;
#999 = CARTESIAN_POINT ( 'NONE',  ( -60.00000000000000000, 7.500000000000000000, 20.99999999999999645 ) ) ;
#1000 = EDGE_CURVE ( 'NONE', #195, #445, #118, .T. ) ;
#1001 = DIRECTION ( 'NONE',  ( 1.000000000000000000, 0.000000000000000000, 0.000000000000000000 ) ) ;
#1002 = VERTEX_POINT ( 'NONE', #572 ) ;
#1003 = DIRECTION ( 'NONE',  ( -0.000000000000000000, -0.000000000000000000, -1.000000000000000000 ) ) ;
#1004 = CIRCLE ( 'NONE', #455, 2.499999999999998668 ) ;
#1005 = CARTESIAN_POINT ( 'NONE',  ( -62.49999999999999289, 7.500000000000000000, 20.99999999999999645 ) ) ;
#1006 = FACE_OUTER_BOUND ( 'NONE', #379, .T. ) ;
#1007 = AXIS2_PLACEMENT_3D ( 'NONE', #659, #1072, #672 ) ;
#1008 = AXIS2_PLACEMENT_3D ( 'NONE', #623, #750, #836 ) ;
#1009 = DIRECTION ( 'NONE',  ( -0.000000000000000000, -0.000000000000000000, -1.000000000000000000 ) ) ;
#1010 = DIRECTION ( 'NONE',  ( 1.000000000000000000, 0.000000000000000000, 0.000000000000000000 ) ) ;
#1011 = ORIENTED_EDGE ( 'NONE', *, *, #1141, .T. ) ;
#1012 = CARTESIAN_POINT ( 'NONE',  ( -59.99999999999998579, 0.000000000000000000, -17.50000000000000000 ) ) ;
#1013 = DIRECTION ( 'NONE',  ( -0.000000000000000000, -0.000000000000000000, -1.000000000000000000 ) ) ;
#1014 = CARTESIAN_POINT ( 'NONE',  ( -90.00000000000000000, 15.00000000000000000, -4.999999999999993783 ) ) ;
#1015 = CIRCLE ( 'NONE', #990, 2.499999999999988454 ) ;
#1016 = ADVANCED_FACE ( 'NONE', ( #546, #433, #564 ), #984, .F. ) ;
#1017 = FACE_BOUND ( 'NONE', #1280, .T. ) ;
#1018 = VERTEX_POINT ( 'NONE', #886 ) ;
#1019 = CARTESIAN_POINT ( 'NONE',  ( 23.74999999999998579, 0.000000000000000000, -17.50000000000000000 ) ) ;
#1020 = CARTESIAN_POINT ( 'NONE',  ( -57.50000000000000711, 7.500000000000000000, 30.00000000000000000 ) ) ;
#1021 = CARTESIAN_POINT ( 'NONE',  ( 60.00000000000001421, 0.000000000000000000, -17.50000000000000000 ) ) ;
#1022 = ORIENTED_EDGE ( 'NONE', *, *, #238, .T. ) ;
#1023 = PLANE ( 'NONE',  #1038 ) ;
#1024 =( NAMED_UNIT ( * ) PLANE_ANGLE_UNIT ( ) SI_UNIT ( $, .RADIAN. ) );
#1025 = CARTESIAN_POINT ( 'NONE',  ( -89.99999999999998579, 0.000000000000000000, 30.00000000000000000 ) ) ;
#1026 = ORIENTED_EDGE ( 'NONE', *, *, #621, .T. ) ;
#1027 = EDGE_CURVE ( 'NONE', #1216, #1352, #232, .T. ) ;
#1028 = VERTEX_POINT ( 'NONE', #175 ) ;
#1029 = AXIS2_PLACEMENT_3D ( 'NONE', #1157, #1255, #852 ) ;
#1030 = DIRECTION ( 'NONE',  ( 0.000000000000000000, 1.000000000000000000, 0.000000000000000000 ) ) ;
#1031 =( GEOMETRIC_REPRESENTATION_CONTEXT ( 3 ) GLOBAL_UNCERTAINTY_ASSIGNED_CONTEXT ( ( #763 ) ) GLOBAL_UNIT_ASSIGNED_CONTEXT ( ( #1300, #1024, #1225 ) ) REPRESENTATION_CONTEXT ( 'NONE', 'WORKASPACE' ) );
#1032 = CARTESIAN_POINT ( 'NONE',  ( 90.00000000000000000, 0.000000000000000000, -5.000000000000000888 ) ) ;
#1033 = VERTEX_POINT ( 'NONE', #167 ) ;
#1034 = VECTOR ( 'NONE', #1009, 1000.000000000000000 ) ;
#1035 = LINE ( 'NONE', #1150, #1154 ) ;
#1036 = CARTESIAN_POINT ( 'NONE',  ( -23.75000000000000000, 0.000000000000000000, -17.49999999999999645 ) ) ;
#1037 = AXIS2_PLACEMENT_3D ( 'NONE', #275, #1138, #1249 ) ;
#1038 = AXIS2_PLACEMENT_3D ( 'NONE', #823, #79, #1134 ) ;
#1039 = ADVANCED_FACE ( 'NONE', ( #385 ), #591, .F. ) ;
#1040 = ORIENTED_EDGE ( 'NONE', *, *, #1327, .F. ) ;
#1041 = CARTESIAN_POINT ( 'NONE',  ( 47.49999999999995737, 7.499999999999984013, -30.00000000000000000 ) ) ;
#1042 = ORIENTED_EDGE ( 'NONE', *, *, #134, .F. ) ;
#1043 = DIRECTION ( 'NONE',  ( -1.000000000000000000, 0.000000000000000000, 0.000000000000000000 ) ) ;
#1044 = EDGE_CURVE ( 'NONE', #917, #667, #797, .T. ) ;
#1045 = ADVANCED_FACE ( 'NONE', ( #714 ), #1112, .F. ) ;
#1046 = ORIENTED_EDGE ( 'NONE', *, *, #723, .T. ) ;
#1047 = LINE ( 'NONE', #527, #979 ) ;
#1048 = ORIENTED_EDGE ( 'NONE', *, *, #504, .F. ) ;
#1049 = DIRECTION ( 'NONE',  ( -0.000000000000000000, -0.000000000000000000, -1.000000000000000000 ) ) ;
#1050 = CYLINDRICAL_SURFACE ( 'NONE', #753, 2.499999999999988454 ) ;
#1051 = VECTOR ( 'NONE', #1302, 1000.000000000000000 ) ;
#1052 = AXIS2_PLACEMENT_3D ( 'NONE', #453, #879, #1274 ) ;
#1053 = VECTOR ( 'NONE', #522, 1000.000000000000000 ) ;
#1054 = ORIENTED_EDGE ( 'NONE', *, *, #1000, .F. ) ;
#1055 = CARTESIAN_POINT ( 'NONE',  ( -17.50000000000000000, 7.500000000000000000, 30.00000000000000000 ) ) ;
#1056 = ORIENTED_EDGE ( 'NONE', *, *, #428, .F. ) ;
#1057 = CARTESIAN_POINT ( 'NONE',  ( -57.50000000000000000, 7.500000000000000000, 20.99999999999999645 ) ) ;
#1058 = CARTESIAN_POINT ( 'NONE',  ( 44.99999999999997158, 7.499999999999984013, -20.99999999999999645 ) ) ;
#1059 = VECTOR ( 'NONE', #13, 1000.000000000000000 ) ;
#1060 = EDGE_CURVE ( 'NONE', #1173, #544, #1221, .T. ) ;
#1061 = LINE ( 'NONE', #91, #565 ) ;
#1062 = ORIENTED_EDGE ( 'NONE', *, *, #1189, .F. ) ;
#1063 = ADVANCED_FACE ( 'NONE', ( #150 ), #791, .F. ) ;
#1064 = DIRECTION ( 'NONE',  ( -1.000000000000000000, 0.000000000000000000, 0.000000000000000000 ) ) ;
#1065 = CARTESIAN_POINT ( 'NONE',  ( 65.00000000000000000, 15.00000000000000000, -30.00000000000000000 ) ) ;
#1066 = ORIENTED_EDGE ( 'NONE', *, *, #1156, .T. ) ;
#1067 = CARTESIAN_POINT ( 'NONE',  ( 23.74999999999998934, 0.000000000000000000, 17.50000000000000000 ) ) ;
#1068 = CARTESIAN_POINT ( 'NONE',  ( 90.00000000000000000, 0.000000000000000000, -30.00000000000000000 ) ) ;
#1069 = AXIS2_PLACEMENT_3D ( 'NONE', #29, #989, #229 ) ;
#1070 = CARTESIAN_POINT ( 'NONE',  ( -90.00000000000000000, 0.000000000000000000, -4.999999999999993783 ) ) ;
#1071 = ORIENTED_EDGE ( 'NONE', *, *, #363, .F. ) ;
#1072 = DIRECTION ( 'NONE',  ( -0.000000000000000000, -1.000000000000000000, -0.000000000000000000 ) ) ;
#1073 = CYLINDRICAL_SURFACE ( 'NONE', #1354, 17.49999999999999645 ) ;
#1074 = EDGE_CURVE ( 'NONE', #1137, #1310, #545, .T. ) ;
#1075 = VECTOR ( 'NONE', #1317, 1000.000000000000000 ) ;
#1076 = ORIENTED_EDGE ( 'NONE', *, *, #348, .F. ) ;
#1077 = EDGE_CURVE ( 'NONE', #1352, #678, #898, .T. ) ;
#1078 = FACE_OUTER_BOUND ( 'NONE', #157, .T. ) ;
#1079 = ORIENTED_EDGE ( 'NONE', *, *, #1176, .F. ) ;
#1080 = VECTOR ( 'NONE', #1232, 1000.000000000000000 ) ;
#1081 = DIRECTION ( 'NONE',  ( 1.914177628664061896E-16, 0.000000000000000000, 1.000000000000000000 ) ) ;
#1082 = VERTEX_POINT ( 'NONE', #283 ) ;
#1083 = DIRECTION ( 'NONE',  ( -0.000000000000000000, 1.000000000000000000, -0.000000000000000000 ) ) ;
#1084 = ORIENTED_EDGE ( 'NONE', *, *, #1185, .F. ) ;
#1085 = EDGE_CURVE ( 'NONE', #203, #2, #1219, .T. ) ;
#1086 = ADVANCED_FACE ( 'NONE', ( #1105 ), #641, .F. ) ;
#1087 = DIRECTION ( 'NONE',  ( -1.000000000000000000, 0.000000000000000000, 0.000000000000000000 ) ) ;
#1088 = ORIENTED_EDGE ( 'NONE', *, *, #673, .F. ) ;
#1089 = CARTESIAN_POINT ( 'NONE',  ( -23.75000000000000000, 0.000000000000000000, -17.49999999999999645 ) ) ;
#1090 = VECTOR ( 'NONE', #354, 1000.000000000000000 ) ;
#1091 = CARTESIAN_POINT ( 'NONE',  ( 42.49999999999997868, 7.499999999999984013, -20.99999999999999645 ) ) ;
#1092 = ORIENTED_EDGE ( 'NONE', *, *, #123, .F. ) ;
#1093 = VECTOR ( 'NONE', #493, 1000.000000000000000 ) ;
#1094 = CARTESIAN_POINT ( 'NONE',  ( -22.49999999999998934, 7.500000000000000000, 30.00000000000000000 ) ) ;
#1095 = LINE ( 'NONE', #487, #130 ) ;
#1096 = APPLICATION_PROTOCOL_DEFINITION ( 'draft international standard', 'automotive_design', 1998, #376 ) ;
#1097 = CARTESIAN_POINT ( 'NONE',  ( 64.99999999999994316, 0.000000000000000000, -30.00000000000000000 ) ) ;
#1098 = EDGE_LOOP ( 'NONE', ( #1198, #858, #437 ) ) ;
#1099 = DIRECTION ( 'NONE',  ( 0.000000000000000000, 0.000000000000000000, 1.000000000000000000 ) ) ;
#1100 = VECTOR ( 'NONE', #833, 1000.000000000000000 ) ;
#1101 = DIRECTION ( 'NONE',  ( 0.8571673007021120005, 1.049727191138618326E-16, -0.5150380749100547106 ) ) ;
#1102 = DIRECTION ( 'NONE',  ( -1.000000000000000000, 0.000000000000000000, 0.000000000000000000 ) ) ;
#1103 = FACE_BOUND ( 'NONE', #74, .T. ) ;
#1104 = ORIENTED_EDGE ( 'NONE', *, *, #764, .T. ) ;
#1105 = FACE_OUTER_BOUND ( 'NONE', #481, .T. ) ;
#1106 = DIRECTION ( 'NONE',  ( -0.000000000000000000, -0.000000000000000000, -1.000000000000000000 ) ) ;
#1107 = CARTESIAN_POINT ( 'NONE',  ( -90.00000000000000000, 0.000000000000000000, -30.00000000000000000 ) ) ;
#1108 = DIRECTION ( 'NONE',  ( 0.000000000000000000, 0.000000000000000000, 1.000000000000000000 ) ) ;
#1109 = CARTESIAN_POINT ( 'NONE',  ( 20.00000000000000711, 7.500000000000000000, 20.99999999999999645 ) ) ;
#1110 = ORIENTED_EDGE ( 'NONE', *, *, #202, .F. ) ;
#1111 = CARTESIAN_POINT ( 'NONE',  ( -42.50000000000003553, 7.499999999999984013, -30.00000000000000000 ) ) ;
#1112 = PLANE ( 'NONE',  #770 ) ;
#1113 = AXIS2_PLACEMENT_3D ( 'NONE', #1199, #473, #587 ) ;
#1114 = CIRCLE ( 'NONE', #86, 2.499999999999995115 ) ;
#1115 = CYLINDRICAL_SURFACE ( 'NONE', #370, 2.499999999999995115 ) ;
#1116 = EDGE_CURVE ( 'NONE', #917, #212, #466, .T. ) ;
#1117 = DIRECTION ( 'NONE',  ( 0.000000000000000000, 1.000000000000000000, 0.000000000000000000 ) ) ;
#1118 = ORIENTED_EDGE ( 'NONE', *, *, #533, .T. ) ;
#1119 = DIRECTION ( 'NONE',  ( -0.000000000000000000, -0.000000000000000000, 1.000000000000000000 ) ) ;
#1120 = CARTESIAN_POINT ( 'NONE',  ( 90.00000000000000000, 15.00000000000000000, -30.00000000000000000 ) ) ;
#1121 = DIRECTION ( 'NONE',  ( 0.000000000000000000, 0.000000000000000000, 1.000000000000000000 ) ) ;
#1122 = VERTEX_POINT ( 'NONE', #579 ) ;
#1123 = CARTESIAN_POINT ( 'NONE',  ( 14.99999999999997158, 7.499999999999984013, -30.00000000000000000 ) ) ;
#1124 = EDGE_CURVE ( 'NONE', #963, #323, #482, .T. ) ;
#1125 = DIRECTION ( 'NONE',  ( 0.000000000000000000, 1.000000000000000000, 0.000000000000000000 ) ) ;
#1126 = ORIENTED_EDGE ( 'NONE', *, *, #38, .T. ) ;
#1127 = DIRECTION ( 'NONE',  ( 0.000000000000000000, 0.000000000000000000, 1.000000000000000000 ) ) ;
#1128 = LINE ( 'NONE', #185, #1080 ) ;
#1129 = FACE_OUTER_BOUND ( 'NONE', #340, .T. ) ;
#1130 = ORIENTED_EDGE ( 'NONE', *, *, #1238, .F. ) ;
#1131 = DIRECTION ( 'NONE',  ( -0.000000000000000000, -0.000000000000000000, -1.000000000000000000 ) ) ;
#1132 = AXIS2_PLACEMENT_3D ( 'NONE', #883, #247, #241 ) ;
#1133 = AXIS2_PLACEMENT_3D ( 'NONE', #328, #1167, #1099 ) ;
#1134 = DIRECTION ( 'NONE',  ( -1.000000000000000000, 0.000000000000000000, -0.000000000000000000 ) ) ;
#1135 = DIRECTION ( 'NONE',  ( -0.000000000000000000, -0.000000000000000000, -1.000000000000000000 ) ) ;
#1136 = CONICAL_SURFACE ( 'NONE', #1008, 2.499999999999998668, 1.029744258676654090 ) ;
#1137 = VERTEX_POINT ( 'NONE', #1020 ) ;
#1138 = DIRECTION ( 'NONE',  ( -0.000000000000000000, -0.000000000000000000, -1.000000000000000000 ) ) ;
#1139 = EDGE_LOOP ( 'NONE', ( #853, #165, #558, #682 ) ) ;
#1140 = EDGE_CURVE ( 'NONE', #1018, #256, #290, .T. ) ;
#1141 = EDGE_CURVE ( 'NONE', #128, #963, #377, .T. ) ;
#1142 = AXIS2_PLACEMENT_3D ( 'NONE', #899, #284, #1210 ) ;
#1143 = AXIS2_PLACEMENT_3D ( 'NONE', #894, #141, #1187 ) ;
#1144 = ORIENTED_EDGE ( 'NONE', *, *, #1152, .T. ) ;
#1145 = CYLINDRICAL_SURFACE ( 'NONE', #213, 2.499999999999995115 ) ;
#1146 = ORIENTED_EDGE ( 'NONE', *, *, #654, .F. ) ;
#1147 = CARTESIAN_POINT ( 'NONE',  ( -23.75000000000000000, 15.00000000000000000, -3.827021247335477324E-15 ) ) ;
#1148 = ORIENTED_EDGE ( 'NONE', *, *, #1074, .T. ) ;
#1149 = CIRCLE ( 'NONE', #501, 2.499999999999995115 ) ;
#1150 = CARTESIAN_POINT ( 'NONE',  ( 60.00000000000001421, 0.000000000000000000, -17.50000000000000000 ) ) ;
#1151 = ORIENTED_EDGE ( 'NONE', *, *, #209, .F. ) ;
#1152 = EDGE_CURVE ( 'NONE', #1310, #1137, #594, .T. ) ;
#1153 = DIRECTION ( 'NONE',  ( 0.000000000000000000, 1.000000000000000000, 0.000000000000000000 ) ) ;
#1154 = VECTOR ( 'NONE', #211, 1000.000000000000000 ) ;
#1155 = AXIS2_PLACEMENT_3D ( 'NONE', #821, #159, #1194 ) ;
#1156 = EDGE_CURVE ( 'NONE', #250, #323, #69, .T. ) ;
#1157 = CARTESIAN_POINT ( 'NONE',  ( 60.00000000000001421, 15.00000000000000000, -3.827021247335481268E-15 ) ) ;
#1158 = ORIENTED_EDGE ( 'NONE', *, *, #68, .F. ) ;
#1159 = FACE_OUTER_BOUND ( 'NONE', #779, .T. ) ;
#1160 = CIRCLE ( 'NONE', #936, 2.499999999999988454 ) ;
#1161 = CARTESIAN_POINT ( 'NONE',  ( -45.00000000000002842, 7.499999999999984013, -19.49784845243109643 ) ) ;
#1162 = ORIENTED_EDGE ( 'NONE', *, *, #1085, .T. ) ;
#1163 = CARTESIAN_POINT ( 'NONE',  ( -59.99999999999998579, 0.000000000000000000, -17.50000000000000000 ) ) ;
#1164 = DIRECTION ( 'NONE',  ( 0.000000000000000000, -0.000000000000000000, 1.000000000000000000 ) ) ;
#1165 = CARTESIAN_POINT ( 'NONE',  ( 60.00000000000001421, 15.00000000000000000, -17.50000000000000000 ) ) ;
#1166 = VERTEX_POINT ( 'NONE', #924 ) ;
#1167 = DIRECTION ( 'NONE',  ( 0.000000000000000000, 1.000000000000000000, 0.000000000000000000 ) ) ;
#1168 = CARTESIAN_POINT ( 'NONE',  ( 60.00000000000002132, 0.000000000000000000, 17.49999999999999645 ) ) ;
#1169 = ORIENTED_EDGE ( 'NONE', *, *, #142, .T. ) ;
#1170 = AXIS2_PLACEMENT_3D ( 'NONE', #332, #780, #326 ) ;
#1171 = AXIS2_PLACEMENT_3D ( 'NONE', #771, #1081, #760 ) ;
#1172 = DIRECTION ( 'NONE',  ( -1.000000000000000000, 0.000000000000000000, 0.000000000000000000 ) ) ;
#1173 = VERTEX_POINT ( 'NONE', #1229 ) ;
#1174 = DIRECTION ( 'NONE',  ( -1.000000000000000000, -0.000000000000000000, -0.000000000000000000 ) ) ;
#1175 = ORIENTED_EDGE ( 'NONE', *, *, #621, .F. ) ;
#1176 = EDGE_CURVE ( 'NONE', #678, #276, #818, .T. ) ;
#1177 = LINE ( 'NONE', #1091, #230 ) ;
#1178 = ORIENTED_EDGE ( 'NONE', *, *, #1369, .F. ) ;
#1179 = VECTOR ( 'NONE', #588, 1000.000000000000000 ) ;
#1180 = CARTESIAN_POINT ( 'NONE',  ( -17.50000000000002487, 7.499999999999984013, -20.99999999999999645 ) ) ;
#1181 = CARTESIAN_POINT ( 'NONE',  ( 60.00000000000001421, 7.500000000000000000, 19.49784845243109643 ) ) ;
#1182 = DIRECTION ( 'NONE',  ( 2.312964634635742957E-16, 0.000000000000000000, 1.000000000000000000 ) ) ;
#1183 = DIRECTION ( 'NONE',  ( 3.828355257328129215E-16, 0.000000000000000000, 1.000000000000000000 ) ) ;
#1184 = VERTEX_POINT ( 'NONE', #183 ) ;
#1185 = EDGE_CURVE ( 'NONE', #793, #19, #614, .T. ) ;
#1186 = DIRECTION ( 'NONE',  ( -0.000000000000000000, -0.000000000000000000, 1.000000000000000000 ) ) ;
#1187 = DIRECTION ( 'NONE',  ( -1.000000000000000000, 0.000000000000000000, 0.000000000000000000 ) ) ;
#1188 = AXIS2_PLACEMENT_3D ( 'NONE', #93, #928, #934 ) ;
#1189 = EDGE_CURVE ( 'NONE', #1213, #250, #319, .T. ) ;
#1190 = VECTOR ( 'NONE', #742, 1000.000000000000114 ) ;
#1191 = LINE ( 'NONE', #253, #681 ) ;
#1192 = EDGE_LOOP ( 'NONE', ( #1042, #132, #1169 ) ) ;
#1193 = AXIS2_PLACEMENT_3D ( 'NONE', #1338, #1108, #505 ) ;
#1194 = DIRECTION ( 'NONE',  ( 1.000000000000000000, 0.000000000000000000, 0.000000000000000000 ) ) ;
#1195 = DIRECTION ( 'NONE',  ( 1.000000000000000000, 0.000000000000000000, 0.000000000000000000 ) ) ;
#1196 = EDGE_LOOP ( 'NONE', ( #401, #804 ) ) ;
#1197 = DIRECTION ( 'NONE',  ( 0.000000000000000000, 0.000000000000000000, 1.000000000000000000 ) ) ;
#1198 = ORIENTED_EDGE ( 'NONE', *, *, #22, .F. ) ;
#1199 = CARTESIAN_POINT ( 'NONE',  ( 65.00000000000000000, 15.00000000000000000, -5.000000000000000888 ) ) ;
#1200 = AXIS2_PLACEMENT_3D ( 'NONE', #559, #880, #1195 ) ;
#1201 = DIRECTION ( 'NONE',  ( 1.000000000000000000, 0.000000000000000000, 0.000000000000000000 ) ) ;
#1202 = EDGE_LOOP ( 'NONE', ( #313, #462, #61, #643 ) ) ;
#1203 = LINE ( 'NONE', #380, #70 ) ;
#1204 = DIRECTION ( 'NONE',  ( -0.000000000000000000, -0.000000000000000000, 1.000000000000000000 ) ) ;
#1205 = CARTESIAN_POINT ( 'NONE',  ( -19.99999999999999289, 7.500000000000000000, 30.00000000000000000 ) ) ;
#1206 = FACE_OUTER_BOUND ( 'NONE', #1239, .T. ) ;
#1207 = ORIENTED_EDGE ( 'NONE', *, *, #1176, .T. ) ;
#1208 = LINE ( 'NONE', #1111, #709 ) ;
#1209 = DIRECTION ( 'NONE',  ( -0.000000000000000000, -0.000000000000000000, 1.000000000000000000 ) ) ;
#1210 = DIRECTION ( 'NONE',  ( -2.312964634635742957E-16, 0.000000000000000000, -1.000000000000000000 ) ) ;
#1211 = ORIENTED_EDGE ( 'NONE', *, *, #606, .F. ) ;
#1212 = ADVANCED_FACE ( 'NONE', ( #291 ), #193, .F. ) ;
#1213 = VERTEX_POINT ( 'NONE', #216 ) ;
#1214 = ADVANCED_FACE ( 'NONE', ( #296 ), #207, .F. ) ;
#1215 = CARTESIAN_POINT ( 'NONE',  ( -90.00000000000000000, 15.00000000000000000, -30.00000000000000000 ) ) ;
#1216 = VERTEX_POINT ( 'NONE', #1259 ) ;
#1217 = DIRECTION ( 'NONE',  ( -1.000000000000000000, 0.000000000000000000, 0.000000000000000000 ) ) ;
#1218 = CONICAL_SURFACE ( 'NONE', #639, 2.499999999999995115, 1.029744258676653867 ) ;
#1219 = LINE ( 'NONE', #1322, #361 ) ;
#1220 = CARTESIAN_POINT ( 'NONE',  ( -17.50000000000002487, 7.499999999999984013, -20.99999999999999645 ) ) ;
#1221 = CIRCLE ( 'NONE', #1113, 25.00000000000000000 ) ;
#1222 = ORIENTED_EDGE ( 'NONE', *, *, #1124, .T. ) ;
#1223 = VECTOR ( 'NONE', #76, 1000.000000000000000 ) ;
#1224 = DIRECTION ( 'NONE',  ( -1.000000000000000000, 0.000000000000000000, 0.000000000000000000 ) ) ;
#1225 =( NAMED_UNIT ( * ) SI_UNIT ( $, .STERADIAN. ) SOLID_ANGLE_UNIT ( ) );
#1226 = ADVANCED_FACE ( 'NONE', ( #1360 ), #1136, .F. ) ;
#1227 = CARTESIAN_POINT ( 'NONE',  ( -59.99999999999998579, 0.000000000000000000, 4.089868909768884495E-16 ) ) ;
#1228 = VERTEX_POINT ( 'NONE', #302 ) ;
#1229 = CARTESIAN_POINT ( 'NONE',  ( 90.00000000000000000, 15.00000000000000000, -5.000000000000000888 ) ) ;
#1230 = VERTEX_POINT ( 'NONE', #399 ) ;
#1231 = AXIS2_PLACEMENT_3D ( 'NONE', #872, #580, #599 ) ;
#1232 = DIRECTION ( 'NONE',  ( -0.000000000000000000, -0.000000000000000000, -1.000000000000000000 ) ) ;
#1233 = CARTESIAN_POINT ( 'NONE',  ( 60.00000000000002132, 0.000000000000000000, 17.49999999999999645 ) ) ;
#1234 = EDGE_LOOP ( 'NONE', ( #469, #56, #781, #393 ) ) ;
#1235 = CARTESIAN_POINT ( 'NONE',  ( 90.00000000000000000, 15.00000000000000000, -5.000000000000000888 ) ) ;
#1236 = SURFACE_STYLE_FILL_AREA ( #831 ) ;
#1237 = DIRECTION ( 'NONE',  ( -0.000000000000000000, -0.000000000000000000, -1.000000000000000000 ) ) ;
#1238 = EDGE_CURVE ( 'NONE', #538, #524, #97, .T. ) ;
#1239 = EDGE_LOOP ( 'NONE', ( #884, #285, #1350 ) ) ;
#1240 = CARTESIAN_POINT ( 'NONE',  ( 57.50000000000000711, 7.500000000000000000, 20.99999999999999645 ) ) ;
#1241 = ORIENTED_EDGE ( 'NONE', *, *, #1124, .F. ) ;
#1242 = CIRCLE ( 'NONE', #1286, 2.499999999999998668 ) ;
#1243 = AXIS2_PLACEMENT_3D ( 'NONE', #243, #870, #1281 ) ;
#1244 = CARTESIAN_POINT ( 'NONE',  ( 23.74999999999998934, 15.00000000000000000, 17.50000000000000000 ) ) ;
#1245 = CARTESIAN_POINT ( 'NONE',  ( 17.49999999999996092, 7.499999999999984013, -30.00000000000000000 ) ) ;
#1246 = VECTOR ( 'NONE', #704, 1000.000000000000000 ) ;
#1247 = VERTEX_POINT ( 'NONE', #1245 ) ;
#1248 = VECTOR ( 'NONE', #329, 1000.000000000000000 ) ;
#1249 = DIRECTION ( 'NONE',  ( -1.000000000000000000, 0.000000000000000000, 0.000000000000000000 ) ) ;
#1250 = VERTEX_POINT ( 'NONE', #738 ) ;
#1251 = CARTESIAN_POINT ( 'NONE',  ( -17.49999999999999645, 7.500000000000000000, 20.99999999999999645 ) ) ;
#1252 = AXIS2_PLACEMENT_3D ( 'NONE', #512, #1030, #388 ) ;
#1253 = ORIENTED_EDGE ( 'NONE', *, *, #1278, .T. ) ;
#1254 = EDGE_CURVE ( 'NONE', #256, #151, #983, .T. ) ;
#1255 = DIRECTION ( 'NONE',  ( 0.000000000000000000, 1.000000000000000000, 0.000000000000000000 ) ) ;
#1256 = ORIENTED_EDGE ( 'NONE', *, *, #54, .T. ) ;
#1257 = LINE ( 'NONE', #1168, #1059 ) ;
#1258 = ADVANCED_FACE ( 'NONE', ( #416 ), #1050, .F. ) ;
#1259 = CARTESIAN_POINT ( 'NONE',  ( -65.00000000000000000, 15.00000000000000000, -30.00000000000000000 ) ) ;
#1260 = CARTESIAN_POINT ( 'NONE',  ( 60.00000000000002132, 15.00000000000000000, 17.49999999999999645 ) ) ;
#1261 = EDGE_LOOP ( 'NONE', ( #1299, #669, #1341 ) ) ;
#1262 = CARTESIAN_POINT ( 'NONE',  ( -42.50000000000002842, 7.499999999999984013, -20.99999999999999645 ) ) ;
#1263 = CONICAL_SURFACE ( 'NONE', #14, 2.499999999999998668, 1.029744258676653867 ) ;
#1264 = EDGE_CURVE ( 'NONE', #19, #316, #362, .T. ) ;
#1265 = AXIS2_PLACEMENT_3D ( 'NONE', #1205, #496, #718 ) ;
#1266 = DIRECTION ( 'NONE',  ( -0.000000000000000000, -0.000000000000000000, -1.000000000000000000 ) ) ;
#1267 = EDGE_LOOP ( 'NONE', ( #847, #1130, #581, #1162 ) ) ;
#1268 = CIRCLE ( 'NONE', #372, 2.500000000000002220 ) ;
#1269 = DIRECTION ( 'NONE',  ( 1.000000000000000000, 0.000000000000000000, -3.828355257328129215E-16 ) ) ;
#1270 = ORIENTED_EDGE ( 'NONE', *, *, #939, .F. ) ;
#1271 = UNCERTAINTY_MEASURE_WITH_UNIT (LENGTH_MEASURE( 1.000000000000000082E-05 ), #737, 'distance_accuracy_value', 'NONE');
#1272 = EDGE_CURVE ( 'NONE', #316, #19, #1114, .T. ) ;
#1273 = ADVANCED_BREP_SHAPE_REPRESENTATION ( 'Horizontal Bracket', ( #168, #1193 ), #1031 ) ;
#1274 = DIRECTION ( 'NONE',  ( 1.000000000000000000, 0.000000000000000000, 0.000000000000000000 ) ) ;
#1275 = CARTESIAN_POINT ( 'NONE',  ( 44.99999999999997158, 7.499999999999984013, -30.00000000000000000 ) ) ;
#1276 = DIRECTION ( 'NONE',  ( -0.000000000000000000, 1.000000000000000000, -0.000000000000000000 ) ) ;
#1277 = VERTEX_POINT ( 'NONE', #597 ) ;
#1278 = EDGE_CURVE ( 'NONE', #667, #1310, #492, .T. ) ;
#1279 = FACE_OUTER_BOUND ( 'NONE', #100, .T. ) ;
#1280 = EDGE_LOOP ( 'NONE', ( #1361, #420 ) ) ;
#1281 = DIRECTION ( 'NONE',  ( 1.000000000000000000, 0.000000000000000000, 0.000000000000000000 ) ) ;
#1282 = ADVANCED_FACE ( 'NONE', ( #384 ), #282, .F. ) ;
#1283 = FACE_OUTER_BOUND ( 'NONE', #1192, .T. ) ;
#1284 = ORIENTED_EDGE ( 'NONE', *, *, #888, .T. ) ;
#1285 = VECTOR ( 'NONE', #116, 1000.000000000000000 ) ;
#1286 = AXIS2_PLACEMENT_3D ( 'NONE', #1109, #612, #1010 ) ;
#1287 = VECTOR ( 'NONE', #1003, 1000.000000000000000 ) ;
#1288 = CYLINDRICAL_SURFACE ( 'NONE', #542, 17.50000000000000000 ) ;
#1289 = EDGE_LOOP ( 'NONE', ( #702, #117, #1305, #755 ) ) ;
#1290 = CYLINDRICAL_SURFACE ( 'NONE', #1243, 2.499999999999995115 ) ;
#1291 = EDGE_LOOP ( 'NONE', ( #475, #955, #520, #1148 ) ) ;
#1292 = CARTESIAN_POINT ( 'NONE',  ( -90.00000000000000000, 15.00000000000000000, -30.00000000000000000 ) ) ;
#1293 = AXIS2_PLACEMENT_3D ( 'NONE', #866, #541, #439 ) ;
#1294 = DIRECTION ( 'NONE',  ( -0.000000000000000000, -0.000000000000000000, -1.000000000000000000 ) ) ;
#1295 = LINE ( 'NONE', #234, #874 ) ;
#1296 = ORIENTED_EDGE ( 'NONE', *, *, #548, .T. ) ;
#1297 = ADVANCED_FACE ( 'NONE', ( #703 ), #605, .F. ) ;
#1298 = EDGE_CURVE ( 'NONE', #431, #651, #75, .T. ) ;
#1299 = ORIENTED_EDGE ( 'NONE', *, *, #646, .F. ) ;
#1300 =( LENGTH_UNIT ( ) NAMED_UNIT ( * ) SI_UNIT ( .MILLI., .METRE. ) );
#1301 = EDGE_CURVE ( 'NONE', #538, #1173, #586, .T. ) ;
#1302 = DIRECTION ( 'NONE',  ( 1.000000000000000000, 0.000000000000000000, -3.828355257328129215E-16 ) ) ;
#1303 = VERTEX_POINT ( 'NONE', #57 ) ;
#1304 = DIRECTION ( 'NONE',  ( 0.000000000000000000, 0.000000000000000000, 1.000000000000000000 ) ) ;
#1305 = ORIENTED_EDGE ( 'NONE', *, *, #68, .T. ) ;
#1306 = DIRECTION ( 'NONE',  ( 0.000000000000000000, 1.000000000000000000, 0.000000000000000000 ) ) ;
#1307 = AXIS2_PLACEMENT_3D ( 'NONE', #696, #55, #480 ) ;
#1308 = CONICAL_SURFACE ( 'NONE', #945, 2.499999999999998668, 1.029744258676654090 ) ;
#1309 = CARTESIAN_POINT ( 'NONE',  ( 14.99999999999997158, 7.499999999999984013, -30.00000000000000000 ) ) ;
#1310 = VERTEX_POINT ( 'NONE', #375 ) ;
#1311 = CIRCLE ( 'NONE', #1265, 2.499999999999992006 ) ;
#1312 = PRODUCT ( 'Horizontal Bracket', 'Horizontal Bracket', '', ( #904 ) ) ;
#1313 = CARTESIAN_POINT ( 'NONE',  ( -57.50000000000000000, 7.500000000000000000, 20.99999999999999645 ) ) ;
#1314 = DIRECTION ( 'NONE',  ( -0.8571673007021121116, 0.000000000000000000, -0.5150380749100544886 ) ) ;
#1315 = ORIENTED_EDGE ( 'NONE', *, *, #110, .F. ) ;
#1316 = CARTESIAN_POINT ( 'NONE',  ( -90.00000000000000000, 0.000000000000000000, -30.00000000000000000 ) ) ;
#1317 = DIRECTION ( 'NONE',  ( -0.000000000000000000, 1.000000000000000000, -0.000000000000000000 ) ) ;
#1318 = VECTOR ( 'NONE', #964, 1000.000000000000000 ) ;
#1319 = DIRECTION ( 'NONE',  ( -0.000000000000000000, -0.000000000000000000, 1.000000000000000000 ) ) ;
#1320 = EDGE_CURVE ( 'NONE', #17, #1033, #1208, .T. ) ;
#1321 = ORIENTED_EDGE ( 'NONE', *, *, #200, .F. ) ;
#1322 = CARTESIAN_POINT ( 'NONE',  ( -89.99999999999998579, 15.00000000000000000, 30.00000000000000000 ) ) ;
#1323 = CONICAL_SURFACE ( 'NONE', #129, 2.499999999999995115, 1.029744258676653867 ) ;
#1324 = DIRECTION ( 'NONE',  ( -1.000000000000000000, 0.000000000000000000, 0.000000000000000000 ) ) ;
#1325 = CIRCLE ( 'NONE', #802, 17.50000000000000000 ) ;
#1326 = ORIENTED_EDGE ( 'NONE', *, *, #751, .T. ) ;
#1327 = EDGE_CURVE ( 'NONE', #1184, #184, #171, .T. ) ;
#1328 = CARTESIAN_POINT ( 'NONE',  ( -59.99999999999998579, 15.00000000000000000, -17.50000000000000000 ) ) ;
#1329 = DIRECTION ( 'NONE',  ( 1.000000000000000000, 0.000000000000000000, 0.000000000000000000 ) ) ;
#1330 = FACE_OUTER_BOUND ( 'NONE', #1234, .T. ) ;
#1331 = EDGE_LOOP ( 'NONE', ( #350, #739, #467, #716 ) ) ;
#1332 = CARTESIAN_POINT ( 'NONE',  ( 20.00000000000000711, 7.500000000000000000, 30.00000000000000000 ) ) ;
#1333 = EDGE_CURVE ( 'NONE', #343, #125, #526, .T. ) ;
#1334 = CARTESIAN_POINT ( 'NONE',  ( -59.99999999999998579, 15.00000000000000000, -17.50000000000000000 ) ) ;
#1335 = CYLINDRICAL_SURFACE ( 'NONE', #845, 17.50000000000000000 ) ;
#1336 = ADVANCED_FACE ( 'NONE', ( #389 ), #353, .F. ) ;
#1337 = DIRECTION ( 'NONE',  ( 0.000000000000000000, -1.000000000000000000, 0.000000000000000000 ) ) ;
#1338 = CARTESIAN_POINT ( 'NONE',  ( 0.000000000000000000, 0.000000000000000000, 0.000000000000000000 ) ) ;
#1339 = STYLED_ITEM ( 'NONE', ( #744 ), #168 ) ;
#1340 = LINE ( 'NONE', #156, #317 ) ;
#1341 = ORIENTED_EDGE ( 'NONE', *, *, #908, .T. ) ;
#1342 = CARTESIAN_POINT ( 'NONE',  ( 90.00000000000000000, 15.00000000000000000, -30.00000000000000000 ) ) ;
#1343 = CIRCLE ( 'NONE', #523, 17.50000000000000000 ) ;
#1344 = DIRECTION ( 'NONE',  ( 1.000000000000000000, 0.000000000000000000, 0.000000000000000000 ) ) ;
#1345 = FACE_OUTER_BOUND ( 'NONE', #1289, .T. ) ;
#1346 = AXIS2_PLACEMENT_3D ( 'NONE', #1147, #314, #952 ) ;
#1347 = CARTESIAN_POINT ( 'NONE',  ( -65.00000000000000000, 15.00000000000000000, -5.000000000000000888 ) ) ;
#1348 = DIRECTION ( 'NONE',  ( 1.000000000000000000, 0.000000000000000000, 0.000000000000000000 ) ) ;
#1349 = CARTESIAN_POINT ( 'NONE',  ( 62.50000000000001421, 7.500000000000000000, 20.99999999999999645 ) ) ;
#1350 = ORIENTED_EDGE ( 'NONE', *, *, #246, .T. ) ;
#1351 = CARTESIAN_POINT ( 'NONE',  ( 60.00000000000001421, 7.500000000000000000, 20.99999999999999645 ) ) ;
#1352 = VERTEX_POINT ( 'NONE', #1014 ) ;
#1353 = VECTOR ( 'NONE', #196, 1000.000000000000000 ) ;
#1354 = AXIS2_PLACEMENT_3D ( 'NONE', #127, #104, #871 ) ;
#1355 = DIRECTION ( 'NONE',  ( -1.000000000000000000, 0.000000000000000000, 0.000000000000000000 ) ) ;
#1356 = EDGE_CURVE ( 'NONE', #635, #1228, #1311, .T. ) ;
#1357 = ORIENTED_EDGE ( 'NONE', *, *, #1327, .T. ) ;
#1358 = DIRECTION ( 'NONE',  ( -1.000000000000000000, 0.000000000000000000, 0.000000000000000000 ) ) ;
#1359 = DIRECTION ( 'NONE',  ( 0.000000000000000000, 0.000000000000000000, -1.000000000000000000 ) ) ;
#1360 = FACE_OUTER_BOUND ( 'NONE', #869, .T. ) ;
#1361 = ORIENTED_EDGE ( 'NONE', *, *, #81, .F. ) ;
#1362 = CARTESIAN_POINT ( 'NONE',  ( 14.99999999999997158, 7.499999999999984013, -20.99999999999999645 ) ) ;
#1363 = VERTEX_POINT ( 'NONE', #270 ) ;
#1364 = AXIS2_PLACEMENT_3D ( 'NONE', #868, #349, #973 ) ;
#1365 = VECTOR ( 'NONE', #815, 1000.000000000000000 ) ;
#1366 = VECTOR ( 'NONE', #607, 1000.000000000000000 ) ;
#1367 = DIRECTION ( 'NONE',  ( 1.000000000000000000, 0.000000000000000000, 0.000000000000000000 ) ) ;
#1368 = ORIENTED_EDGE ( 'NONE', *, *, #450, .F. ) ;
#1369 = EDGE_CURVE ( 'NONE', #1247, #1002, #684, .T. ) ;
ENDSEC;
END-ISO-10303-21;
