ISO-10303-21;
HEADER;
FILE_DESCRIPTION (( 'STEP AP214' ),
    '1' );
FILE_NAME ('Horizontal Panel.STEP',
    '2026-02-02T15:54:18',
    ( '' ),
    ( '' ),
    'SwSTEP 2.0',
    'SolidWorks 2026',
    '' );
FILE_SCHEMA (( 'AUTOMOTIVE_DESIGN' ));
ENDSEC;

DATA;
#1 = CARTESIAN_POINT ( 'NONE',  ( 9.999999999999994671, 15.00000000000000355, -10.00000000000000178 ) ) ;
#2 = DIRECTION ( 'NONE',  ( 0.000000000000000000, 0.000000000000000000, 1.000000000000000000 ) ) ;
#3 = CARTESIAN_POINT ( 'NONE',  ( 4.999999999999996447, 15.00000000000000178, -10.00000000000000178 ) ) ;
#4 = SHAPE_DEFINITION_REPRESENTATION ( #270, #306 ) ;
#5 = CARTESIAN_POINT ( 'NONE',  ( 9.999999999999998224, 15.00000000000000178, -1.734723475976807094E-15 ) ) ;
#6 = DIRECTION ( 'NONE',  ( -1.000000000000000000, -0.000000000000000000, -0.000000000000000000 ) ) ;
#7 = VERTEX_POINT ( 'NONE', #3 ) ;
#8 = DIRECTION ( 'NONE',  ( -1.577021341797097314E-16, 0.000000000000000000, -1.000000000000000000 ) ) ;
#9 = AXIS2_PLACEMENT_3D ( 'NONE', #21, #351, #71 ) ;
#10 = SURFACE_STYLE_FILL_AREA ( #68 ) ;
#11 = CIRCLE ( 'NONE', #211, 10.00000000000000000 ) ;
#12 = EDGE_LOOP ( 'NONE', ( #275, #359, #99, #148, #272, #324 ) ) ;
#13 = EDGE_CURVE ( 'NONE', #328, #70, #279, .T. ) ;
#14 = ORIENTED_EDGE ( 'NONE', *, *, #39, .T. ) ;
#15 = VECTOR ( 'NONE', #138, 1000.000000000000000 ) ;
#16 = CARTESIAN_POINT ( 'NONE',  ( 10.00000000000000000, 15.00000000000000355, 9.999999999999998224 ) ) ;
#17 = ORIENTED_EDGE ( 'NONE', *, *, #39, .F. ) ;
#18 = AXIS2_PLACEMENT_3D ( 'NONE', #62, #105, #204 ) ;
#19 = DIRECTION ( 'NONE',  ( -1.000000000000000000, 0.000000000000000000, 0.000000000000000000 ) ) ;
#20 = ORIENTED_EDGE ( 'NONE', *, *, #285, .T. ) ;
#21 = CARTESIAN_POINT ( 'NONE',  ( -10.00000000000000533, 5.000000000000000000, -10.00000000000000178 ) ) ;
#22 = ORIENTED_EDGE ( 'NONE', *, *, #13, .F. ) ;
#23 = CARTESIAN_POINT ( 'NONE',  ( 4.999999999999996447, 25.00000000000000000, -10.00000000000000178 ) ) ;
#24 = AXIS2_PLACEMENT_3D ( 'NONE', #139, #335, #84 ) ;
#25 = ORIENTED_EDGE ( 'NONE', *, *, #323, .T. ) ;
#26 =( GEOMETRIC_REPRESENTATION_CONTEXT ( 3 ) GLOBAL_UNCERTAINTY_ASSIGNED_CONTEXT ( ( #240 ) ) GLOBAL_UNIT_ASSIGNED_CONTEXT ( ( #147, #101, #174 ) ) REPRESENTATION_CONTEXT ( 'NONE', 'WORKASPACE' ) );
#27 = CARTESIAN_POINT ( 'NONE',  ( 9.999999999999996447, 25.00000000000000000, -1.734723475976807094E-15 ) ) ;
#28 = EDGE_LOOP ( 'NONE', ( #77, #153, #253, #92 ) ) ;
#29 = ADVANCED_FACE ( 'NONE', ( #117, #192 ), #223, .F. ) ;
#30 = DIRECTION ( 'NONE',  ( 3.469446951953614189E-16, -8.673617379884035472E-16, 1.000000000000000000 ) ) ;
#31 = DIRECTION ( 'NONE',  ( 2.602085213965210642E-16, 0.000000000000000000, 1.000000000000000000 ) ) ;
#32 = VECTOR ( 'NONE', #67, 1000.000000000000000 ) ;
#33 = PLANE ( 'NONE',  #212 ) ;
#34 = ADVANCED_FACE ( 'NONE', ( #86 ), #33, .F. ) ;
#35 = DIRECTION ( 'NONE',  ( 1.000000000000000000, -0.000000000000000000, -2.602085213965210642E-16 ) ) ;
#36 = ORIENTED_EDGE ( 'NONE', *, *, #256, .F. ) ;
#37 = CARTESIAN_POINT ( 'NONE',  ( 4.999999999999998224, 25.00000000000000000, 9.999999999999998224 ) ) ;
#38 = AXIS2_PLACEMENT_3D ( 'NONE', #167, #142, #94 ) ;
#39 = EDGE_CURVE ( 'NONE', #44, #314, #11, .T. ) ;
#40 = CARTESIAN_POINT ( 'NONE',  ( -10.00000000000000533, 0.000000000000000000, -10.00000000000000178 ) ) ;
#41 = EDGE_CURVE ( 'NONE', #308, #137, #340, .T. ) ;
#42 = LINE ( 'NONE', #206, #163 ) ;
#43 = LINE ( 'NONE', #129, #245 ) ;
#44 = VERTEX_POINT ( 'NONE', #1 ) ;
#45 = FACE_BOUND ( 'NONE', #80, .T. ) ;
#46 = ORIENTED_EDGE ( 'NONE', *, *, #13, .T. ) ;
#47 = LINE ( 'NONE', #103, #255 ) ;
#48 = VERTEX_POINT ( 'NONE', #59 ) ;
#49 = PLANE ( 'NONE',  #9 ) ;
#50 = ORIENTED_EDGE ( 'NONE', *, *, #293, .T. ) ;
#51 = ADVANCED_FACE ( 'NONE', ( #364 ), #113, .F. ) ;
#52 = ORIENTED_EDGE ( 'NONE', *, *, #345, .T. ) ;
#53 = DIRECTION ( 'NONE',  ( 0.000000000000000000, 1.000000000000000000, 0.000000000000000000 ) ) ;
#54 = EDGE_CURVE ( 'NONE', #70, #305, #141, .T. ) ;
#55 = CARTESIAN_POINT ( 'NONE',  ( 9.999999999999994671, 5.000000000000000000, -10.00000000000000178 ) ) ;
#56 = CIRCLE ( 'NONE', #79, 5.500000000000000000 ) ;
#57 = VECTOR ( 'NONE', #266, 1000.000000000000000 ) ;
#58 = CARTESIAN_POINT ( 'NONE',  ( -10.00000000000000533, 5.000000000000000000, -10.00000000000000178 ) ) ;
#59 = CARTESIAN_POINT ( 'NONE',  ( 5.000000000000000000, 15.00000000000000178, 5.500000000000000000 ) ) ;
#60 =( NAMED_UNIT ( * ) SI_UNIT ( $, .STERADIAN. ) SOLID_ANGLE_UNIT ( ) );
#61 = PRODUCT_RELATED_PRODUCT_CATEGORY ( 'part', '', ( #278 ) ) ;
#62 = CARTESIAN_POINT ( 'NONE',  ( -10.00000000000000888, 15.00000000000000178, 1.908195823574488987E-15 ) ) ;
#63 = CIRCLE ( 'NONE', #281, 10.00000000000000000 ) ;
#64 = ORIENTED_EDGE ( 'NONE', *, *, #337, .T. ) ;
#65 = AXIS2_PLACEMENT_3D ( 'NONE', #250, #53, #304 ) ;
#66 = CARTESIAN_POINT ( 'NONE',  ( -10.00000000000000888, 15.00000000000000178, -5.499999999999998224 ) ) ;
#67 = DIRECTION ( 'NONE',  ( -1.000000000000000000, -0.000000000000000000, -0.000000000000000000 ) ) ;
#68 = FILL_AREA_STYLE ('',( #200 ) ) ;
#69 = CARTESIAN_POINT ( 'NONE',  ( -10.00000000000000000, 5.000000000000000000, 9.999999999999998224 ) ) ;
#70 = VERTEX_POINT ( 'NONE', #161 ) ;
#71 = DIRECTION ( 'NONE',  ( -2.602085213965210642E-16, 0.000000000000000000, -1.000000000000000000 ) ) ;
#72 = ORIENTED_EDGE ( 'NONE', *, *, #201, .F. ) ;
#73 = AXIS2_PLACEMENT_3D ( 'NONE', #325, #19, #355 ) ;
#74 = DIRECTION ( 'NONE',  ( 1.000000000000000000, 0.000000000000000000, -8.673617379884035472E-17 ) ) ;
#75 = VERTEX_POINT ( 'NONE', #154 ) ;
#76 = LINE ( 'NONE', #152, #235 ) ;
#77 = ORIENTED_EDGE ( 'NONE', *, *, #323, .F. ) ;
#78 = EDGE_CURVE ( 'NONE', #104, #48, #217, .T. ) ;
#79 = AXIS2_PLACEMENT_3D ( 'NONE', #228, #166, #95 ) ;
#80 = EDGE_LOOP ( 'NONE', ( #175, #319 ) ) ;
#81 = DIRECTION ( 'NONE',  ( 1.000000000000000000, -0.000000000000000000, -2.602085213965210642E-16 ) ) ;
#82 = DIRECTION ( 'NONE',  ( 1.000000000000000000, 0.000000000000000000, -8.673617379884035472E-17 ) ) ;
#83 = PRODUCT_DEFINITION_CONTEXT ( 'detailed design', #109, 'design' ) ;
#84 = DIRECTION ( 'NONE',  ( 0.000000000000000000, 0.000000000000000000, -1.000000000000000000 ) ) ;
#85 = DIRECTION ( 'NONE',  ( 1.000000000000000000, 0.000000000000000000, 0.000000000000000000 ) ) ;
#86 = FACE_OUTER_BOUND ( 'NONE', #132, .T. ) ;
#87 = CARTESIAN_POINT ( 'NONE',  ( -10.00000000000000000, 5.000000000000000000, 9.999999999999998224 ) ) ;
#88 = EDGE_CURVE ( 'NONE', #314, #328, #298, .T. ) ;
#89 = CARTESIAN_POINT ( 'NONE',  ( -10.00000000000000533, 0.000000000000000000, -10.00000000000000178 ) ) ;
#90 = ORIENTED_EDGE ( 'NONE', *, *, #125, .T. ) ;
#91 = CYLINDRICAL_SURFACE ( 'NONE', #196, 5.500000000000000000 ) ;
#92 = ORIENTED_EDGE ( 'NONE', *, *, #256, .T. ) ;
#93 = ADVANCED_FACE ( 'NONE', ( #136 ), #251, .T. ) ;
#94 = DIRECTION ( 'NONE',  ( 1.000000000000000000, 0.000000000000000000, -0.000000000000000000 ) ) ;
#95 = DIRECTION ( 'NONE',  ( 0.000000000000000000, 0.000000000000000000, -1.000000000000000000 ) ) ;
#96 = CARTESIAN_POINT ( 'NONE',  ( 9.999999999999994671, 5.000000000000000000, -10.00000000000000178 ) ) ;
#97 = VECTOR ( 'NONE', #6, 1000.000000000000000 ) ;
#98 = CARTESIAN_POINT ( 'NONE',  ( 4.999999999999996447, 25.00000000000000000, -10.00000000000000178 ) ) ;
#99 = ORIENTED_EDGE ( 'NONE', *, *, #170, .T. ) ;
#100 = EDGE_CURVE ( 'NONE', #151, #137, #277, .T. ) ;
#101 =( NAMED_UNIT ( * ) PLANE_ANGLE_UNIT ( ) SI_UNIT ( $, .RADIAN. ) );
#102 = ORIENTED_EDGE ( 'NONE', *, *, #285, .F. ) ;
#103 = CARTESIAN_POINT ( 'NONE',  ( -10.00000000000000533, 5.000000000000000000, -10.00000000000000178 ) ) ;
#104 = VERTEX_POINT ( 'NONE', #111 ) ;
#105 = DIRECTION ( 'NONE',  ( 1.000000000000000000, -0.000000000000000000, -1.387778780781445676E-16 ) ) ;
#106 = EDGE_LOOP ( 'NONE', ( #265, #299, #90, #20 ) ) ;
#107 = DIRECTION ( 'NONE',  ( -1.000000000000000000, -0.000000000000000000, 8.673617379884035472E-17 ) ) ;
#108 = EDGE_LOOP ( 'NONE', ( #297, #239, #149, #52 ) ) ;
#109 = APPLICATION_CONTEXT ( 'automotive_design' ) ;
#110 = VERTEX_POINT ( 'NONE', #220 ) ;
#111 = CARTESIAN_POINT ( 'NONE',  ( 4.999999999999998224, 15.00000000000000178, -5.500000000000000000 ) ) ;
#112 = AXIS2_PLACEMENT_3D ( 'NONE', #284, #82, #254 ) ;
#113 = PLANE ( 'NONE',  #327 ) ;
#114 = ORIENTED_EDGE ( 'NONE', *, *, #208, .T. ) ;
#115 = PRODUCT_DEFINITION_FORMATION_WITH_SPECIFIED_SOURCE ( 'ANY', '', #278, .NOT_KNOWN. ) ;
#116 = ADVANCED_FACE ( 'NONE', ( #333 ), #188, .T. ) ;
#117 = FACE_BOUND ( 'NONE', #354, .T. ) ;
#118 = CARTESIAN_POINT ( 'NONE',  ( 4.999999999999998224, 15.00000000000000178, 9.999999999999998224 ) ) ;
#119 = VECTOR ( 'NONE', #258, 1000.000000000000000 ) ;
#120 = CARTESIAN_POINT ( 'NONE',  ( -10.00000000000000000, 0.000000000000000000, 9.999999999999998224 ) ) ;
#121 = LINE ( 'NONE', #316, #119 ) ;
#122 = EDGE_LOOP ( 'NONE', ( #17, #352, #296, #50 ) ) ;
#123 = DIRECTION ( 'NONE',  ( -0.000000000000000000, -1.000000000000000000, -0.000000000000000000 ) ) ;
#124 = DIRECTION ( 'NONE',  ( 1.000000000000000000, 0.000000000000000000, 0.000000000000000000 ) ) ;
#125 = EDGE_CURVE ( 'NONE', #135, #308, #307, .T. ) ;
#126 = ORIENTED_EDGE ( 'NONE', *, *, #293, .F. ) ;
#127 = DIRECTION ( 'NONE',  ( 8.673617379884035472E-17, 0.000000000000000000, 1.000000000000000000 ) ) ;
#128 = EDGE_LOOP ( 'NONE', ( #72, #25, #130, #210 ) ) ;
#129 = CARTESIAN_POINT ( 'NONE',  ( -10.00000000000000533, 15.00000000000000355, -10.00000000000000178 ) ) ;
#130 = ORIENTED_EDGE ( 'NONE', *, *, #195, .T. ) ;
#131 = LINE ( 'NONE', #321, #57 ) ;
#132 = EDGE_LOOP ( 'NONE', ( #194, #347, #180, #236 ) ) ;
#133 = VECTOR ( 'NONE', #231, 1000.000000000000000 ) ;
#134 = FACE_OUTER_BOUND ( 'NONE', #183, .T. ) ;
#135 = VERTEX_POINT ( 'NONE', #226 ) ;
#136 = FACE_OUTER_BOUND ( 'NONE', #106, .T. ) ;
#137 = VERTEX_POINT ( 'NONE', #343 ) ;
#138 = DIRECTION ( 'NONE',  ( -2.602085213965210642E-16, -0.000000000000000000, -1.000000000000000000 ) ) ;
#139 = CARTESIAN_POINT ( 'NONE',  ( 0.000000000000000000, 15.00000000000000178, -1.734723475976807094E-15 ) ) ;
#140 = EDGE_CURVE ( 'NONE', #104, #110, #291, .T. ) ;
#141 = LINE ( 'NONE', #222, #15 ) ;
#142 = DIRECTION ( 'NONE',  ( 0.000000000000000000, 0.000000000000000000, 1.000000000000000000 ) ) ;
#143 = CARTESIAN_POINT ( 'NONE',  ( -10.00000000000000888, 15.00000000000000178, 1.908195823574488987E-15 ) ) ;
#144 = DIRECTION ( 'NONE',  ( 1.000000000000000000, -0.000000000000000000, -1.387778780781445676E-16 ) ) ;
#145 = EDGE_LOOP ( 'NONE', ( #246, #361, #126, #326 ) ) ;
#146 = ADVANCED_FACE ( 'NONE', ( #262 ), #91, .F. ) ;
#147 =( LENGTH_UNIT ( ) NAMED_UNIT ( * ) SI_UNIT ( .MILLI., .METRE. ) );
#148 = ORIENTED_EDGE ( 'NONE', *, *, #232, .T. ) ;
#149 = ORIENTED_EDGE ( 'NONE', *, *, #125, .F. ) ;
#150 = CYLINDRICAL_SURFACE ( 'NONE', #73, 10.00000000000000000 ) ;
#151 = VERTEX_POINT ( 'NONE', #89 ) ;
#152 = CARTESIAN_POINT ( 'NONE',  ( 4.999999999999996447, 5.000000000000000000, -10.00000000000000178 ) ) ;
#153 = ORIENTED_EDGE ( 'NONE', *, *, #78, .F. ) ;
#154 = CARTESIAN_POINT ( 'NONE',  ( 4.999999999999997335, 25.00000000000000000, -1.734723475976807094E-15 ) ) ;
#155 = EDGE_CURVE ( 'NONE', #178, #303, #290, .T. ) ;
#156 = CARTESIAN_POINT ( 'NONE',  ( 9.999999999999998224, 15.00000000000000178, -1.734723475976807094E-15 ) ) ;
#157 = DIRECTION ( 'NONE',  ( 0.000000000000000000, 1.000000000000000000, 0.000000000000000000 ) ) ;
#158 = CIRCLE ( 'NONE', #312, 10.00000000000000000 ) ;
#159 = DIRECTION ( 'NONE',  ( -1.000000000000000000, 0.000000000000000000, -0.000000000000000000 ) ) ;
#160 = CARTESIAN_POINT ( 'NONE',  ( 0.000000000000000000, 0.000000000000000000, 0.000000000000000000 ) ) ;
#161 = CARTESIAN_POINT ( 'NONE',  ( 10.00000000000000000, 0.000000000000000000, 9.999999999999998224 ) ) ;
#162 = LINE ( 'NONE', #96, #165 ) ;
#163 = VECTOR ( 'NONE', #237, 1000.000000000000000 ) ;
#164 = DIRECTION ( 'NONE',  ( 2.602085213965210642E-16, 0.000000000000000000, 1.000000000000000000 ) ) ;
#165 = VECTOR ( 'NONE', #233, 1000.000000000000000 ) ;
#166 = DIRECTION ( 'NONE',  ( 1.000000000000000000, 0.000000000000000000, -1.387778780781445676E-16 ) ) ;
#167 = CARTESIAN_POINT ( 'NONE',  ( -10.00000000000000533, 5.000000000000000000, -10.00000000000000178 ) ) ;
#168 =( NAMED_UNIT ( * ) PLANE_ANGLE_UNIT ( ) SI_UNIT ( $, .RADIAN. ) );
#169 = VECTOR ( 'NONE', #124, 1000.000000000000000 ) ;
#170 = EDGE_CURVE ( 'NONE', #44, #305, #162, .T. ) ;
#171 = FACE_OUTER_BOUND ( 'NONE', #108, .T. ) ;
#172 = DIRECTION ( 'NONE',  ( -0.000000000000000000, -1.000000000000000000, -0.000000000000000000 ) ) ;
#173 = EDGE_LOOP ( 'NONE', ( #22, #356, #267, #102, #259, #114 ) ) ;
#174 =( NAMED_UNIT ( * ) SI_UNIT ( $, .STERADIAN. ) SOLID_ANGLE_UNIT ( ) );
#175 = ORIENTED_EDGE ( 'NONE', *, *, #78, .T. ) ;
#176 = STYLED_ITEM ( 'NONE', ( #288 ), #198 ) ;
#177 = DIRECTION ( 'NONE',  ( -8.673617379884035472E-17, 0.000000000000000000, -1.000000000000000000 ) ) ;
#178 = VERTEX_POINT ( 'NONE', #118 ) ;
#179 = FACE_OUTER_BOUND ( 'NONE', #122, .T. ) ;
#180 = ORIENTED_EDGE ( 'NONE', *, *, #100, .F. ) ;
#181 = VECTOR ( 'NONE', #189, 1000.000000000000000 ) ;
#182 = COLOUR_RGB ( '',0.2509803921568627416, 0.2509803921568627416, 0.2509803921568627416 ) ;
#183 = EDGE_LOOP ( 'NONE', ( #205, #243, #64, #269, #320 ) ) ;
#184 =( GEOMETRIC_REPRESENTATION_CONTEXT ( 3 ) GLOBAL_UNCERTAINTY_ASSIGNED_CONTEXT ( ( #283 ) ) GLOBAL_UNIT_ASSIGNED_CONTEXT ( ( #348, #168, #60 ) ) REPRESENTATION_CONTEXT ( 'NONE', 'WORKASPACE' ) );
#185 = EDGE_CURVE ( 'NONE', #328, #178, #121, .T. ) ;
#186 = PRODUCT_CONTEXT ( 'NONE', #331, 'mechanical' ) ;
#187 = DIRECTION ( 'NONE',  ( 0.000000000000000000, 0.000000000000000000, -1.000000000000000000 ) ) ;
#188 = CYLINDRICAL_SURFACE ( 'NONE', #24, 10.00000000000000000 ) ;
#189 = DIRECTION ( 'NONE',  ( -0.000000000000000000, -1.000000000000000000, -0.000000000000000000 ) ) ;
#190 = APPLICATION_PROTOCOL_DEFINITION ( 'draft international standard', 'automotive_design', 1998, #331 ) ;
#191 = CARTESIAN_POINT ( 'NONE',  ( 0.000000000000000000, 0.000000000000000000, 0.000000000000000000 ) ) ;
#192 = FACE_OUTER_BOUND ( 'NONE', #287, .T. ) ;
#193 = CYLINDRICAL_SURFACE ( 'NONE', #18, 5.500000000000000000 ) ;
#194 = ORIENTED_EDGE ( 'NONE', *, *, #54, .F. ) ;
#195 = EDGE_CURVE ( 'NONE', #342, #110, #56, .T. ) ;
#196 = AXIS2_PLACEMENT_3D ( 'NONE', #143, #263, #311 ) ;
#197 = SURFACE_SIDE_STYLE ('',( #10 ) ) ;
#198 = MANIFOLD_SOLID_BREP ( 'Fillet1', #295 ) ;
#199 = LINE ( 'NONE', #315, #32 ) ;
#200 = FILL_AREA_STYLE_COLOUR ( '', #182 ) ;
#201 = EDGE_CURVE ( 'NONE', #48, #104, #230, .T. ) ;
#202 = FACE_OUTER_BOUND ( 'NONE', #12, .T. ) ;
#203 = MECHANICAL_DESIGN_GEOMETRIC_PRESENTATION_REPRESENTATION (  '', ( #176 ), #184 ) ;
#204 = DIRECTION ( 'NONE',  ( 0.000000000000000000, 0.000000000000000000, -1.000000000000000000 ) ) ;
#205 = ORIENTED_EDGE ( 'NONE', *, *, #363, .T. ) ;
#206 = CARTESIAN_POINT ( 'NONE',  ( -10.00000000000000888, 15.00000000000000178, 5.500000000000001776 ) ) ;
#207 = ORIENTED_EDGE ( 'NONE', *, *, #88, .T. ) ;
#208 = EDGE_CURVE ( 'NONE', #137, #70, #349, .T. ) ;
#209 = DIRECTION ( 'NONE',  ( 1.000000000000000000, 0.000000000000000000, -1.387778780781445676E-16 ) ) ;
#210 = ORIENTED_EDGE ( 'NONE', *, *, #140, .F. ) ;
#211 = AXIS2_PLACEMENT_3D ( 'NONE', #156, #81, #252 ) ;
#212 = AXIS2_PLACEMENT_3D ( 'NONE', #191, #157, #282 ) ;
#213 = CARTESIAN_POINT ( 'NONE',  ( -10.00000000000000000, 5.000000000000000000, 9.999999999999998224 ) ) ;
#214 = VERTEX_POINT ( 'NONE', #346 ) ;
#215 = ORIENTED_EDGE ( 'NONE', *, *, #195, .F. ) ;
#216 = ADVANCED_FACE ( 'NONE', ( #202 ), #286, .F. ) ;
#217 = CIRCLE ( 'NONE', #112, 5.500000000000000000 ) ;
#218 = VECTOR ( 'NONE', #276, 1000.000000000000000 ) ;
#219 = CARTESIAN_POINT ( 'NONE',  ( 10.00000000000000000, 5.000000000000000000, 9.999999999999998224 ) ) ;
#220 = CARTESIAN_POINT ( 'NONE',  ( 9.999999999999998224, 15.00000000000000178, -5.500000000000000888 ) ) ;
#221 = AXIS2_PLACEMENT_3D ( 'NONE', #5, #35, #30 ) ;
#222 = CARTESIAN_POINT ( 'NONE',  ( 9.999999999999994671, 0.000000000000000000, -10.00000000000000178 ) ) ;
#223 = PLANE ( 'NONE',  #339 ) ;
#224 = AXIS2_PLACEMENT_3D ( 'NONE', #225, #209, #244 ) ;
#225 = CARTESIAN_POINT ( 'NONE',  ( 9.999999999999998224, 15.00000000000000178, -8.673617379884031528E-16 ) ) ;
#226 = CARTESIAN_POINT ( 'NONE',  ( -10.00000000000000533, 5.000000000000000000, -10.00000000000000178 ) ) ;
#227 = EDGE_CURVE ( 'NONE', #214, #135, #199, .T. ) ;
#228 = CARTESIAN_POINT ( 'NONE',  ( 9.999999999999998224, 15.00000000000000178, -8.673617379884031528E-16 ) ) ;
#229 = VECTOR ( 'NONE', #123, 1000.000000000000000 ) ;
#230 = CIRCLE ( 'NONE', #344, 5.500000000000000000 ) ;
#231 = DIRECTION ( 'NONE',  ( 1.000000000000000000, 0.000000000000000000, 0.000000000000000000 ) ) ;
#232 = EDGE_CURVE ( 'NONE', #305, #151, #257, .T. ) ;
#233 = DIRECTION ( 'NONE',  ( -0.000000000000000000, -1.000000000000000000, -0.000000000000000000 ) ) ;
#234 = DIRECTION ( 'NONE',  ( 1.000000000000000000, 0.000000000000000000, -8.673617379884035472E-17 ) ) ;
#235 = VECTOR ( 'NONE', #127, 1000.000000000000000 ) ;
#236 = ORIENTED_EDGE ( 'NONE', *, *, #232, .F. ) ;
#237 = DIRECTION ( 'NONE',  ( 1.000000000000000000, -0.000000000000000000, -1.387778780781445676E-16 ) ) ;
#238 = VECTOR ( 'NONE', #144, 1000.000000000000000 ) ;
#239 = ORIENTED_EDGE ( 'NONE', *, *, #41, .F. ) ;
#240 = UNCERTAINTY_MEASURE_WITH_UNIT (LENGTH_MEASURE( 1.000000000000000082E-05 ), #147, 'distance_accuracy_value', 'NONE');
#241 = PRODUCT_DEFINITION ( 'UNKNOWN', '', #115, #83 ) ;
#242 = LINE ( 'NONE', #213, #169 ) ;
#243 = ORIENTED_EDGE ( 'NONE', *, *, #309, .T. ) ;
#244 = DIRECTION ( 'NONE',  ( 0.000000000000000000, 0.000000000000000000, -1.000000000000000000 ) ) ;
#245 = VECTOR ( 'NONE', #318, 1000.000000000000000 ) ;
#246 = ORIENTED_EDGE ( 'NONE', *, *, #185, .F. ) ;
#247 = LINE ( 'NONE', #23, #261 ) ;
#248 = ADVANCED_FACE ( 'NONE', ( #341 ), #193, .F. ) ;
#249 = ORIENTED_EDGE ( 'NONE', *, *, #170, .F. ) ;
#250 = CARTESIAN_POINT ( 'NONE',  ( 0.000000000000000000, 5.000000000000000000, 0.000000000000000000 ) ) ;
#251 = PLANE ( 'NONE',  #65 ) ;
#252 = DIRECTION ( 'NONE',  ( 3.469446951953614189E-16, 0.000000000000000000, 1.000000000000000000 ) ) ;
#253 = ORIENTED_EDGE ( 'NONE', *, *, #140, .T. ) ;
#254 = DIRECTION ( 'NONE',  ( -1.577021341797097314E-16, 0.000000000000000000, -1.000000000000000000 ) ) ;
#255 = VECTOR ( 'NONE', #268, 1000.000000000000000 ) ;
#256 = EDGE_CURVE ( 'NONE', #110, #342, #358, .T. ) ;
#257 = LINE ( 'NONE', #40, #97 ) ;
#258 = DIRECTION ( 'NONE',  ( -1.000000000000000000, -0.000000000000000000, -0.000000000000000000 ) ) ;
#259 = ORIENTED_EDGE ( 'NONE', *, *, #41, .T. ) ;
#260 = CARTESIAN_POINT ( 'NONE',  ( 4.999999999999999112, 15.00000000000000178, -1.734723475976804876E-16 ) ) ;
#261 = VECTOR ( 'NONE', #172, 1000.000000000000000 ) ;
#262 = FACE_OUTER_BOUND ( 'NONE', #28, .T. ) ;
#263 = DIRECTION ( 'NONE',  ( 1.000000000000000000, -0.000000000000000000, -1.387778780781445676E-16 ) ) ;
#264 = DIRECTION ( 'NONE',  ( -8.673617379884035472E-17, 0.000000000000000000, -1.000000000000000000 ) ) ;
#265 = ORIENTED_EDGE ( 'NONE', *, *, #350, .F. ) ;
#266 = DIRECTION ( 'NONE',  ( 1.000000000000000000, 0.000000000000000000, 0.000000000000000000 ) ) ;
#267 = ORIENTED_EDGE ( 'NONE', *, *, #155, .T. ) ;
#268 = DIRECTION ( 'NONE',  ( -0.000000000000000000, -1.000000000000000000, -0.000000000000000000 ) ) ;
#269 = ORIENTED_EDGE ( 'NONE', *, *, #350, .T. ) ;
#270 = PRODUCT_DEFINITION_SHAPE ( 'NONE', 'NONE',  #241 ) ;
#271 = CARTESIAN_POINT ( 'NONE',  ( 4.999999999999998224, 5.000000000000000000, 9.999999999999998224 ) ) ;
#272 = ORIENTED_EDGE ( 'NONE', *, *, #345, .F. ) ;
#273 = CARTESIAN_POINT ( 'NONE',  ( 4.999999999999997335, 15.00000000000000178, -1.734723475976807094E-15 ) ) ;
#274 = AXIS2_PLACEMENT_3D ( 'NONE', #160, #2, #85 ) ;
#275 = ORIENTED_EDGE ( 'NONE', *, *, #337, .F. ) ;
#276 = DIRECTION ( 'NONE',  ( -0.000000000000000000, -1.000000000000000000, -0.000000000000000000 ) ) ;
#277 = LINE ( 'NONE', #362, #289 ) ;
#278 = PRODUCT ( 'Horizontal Panel', 'Horizontal Panel', '', ( #186 ) ) ;
#279 = LINE ( 'NONE', #219, #218 ) ;
#280 = ADVANCED_FACE ( 'NONE', ( #171 ), #49, .F. ) ;
#281 = AXIS2_PLACEMENT_3D ( 'NONE', #273, #107, #177 ) ;
#282 = DIRECTION ( 'NONE',  ( 0.000000000000000000, -0.000000000000000000, 1.000000000000000000 ) ) ;
#283 = UNCERTAINTY_MEASURE_WITH_UNIT (LENGTH_MEASURE( 1.000000000000000082E-05 ), #348, 'distance_accuracy_value', 'NONE');
#284 = CARTESIAN_POINT ( 'NONE',  ( 4.999999999999999112, 15.00000000000000178, -1.734723475976804876E-16 ) ) ;
#285 = EDGE_CURVE ( 'NONE', #308, #303, #242, .T. ) ;
#286 = PLANE ( 'NONE',  #38 ) ;
#287 = EDGE_LOOP ( 'NONE', ( #249, #14, #207, #46, #302 ) ) ;
#288 = PRESENTATION_STYLE_ASSIGNMENT (( #313 ) ) ;
#289 = VECTOR ( 'NONE', #31, 1000.000000000000000 ) ;
#290 = LINE ( 'NONE', #37, #229 ) ;
#291 = LINE ( 'NONE', #66, #238 ) ;
#292 = DIRECTION ( 'NONE',  ( -1.000000000000000000, -0.000000000000000000, 8.673617379884035472E-17 ) ) ;
#293 = EDGE_CURVE ( 'NONE', #75, #314, #131, .T. ) ;
#294 = CARTESIAN_POINT ( 'NONE',  ( 4.999999999999997335, 15.00000000000000178, -1.734723475976807094E-15 ) ) ;
#295 = CLOSED_SHELL ( 'NONE', ( #248, #29, #216, #280, #51, #93, #34, #332, #146, #116, #317 ) ) ;
#296 = ORIENTED_EDGE ( 'NONE', *, *, #309, .F. ) ;
#297 = ORIENTED_EDGE ( 'NONE', *, *, #100, .T. ) ;
#298 = CIRCLE ( 'NONE', #221, 10.00000000000000000 ) ;
#299 = ORIENTED_EDGE ( 'NONE', *, *, #227, .T. ) ;
#300 = EDGE_CURVE ( 'NONE', #7, #44, #43, .T. ) ;
#301 = DIRECTION ( 'NONE',  ( -8.673617379884035472E-17, 0.000000000000000000, -1.000000000000000000 ) ) ;
#302 = ORIENTED_EDGE ( 'NONE', *, *, #54, .T. ) ;
#303 = VERTEX_POINT ( 'NONE', #271 ) ;
#304 = DIRECTION ( 'NONE',  ( 0.000000000000000000, -0.000000000000000000, 1.000000000000000000 ) ) ;
#305 = VERTEX_POINT ( 'NONE', #357 ) ;
#306 = ADVANCED_BREP_SHAPE_REPRESENTATION ( 'Horizontal Panel', ( #198, #274 ), #26 ) ;
#307 = LINE ( 'NONE', #58, #336 ) ;
#308 = VERTEX_POINT ( 'NONE', #69 ) ;
#309 = EDGE_CURVE ( 'NONE', #75, #7, #158, .T. ) ;
#310 = CARTESIAN_POINT ( 'NONE',  ( -10.00000000000000000, 5.000000000000000000, 9.999999999999998224 ) ) ;
#311 = DIRECTION ( 'NONE',  ( 0.000000000000000000, 0.000000000000000000, -1.000000000000000000 ) ) ;
#312 = AXIS2_PLACEMENT_3D ( 'NONE', #294, #292, #264 ) ;
#313 = SURFACE_STYLE_USAGE ( .BOTH. , #197 ) ;
#314 = VERTEX_POINT ( 'NONE', #27 ) ;
#315 = CARTESIAN_POINT ( 'NONE',  ( -10.00000000000000533, 5.000000000000000000, -10.00000000000000178 ) ) ;
#316 = CARTESIAN_POINT ( 'NONE',  ( -10.00000000000000000, 15.00000000000000355, 9.999999999999998224 ) ) ;
#317 = ADVANCED_FACE ( 'NONE', ( #179 ), #150, .T. ) ;
#318 = DIRECTION ( 'NONE',  ( 1.000000000000000000, -0.000000000000000000, -0.000000000000000000 ) ) ;
#319 = ORIENTED_EDGE ( 'NONE', *, *, #201, .T. ) ;
#320 = ORIENTED_EDGE ( 'NONE', *, *, #155, .F. ) ;
#321 = CARTESIAN_POINT ( 'NONE',  ( 0.000000000000000000, 25.00000000000000000, -1.734723475976807094E-15 ) ) ;
#322 = PRESENTATION_LAYER_ASSIGNMENT (  '', '', ( #176 ) ) ;
#323 = EDGE_CURVE ( 'NONE', #48, #342, #42, .T. ) ;
#324 = ORIENTED_EDGE ( 'NONE', *, *, #227, .F. ) ;
#325 = CARTESIAN_POINT ( 'NONE',  ( 0.000000000000000000, 15.00000000000000178, -1.734723475976807094E-15 ) ) ;
#326 = ORIENTED_EDGE ( 'NONE', *, *, #363, .F. ) ;
#327 = AXIS2_PLACEMENT_3D ( 'NONE', #310, #187, #159 ) ;
#328 = VERTEX_POINT ( 'NONE', #16 ) ;
#329 = AXIS2_PLACEMENT_3D ( 'NONE', #98, #74, #301 ) ;
#330 = DIRECTION ( 'NONE',  ( 2.602085213965210642E-16, 0.000000000000000000, 1.000000000000000000 ) ) ;
#331 = APPLICATION_CONTEXT ( 'automotive_design' ) ;
#332 = ADVANCED_FACE ( 'NONE', ( #45, #134 ), #360, .F. ) ;
#333 = FACE_OUTER_BOUND ( 'NONE', #145, .T. ) ;
#334 = APPLICATION_PROTOCOL_DEFINITION ( 'draft international standard', 'automotive_design', 1998, #109 ) ;
#335 = DIRECTION ( 'NONE',  ( 1.000000000000000000, 0.000000000000000000, 0.000000000000000000 ) ) ;
#336 = VECTOR ( 'NONE', #164, 1000.000000000000000 ) ;
#337 = EDGE_CURVE ( 'NONE', #7, #214, #247, .T. ) ;
#338 = DIRECTION ( 'NONE',  ( -1.000000000000000000, 0.000000000000000000, 2.602085213965210642E-16 ) ) ;
#339 = AXIS2_PLACEMENT_3D ( 'NONE', #55, #338, #330 ) ;
#340 = LINE ( 'NONE', #87, #181 ) ;
#341 = FACE_OUTER_BOUND ( 'NONE', #128, .T. ) ;
#342 = VERTEX_POINT ( 'NONE', #353 ) ;
#343 = CARTESIAN_POINT ( 'NONE',  ( -10.00000000000000000, 0.000000000000000000, 9.999999999999998224 ) ) ;
#344 = AXIS2_PLACEMENT_3D ( 'NONE', #260, #234, #8 ) ;
#345 = EDGE_CURVE ( 'NONE', #135, #151, #47, .T. ) ;
#346 = CARTESIAN_POINT ( 'NONE',  ( 4.999999999999997335, 5.000000000000000000, -10.00000000000000178 ) ) ;
#347 = ORIENTED_EDGE ( 'NONE', *, *, #208, .F. ) ;
#348 =( LENGTH_UNIT ( ) NAMED_UNIT ( * ) SI_UNIT ( .MILLI., .METRE. ) );
#349 = LINE ( 'NONE', #120, #133 ) ;
#350 = EDGE_CURVE ( 'NONE', #214, #303, #76, .T. ) ;
#351 = DIRECTION ( 'NONE',  ( 1.000000000000000000, 0.000000000000000000, -2.602085213965210642E-16 ) ) ;
#352 = ORIENTED_EDGE ( 'NONE', *, *, #300, .F. ) ;
#353 = CARTESIAN_POINT ( 'NONE',  ( 9.999999999999998224, 15.00000000000000178, 5.499999999999999112 ) ) ;
#354 = EDGE_LOOP ( 'NONE', ( #36, #215 ) ) ;
#355 = DIRECTION ( 'NONE',  ( 0.000000000000000000, 0.000000000000000000, 1.000000000000000000 ) ) ;
#356 = ORIENTED_EDGE ( 'NONE', *, *, #185, .T. ) ;
#357 = CARTESIAN_POINT ( 'NONE',  ( 9.999999999999994671, 0.000000000000000000, -10.00000000000000178 ) ) ;
#358 = CIRCLE ( 'NONE', #224, 5.500000000000000000 ) ;
#359 = ORIENTED_EDGE ( 'NONE', *, *, #300, .T. ) ;
#360 = PLANE ( 'NONE',  #329 ) ;
#361 = ORIENTED_EDGE ( 'NONE', *, *, #88, .F. ) ;
#362 = CARTESIAN_POINT ( 'NONE',  ( -10.00000000000000533, 0.000000000000000000, -10.00000000000000178 ) ) ;
#363 = EDGE_CURVE ( 'NONE', #178, #75, #63, .T. ) ;
#364 = FACE_OUTER_BOUND ( 'NONE', #173, .T. ) ;
ENDSEC;
END-ISO-10303-21;
