G04*
G04 #@! TF.GenerationSoftware,Altium Limited,CircuitStudio,1.5.2 (30)*
G04*
G04 Layer_Color=15065295*
%FSLAX25Y25*%
%MOIN*%
G70*
G01*
G75*
%ADD16C,0.00079*%
D16*
X401968Y421590D02*
X401772D01*
X401870D01*
Y421098D01*
X401772Y421000D01*
X401673D01*
X401575Y421098D01*
X402165Y421492D02*
X402264Y421590D01*
X402460D01*
X402559Y421492D01*
Y421394D01*
X402460Y421295D01*
X402362D01*
X402460D01*
X402559Y421197D01*
Y421098D01*
X402460Y421000D01*
X402264D01*
X402165Y421098D01*
X401968Y496390D02*
X401772D01*
X401870D01*
Y495898D01*
X401772Y495800D01*
X401673D01*
X401575Y495898D01*
X402165Y495800D02*
X402362D01*
X402264D01*
Y496390D01*
X402165Y496292D01*
X416800Y454431D02*
Y455022D01*
X417095D01*
X417194Y454923D01*
Y454727D01*
X417095Y454628D01*
X416800D01*
X416997D02*
X417194Y454431D01*
X417784D02*
X417390D01*
X417784Y454825D01*
Y454923D01*
X417686Y455022D01*
X417489D01*
X417390Y454923D01*
X428700Y454431D02*
Y455022D01*
X428995D01*
X429094Y454923D01*
Y454727D01*
X428995Y454628D01*
X428700D01*
X428897D02*
X429094Y454431D01*
X429290D02*
X429487D01*
X429389D01*
Y455022D01*
X429290Y454923D01*
M02*
