G04*
G04 #@! TF.GenerationSoftware,Altium Limited,CircuitStudio,1.5.2 (30)*
G04*
G04 Layer_Physical_Order=1*
G04 Layer_Color=11767835*
%FSLAX25Y25*%
%MOIN*%
G70*
G01*
G75*
%ADD10R,0.03543X0.02756*%
%ADD11C,0.00591*%
%ADD12O,0.05906X0.09843*%
%ADD13O,0.09843X0.05906*%
%ADD14C,0.07400*%
D10*
X417323Y457283D02*
D03*
Y452165D02*
D03*
X429134Y457283D02*
D03*
Y452165D02*
D03*
D11*
Y457283D02*
Y479252D01*
X417323Y457283D02*
Y477441D01*
Y423228D02*
Y452165D01*
Y423228D02*
X429134Y411417D01*
Y440945D02*
Y452165D01*
Y479252D02*
X440945Y491063D01*
X417323Y477441D02*
X440945Y501063D01*
X448819Y493189D02*
X456693Y501063D01*
X448819Y464567D02*
Y493189D01*
X437008Y452756D02*
X448819Y464567D01*
X437008Y409449D02*
Y452756D01*
X429134Y401575D02*
X437008Y409449D01*
D12*
X409449Y421260D02*
D03*
D13*
X429134Y401575D02*
D03*
Y411417D02*
D03*
Y440945D02*
D03*
Y431102D02*
D03*
D14*
X456693Y521063D02*
D03*
Y511063D02*
D03*
Y501063D02*
D03*
Y491063D02*
D03*
Y481063D02*
D03*
Y471063D02*
D03*
X440945Y471063D02*
D03*
Y481063D02*
D03*
Y491063D02*
D03*
Y501063D02*
D03*
Y511063D02*
D03*
Y521063D02*
D03*
M02*
