G04*
G04 #@! TF.GenerationSoftware,Altium Limited,CircuitStudio,1.5.2 (30)*
G04*
G04 Layer_Physical_Order=1*
G04 Layer_Color=11767835*
%FSLAX25Y25*%
%MOIN*%
G70*
G01*
G75*
%ADD10R,0.02756X0.04528*%
%ADD11R,0.01496X0.03937*%
%ADD12R,0.02165X0.03937*%
%ADD13R,0.04961X0.05118*%
%ADD14C,0.00591*%
%ADD15C,0.01969*%
%ADD16C,0.01969*%
G36*
X424952Y423622D02*
X419646D01*
Y423819D01*
X418808D01*
Y421260D01*
Y418701D01*
X419646D01*
Y418898D01*
X422205D01*
X422357Y418398D01*
X422235Y418316D01*
X421930Y417861D01*
X421823Y417323D01*
X421930Y416785D01*
X422235Y416329D01*
X422691Y416025D01*
X423228Y415918D01*
X423766Y416025D01*
X424222Y416329D01*
X424526Y416785D01*
X424633Y417323D01*
X424565Y417666D01*
X424710Y417811D01*
X424862Y418039D01*
X424916Y418308D01*
Y418898D01*
X425355D01*
Y420165D01*
X425787Y420557D01*
X429134D01*
Y420548D01*
X429969Y420439D01*
X430747Y420116D01*
X431415Y419604D01*
X431927Y418936D01*
X432250Y418158D01*
X432360Y417323D01*
X432368D01*
X432368Y417323D01*
Y397638D01*
X432368Y397638D01*
X432360D01*
X432250Y396803D01*
X431927Y396025D01*
X431415Y395357D01*
X430747Y394844D01*
X429969Y394522D01*
X429134Y394412D01*
Y394403D01*
X429134Y394403D01*
X397638D01*
X397638Y394403D01*
Y394412D01*
X397638Y394412D01*
X396803Y394522D01*
X396025Y394844D01*
X395357Y395357D01*
X394844Y396025D01*
X394522Y396803D01*
X394412Y397638D01*
X394403D01*
X394403Y397638D01*
Y417320D01*
X394412Y417323D01*
X394412D01*
X394475Y417797D01*
X394522Y418158D01*
X394844Y418936D01*
X395357Y419604D01*
X396025Y420116D01*
X396803Y420439D01*
X397638Y420548D01*
Y420557D01*
X398150D01*
Y415295D01*
X401693D01*
Y416996D01*
X402193Y417046D01*
X402245Y416785D01*
X402550Y416329D01*
X403006Y416025D01*
X403543Y415918D01*
X404081Y416025D01*
X404537Y416329D01*
X404841Y416785D01*
X404948Y417323D01*
X404841Y417861D01*
X404537Y418316D01*
X404415Y418398D01*
X404567Y418898D01*
X407127D01*
Y418701D01*
X407965D01*
Y421260D01*
Y423819D01*
X407127D01*
Y423622D01*
X401821D01*
Y424494D01*
X424952D01*
Y423622D01*
D02*
G37*
%LPC*%
G36*
X420768Y415748D02*
X417815D01*
Y411024D01*
X417886D01*
Y403543D01*
X417993Y403006D01*
X418298Y402550D01*
X418754Y402245D01*
X419291Y402138D01*
X419829Y402245D01*
X420285Y402550D01*
X420589Y403006D01*
X420696Y403543D01*
Y411024D01*
X420768D01*
Y415748D01*
D02*
G37*
G36*
X409804Y423819D02*
X408965D01*
Y421260D01*
Y418701D01*
X409141D01*
X409220Y418599D01*
X409362Y418201D01*
X409135Y417861D01*
X409028Y417323D01*
X409135Y416785D01*
X409220Y416658D01*
X409325Y416501D01*
X409267Y416098D01*
X409200Y416017D01*
X408803Y415945D01*
X408661Y415945D01*
X408659D01*
X408659D01*
X407980D01*
Y413886D01*
X409154D01*
Y415450D01*
X409154Y415458D01*
X409154Y415458D01*
X409154Y415529D01*
X409154Y415540D01*
X409644Y415947D01*
X409654Y415946D01*
X409767Y415923D01*
X409849Y415906D01*
X409918Y415788D01*
X409941Y415545D01*
Y415506D01*
Y411024D01*
X410394D01*
X410546Y410524D01*
X410424Y410442D01*
X410119Y409986D01*
X410012Y409449D01*
X410119Y408911D01*
X410424Y408455D01*
X410880Y408151D01*
X411417Y408044D01*
X411955Y408151D01*
X412411Y408455D01*
X412715Y408911D01*
X412822Y409449D01*
X412715Y409986D01*
X412411Y410442D01*
X412289Y410524D01*
X412441Y411024D01*
X412894D01*
Y415748D01*
X411456D01*
X411305Y416248D01*
X411426Y416329D01*
X411731Y416785D01*
X411838Y417323D01*
X411731Y417861D01*
X411426Y418316D01*
X411305Y418398D01*
X411456Y418898D01*
X411575D01*
Y423622D01*
X409804D01*
Y423819D01*
D02*
G37*
G36*
X401004Y404606D02*
X395256D01*
Y398701D01*
X401004D01*
Y404606D01*
D02*
G37*
G36*
X431516D02*
X425768D01*
Y398701D01*
X431516D01*
Y404606D01*
D02*
G37*
G36*
X416831Y415748D02*
X413878D01*
Y411024D01*
X414331D01*
X414483Y410524D01*
X414361Y410442D01*
X414056Y409986D01*
X413949Y409449D01*
X414056Y408911D01*
X414361Y408455D01*
X414817Y408151D01*
X415354Y408044D01*
X415892Y408151D01*
X416348Y408455D01*
X416652Y408911D01*
X416759Y409449D01*
X416652Y409986D01*
X416348Y410442D01*
X416226Y410524D01*
X416378Y411024D01*
X416831D01*
Y415748D01*
D02*
G37*
G36*
X406980Y415945D02*
X405807D01*
Y413886D01*
X406980D01*
Y415945D01*
D02*
G37*
G36*
X417808Y423819D02*
X416969D01*
Y423622D01*
X415197D01*
Y418898D01*
X416969D01*
Y418701D01*
X417808D01*
Y421260D01*
Y423819D01*
D02*
G37*
G36*
X406980Y412886D02*
X405807D01*
Y410827D01*
X406980D01*
Y412886D01*
D02*
G37*
G36*
X409154D02*
X407980D01*
Y410827D01*
X409154D01*
Y412886D01*
D02*
G37*
%LPD*%
D10*
X399922Y417953D02*
D03*
D11*
X402560Y421260D02*
D03*
X404528D02*
D03*
X406497D02*
D03*
X408465D02*
D03*
X410434D02*
D03*
X416339D02*
D03*
X418308D02*
D03*
X420276D02*
D03*
X422245D02*
D03*
X424213D02*
D03*
D12*
X407480Y413386D02*
D03*
X411417D02*
D03*
X415354D02*
D03*
X419291D02*
D03*
D13*
X398130Y401653D02*
D03*
X428642D02*
D03*
D14*
X410433Y417323D02*
X410434Y417323D01*
Y421260D01*
X402560Y418306D02*
Y421260D01*
Y418306D02*
X403543Y417323D01*
X424213Y418308D02*
Y421260D01*
X423228Y417323D02*
X424213Y418308D01*
X411417Y409449D02*
Y413386D01*
X415354Y409449D02*
Y413386D01*
D15*
X419291Y403543D02*
Y413386D01*
D16*
X407480Y417323D02*
D03*
X418307D02*
D03*
X410433D02*
D03*
X403543D02*
D03*
X423228D02*
D03*
X411417Y409449D02*
D03*
X415354D02*
D03*
X419291D02*
D03*
Y406496D02*
D03*
Y403543D02*
D03*
M02*
