G04*
G04 #@! TF.GenerationSoftware,Altium Limited,CircuitStudio,1.5.2 (30)*
G04*
G04 Layer_Physical_Order=2*
G04 Layer_Color=12500520*
%FSLAX25Y25*%
%MOIN*%
G70*
G01*
G75*
%ADD10R,0.02756X0.04528*%
%ADD11R,0.01496X0.03937*%
%ADD14C,0.00591*%
%ADD16C,0.01969*%
G36*
X424713Y418701D02*
X425079D01*
Y415295D01*
X428623D01*
Y420557D01*
X429134D01*
Y420548D01*
X429969Y420439D01*
X430747Y420116D01*
X431415Y419604D01*
X431927Y418936D01*
X432250Y418158D01*
X432360Y417323D01*
X432368D01*
X432368Y417323D01*
Y397638D01*
X432368Y397638D01*
X432360D01*
X432250Y396803D01*
X431927Y396025D01*
X431415Y395357D01*
X430747Y394844D01*
X429969Y394522D01*
X429134Y394412D01*
Y394403D01*
X429134Y394403D01*
X397638D01*
X397638Y394403D01*
Y394412D01*
X397638Y394412D01*
X396803Y394522D01*
X396025Y394844D01*
X395357Y395357D01*
X394844Y396025D01*
X394522Y396803D01*
X394412Y397638D01*
X394403D01*
X394403Y397638D01*
Y417320D01*
X394412Y417323D01*
X394412D01*
X394475Y417797D01*
X394522Y418158D01*
X394844Y418936D01*
X395357Y419604D01*
X396025Y420116D01*
X396803Y420439D01*
X397638Y420548D01*
Y420557D01*
X400984D01*
X401221Y420363D01*
Y418701D01*
X402060D01*
Y421260D01*
X403060D01*
Y418701D01*
X403898D01*
Y418898D01*
X406457D01*
X406609Y418398D01*
X406487Y418316D01*
X406182Y417861D01*
X406075Y417323D01*
X406182Y416785D01*
X406487Y416329D01*
X406943Y416025D01*
X407480Y415918D01*
X408018Y416025D01*
X408474Y416329D01*
X408778Y416785D01*
X408885Y417323D01*
X408817Y417666D01*
X408962Y417811D01*
X409114Y418039D01*
X409168Y418308D01*
Y418898D01*
X411700D01*
Y411086D01*
X411417Y410854D01*
X410880Y410747D01*
X410424Y410442D01*
X410119Y409986D01*
X410012Y409449D01*
X410119Y408911D01*
X410424Y408455D01*
X410880Y408151D01*
X411417Y408044D01*
X411955Y408151D01*
X412411Y408455D01*
X412715Y408911D01*
X412822Y409449D01*
X412754Y409792D01*
X412899Y409937D01*
X413051Y410165D01*
X413105Y410434D01*
Y418898D01*
X413668D01*
Y410432D01*
X413722Y410164D01*
X413874Y409936D01*
X414018Y409792D01*
X413949Y409449D01*
X414056Y408911D01*
X414361Y408455D01*
X414817Y408151D01*
X415354Y408044D01*
X415892Y408151D01*
X416348Y408455D01*
X416652Y408911D01*
X416759Y409449D01*
X416652Y409986D01*
X416348Y410442D01*
X415892Y410747D01*
X415354Y410854D01*
X415073Y411085D01*
Y418701D01*
X415839D01*
Y421260D01*
X416839D01*
Y418701D01*
X417015D01*
X417094Y418599D01*
X417237Y418201D01*
X417009Y417861D01*
X416902Y417323D01*
X417009Y416785D01*
X417314Y416329D01*
X417769Y416025D01*
X418307Y415918D01*
X418845Y416025D01*
X419301Y416329D01*
X419605Y416785D01*
X419712Y417323D01*
X419605Y417861D01*
X419301Y418316D01*
X419179Y418398D01*
X419331Y418898D01*
X422875D01*
Y418701D01*
X423713D01*
Y421260D01*
X424713D01*
Y418701D01*
D02*
G37*
D10*
X426851Y417953D02*
D03*
D11*
X402560Y421260D02*
D03*
X404528D02*
D03*
X406497D02*
D03*
X408465D02*
D03*
X410434D02*
D03*
X412402D02*
D03*
X414371D02*
D03*
X416339D02*
D03*
X418308D02*
D03*
X420276D02*
D03*
X422245D02*
D03*
X424213D02*
D03*
D14*
X407480Y417323D02*
X408465Y418308D01*
Y421260D01*
X418307Y417323D02*
X418308Y417323D01*
Y421260D01*
X412402Y410434D02*
Y421260D01*
X411417Y409449D02*
X412402Y410434D01*
X414371Y410432D02*
Y421260D01*
Y410432D02*
X415354Y409449D01*
D16*
X407480Y417323D02*
D03*
X418307D02*
D03*
X410433D02*
D03*
X403543D02*
D03*
X423228D02*
D03*
X411417Y409449D02*
D03*
X415354D02*
D03*
X419291D02*
D03*
Y406496D02*
D03*
Y403543D02*
D03*
M02*
